M48
; DRILL file {KiCad (6.0.9)} date Tue Dec  6 19:39:07 2022
; FORMAT={-:-/ absolute / metric / decimal}
; #@! TF.CreationDate,2022-12-06T19:39:07-05:00
; #@! TF.GenerationSoftware,Kicad,Pcbnew,(6.0.9)
; #@! TF.FileFunction,MixedPlating,1,4
FMAT,2
METRIC
; #@! TA.AperFunction,Plated,PTH,ViaDrill
T1C0.300
; #@! TA.AperFunction,Plated,PTH,ViaDrill
T2C0.400
; #@! TA.AperFunction,Plated,PTH,ComponentDrill
T3C0.600
; #@! TA.AperFunction,Plated,PTH,ComponentDrill
T4C0.850
; #@! TA.AperFunction,Plated,PTH,ComponentDrill
T5C1.000
; #@! TA.AperFunction,Plated,PTH,ComponentDrill
T6C2.200
%
G90
G05
T1
X27.75Y-36.75
X28.75Y-39.5
X30.0Y-40.5
X31.25Y-36.5
X32.25Y-36.0
X32.25Y-37.0
X32.59Y-40.47
X32.59Y-41.571
X32.59Y-42.672
X32.59Y-43.773
X32.59Y-44.874
X32.59Y-45.975
X33.75Y-38.25
X33.769Y-40.47
X33.769Y-45.97
X34.947Y-40.47
X34.947Y-45.97
X35.5Y-39.25
X36.0Y-37.0
X36.126Y-40.47
X36.126Y-45.97
X37.305Y-40.47
X37.305Y-45.975
X39.3Y-36.5
X41.55Y-53.25
X42.75Y-41.25
X43.0Y-42.75
X47.25Y-47.5
X48.0Y-27.5
X48.25Y-32.5
X48.5Y-47.5
X48.75Y-34.25
X49.5Y-36.25
X49.75Y-50.75
X50.0Y-32.5
X50.5Y-38.5
X51.0Y-35.3
X51.25Y-27.25
X51.75Y-31.25
X52.0Y-36.2
X52.0Y-38.55
X52.2Y-52.8
X52.25Y-44.05
X52.25Y-45.95
X52.664Y-58.341
X53.0Y-32.5
X53.0Y-38.55
X53.2Y-44.05
X53.2Y-45.95
X53.45Y-33.3
X53.69Y-40.346
X54.0Y-27.75
X54.38Y-58.64
X54.5Y-31.25
X54.52Y-40.0
X55.12Y-57.9
X56.37Y-59.03
X56.5Y-28.5
X56.6Y-52.8
X57.0Y-38.25
X57.75Y-37.75
X58.0Y-27.75
X59.0Y-38.0
X59.5Y-27.75
X60.0Y-52.0
X61.2Y-29.25
T2
X27.0Y-34.0
X28.0Y-33.0
X28.0Y-51.0
X28.0Y-53.2
X28.0Y-55.4
X28.0Y-57.6
X28.0Y-59.8
X28.0Y-62.0
X29.0Y-50.0
X30.0Y-33.0
X30.0Y-49.0
X30.0Y-51.0
X30.0Y-62.0
X31.0Y-48.0
X32.0Y-33.0
X32.0Y-47.0
X32.0Y-51.0
X32.0Y-62.0
X34.0Y-33.0
X34.0Y-51.0
X34.0Y-62.0
X34.36Y-52.34
X34.36Y-55.69
X34.36Y-59.1
X35.65Y-50.55
X36.0Y-33.0
X36.0Y-62.0
X38.0Y-62.0
X39.05Y-54.2
X40.0Y-62.0
X41.0Y-33.0
X41.5Y-35.05
X42.0Y-62.0
X43.6Y-52.25
X43.6Y-59.35
X44.0Y-62.0
X44.32Y-41.51
X45.0Y-33.0
X45.0Y-35.0
X45.0Y-37.0
X46.0Y-62.0
X46.75Y-55.55
X47.05Y-52.65
X48.99Y-45.31
X50.17Y-52.23
X56.0Y-62.0
X58.0Y-62.0
X59.0Y-61.0
X60.0Y-58.0
X60.0Y-60.0
X61.0Y-34.0
X61.0Y-38.0
X62.0Y-35.0
X62.0Y-37.0
X62.35Y-42.05
X64.0Y-38.0
X64.0Y-40.0
X65.6Y-48.4
X66.0Y-38.0
T4
X65.837Y-40.3
X65.837Y-45.3
T5
X25.0Y-36.095
X25.0Y-38.635
X25.0Y-41.175
X25.0Y-43.715
X25.0Y-46.255
X25.0Y-48.795
X25.0Y-51.335
X25.0Y-53.875
X36.095Y-65.0
X36.125Y-25.0
X38.635Y-65.0
X38.665Y-25.0
X41.175Y-65.0
X41.205Y-25.0
X43.715Y-65.0
X43.745Y-25.0
X46.255Y-65.0
X46.285Y-25.0
X48.795Y-65.0
X48.825Y-25.0
X51.335Y-65.0
X51.365Y-25.0
X53.875Y-65.0
X53.905Y-25.0
X65.0Y-30.25
X65.0Y-32.79
X65.0Y-35.33
T6
X25.0Y-25.0
X25.0Y-65.0
X65.0Y-25.0
X65.0Y-65.0
T3
G00X68.188Y-39.3
M15
G01X68.888Y-39.3
M16
G05
G00X68.888Y-46.3
M15
G01X68.188Y-46.3
M16
G05
T0
M30
