%TF.GenerationSoftware,KiCad,Pcbnew,(6.0.9)*%
%TF.CreationDate,2022-12-01T17:51:06-05:00*%
%TF.ProjectId,cdh-devkit,6364682d-6465-4766-9b69-742e6b696361,rev?*%
%TF.SameCoordinates,Original*%
%TF.FileFunction,Soldermask,Top*%
%TF.FilePolarity,Negative*%
%FSLAX46Y46*%
G04 Gerber Fmt 4.6, Leading zero omitted, Abs format (unit mm)*
G04 Created by KiCad (PCBNEW (6.0.9)) date 2022-12-01 17:51:06*
%MOMM*%
%LPD*%
G01*
G04 APERTURE LIST*
G04 Aperture macros list*
%AMRoundRect*
0 Rectangle with rounded corners*
0 $1 Rounding radius*
0 $2 $3 $4 $5 $6 $7 $8 $9 X,Y pos of 4 corners*
0 Add a 4 corners polygon primitive as box body*
4,1,4,$2,$3,$4,$5,$6,$7,$8,$9,$2,$3,0*
0 Add four circle primitives for the rounded corners*
1,1,$1+$1,$2,$3*
1,1,$1+$1,$4,$5*
1,1,$1+$1,$6,$7*
1,1,$1+$1,$8,$9*
0 Add four rect primitives between the rounded corners*
20,1,$1+$1,$2,$3,$4,$5,0*
20,1,$1+$1,$4,$5,$6,$7,0*
20,1,$1+$1,$6,$7,$8,$9,0*
20,1,$1+$1,$8,$9,$2,$3,0*%
G04 Aperture macros list end*
%ADD10R,1.500000X1.900000*%
%ADD11C,1.450000*%
%ADD12R,1.200000X1.900000*%
%ADD13O,1.200000X1.900000*%
%ADD14R,0.400000X1.350000*%
%ADD15C,4.400000*%
%ADD16R,1.600000X1.000000*%
%ADD17R,1.700000X1.700000*%
%ADD18O,1.700000X1.700000*%
%ADD19RoundRect,0.250000X-0.250000X-0.475000X0.250000X-0.475000X0.250000X0.475000X-0.250000X0.475000X0*%
%ADD20RoundRect,0.200000X0.275000X-0.200000X0.275000X0.200000X-0.275000X0.200000X-0.275000X-0.200000X0*%
%ADD21RoundRect,0.140000X0.140000X0.170000X-0.140000X0.170000X-0.140000X-0.170000X0.140000X-0.170000X0*%
%ADD22RoundRect,0.135000X0.185000X-0.135000X0.185000X0.135000X-0.185000X0.135000X-0.185000X-0.135000X0*%
%ADD23R,1.371600X0.406400*%
%ADD24RoundRect,0.140000X-0.140000X-0.170000X0.140000X-0.170000X0.140000X0.170000X-0.140000X0.170000X0*%
%ADD25RoundRect,0.140000X0.170000X-0.140000X0.170000X0.140000X-0.170000X0.140000X-0.170000X-0.140000X0*%
%ADD26RoundRect,0.225000X-0.225000X-0.250000X0.225000X-0.250000X0.225000X0.250000X-0.225000X0.250000X0*%
%ADD27RoundRect,0.140000X-0.170000X0.140000X-0.170000X-0.140000X0.170000X-0.140000X0.170000X0.140000X0*%
%ADD28R,1.200000X1.400000*%
%ADD29RoundRect,0.075000X-0.700000X-0.075000X0.700000X-0.075000X0.700000X0.075000X-0.700000X0.075000X0*%
%ADD30RoundRect,0.075000X-0.075000X-0.700000X0.075000X-0.700000X0.075000X0.700000X-0.075000X0.700000X0*%
%ADD31RoundRect,0.040600X-0.764400X-0.249400X0.764400X-0.249400X0.764400X0.249400X-0.764400X0.249400X0*%
%ADD32RoundRect,0.218750X-0.256250X0.218750X-0.256250X-0.218750X0.256250X-0.218750X0.256250X0.218750X0*%
%ADD33R,1.800000X1.000000*%
%ADD34RoundRect,0.135000X-0.185000X0.135000X-0.185000X-0.135000X0.185000X-0.135000X0.185000X0.135000X0*%
%ADD35R,1.500000X2.000000*%
%ADD36R,3.800000X2.000000*%
%ADD37RoundRect,0.250000X0.475000X-0.250000X0.475000X0.250000X-0.475000X0.250000X-0.475000X-0.250000X0*%
G04 APERTURE END LIST*
D10*
%TO.C,J4*%
X36500000Y-16452500D03*
D11*
X35000000Y-19152500D03*
D12*
X40400000Y-16452500D03*
D13*
X41000000Y-16452500D03*
D11*
X40000000Y-19152500D03*
D13*
X34000000Y-16452500D03*
D12*
X34600000Y-16452500D03*
D10*
X38500000Y-16452500D03*
D14*
X36200000Y-19152500D03*
X36850000Y-19152500D03*
X37500000Y-19152500D03*
X38150000Y-19152500D03*
X38800000Y-19152500D03*
%TD*%
D15*
%TO.C,H1*%
X19000000Y-19000000D03*
%TD*%
D16*
%TO.C,S1*%
X30200000Y-20900000D03*
X23800000Y-20900000D03*
X30200000Y-17100000D03*
X23800000Y-17100000D03*
%TD*%
D17*
%TO.C,J3*%
X57280262Y-65560000D03*
D18*
X57280262Y-68100000D03*
X57280262Y-70640000D03*
X57280262Y-73180000D03*
X57280262Y-75720000D03*
X57280262Y-78260000D03*
X57280262Y-80800000D03*
X57280262Y-83340000D03*
X57280262Y-85880000D03*
%TD*%
D15*
%TO.C,H2*%
X56000000Y-91000000D03*
%TD*%
%TO.C,H4*%
X19000000Y-91000000D03*
%TD*%
D19*
%TO.C,C2*%
X38800000Y-25000000D03*
X40700000Y-25000000D03*
%TD*%
D20*
%TO.C,R5*%
X30200000Y-71025000D03*
X30200000Y-69375000D03*
%TD*%
D21*
%TO.C,C7*%
X34980000Y-71500000D03*
X34020000Y-71500000D03*
%TD*%
D17*
%TO.C,J1*%
X34975000Y-89250000D03*
D18*
X37515000Y-89250000D03*
X40055000Y-89250000D03*
%TD*%
D22*
%TO.C,R1*%
X51000000Y-17045000D03*
X51000000Y-16025000D03*
%TD*%
D23*
%TO.C,U4*%
X40515600Y-41809400D03*
X40515600Y-42469800D03*
X40515600Y-43130200D03*
X40515600Y-43790600D03*
X44884400Y-43790600D03*
X44884400Y-43130200D03*
X44884400Y-42469800D03*
X44884400Y-41809400D03*
%TD*%
D21*
%TO.C,C9*%
X41480000Y-71500000D03*
X40520000Y-71500000D03*
%TD*%
D17*
%TO.C,J2*%
X57280262Y-24680000D03*
D18*
X57280262Y-27220000D03*
X57280262Y-29760000D03*
X57280262Y-32300000D03*
X57280262Y-34840000D03*
X57280262Y-37380000D03*
X57280262Y-39920000D03*
X57280262Y-42460000D03*
X57280262Y-45000000D03*
X57280262Y-47540000D03*
X57280262Y-50080000D03*
X57280262Y-52620000D03*
X57280262Y-55160000D03*
X57280262Y-57700000D03*
X57280262Y-60240000D03*
%TD*%
D24*
%TO.C,C10*%
X33270000Y-57000000D03*
X34230000Y-57000000D03*
%TD*%
D15*
%TO.C,H3*%
X56000000Y-19000000D03*
%TD*%
D22*
%TO.C,R2*%
X46000000Y-17045000D03*
X46000000Y-16025000D03*
%TD*%
D25*
%TO.C,C8*%
X25925000Y-64780000D03*
X25925000Y-63820000D03*
%TD*%
D26*
%TO.C,C1*%
X32725000Y-55750000D03*
X34275000Y-55750000D03*
%TD*%
D27*
%TO.C,C3*%
X44750000Y-60020000D03*
X44750000Y-60980000D03*
%TD*%
D28*
%TO.C,Y1*%
X22550000Y-61975000D03*
X22550000Y-64175000D03*
X24250000Y-64175000D03*
X24250000Y-61975000D03*
%TD*%
D29*
%TO.C,U2*%
X31825000Y-60500000D03*
X31825000Y-61000000D03*
X31825000Y-61500000D03*
X31825000Y-62000000D03*
X31825000Y-62500000D03*
X31825000Y-63000000D03*
X31825000Y-63500000D03*
X31825000Y-64000000D03*
X31825000Y-64500000D03*
X31825000Y-65000000D03*
X31825000Y-65500000D03*
X31825000Y-66000000D03*
X31825000Y-66500000D03*
X31825000Y-67000000D03*
X31825000Y-67500000D03*
X31825000Y-68000000D03*
D30*
X33750000Y-69925000D03*
X34250000Y-69925000D03*
X34750000Y-69925000D03*
X35250000Y-69925000D03*
X35750000Y-69925000D03*
X36250000Y-69925000D03*
X36750000Y-69925000D03*
X37250000Y-69925000D03*
X37750000Y-69925000D03*
X38250000Y-69925000D03*
X38750000Y-69925000D03*
X39250000Y-69925000D03*
X39750000Y-69925000D03*
X40250000Y-69925000D03*
X40750000Y-69925000D03*
X41250000Y-69925000D03*
D29*
X43175000Y-68000000D03*
X43175000Y-67500000D03*
X43175000Y-67000000D03*
X43175000Y-66500000D03*
X43175000Y-66000000D03*
X43175000Y-65500000D03*
X43175000Y-65000000D03*
X43175000Y-64500000D03*
X43175000Y-64000000D03*
X43175000Y-63500000D03*
X43175000Y-63000000D03*
X43175000Y-62500000D03*
X43175000Y-62000000D03*
X43175000Y-61500000D03*
X43175000Y-61000000D03*
X43175000Y-60500000D03*
D30*
X41250000Y-58575000D03*
X40750000Y-58575000D03*
X40250000Y-58575000D03*
X39750000Y-58575000D03*
X39250000Y-58575000D03*
X38750000Y-58575000D03*
X38250000Y-58575000D03*
X37750000Y-58575000D03*
X37250000Y-58575000D03*
X36750000Y-58575000D03*
X36250000Y-58575000D03*
X35750000Y-58575000D03*
X35250000Y-58575000D03*
X34750000Y-58575000D03*
X34250000Y-58575000D03*
X33750000Y-58575000D03*
%TD*%
D21*
%TO.C,C13*%
X28680000Y-67900000D03*
X27720000Y-67900000D03*
%TD*%
D31*
%TO.C,U3*%
X30395000Y-76095000D03*
X30395000Y-77365000D03*
X30395000Y-78635000D03*
X30395000Y-79905000D03*
X37605000Y-79905000D03*
X37605000Y-78635000D03*
X37605000Y-77365000D03*
X37605000Y-76095000D03*
%TD*%
D32*
%TO.C,D2*%
X51000000Y-18312500D03*
X51000000Y-19887500D03*
%TD*%
D25*
%TO.C,C5*%
X30250000Y-60480000D03*
X30250000Y-59520000D03*
%TD*%
D33*
%TO.C,Y2*%
X37500000Y-40850000D03*
X37500000Y-43350000D03*
%TD*%
D34*
%TO.C,R3*%
X44900000Y-46740000D03*
X44900000Y-47760000D03*
%TD*%
D25*
%TO.C,C12*%
X30250000Y-66730000D03*
X30250000Y-65770000D03*
%TD*%
D21*
%TO.C,C11*%
X23730000Y-23000000D03*
X22770000Y-23000000D03*
%TD*%
D35*
%TO.C,U1*%
X42050000Y-27350000D03*
X39750000Y-27350000D03*
D36*
X39750000Y-33650000D03*
D35*
X37450000Y-27350000D03*
%TD*%
D34*
%TO.C,R4*%
X42600000Y-46750000D03*
X42600000Y-47770000D03*
%TD*%
D32*
%TO.C,D1*%
X46000000Y-18312500D03*
X46000000Y-19887500D03*
%TD*%
D25*
%TO.C,C4*%
X25925000Y-62530000D03*
X25925000Y-61570000D03*
%TD*%
D37*
%TO.C,C6*%
X44500000Y-31450000D03*
X44500000Y-29550000D03*
%TD*%
M02*
