%TF.GenerationSoftware,KiCad,Pcbnew,(6.0.9)*%
%TF.CreationDate,2022-12-01T17:51:06-05:00*%
%TF.ProjectId,cdh-devkit,6364682d-6465-4766-9b69-742e6b696361,rev?*%
%TF.SameCoordinates,Original*%
%TF.FileFunction,Copper,L1,Top*%
%TF.FilePolarity,Positive*%
%FSLAX46Y46*%
G04 Gerber Fmt 4.6, Leading zero omitted, Abs format (unit mm)*
G04 Created by KiCad (PCBNEW (6.0.9)) date 2022-12-01 17:51:06*
%MOMM*%
%LPD*%
G01*
G04 APERTURE LIST*
G04 Aperture macros list*
%AMRoundRect*
0 Rectangle with rounded corners*
0 $1 Rounding radius*
0 $2 $3 $4 $5 $6 $7 $8 $9 X,Y pos of 4 corners*
0 Add a 4 corners polygon primitive as box body*
4,1,4,$2,$3,$4,$5,$6,$7,$8,$9,$2,$3,0*
0 Add four circle primitives for the rounded corners*
1,1,$1+$1,$2,$3*
1,1,$1+$1,$4,$5*
1,1,$1+$1,$6,$7*
1,1,$1+$1,$8,$9*
0 Add four rect primitives between the rounded corners*
20,1,$1+$1,$2,$3,$4,$5,0*
20,1,$1+$1,$4,$5,$6,$7,0*
20,1,$1+$1,$6,$7,$8,$9,0*
20,1,$1+$1,$8,$9,$2,$3,0*%
G04 Aperture macros list end*
%TA.AperFunction,SMDPad,CuDef*%
%ADD10R,1.500000X1.900000*%
%TD*%
%TA.AperFunction,ComponentPad*%
%ADD11C,1.450000*%
%TD*%
%TA.AperFunction,SMDPad,CuDef*%
%ADD12R,1.200000X1.900000*%
%TD*%
%TA.AperFunction,ComponentPad*%
%ADD13O,1.200000X1.900000*%
%TD*%
%TA.AperFunction,SMDPad,CuDef*%
%ADD14R,0.400000X1.350000*%
%TD*%
%TA.AperFunction,ComponentPad*%
%ADD15C,4.400000*%
%TD*%
%TA.AperFunction,SMDPad,CuDef*%
%ADD16R,1.600000X1.000000*%
%TD*%
%TA.AperFunction,ComponentPad*%
%ADD17R,1.700000X1.700000*%
%TD*%
%TA.AperFunction,ComponentPad*%
%ADD18O,1.700000X1.700000*%
%TD*%
%TA.AperFunction,SMDPad,CuDef*%
%ADD19RoundRect,0.250000X-0.250000X-0.475000X0.250000X-0.475000X0.250000X0.475000X-0.250000X0.475000X0*%
%TD*%
%TA.AperFunction,SMDPad,CuDef*%
%ADD20RoundRect,0.200000X0.275000X-0.200000X0.275000X0.200000X-0.275000X0.200000X-0.275000X-0.200000X0*%
%TD*%
%TA.AperFunction,SMDPad,CuDef*%
%ADD21RoundRect,0.140000X0.140000X0.170000X-0.140000X0.170000X-0.140000X-0.170000X0.140000X-0.170000X0*%
%TD*%
%TA.AperFunction,SMDPad,CuDef*%
%ADD22RoundRect,0.135000X0.185000X-0.135000X0.185000X0.135000X-0.185000X0.135000X-0.185000X-0.135000X0*%
%TD*%
%TA.AperFunction,SMDPad,CuDef*%
%ADD23R,1.371600X0.406400*%
%TD*%
%TA.AperFunction,SMDPad,CuDef*%
%ADD24RoundRect,0.140000X-0.140000X-0.170000X0.140000X-0.170000X0.140000X0.170000X-0.140000X0.170000X0*%
%TD*%
%TA.AperFunction,SMDPad,CuDef*%
%ADD25RoundRect,0.140000X0.170000X-0.140000X0.170000X0.140000X-0.170000X0.140000X-0.170000X-0.140000X0*%
%TD*%
%TA.AperFunction,SMDPad,CuDef*%
%ADD26RoundRect,0.225000X-0.225000X-0.250000X0.225000X-0.250000X0.225000X0.250000X-0.225000X0.250000X0*%
%TD*%
%TA.AperFunction,SMDPad,CuDef*%
%ADD27RoundRect,0.140000X-0.170000X0.140000X-0.170000X-0.140000X0.170000X-0.140000X0.170000X0.140000X0*%
%TD*%
%TA.AperFunction,SMDPad,CuDef*%
%ADD28R,1.200000X1.400000*%
%TD*%
%TA.AperFunction,SMDPad,CuDef*%
%ADD29RoundRect,0.075000X-0.700000X-0.075000X0.700000X-0.075000X0.700000X0.075000X-0.700000X0.075000X0*%
%TD*%
%TA.AperFunction,SMDPad,CuDef*%
%ADD30RoundRect,0.075000X-0.075000X-0.700000X0.075000X-0.700000X0.075000X0.700000X-0.075000X0.700000X0*%
%TD*%
%TA.AperFunction,SMDPad,CuDef*%
%ADD31RoundRect,0.040600X-0.764400X-0.249400X0.764400X-0.249400X0.764400X0.249400X-0.764400X0.249400X0*%
%TD*%
%TA.AperFunction,SMDPad,CuDef*%
%ADD32RoundRect,0.218750X-0.256250X0.218750X-0.256250X-0.218750X0.256250X-0.218750X0.256250X0.218750X0*%
%TD*%
%TA.AperFunction,SMDPad,CuDef*%
%ADD33R,1.800000X1.000000*%
%TD*%
%TA.AperFunction,SMDPad,CuDef*%
%ADD34RoundRect,0.135000X-0.185000X0.135000X-0.185000X-0.135000X0.185000X-0.135000X0.185000X0.135000X0*%
%TD*%
%TA.AperFunction,SMDPad,CuDef*%
%ADD35R,1.500000X2.000000*%
%TD*%
%TA.AperFunction,SMDPad,CuDef*%
%ADD36R,3.800000X2.000000*%
%TD*%
%TA.AperFunction,SMDPad,CuDef*%
%ADD37RoundRect,0.250000X0.475000X-0.250000X0.475000X0.250000X-0.475000X0.250000X-0.475000X-0.250000X0*%
%TD*%
%TA.AperFunction,ViaPad*%
%ADD38C,0.700000*%
%TD*%
%TA.AperFunction,ViaPad*%
%ADD39C,0.800000*%
%TD*%
%TA.AperFunction,Conductor*%
%ADD40C,0.500000*%
%TD*%
%TA.AperFunction,Conductor*%
%ADD41C,0.200000*%
%TD*%
%TA.AperFunction,Conductor*%
%ADD42C,0.300000*%
%TD*%
G04 APERTURE END LIST*
D10*
%TO.P,J4,6,Shield*%
%TO.N,GND*%
X36500000Y-16452500D03*
D11*
X35000000Y-19152500D03*
D12*
X40400000Y-16452500D03*
D13*
X41000000Y-16452500D03*
D11*
X40000000Y-19152500D03*
D13*
X34000000Y-16452500D03*
D12*
X34600000Y-16452500D03*
D10*
X38500000Y-16452500D03*
D14*
%TO.P,J4,5,GND*%
X36200000Y-19152500D03*
%TO.P,J4,4,ID*%
%TO.N,unconnected-(J4-Pad4)*%
X36850000Y-19152500D03*
%TO.P,J4,3,D+*%
%TO.N,D+*%
X37500000Y-19152500D03*
%TO.P,J4,2,D-*%
%TO.N,D-*%
X38150000Y-19152500D03*
%TO.P,J4,1,VBUS*%
%TO.N,VBUS*%
X38800000Y-19152500D03*
%TD*%
D15*
%TO.P,H1,1,1*%
%TO.N,GND*%
X19000000Y-19000000D03*
%TD*%
D16*
%TO.P,S1,1*%
%TO.N,Net-(C11-Pad1)*%
X30200000Y-20900000D03*
%TO.P,S1,2*%
X23800000Y-20900000D03*
%TO.P,S1,3*%
%TO.N,GND*%
X30200000Y-17100000D03*
%TO.P,S1,4*%
X23800000Y-17100000D03*
%TD*%
D17*
%TO.P,J3,1,Pin_1*%
%TO.N,+3.3V*%
X57280262Y-65560000D03*
D18*
%TO.P,J3,2,Pin_2*%
%TO.N,GND*%
X57280262Y-68100000D03*
%TO.P,J3,3,Pin_3*%
%TO.N,GPIO_1*%
X57280262Y-70640000D03*
%TO.P,J3,4,Pin_4*%
%TO.N,GPIO_2*%
X57280262Y-73180000D03*
%TO.P,J3,5,Pin_5*%
%TO.N,GPIO_3*%
X57280262Y-75720000D03*
%TO.P,J3,6,Pin_6*%
%TO.N,GPIO_4*%
X57280262Y-78260000D03*
%TO.P,J3,7,Pin_7*%
%TO.N,GPIO_5*%
X57280262Y-80800000D03*
%TO.P,J3,8,Pin_8*%
%TO.N,GND*%
X57280262Y-83340000D03*
%TO.P,J3,9,Pin_9*%
%TO.N,+3.3V*%
X57280262Y-85880000D03*
%TD*%
D15*
%TO.P,H2,1,1*%
%TO.N,GND*%
X56000000Y-91000000D03*
%TD*%
%TO.P,H4,1,1*%
%TO.N,GND*%
X19000000Y-91000000D03*
%TD*%
D19*
%TO.P,C2,1*%
%TO.N,VBUS*%
X38800000Y-25000000D03*
%TO.P,C2,2*%
%TO.N,GND*%
X40700000Y-25000000D03*
%TD*%
D20*
%TO.P,R5,1*%
%TO.N,+3.3V*%
X30200000Y-71025000D03*
%TO.P,R5,2*%
%TO.N,QSPI_NCS*%
X30200000Y-69375000D03*
%TD*%
D21*
%TO.P,C7,1*%
%TO.N,+3.3V*%
X34980000Y-71500000D03*
%TO.P,C7,2*%
%TO.N,GND*%
X34020000Y-71500000D03*
%TD*%
D17*
%TO.P,J1,1,Pin_1*%
%TO.N,GND*%
X34975000Y-89250000D03*
D18*
%TO.P,J1,2,Pin_2*%
%TO.N,SWCLK*%
X37515000Y-89250000D03*
%TO.P,J1,3,Pin_3*%
%TO.N,SWDIO*%
X40055000Y-89250000D03*
%TD*%
D22*
%TO.P,R1,1*%
%TO.N,/USB_LED_K*%
X51000000Y-17045000D03*
%TO.P,R1,2*%
%TO.N,GND*%
X51000000Y-16025000D03*
%TD*%
D23*
%TO.P,U4,1,X1*%
%TO.N,Net-(U4-Pad1)*%
X40515600Y-41809400D03*
%TO.P,U4,2,X2*%
%TO.N,Net-(U4-Pad2)*%
X40515600Y-42469800D03*
%TO.P,U4,3,VBACKUP*%
%TO.N,GND*%
X40515600Y-43130200D03*
%TO.P,U4,4,GND*%
X40515600Y-43790600D03*
%TO.P,U4,5,SDA*%
%TO.N,I2C_SDA*%
X44884400Y-43790600D03*
%TO.P,U4,6,SCL*%
%TO.N,I2C_SCL*%
X44884400Y-43130200D03*
%TO.P,U4,7,SQW/INT#*%
%TO.N,unconnected-(U4-Pad7)*%
X44884400Y-42469800D03*
%TO.P,U4,8,VCC*%
%TO.N,+3.3V*%
X44884400Y-41809400D03*
%TD*%
D21*
%TO.P,C9,1*%
%TO.N,+3.3V*%
X41480000Y-71500000D03*
%TO.P,C9,2*%
%TO.N,GND*%
X40520000Y-71500000D03*
%TD*%
D17*
%TO.P,J2,1,Pin_1*%
%TO.N,+3.3V*%
X57280262Y-24680000D03*
D18*
%TO.P,J2,2,Pin_2*%
%TO.N,UART_TX*%
X57280262Y-27220000D03*
%TO.P,J2,3,Pin_3*%
%TO.N,UART_RX*%
X57280262Y-29760000D03*
%TO.P,J2,4,Pin_4*%
%TO.N,GND*%
X57280262Y-32300000D03*
%TO.P,J2,5,Pin_5*%
%TO.N,CAN_TX*%
X57280262Y-34840000D03*
%TO.P,J2,6,Pin_6*%
%TO.N,CAN_RX*%
X57280262Y-37380000D03*
%TO.P,J2,7,Pin_7*%
%TO.N,GND*%
X57280262Y-39920000D03*
%TO.P,J2,8,Pin_8*%
%TO.N,I2C_SCL*%
X57280262Y-42460000D03*
%TO.P,J2,9,Pin_9*%
%TO.N,I2C_SDA*%
X57280262Y-45000000D03*
%TO.P,J2,10,Pin_10*%
%TO.N,GND*%
X57280262Y-47540000D03*
%TO.P,J2,11,Pin_11*%
%TO.N,SPI_MOSI*%
X57280262Y-50080000D03*
%TO.P,J2,12,Pin_12*%
%TO.N,SPI_MISO*%
X57280262Y-52620000D03*
%TO.P,J2,13,Pin_13*%
%TO.N,SPI_SCK*%
X57280262Y-55160000D03*
%TO.P,J2,14,Pin_14*%
%TO.N,GND*%
X57280262Y-57700000D03*
%TO.P,J2,15,Pin_15*%
%TO.N,+3.3V*%
X57280262Y-60240000D03*
%TD*%
D24*
%TO.P,C10,1*%
%TO.N,+3.3V*%
X33270000Y-57000000D03*
%TO.P,C10,2*%
%TO.N,GND*%
X34230000Y-57000000D03*
%TD*%
D15*
%TO.P,H3,1,1*%
%TO.N,GND*%
X56000000Y-19000000D03*
%TD*%
D22*
%TO.P,R2,1*%
%TO.N,/PWR_LED_K*%
X46000000Y-17045000D03*
%TO.P,R2,2*%
%TO.N,GND*%
X46000000Y-16025000D03*
%TD*%
D25*
%TO.P,C8,1*%
%TO.N,/OSC_OUT*%
X25925000Y-64780000D03*
%TO.P,C8,2*%
%TO.N,GND*%
X25925000Y-63820000D03*
%TD*%
D26*
%TO.P,C1,1*%
%TO.N,+3.3V*%
X32725000Y-55750000D03*
%TO.P,C1,2*%
%TO.N,GND*%
X34275000Y-55750000D03*
%TD*%
D27*
%TO.P,C3,1*%
%TO.N,+3.3V*%
X44750000Y-60020000D03*
%TO.P,C3,2*%
%TO.N,GND*%
X44750000Y-60980000D03*
%TD*%
D28*
%TO.P,Y1,1,1*%
%TO.N,/OSC_IN*%
X22550000Y-61975000D03*
%TO.P,Y1,2,2*%
%TO.N,GND*%
X22550000Y-64175000D03*
%TO.P,Y1,3,3*%
%TO.N,/OSC_OUT*%
X24250000Y-64175000D03*
%TO.P,Y1,4,4*%
%TO.N,GND*%
X24250000Y-61975000D03*
%TD*%
D29*
%TO.P,U2,1,VBAT*%
%TO.N,+3.3V*%
X31825000Y-60500000D03*
%TO.P,U2,2,PC13*%
%TO.N,unconnected-(U2-Pad2)*%
X31825000Y-61000000D03*
%TO.P,U2,3,PC14*%
%TO.N,unconnected-(U2-Pad3)*%
X31825000Y-61500000D03*
%TO.P,U2,4,PC15*%
%TO.N,unconnected-(U2-Pad4)*%
X31825000Y-62000000D03*
%TO.P,U2,5,PH0*%
%TO.N,/OSC_IN*%
X31825000Y-62500000D03*
%TO.P,U2,6,PH1*%
%TO.N,/OSC_OUT*%
X31825000Y-63000000D03*
%TO.P,U2,7,NRST*%
%TO.N,Net-(C11-Pad1)*%
X31825000Y-63500000D03*
%TO.P,U2,8,PC0*%
%TO.N,unconnected-(U2-Pad8)*%
X31825000Y-64000000D03*
%TO.P,U2,9,PC1*%
%TO.N,unconnected-(U2-Pad9)*%
X31825000Y-64500000D03*
%TO.P,U2,10,PC2*%
%TO.N,unconnected-(U2-Pad10)*%
X31825000Y-65000000D03*
%TO.P,U2,11,PC3*%
%TO.N,unconnected-(U2-Pad11)*%
X31825000Y-65500000D03*
%TO.P,U2,12,VSSA*%
%TO.N,GND*%
X31825000Y-66000000D03*
%TO.P,U2,13,VDDA*%
%TO.N,+3.3V*%
X31825000Y-66500000D03*
%TO.P,U2,14,PA0*%
%TO.N,unconnected-(U2-Pad14)*%
X31825000Y-67000000D03*
%TO.P,U2,15,PA1*%
%TO.N,unconnected-(U2-Pad15)*%
X31825000Y-67500000D03*
%TO.P,U2,16,PA2*%
%TO.N,QSPI_NCS*%
X31825000Y-68000000D03*
D30*
%TO.P,U2,17,PA3*%
%TO.N,QSPI_CLK*%
X33750000Y-69925000D03*
%TO.P,U2,18,VSS*%
%TO.N,GND*%
X34250000Y-69925000D03*
%TO.P,U2,19,VDD*%
%TO.N,+3.3V*%
X34750000Y-69925000D03*
%TO.P,U2,20,PA4*%
%TO.N,unconnected-(U2-Pad20)*%
X35250000Y-69925000D03*
%TO.P,U2,21,PA5*%
%TO.N,unconnected-(U2-Pad21)*%
X35750000Y-69925000D03*
%TO.P,U2,22,PA6*%
%TO.N,QSPI_IO_2*%
X36250000Y-69925000D03*
%TO.P,U2,23,PA7*%
%TO.N,QSPI_IO_3*%
X36750000Y-69925000D03*
%TO.P,U2,24,PC4*%
%TO.N,unconnected-(U2-Pad24)*%
X37250000Y-69925000D03*
%TO.P,U2,25,PC5*%
%TO.N,unconnected-(U2-Pad25)*%
X37750000Y-69925000D03*
%TO.P,U2,26,PB0*%
%TO.N,QSPI_IO_0*%
X38250000Y-69925000D03*
%TO.P,U2,27,PB1*%
%TO.N,QSPI_IO_1*%
X38750000Y-69925000D03*
%TO.P,U2,28,PB2*%
%TO.N,unconnected-(U2-Pad28)*%
X39250000Y-69925000D03*
%TO.P,U2,29,PB10*%
%TO.N,I2C_SCL*%
X39750000Y-69925000D03*
%TO.P,U2,30,PB11*%
%TO.N,I2C_SDA*%
X40250000Y-69925000D03*
%TO.P,U2,31,VSS*%
%TO.N,GND*%
X40750000Y-69925000D03*
%TO.P,U2,32,VDD*%
%TO.N,+3.3V*%
X41250000Y-69925000D03*
D29*
%TO.P,U2,33,PB12*%
%TO.N,GPIO_5*%
X43175000Y-68000000D03*
%TO.P,U2,34,PB13*%
%TO.N,GPIO_4*%
X43175000Y-67500000D03*
%TO.P,U2,35,PB14*%
%TO.N,GPIO_3*%
X43175000Y-67000000D03*
%TO.P,U2,36,PB15*%
%TO.N,GPIO_2*%
X43175000Y-66500000D03*
%TO.P,U2,37,PC6*%
%TO.N,GPIO_1*%
X43175000Y-66000000D03*
%TO.P,U2,38,PC7*%
%TO.N,unconnected-(U2-Pad38)*%
X43175000Y-65500000D03*
%TO.P,U2,39,PC8*%
%TO.N,unconnected-(U2-Pad39)*%
X43175000Y-65000000D03*
%TO.P,U2,40,PC9*%
%TO.N,/USB_NOE*%
X43175000Y-64500000D03*
%TO.P,U2,41,PA8*%
%TO.N,unconnected-(U2-Pad41)*%
X43175000Y-64000000D03*
%TO.P,U2,42,PA9*%
%TO.N,UART_TX*%
X43175000Y-63500000D03*
%TO.P,U2,43,PA10*%
%TO.N,UART_RX*%
X43175000Y-63000000D03*
%TO.P,U2,44,PA11*%
%TO.N,D-*%
X43175000Y-62500000D03*
%TO.P,U2,45,PA12*%
%TO.N,D+*%
X43175000Y-62000000D03*
%TO.P,U2,46,PA13*%
%TO.N,SWDIO*%
X43175000Y-61500000D03*
%TO.P,U2,47,VSS*%
%TO.N,GND*%
X43175000Y-61000000D03*
%TO.P,U2,48,VDDUSB*%
%TO.N,+3.3V*%
X43175000Y-60500000D03*
D30*
%TO.P,U2,49,PA14*%
%TO.N,SWCLK*%
X41250000Y-58575000D03*
%TO.P,U2,50,PA15*%
%TO.N,unconnected-(U2-Pad50)*%
X40750000Y-58575000D03*
%TO.P,U2,51,PC10*%
%TO.N,SPI_SCK*%
X40250000Y-58575000D03*
%TO.P,U2,52,PC11*%
%TO.N,SPI_MISO*%
X39750000Y-58575000D03*
%TO.P,U2,53,PC12*%
%TO.N,SPI_MOSI*%
X39250000Y-58575000D03*
%TO.P,U2,54,PD2*%
%TO.N,unconnected-(U2-Pad54)*%
X38750000Y-58575000D03*
%TO.P,U2,55,PB3*%
%TO.N,unconnected-(U2-Pad55)*%
X38250000Y-58575000D03*
%TO.P,U2,56,PB4*%
%TO.N,unconnected-(U2-Pad56)*%
X37750000Y-58575000D03*
%TO.P,U2,57,PB5*%
%TO.N,unconnected-(U2-Pad57)*%
X37250000Y-58575000D03*
%TO.P,U2,58,PB6*%
%TO.N,unconnected-(U2-Pad58)*%
X36750000Y-58575000D03*
%TO.P,U2,59,PB7*%
%TO.N,unconnected-(U2-Pad59)*%
X36250000Y-58575000D03*
%TO.P,U2,60,PH3*%
%TO.N,unconnected-(U2-Pad60)*%
X35750000Y-58575000D03*
%TO.P,U2,61,PB8*%
%TO.N,CAN_RX*%
X35250000Y-58575000D03*
%TO.P,U2,62,PB9*%
%TO.N,CAN_TX*%
X34750000Y-58575000D03*
%TO.P,U2,63,VSS*%
%TO.N,GND*%
X34250000Y-58575000D03*
%TO.P,U2,64,VDD*%
%TO.N,+3.3V*%
X33750000Y-58575000D03*
%TD*%
D21*
%TO.P,C13,1*%
%TO.N,+3.3V*%
X28680000Y-67900000D03*
%TO.P,C13,2*%
%TO.N,GND*%
X27720000Y-67900000D03*
%TD*%
D31*
%TO.P,U3,1,CS#*%
%TO.N,QSPI_NCS*%
X30395000Y-76095000D03*
%TO.P,U3,2,SIO1*%
%TO.N,QSPI_IO_1*%
X30395000Y-77365000D03*
%TO.P,U3,3,SIO2*%
%TO.N,QSPI_IO_2*%
X30395000Y-78635000D03*
%TO.P,U3,4,GND*%
%TO.N,GND*%
X30395000Y-79905000D03*
%TO.P,U3,5,SIO0*%
%TO.N,QSPI_IO_0*%
X37605000Y-79905000D03*
%TO.P,U3,6,SCLK*%
%TO.N,QSPI_CLK*%
X37605000Y-78635000D03*
%TO.P,U3,7,SIO3*%
%TO.N,QSPI_IO_3*%
X37605000Y-77365000D03*
%TO.P,U3,8,VCC*%
%TO.N,+3.3V*%
X37605000Y-76095000D03*
%TD*%
D32*
%TO.P,D2,1,K*%
%TO.N,/USB_LED_K*%
X51000000Y-18312500D03*
%TO.P,D2,2,A*%
%TO.N,/USB_NOE*%
X51000000Y-19887500D03*
%TD*%
D25*
%TO.P,C5,1*%
%TO.N,+3.3V*%
X30250000Y-60480000D03*
%TO.P,C5,2*%
%TO.N,GND*%
X30250000Y-59520000D03*
%TD*%
D33*
%TO.P,Y2,1*%
%TO.N,Net-(U4-Pad1)*%
X37500000Y-40850000D03*
%TO.P,Y2,2*%
%TO.N,Net-(U4-Pad2)*%
X37500000Y-43350000D03*
%TD*%
D34*
%TO.P,R3,1*%
%TO.N,I2C_SDA*%
X44900000Y-46740000D03*
%TO.P,R3,2*%
%TO.N,+3.3V*%
X44900000Y-47760000D03*
%TD*%
D25*
%TO.P,C12,1*%
%TO.N,+3.3V*%
X30250000Y-66730000D03*
%TO.P,C12,2*%
%TO.N,GND*%
X30250000Y-65770000D03*
%TD*%
D21*
%TO.P,C11,1*%
%TO.N,Net-(C11-Pad1)*%
X23730000Y-23000000D03*
%TO.P,C11,2*%
%TO.N,GND*%
X22770000Y-23000000D03*
%TD*%
D35*
%TO.P,U1,1,GND*%
%TO.N,GND*%
X42050000Y-27350000D03*
%TO.P,U1,2,VO*%
%TO.N,+3.3V*%
X39750000Y-27350000D03*
D36*
X39750000Y-33650000D03*
D35*
%TO.P,U1,3,VI*%
%TO.N,VBUS*%
X37450000Y-27350000D03*
%TD*%
D34*
%TO.P,R4,1*%
%TO.N,I2C_SCL*%
X42600000Y-46750000D03*
%TO.P,R4,2*%
%TO.N,+3.3V*%
X42600000Y-47770000D03*
%TD*%
D32*
%TO.P,D1,1,K*%
%TO.N,/PWR_LED_K*%
X46000000Y-18312500D03*
%TO.P,D1,2,A*%
%TO.N,+3.3V*%
X46000000Y-19887500D03*
%TD*%
D25*
%TO.P,C4,1*%
%TO.N,/OSC_IN*%
X25925000Y-62530000D03*
%TO.P,C4,2*%
%TO.N,GND*%
X25925000Y-61570000D03*
%TD*%
D37*
%TO.P,C6,1*%
%TO.N,+3.3V*%
X44500000Y-31450000D03*
%TO.P,C6,2*%
%TO.N,GND*%
X44500000Y-29550000D03*
%TD*%
D38*
%TO.N,GND*%
X47655378Y-30644622D03*
X45900000Y-29600000D03*
X42500000Y-29000000D03*
X41600000Y-29000000D03*
X30925497Y-35000000D03*
X33874503Y-35000000D03*
D39*
%TO.N,D+*%
X47375000Y-60400000D03*
%TO.N,D-*%
X48425000Y-60400000D03*
%TO.N,D+*%
X31875000Y-35000000D03*
%TO.N,D-*%
X32925000Y-35000000D03*
D38*
%TO.N,+3.3V*%
X28400000Y-57800000D03*
X28800000Y-69400000D03*
X28800000Y-73200000D03*
X30200000Y-61400000D03*
X30200000Y-73800000D03*
X35100000Y-72600000D03*
X40400000Y-73100000D03*
X30900000Y-55800000D03*
X37500000Y-74400000D03*
X44900000Y-39900000D03*
X33800000Y-73100000D03*
X44900000Y-36300000D03*
%TO.N,GND*%
X32600000Y-79900000D03*
X41250000Y-68250000D03*
X39600500Y-46788661D03*
X41500000Y-45600000D03*
X28900000Y-63200000D03*
X34250000Y-60250000D03*
X49899503Y-23000000D03*
X33750000Y-66000000D03*
X31500000Y-59500000D03*
X39250000Y-67000000D03*
X41400000Y-60900000D03*
X43750000Y-45600000D03*
X47750000Y-26350497D03*
X50600000Y-64500000D03*
X49227521Y-62267798D03*
X35000000Y-68500000D03*
X49241849Y-60884059D03*
X46425497Y-60400000D03*
X40750000Y-23500000D03*
%TO.N,UART_TX*%
X49750000Y-64000000D03*
X47750000Y-27250000D03*
%TO.N,UART_RX*%
X47750000Y-29750000D03*
X49750000Y-63000000D03*
%TO.N,I2C_SDA*%
X40250000Y-67750000D03*
X43750000Y-46750000D03*
%TO.N,I2C_SCL*%
X41500000Y-46750000D03*
X39250000Y-68250000D03*
%TO.N,SWDIO*%
X41300000Y-62000000D03*
%TO.N,SWCLK*%
X40500000Y-60250000D03*
%TO.N,/USB_NOE*%
X49750000Y-65000000D03*
X49000000Y-23000000D03*
%TD*%
D40*
%TO.N,+3.3V*%
X57280262Y-65560000D02*
X57610000Y-65560000D01*
X57610000Y-65560000D02*
X58900000Y-66850000D01*
X58900000Y-66850000D02*
X58900000Y-84260262D01*
X58900000Y-84260262D02*
X57280262Y-85880000D01*
X58900000Y-24860000D02*
X58720000Y-24680000D01*
X58720000Y-24680000D02*
X57280262Y-24680000D01*
X58900000Y-24860000D02*
X58900000Y-59600000D01*
X58900000Y-59600000D02*
X58260000Y-60240000D01*
X58260000Y-60240000D02*
X57280262Y-60240000D01*
X57280262Y-60240000D02*
X56320262Y-61200000D01*
X56320262Y-61200000D02*
X51300000Y-61200000D01*
X51300000Y-61200000D02*
X49100000Y-59000000D01*
X49100000Y-59000000D02*
X45770000Y-59000000D01*
X45770000Y-59000000D02*
X44750000Y-60020000D01*
X44500000Y-31450000D02*
X45800000Y-31450000D01*
X45800000Y-31450000D02*
X46800000Y-30450000D01*
X46800000Y-30450000D02*
X46800000Y-20687500D01*
X46800000Y-20687500D02*
X46000000Y-19887500D01*
%TO.N,GND*%
X46425497Y-60400000D02*
X45845497Y-60980000D01*
X45845497Y-60980000D02*
X44750000Y-60980000D01*
D41*
%TO.N,D+*%
X47375000Y-60400000D02*
X47375000Y-60813603D01*
X47375000Y-60813603D02*
X46163604Y-62024999D01*
X46163604Y-62024999D02*
X43199999Y-62024999D01*
%TO.N,D-*%
X48425000Y-60400000D02*
X46349999Y-62475001D01*
X46349999Y-62475001D02*
X43199999Y-62475001D01*
X43199999Y-62475001D02*
X43175000Y-62500000D01*
X38050000Y-20368200D02*
X32625001Y-25793199D01*
X38050000Y-19727500D02*
X38050000Y-20368200D01*
X32625001Y-25793199D02*
X32625001Y-34700001D01*
X38150000Y-19152500D02*
X38150000Y-19627500D01*
X38150000Y-19627500D02*
X38050000Y-19727500D01*
%TO.N,D+*%
X32174999Y-34700001D02*
X31875000Y-35000000D01*
X37600000Y-19727500D02*
X37600000Y-20181800D01*
X37600000Y-20181800D02*
X32174999Y-25606801D01*
X37500000Y-19627500D02*
X37600000Y-19727500D01*
X37500000Y-19152500D02*
X37500000Y-19627500D01*
X32174999Y-25606801D02*
X32174999Y-34700001D01*
%TO.N,D-*%
X32625001Y-34700001D02*
X32925000Y-35000000D01*
D42*
%TO.N,GND*%
X36200000Y-19152500D02*
X36200000Y-16752500D01*
X36200000Y-16752500D02*
X36500000Y-16452500D01*
%TO.N,QSPI_IO_0*%
X39250000Y-80000000D02*
X37700000Y-80000000D01*
X38250000Y-74000000D02*
X39250000Y-75000000D01*
X37700000Y-80000000D02*
X37605000Y-79905000D01*
X39250000Y-75000000D02*
X39250000Y-80000000D01*
X38250000Y-69925000D02*
X38250000Y-74000000D01*
D40*
%TO.N,GND*%
X34600000Y-16452500D02*
X34000000Y-16452500D01*
X34600000Y-16452500D02*
X40400000Y-16452500D01*
%TO.N,VBUS*%
X38800000Y-19152500D02*
X38800000Y-25000000D01*
%TO.N,+3.3V*%
X44884400Y-41809400D02*
X47190600Y-41809400D01*
X47000000Y-40000000D02*
X45000000Y-40000000D01*
X45000000Y-40000000D02*
X44900000Y-39900000D01*
X47190600Y-41809400D02*
X48000000Y-41000000D01*
X48000000Y-41000000D02*
X47000000Y-40000000D01*
%TO.N,VBUS*%
X37250000Y-27150000D02*
X37250000Y-25687500D01*
X37450000Y-27350000D02*
X37250000Y-27150000D01*
X37250000Y-25687500D02*
X37937500Y-25000000D01*
X37937500Y-25000000D02*
X38800000Y-25000000D01*
%TO.N,+3.3V*%
X42400000Y-36300000D02*
X39750000Y-33650000D01*
D42*
X22851472Y-57800000D02*
X28400000Y-57800000D01*
D40*
X44500000Y-32600000D02*
X44500000Y-31450000D01*
D42*
X30200000Y-73800000D02*
X30200000Y-71025000D01*
D40*
X44150000Y-73400000D02*
X42250000Y-71500000D01*
D42*
X30900000Y-66500000D02*
X30670000Y-66730000D01*
D40*
X29080000Y-67900000D02*
X30250000Y-66730000D01*
D42*
X34980000Y-71130000D02*
X34980000Y-71500000D01*
X33750000Y-58575000D02*
X33750000Y-57750000D01*
X35100000Y-72600000D02*
X34300000Y-72600000D01*
X31825000Y-60500000D02*
X30270000Y-60500000D01*
D40*
X41900000Y-43300000D02*
X41900000Y-43968629D01*
X49000000Y-25700000D02*
X56260262Y-25700000D01*
X28680000Y-67900000D02*
X29080000Y-67900000D01*
D42*
X30200000Y-61400000D02*
X30200000Y-60530000D01*
X30670000Y-66730000D02*
X30250000Y-66730000D01*
D40*
X47900000Y-21787500D02*
X47900000Y-24600000D01*
X44900000Y-36300000D02*
X42400000Y-36300000D01*
D42*
X43175000Y-60500000D02*
X43175000Y-60325000D01*
X33750000Y-57750000D02*
X33270000Y-57270000D01*
X41250000Y-70750000D02*
X41500000Y-71000000D01*
X28800000Y-69400000D02*
X25551472Y-69400000D01*
D40*
X39750000Y-27350000D02*
X39750000Y-33650000D01*
D42*
X35100000Y-71620000D02*
X34980000Y-71500000D01*
X41500000Y-71000000D02*
X41500000Y-71480000D01*
X33270000Y-57270000D02*
X33270000Y-57000000D01*
X43175000Y-60325000D02*
X43500000Y-60000000D01*
X37500000Y-75990000D02*
X37605000Y-76095000D01*
D40*
X32725000Y-55750000D02*
X32725000Y-56455000D01*
X56260262Y-25700000D02*
X57280262Y-24680000D01*
X40400000Y-45468629D02*
X40400000Y-47200000D01*
X42250000Y-71500000D02*
X41480000Y-71500000D01*
D42*
X41250000Y-69925000D02*
X41250000Y-70750000D01*
X30200000Y-60530000D02*
X30250000Y-60480000D01*
X34300000Y-72600000D02*
X33800000Y-73100000D01*
D40*
X42600000Y-47770000D02*
X44890000Y-47770000D01*
X47000000Y-87100000D02*
X44150000Y-84250000D01*
D42*
X28800000Y-69400000D02*
X28800000Y-68020000D01*
D40*
X32725000Y-56455000D02*
X33270000Y-57000000D01*
D42*
X41480000Y-72020000D02*
X40400000Y-73100000D01*
X30200000Y-73800000D02*
X29400000Y-73800000D01*
X41500000Y-71480000D02*
X41480000Y-71500000D01*
D40*
X57280262Y-65560000D02*
X57810000Y-65560000D01*
X46000000Y-19887500D02*
X47900000Y-21787500D01*
X44884400Y-41809400D02*
X43390600Y-41809400D01*
X56060262Y-87100000D02*
X47000000Y-87100000D01*
D42*
X34750000Y-70900000D02*
X34980000Y-71130000D01*
X31825000Y-66500000D02*
X30900000Y-66500000D01*
X29400000Y-73800000D02*
X28800000Y-73200000D01*
X30900000Y-55800000D02*
X32675000Y-55800000D01*
D40*
X40970000Y-47770000D02*
X42600000Y-47770000D01*
D42*
X20400000Y-64248528D02*
X20400000Y-60251472D01*
D40*
X40400000Y-47200000D02*
X40970000Y-47770000D01*
D42*
X34750000Y-69925000D02*
X34750000Y-70900000D01*
X20400000Y-60251472D02*
X22851472Y-57800000D01*
D40*
X57280262Y-65560000D02*
X57280262Y-60240000D01*
X57280262Y-85880000D02*
X56060262Y-87100000D01*
X39750000Y-33650000D02*
X43450000Y-33650000D01*
X47900000Y-24600000D02*
X49000000Y-25700000D01*
X44150000Y-84250000D02*
X44150000Y-73400000D01*
D42*
X35100000Y-72600000D02*
X35100000Y-71620000D01*
X30270000Y-60500000D02*
X30250000Y-60480000D01*
X37500000Y-74400000D02*
X37500000Y-75990000D01*
X32675000Y-55800000D02*
X32725000Y-55750000D01*
X28800000Y-68020000D02*
X28680000Y-67900000D01*
D40*
X43390600Y-41809400D02*
X41900000Y-43300000D01*
X41900000Y-43968629D02*
X40400000Y-45468629D01*
D42*
X41480000Y-71500000D02*
X41480000Y-72020000D01*
D40*
X43450000Y-33650000D02*
X44500000Y-32600000D01*
D42*
X43500000Y-60000000D02*
X44730000Y-60000000D01*
X25551472Y-69400000D02*
X20400000Y-64248528D01*
X44730000Y-60000000D02*
X44750000Y-60020000D01*
D40*
%TO.N,GND*%
X19000000Y-19000000D02*
X20900000Y-17100000D01*
X34275000Y-55750000D02*
X34275000Y-56955000D01*
X28900000Y-63200000D02*
X26545000Y-63200000D01*
D42*
X30900000Y-66000000D02*
X30670000Y-65770000D01*
D40*
X30250000Y-59520000D02*
X27975000Y-59520000D01*
X42250000Y-27150000D02*
X42050000Y-27350000D01*
X27975000Y-59520000D02*
X25925000Y-61570000D01*
X23500000Y-60250000D02*
X21250000Y-60250000D01*
D42*
X34250000Y-57020000D02*
X34230000Y-57000000D01*
X35000000Y-68500000D02*
X34798959Y-68500000D01*
X44730000Y-61000000D02*
X44750000Y-60980000D01*
D40*
X30400000Y-79900000D02*
X30395000Y-79905000D01*
X19000000Y-91000000D02*
X20750000Y-89250000D01*
D42*
X34798959Y-68500000D02*
X34250000Y-69048959D01*
D40*
X29630000Y-65770000D02*
X30250000Y-65770000D01*
X21000000Y-64000000D02*
X21175000Y-64175000D01*
X27720000Y-67680000D02*
X29630000Y-65770000D01*
D42*
X31825000Y-66000000D02*
X30900000Y-66000000D01*
D40*
X19000000Y-20500000D02*
X21500000Y-23000000D01*
D42*
X40750000Y-70900000D02*
X40520000Y-71130000D01*
X34250000Y-69925000D02*
X34250000Y-70900000D01*
D40*
X23800000Y-17100000D02*
X30200000Y-17100000D01*
X32600000Y-79900000D02*
X30400000Y-79900000D01*
D42*
X43175000Y-61000000D02*
X44730000Y-61000000D01*
D40*
X19000000Y-19000000D02*
X19000000Y-20500000D01*
D42*
X33750000Y-66000000D02*
X31825000Y-66000000D01*
X34250000Y-69048959D02*
X34250000Y-69500000D01*
X34020000Y-71130000D02*
X34020000Y-71500000D01*
D40*
X24655000Y-61570000D02*
X24250000Y-61975000D01*
X21500000Y-23000000D02*
X22770000Y-23000000D01*
X53025000Y-16025000D02*
X56000000Y-19000000D01*
X21250000Y-60250000D02*
X21000000Y-60500000D01*
X40515600Y-43790600D02*
X40515600Y-43130200D01*
X24250000Y-61975000D02*
X24250000Y-61000000D01*
X21000000Y-60500000D02*
X21000000Y-64000000D01*
X40750000Y-24950000D02*
X40700000Y-25000000D01*
X25925000Y-61570000D02*
X24655000Y-61570000D01*
X46000000Y-16025000D02*
X51000000Y-16025000D01*
D42*
X41250000Y-68250000D02*
X40750000Y-68750000D01*
D40*
X39600500Y-44705700D02*
X40515600Y-43790600D01*
X20900000Y-17100000D02*
X23800000Y-17100000D01*
X21175000Y-64175000D02*
X22550000Y-64175000D01*
D42*
X40750000Y-69925000D02*
X40750000Y-70900000D01*
X34250000Y-70900000D02*
X34020000Y-71130000D01*
X30670000Y-65770000D02*
X30250000Y-65770000D01*
D40*
X20750000Y-89250000D02*
X34975000Y-89250000D01*
D42*
X34250000Y-60250000D02*
X34250000Y-58575000D01*
X40520000Y-71130000D02*
X40520000Y-71500000D01*
D40*
X34275000Y-56955000D02*
X34230000Y-57000000D01*
X24250000Y-61000000D02*
X23500000Y-60250000D01*
X51000000Y-16025000D02*
X53025000Y-16025000D01*
D42*
X40750000Y-68750000D02*
X40750000Y-69925000D01*
D40*
X27720000Y-67900000D02*
X27720000Y-67680000D01*
X30270000Y-59500000D02*
X30250000Y-59520000D01*
X26545000Y-63200000D02*
X25925000Y-63820000D01*
X39600500Y-46788661D02*
X39600500Y-44705700D01*
X31500000Y-59500000D02*
X30270000Y-59500000D01*
D42*
X34250000Y-58575000D02*
X34250000Y-57020000D01*
%TO.N,Net-(C11-Pad1)*%
X23730000Y-20970000D02*
X23800000Y-20900000D01*
X23730000Y-23000000D02*
X23730000Y-20970000D01*
X29500000Y-28770000D02*
X29500000Y-57750000D01*
X33250000Y-63050000D02*
X32800000Y-63500000D01*
X32800000Y-63500000D02*
X31825000Y-63500000D01*
X30000000Y-58250000D02*
X32000000Y-58250000D01*
X23730000Y-23000000D02*
X29500000Y-28770000D01*
X32000000Y-58250000D02*
X33250000Y-59500000D01*
X23800000Y-20900000D02*
X30200000Y-20900000D01*
X29500000Y-57750000D02*
X30000000Y-58250000D01*
X33250000Y-59500000D02*
X33250000Y-63050000D01*
%TO.N,/PWR_LED_K*%
X46000000Y-18312500D02*
X46000000Y-17045000D01*
%TO.N,/USB_LED_K*%
X51000000Y-18312500D02*
X51000000Y-17045000D01*
%TO.N,UART_TX*%
X44051041Y-63500000D02*
X44301041Y-63750000D01*
X48800000Y-28300000D02*
X56200262Y-28300000D01*
X44301041Y-63750000D02*
X49500000Y-63750000D01*
X56200262Y-28300000D02*
X57280262Y-27220000D01*
X47750000Y-27250000D02*
X48800000Y-28300000D01*
X49500000Y-63750000D02*
X49750000Y-64000000D01*
X43175000Y-63500000D02*
X44051041Y-63500000D01*
%TO.N,UART_RX*%
X56240262Y-30800000D02*
X57280262Y-29760000D01*
X47750000Y-29750000D02*
X48800000Y-30800000D01*
X43175000Y-63000000D02*
X49750000Y-63000000D01*
X48800000Y-30800000D02*
X56240262Y-30800000D01*
%TO.N,CAN_TX*%
X56320262Y-35800000D02*
X57280262Y-34840000D01*
X32900000Y-51700000D02*
X32900000Y-39100000D01*
X46900000Y-37900000D02*
X49000000Y-35800000D01*
X32900000Y-39100000D02*
X34100000Y-37900000D01*
X49000000Y-35800000D02*
X56320262Y-35800000D01*
X34100000Y-37900000D02*
X46900000Y-37900000D01*
X35600000Y-56632965D02*
X35600000Y-54400000D01*
X34750000Y-58575000D02*
X34750000Y-57482965D01*
X35600000Y-54400000D02*
X32900000Y-51700000D01*
X34750000Y-57482965D02*
X35600000Y-56632965D01*
%TO.N,CAN_RX*%
X35250000Y-57690072D02*
X36100000Y-56840071D01*
X36100000Y-56840071D02*
X36100000Y-54192894D01*
X33403553Y-51496447D02*
X33403553Y-39303553D01*
X35250000Y-58575000D02*
X35250000Y-57690072D01*
X56260262Y-38400000D02*
X57280262Y-37380000D01*
X33403553Y-39303553D02*
X34307106Y-38400000D01*
X34307106Y-38400000D02*
X56260262Y-38400000D01*
X36100000Y-54192894D02*
X33403553Y-51496447D01*
%TO.N,SPI_SCK*%
X40250000Y-58575000D02*
X40250000Y-57550000D01*
X40250000Y-57550000D02*
X41800000Y-56000000D01*
X56440262Y-56000000D02*
X57280262Y-55160000D01*
X41800000Y-56000000D02*
X56440262Y-56000000D01*
%TO.N,SPI_MISO*%
X39750000Y-57342893D02*
X43642893Y-53450000D01*
X43642893Y-53450000D02*
X56450262Y-53450000D01*
X39750000Y-58575000D02*
X39750000Y-57342893D01*
X56450262Y-53450000D02*
X57280262Y-52620000D01*
%TO.N,SPI_MOSI*%
X45485787Y-50900000D02*
X56460262Y-50900000D01*
X39250000Y-57135787D02*
X45485787Y-50900000D01*
X39250000Y-58575000D02*
X39250000Y-57135787D01*
X56460262Y-50900000D02*
X57280262Y-50080000D01*
%TO.N,I2C_SDA*%
X56380262Y-45900000D02*
X57280262Y-45000000D01*
X43750000Y-46750000D02*
X44890000Y-46750000D01*
X44900000Y-46740000D02*
X44900000Y-43806200D01*
X46590600Y-43790600D02*
X48700000Y-45900000D01*
X44890000Y-46750000D02*
X44900000Y-46740000D01*
X44884400Y-43790600D02*
X46590600Y-43790600D01*
X48700000Y-45900000D02*
X56380262Y-45900000D01*
X44900000Y-43806200D02*
X44884400Y-43790600D01*
X40250000Y-67750000D02*
X40250000Y-69925000D01*
%TO.N,I2C_SCL*%
X39250000Y-68250000D02*
X39750000Y-68750000D01*
X48769800Y-43400000D02*
X56340262Y-43400000D01*
X44884400Y-43130200D02*
X48500000Y-43130200D01*
X48500000Y-43130200D02*
X48769800Y-43400000D01*
X43269800Y-43130200D02*
X44884400Y-43130200D01*
X39750000Y-68750000D02*
X39750000Y-69925000D01*
X41500000Y-46750000D02*
X42600000Y-46750000D01*
X42600000Y-43800000D02*
X42600000Y-46750000D01*
X42600000Y-43800000D02*
X43269800Y-43130200D01*
X56340262Y-43400000D02*
X57280262Y-42460000D01*
%TO.N,SWDIO*%
X41800000Y-61500000D02*
X43175000Y-61500000D01*
X41300000Y-62000000D02*
X41800000Y-61500000D01*
%TO.N,SWCLK*%
X41250000Y-59500000D02*
X40500000Y-60250000D01*
X41250000Y-58575000D02*
X41250000Y-59500000D01*
%TO.N,GPIO_1*%
X47000000Y-71750000D02*
X56170262Y-71750000D01*
X56170262Y-71750000D02*
X57280262Y-70640000D01*
X46750000Y-67750000D02*
X46750000Y-71500000D01*
X43175000Y-66000000D02*
X45000000Y-66000000D01*
X46750000Y-71500000D02*
X47000000Y-71750000D01*
X45000000Y-66000000D02*
X46750000Y-67750000D01*
%TO.N,GPIO_2*%
X44750000Y-66500000D02*
X46250000Y-68000000D01*
X56500000Y-74250000D02*
X57280262Y-73469738D01*
X46250000Y-74000000D02*
X46500000Y-74250000D01*
X57280262Y-73469738D02*
X57280262Y-73180000D01*
X46250000Y-68000000D02*
X46250000Y-74000000D01*
X43175000Y-66500000D02*
X44750000Y-66500000D01*
X46500000Y-74250000D02*
X56500000Y-74250000D01*
%TO.N,GPIO_3*%
X45750000Y-76500000D02*
X46000000Y-76750000D01*
X46000000Y-76750000D02*
X56250262Y-76750000D01*
X44500000Y-67000000D02*
X45750000Y-68250000D01*
X56250262Y-76750000D02*
X57280262Y-75720000D01*
X45750000Y-68250000D02*
X45750000Y-76500000D01*
X43175000Y-67000000D02*
X44500000Y-67000000D01*
%TO.N,GPIO_4*%
X44250000Y-67500000D02*
X45250000Y-68500000D01*
X45500000Y-79250000D02*
X56500000Y-79250000D01*
X45250000Y-68500000D02*
X45250000Y-79000000D01*
X43175000Y-67500000D02*
X44250000Y-67500000D01*
X56500000Y-79250000D02*
X57280262Y-78469738D01*
X57280262Y-78469738D02*
X57280262Y-78260000D01*
X45250000Y-79000000D02*
X45500000Y-79250000D01*
%TO.N,GPIO_5*%
X45000000Y-81750000D02*
X56330262Y-81750000D01*
X44750000Y-81500000D02*
X45000000Y-81750000D01*
X43175000Y-68000000D02*
X43175000Y-68925000D01*
X56330262Y-81750000D02*
X57280262Y-80800000D01*
X43175000Y-68925000D02*
X44750000Y-70500000D01*
X44750000Y-70500000D02*
X44750000Y-81500000D01*
D41*
%TO.N,D+*%
X43199999Y-62024999D02*
X43175000Y-62000000D01*
D42*
%TO.N,QSPI_NCS*%
X28000000Y-76000000D02*
X28095000Y-76095000D01*
X31825000Y-68000000D02*
X30500000Y-68000000D01*
X28095000Y-76095000D02*
X30395000Y-76095000D01*
X30100000Y-68400000D02*
X30100000Y-69275000D01*
X30100000Y-69275000D02*
X30200000Y-69375000D01*
X28000000Y-71575000D02*
X28000000Y-76000000D01*
X30200000Y-69375000D02*
X28000000Y-71575000D01*
X30500000Y-68000000D02*
X30100000Y-68400000D01*
%TO.N,QSPI_CLK*%
X35135000Y-78635000D02*
X37605000Y-78635000D01*
X34500000Y-78000000D02*
X35135000Y-78635000D01*
X33750000Y-69925000D02*
X33000000Y-70675000D01*
X33000000Y-75000000D02*
X34500000Y-76500000D01*
X33000000Y-70675000D02*
X33000000Y-75000000D01*
X34500000Y-76500000D02*
X34500000Y-78000000D01*
%TO.N,QSPI_IO_2*%
X36250000Y-67500000D02*
X34250000Y-67500000D01*
X34250000Y-67500000D02*
X32000000Y-69750000D01*
X36250000Y-69925000D02*
X36250000Y-67500000D01*
X32000000Y-69750000D02*
X32000000Y-78500000D01*
X31865000Y-78635000D02*
X30395000Y-78635000D01*
X32000000Y-78500000D02*
X31865000Y-78635000D01*
%TO.N,QSPI_IO_3*%
X36615000Y-77365000D02*
X37605000Y-77365000D01*
X36750000Y-69925000D02*
X36750000Y-70801041D01*
X36750000Y-70801041D02*
X36000000Y-71551041D01*
X36000000Y-76750000D02*
X36615000Y-77365000D01*
X36000000Y-71551041D02*
X36000000Y-76750000D01*
%TO.N,QSPI_IO_1*%
X29250000Y-81500000D02*
X28750000Y-81000000D01*
X39750000Y-80500000D02*
X38750000Y-81500000D01*
X38750000Y-81500000D02*
X29250000Y-81500000D01*
X28885000Y-77365000D02*
X30395000Y-77365000D01*
X28750000Y-77500000D02*
X28885000Y-77365000D01*
X38750000Y-69925000D02*
X38750000Y-73792894D01*
X38750000Y-73792894D02*
X39750000Y-74792894D01*
X28750000Y-81000000D02*
X28750000Y-77500000D01*
X39750000Y-74792894D02*
X39750000Y-80500000D01*
%TO.N,Net-(U4-Pad1)*%
X40515600Y-41809400D02*
X40209400Y-41809400D01*
X39250000Y-40850000D02*
X37500000Y-40850000D01*
X40209400Y-41809400D02*
X39250000Y-40850000D01*
%TO.N,Net-(U4-Pad2)*%
X39730200Y-42469800D02*
X38850000Y-43350000D01*
X40515600Y-42469800D02*
X39730200Y-42469800D01*
X38850000Y-43350000D02*
X37500000Y-43350000D01*
%TO.N,/OSC_IN*%
X23225000Y-63025000D02*
X22550000Y-62350000D01*
X25955000Y-62500000D02*
X25925000Y-62530000D01*
X22550000Y-62350000D02*
X22550000Y-61975000D01*
X25925000Y-62530000D02*
X25430000Y-63025000D01*
X25430000Y-63025000D02*
X23225000Y-63025000D01*
X31825000Y-62500000D02*
X25955000Y-62500000D01*
%TO.N,/OSC_OUT*%
X24855000Y-64780000D02*
X24250000Y-64175000D01*
X31825000Y-63000000D02*
X30300000Y-63000000D01*
X30300000Y-63000000D02*
X28520000Y-64780000D01*
X25925000Y-64780000D02*
X24855000Y-64780000D01*
X28520000Y-64780000D02*
X25925000Y-64780000D01*
%TO.N,/USB_NOE*%
X49000000Y-20750000D02*
X49500000Y-20250000D01*
X49000000Y-23000000D02*
X49000000Y-20750000D01*
X43175000Y-64500000D02*
X48500000Y-64500000D01*
X48500000Y-64500000D02*
X49000000Y-65000000D01*
X49500000Y-20250000D02*
X50637500Y-20250000D01*
X50637500Y-20250000D02*
X51000000Y-19887500D01*
X49000000Y-65000000D02*
X49750000Y-65000000D01*
%TD*%
%TA.AperFunction,Conductor*%
%TO.N,GND*%
G36*
X42815677Y-26119685D02*
G01*
X42836319Y-26136319D01*
X43063681Y-26363681D01*
X43097166Y-26425004D01*
X43100000Y-26451362D01*
X43100000Y-28200000D01*
X43600000Y-28700000D01*
X45938000Y-28700000D01*
X46005039Y-28719685D01*
X46037200Y-28749600D01*
X46224700Y-28999600D01*
X46249176Y-29065042D01*
X46249500Y-29074000D01*
X46249500Y-30038206D01*
X46228674Y-30106989D01*
X46136811Y-30244783D01*
X46083246Y-30289644D01*
X46033637Y-30300000D01*
X41551362Y-30300000D01*
X41484323Y-30280315D01*
X41463681Y-30263681D01*
X41036319Y-29836319D01*
X41002834Y-29774996D01*
X41000000Y-29748638D01*
X41000000Y-26451362D01*
X41019685Y-26384323D01*
X41036319Y-26363681D01*
X41263681Y-26136319D01*
X41325004Y-26102834D01*
X41351362Y-26100000D01*
X42748638Y-26100000D01*
X42815677Y-26119685D01*
G37*
%TD.AperFunction*%
%TD*%
M02*
