%TF.GenerationSoftware,KiCad,Pcbnew,(6.0.9)*%
%TF.CreationDate,2022-12-06T19:37:18-05:00*%
%TF.ProjectId,cdh-devkit,6364682d-6465-4766-9b69-742e6b696361,rev?*%
%TF.SameCoordinates,Original*%
%TF.FileFunction,Soldermask,Bot*%
%TF.FilePolarity,Negative*%
%FSLAX46Y46*%
G04 Gerber Fmt 4.6, Leading zero omitted, Abs format (unit mm)*
G04 Created by KiCad (PCBNEW (6.0.9)) date 2022-12-06 19:37:18*
%MOMM*%
%LPD*%
G01*
G04 APERTURE LIST*
%TA.AperFunction,Profile*%
%ADD10C,0.200000*%
%TD*%
%ADD11R,1.700000X1.700000*%
%ADD12O,1.700000X1.700000*%
%ADD13C,4.400000*%
%ADD14O,1.900000X1.200000*%
%ADD15C,1.450000*%
G04 APERTURE END LIST*
D10*
X67000000Y-70000000D02*
G75*
G03*
X70000000Y-67000000I0J3000000D01*
G01*
X20000000Y-67000000D02*
X20000000Y-23000000D01*
X70000000Y-23000000D02*
X70000000Y-67000000D01*
X23000000Y-20000000D02*
G75*
G03*
X20000000Y-23000000I0J-3000000D01*
G01*
X20000000Y-67000000D02*
G75*
G03*
X23000000Y-70000000I3000000J0D01*
G01*
X23000000Y-20000000D02*
X67000000Y-20000000D01*
X70000000Y-23000000D02*
G75*
G03*
X67000000Y-20000000I-3000000J0D01*
G01*
X67000000Y-70000000D02*
X23000000Y-70000000D01*
D11*
%TO.C,J3*%
X53875000Y-65000000D03*
D12*
X51335000Y-65000000D03*
X48795000Y-65000000D03*
X46255000Y-65000000D03*
X43715000Y-65000000D03*
X41175000Y-65000000D03*
X38635000Y-65000000D03*
X36095000Y-65000000D03*
%TD*%
D11*
%TO.C,J2*%
X36125000Y-25000000D03*
D12*
X38665000Y-25000000D03*
X41205000Y-25000000D03*
X43745000Y-25000000D03*
X46285000Y-25000000D03*
X48825000Y-25000000D03*
X51365000Y-25000000D03*
X53905000Y-25000000D03*
%TD*%
D13*
%TO.C,H3*%
X25000000Y-65000000D03*
%TD*%
D14*
%TO.C,J4*%
X68537500Y-39300000D03*
X68537500Y-46300000D03*
D15*
X65837500Y-45300000D03*
X65837500Y-40300000D03*
%TD*%
D11*
%TO.C,J1*%
X25000000Y-53875000D03*
D12*
X25000000Y-51335000D03*
X25000000Y-48795000D03*
X25000000Y-46255000D03*
X25000000Y-43715000D03*
X25000000Y-41175000D03*
X25000000Y-38635000D03*
X25000000Y-36095000D03*
%TD*%
D13*
%TO.C,H1*%
X25000000Y-25000000D03*
%TD*%
D11*
%TO.C,J5*%
X65000000Y-30250000D03*
D12*
X65000000Y-32790000D03*
X65000000Y-35330000D03*
%TD*%
D13*
%TO.C,H4*%
X65000000Y-65000000D03*
%TD*%
%TO.C,H2*%
X65000000Y-25000000D03*
%TD*%
M02*
