%TF.GenerationSoftware,KiCad,Pcbnew,(6.0.9)*%
%TF.CreationDate,2022-12-01T17:51:06-05:00*%
%TF.ProjectId,cdh-devkit,6364682d-6465-4766-9b69-742e6b696361,rev?*%
%TF.SameCoordinates,Original*%
%TF.FileFunction,Copper,L2,Inr*%
%TF.FilePolarity,Positive*%
%FSLAX46Y46*%
G04 Gerber Fmt 4.6, Leading zero omitted, Abs format (unit mm)*
G04 Created by KiCad (PCBNEW (6.0.9)) date 2022-12-01 17:51:06*
%MOMM*%
%LPD*%
G01*
G04 APERTURE LIST*
%TA.AperFunction,ComponentPad*%
%ADD10C,1.450000*%
%TD*%
%TA.AperFunction,ComponentPad*%
%ADD11O,1.200000X1.900000*%
%TD*%
%TA.AperFunction,ComponentPad*%
%ADD12C,4.400000*%
%TD*%
%TA.AperFunction,ComponentPad*%
%ADD13R,1.700000X1.700000*%
%TD*%
%TA.AperFunction,ComponentPad*%
%ADD14O,1.700000X1.700000*%
%TD*%
%TA.AperFunction,ViaPad*%
%ADD15C,0.700000*%
%TD*%
%TA.AperFunction,ViaPad*%
%ADD16C,0.800000*%
%TD*%
G04 APERTURE END LIST*
D10*
%TO.N,GND*%
%TO.C,J4*%
X35000000Y-19152500D03*
D11*
X41000000Y-16452500D03*
D10*
X40000000Y-19152500D03*
D11*
X34000000Y-16452500D03*
%TD*%
D12*
%TO.N,GND*%
%TO.C,H1*%
X19000000Y-19000000D03*
%TD*%
D13*
%TO.N,+3.3V*%
%TO.C,J3*%
X57280262Y-65560000D03*
D14*
%TO.N,GND*%
X57280262Y-68100000D03*
%TO.N,GPIO_1*%
X57280262Y-70640000D03*
%TO.N,GPIO_2*%
X57280262Y-73180000D03*
%TO.N,GPIO_3*%
X57280262Y-75720000D03*
%TO.N,GPIO_4*%
X57280262Y-78260000D03*
%TO.N,GPIO_5*%
X57280262Y-80800000D03*
%TO.N,GND*%
X57280262Y-83340000D03*
%TO.N,+3.3V*%
X57280262Y-85880000D03*
%TD*%
D12*
%TO.N,GND*%
%TO.C,H2*%
X56000000Y-91000000D03*
%TD*%
%TO.N,GND*%
%TO.C,H4*%
X19000000Y-91000000D03*
%TD*%
D13*
%TO.N,GND*%
%TO.C,J1*%
X34975000Y-89250000D03*
D14*
%TO.N,SWCLK*%
X37515000Y-89250000D03*
%TO.N,SWDIO*%
X40055000Y-89250000D03*
%TD*%
D13*
%TO.N,+3.3V*%
%TO.C,J2*%
X57280262Y-24680000D03*
D14*
%TO.N,UART_TX*%
X57280262Y-27220000D03*
%TO.N,UART_RX*%
X57280262Y-29760000D03*
%TO.N,GND*%
X57280262Y-32300000D03*
%TO.N,CAN_TX*%
X57280262Y-34840000D03*
%TO.N,CAN_RX*%
X57280262Y-37380000D03*
%TO.N,GND*%
X57280262Y-39920000D03*
%TO.N,I2C_SCL*%
X57280262Y-42460000D03*
%TO.N,I2C_SDA*%
X57280262Y-45000000D03*
%TO.N,GND*%
X57280262Y-47540000D03*
%TO.N,SPI_MOSI*%
X57280262Y-50080000D03*
%TO.N,SPI_MISO*%
X57280262Y-52620000D03*
%TO.N,SPI_SCK*%
X57280262Y-55160000D03*
%TO.N,GND*%
X57280262Y-57700000D03*
%TO.N,+3.3V*%
X57280262Y-60240000D03*
%TD*%
D12*
%TO.N,GND*%
%TO.C,H3*%
X56000000Y-19000000D03*
%TD*%
D15*
%TO.N,GND*%
X47655378Y-30644622D03*
X45900000Y-29600000D03*
X42500000Y-29000000D03*
X41600000Y-29000000D03*
X30925497Y-35000000D03*
X33874503Y-35000000D03*
D16*
%TO.N,D+*%
X47375000Y-60400000D03*
%TO.N,D-*%
X48425000Y-60400000D03*
%TO.N,D+*%
X31875000Y-35000000D03*
%TO.N,D-*%
X32925000Y-35000000D03*
D15*
%TO.N,+3.3V*%
X28400000Y-57800000D03*
X28800000Y-69400000D03*
X28800000Y-73200000D03*
X30200000Y-61400000D03*
X30200000Y-73800000D03*
X35100000Y-72600000D03*
X40400000Y-73100000D03*
X30900000Y-55800000D03*
X37500000Y-74400000D03*
X44900000Y-39900000D03*
X33800000Y-73100000D03*
X44900000Y-36300000D03*
%TO.N,GND*%
X32600000Y-79900000D03*
X41250000Y-68250000D03*
X39600500Y-46788661D03*
X41500000Y-45600000D03*
X28900000Y-63200000D03*
X34250000Y-60250000D03*
X49899503Y-23000000D03*
X33750000Y-66000000D03*
X31500000Y-59500000D03*
X39250000Y-67000000D03*
X41400000Y-60900000D03*
X43750000Y-45600000D03*
X47750000Y-26350497D03*
X50600000Y-64500000D03*
X49227521Y-62267798D03*
X35000000Y-68500000D03*
X49241849Y-60884059D03*
X46425497Y-60400000D03*
X40750000Y-23500000D03*
%TO.N,UART_TX*%
X49750000Y-64000000D03*
X47750000Y-27250000D03*
%TO.N,UART_RX*%
X47750000Y-29750000D03*
X49750000Y-63000000D03*
%TO.N,I2C_SDA*%
X40250000Y-67750000D03*
X43750000Y-46750000D03*
%TO.N,I2C_SCL*%
X41500000Y-46750000D03*
X39250000Y-68250000D03*
%TO.N,SWDIO*%
X41300000Y-62000000D03*
%TO.N,SWCLK*%
X40500000Y-60250000D03*
%TO.N,/USB_NOE*%
X49750000Y-65000000D03*
X49000000Y-23000000D03*
%TD*%
%TA.AperFunction,Conductor*%
%TO.N,GND*%
G36*
X33047827Y-15320185D02*
G01*
X33093582Y-15372989D01*
X33103526Y-15442147D01*
X33084959Y-15491763D01*
X33022166Y-15589012D01*
X33016751Y-15599458D01*
X32942709Y-15783182D01*
X32939368Y-15794460D01*
X32901126Y-15990290D01*
X32900066Y-15999015D01*
X32900000Y-16001705D01*
X32900000Y-16184670D01*
X32904404Y-16199669D01*
X32905774Y-16200856D01*
X32913332Y-16202500D01*
X35082170Y-16202500D01*
X35097169Y-16198096D01*
X35098356Y-16196726D01*
X35100000Y-16189168D01*
X35100000Y-16053014D01*
X35099718Y-16047101D01*
X35085629Y-15899429D01*
X35083407Y-15887886D01*
X35027641Y-15697795D01*
X35023279Y-15686892D01*
X34932578Y-15510785D01*
X34923037Y-15495922D01*
X34924059Y-15495266D01*
X34900458Y-15436219D01*
X34913719Y-15367619D01*
X34961962Y-15317079D01*
X35023903Y-15300500D01*
X39980788Y-15300500D01*
X40047827Y-15320185D01*
X40093582Y-15372989D01*
X40103526Y-15442147D01*
X40084959Y-15491763D01*
X40022166Y-15589012D01*
X40016751Y-15599458D01*
X39942709Y-15783182D01*
X39939368Y-15794460D01*
X39901126Y-15990290D01*
X39900066Y-15999015D01*
X39900000Y-16001705D01*
X39900000Y-16184670D01*
X39904404Y-16199669D01*
X39905774Y-16200856D01*
X39913332Y-16202500D01*
X42082170Y-16202500D01*
X42097169Y-16198096D01*
X42098356Y-16196726D01*
X42100000Y-16189168D01*
X42100000Y-16053014D01*
X42099718Y-16047101D01*
X42085629Y-15899429D01*
X42083407Y-15887886D01*
X42027641Y-15697795D01*
X42023279Y-15686892D01*
X41932578Y-15510785D01*
X41923037Y-15495922D01*
X41924059Y-15495266D01*
X41900458Y-15436219D01*
X41913719Y-15367619D01*
X41961962Y-15317079D01*
X42023903Y-15300500D01*
X54962861Y-15300500D01*
X54984391Y-15302384D01*
X55000000Y-15305136D01*
X55010684Y-15303252D01*
X55015730Y-15303252D01*
X55034638Y-15302012D01*
X55372834Y-15316778D01*
X55404182Y-15318147D01*
X55414958Y-15319090D01*
X55441786Y-15322622D01*
X55810693Y-15371189D01*
X55821332Y-15373065D01*
X56211050Y-15459464D01*
X56221478Y-15462258D01*
X56602169Y-15582290D01*
X56612315Y-15585983D01*
X56981103Y-15738739D01*
X56990894Y-15743305D01*
X57344954Y-15927617D01*
X57354300Y-15933012D01*
X57690971Y-16147496D01*
X57699800Y-16153677D01*
X58016497Y-16396687D01*
X58024774Y-16403634D01*
X58070320Y-16445369D01*
X58319068Y-16673305D01*
X58326695Y-16680932D01*
X58488856Y-16857899D01*
X58596366Y-16975226D01*
X58603313Y-16983503D01*
X58846323Y-17300200D01*
X58852504Y-17309029D01*
X59066988Y-17645700D01*
X59072383Y-17655046D01*
X59256692Y-18009100D01*
X59261261Y-18018897D01*
X59401913Y-18358460D01*
X59414014Y-18387675D01*
X59417710Y-18397831D01*
X59521503Y-18727019D01*
X59537739Y-18778512D01*
X59540536Y-18788950D01*
X59615441Y-19126820D01*
X59626934Y-19178661D01*
X59628811Y-19189307D01*
X59653574Y-19377406D01*
X59680910Y-19585042D01*
X59681853Y-19595818D01*
X59691240Y-19810802D01*
X59697988Y-19965359D01*
X59696748Y-19984270D01*
X59696748Y-19989316D01*
X59694864Y-20000000D01*
X59696748Y-20010683D01*
X59697616Y-20015606D01*
X59699500Y-20037139D01*
X59699500Y-89962861D01*
X59697616Y-89984391D01*
X59694864Y-90000000D01*
X59696748Y-90010684D01*
X59696748Y-90015730D01*
X59697988Y-90034638D01*
X59685049Y-90330978D01*
X59681853Y-90404182D01*
X59680910Y-90414958D01*
X59651108Y-90641332D01*
X59628812Y-90810685D01*
X59626935Y-90821332D01*
X59574284Y-91058828D01*
X59540539Y-91211040D01*
X59537742Y-91221478D01*
X59494446Y-91358797D01*
X59417714Y-91602159D01*
X59414017Y-91612315D01*
X59379179Y-91696423D01*
X59261264Y-91981096D01*
X59256695Y-91990894D01*
X59072383Y-92344954D01*
X59066988Y-92354300D01*
X58852504Y-92690971D01*
X58846323Y-92699800D01*
X58603313Y-93016497D01*
X58596366Y-93024774D01*
X58326695Y-93319068D01*
X58319068Y-93326695D01*
X58219442Y-93417986D01*
X58024774Y-93596366D01*
X58016497Y-93603313D01*
X57699800Y-93846323D01*
X57690971Y-93852504D01*
X57354300Y-94066988D01*
X57344954Y-94072383D01*
X56990894Y-94256695D01*
X56981103Y-94261261D01*
X56612315Y-94414017D01*
X56602169Y-94417710D01*
X56221478Y-94537742D01*
X56211050Y-94540536D01*
X55821332Y-94626935D01*
X55810693Y-94628811D01*
X55441786Y-94677378D01*
X55414958Y-94680910D01*
X55404182Y-94681853D01*
X55372834Y-94683222D01*
X55034638Y-94697988D01*
X55015730Y-94696748D01*
X55010684Y-94696748D01*
X55000000Y-94694864D01*
X54984391Y-94697616D01*
X54962861Y-94699500D01*
X20037139Y-94699500D01*
X20015609Y-94697616D01*
X20000000Y-94694864D01*
X19989316Y-94696748D01*
X19984270Y-94696748D01*
X19965362Y-94697988D01*
X19627166Y-94683222D01*
X19595818Y-94681853D01*
X19585042Y-94680910D01*
X19558214Y-94677378D01*
X19189307Y-94628811D01*
X19178668Y-94626935D01*
X18788950Y-94540536D01*
X18778522Y-94537742D01*
X18397831Y-94417710D01*
X18387685Y-94414017D01*
X18018897Y-94261261D01*
X18009106Y-94256695D01*
X17655046Y-94072383D01*
X17645700Y-94066988D01*
X17309029Y-93852504D01*
X17300200Y-93846323D01*
X16983503Y-93603313D01*
X16975226Y-93596366D01*
X16780558Y-93417986D01*
X16680932Y-93326695D01*
X16673305Y-93319068D01*
X16452595Y-93078206D01*
X17281168Y-93078206D01*
X17288571Y-93088469D01*
X17430180Y-93202531D01*
X17436249Y-93206843D01*
X17706139Y-93375161D01*
X17712709Y-93378728D01*
X18000861Y-93513403D01*
X18007798Y-93516149D01*
X18310052Y-93615233D01*
X18317263Y-93617125D01*
X18629238Y-93679181D01*
X18636616Y-93680192D01*
X18953787Y-93704318D01*
X18961250Y-93704435D01*
X19279003Y-93690284D01*
X19286436Y-93689502D01*
X19600191Y-93637279D01*
X19607463Y-93635614D01*
X19912683Y-93546072D01*
X19919693Y-93543548D01*
X20211949Y-93417986D01*
X20218609Y-93414636D01*
X20493652Y-93254878D01*
X20499868Y-93250748D01*
X20712047Y-93090569D01*
X20720368Y-93079358D01*
X20719736Y-93078206D01*
X54281168Y-93078206D01*
X54288571Y-93088469D01*
X54430180Y-93202531D01*
X54436249Y-93206843D01*
X54706139Y-93375161D01*
X54712709Y-93378728D01*
X55000861Y-93513403D01*
X55007798Y-93516149D01*
X55310052Y-93615233D01*
X55317263Y-93617125D01*
X55629238Y-93679181D01*
X55636616Y-93680192D01*
X55953787Y-93704318D01*
X55961250Y-93704435D01*
X56279003Y-93690284D01*
X56286436Y-93689502D01*
X56600191Y-93637279D01*
X56607463Y-93635614D01*
X56912683Y-93546072D01*
X56919693Y-93543548D01*
X57211949Y-93417986D01*
X57218609Y-93414636D01*
X57493652Y-93254878D01*
X57499868Y-93250748D01*
X57712047Y-93090569D01*
X57720368Y-93079358D01*
X57713759Y-93067312D01*
X56012607Y-91366160D01*
X55998887Y-91358668D01*
X55997081Y-91358797D01*
X55990574Y-91362979D01*
X54288169Y-93065384D01*
X54281168Y-93078206D01*
X20719736Y-93078206D01*
X20713759Y-93067312D01*
X19012607Y-91366160D01*
X18998887Y-91358668D01*
X18997081Y-91358797D01*
X18990574Y-91362979D01*
X17288169Y-93065384D01*
X17281168Y-93078206D01*
X16452595Y-93078206D01*
X16403634Y-93024774D01*
X16396687Y-93016497D01*
X16153677Y-92699800D01*
X16147496Y-92690971D01*
X15933012Y-92354300D01*
X15927617Y-92344954D01*
X15743305Y-91990894D01*
X15738736Y-91981096D01*
X15620821Y-91696423D01*
X15585983Y-91612315D01*
X15582286Y-91602159D01*
X15505555Y-91358797D01*
X15462258Y-91221478D01*
X15459461Y-91211040D01*
X15425717Y-91058828D01*
X15407221Y-90975399D01*
X16295398Y-90975399D01*
X16311214Y-91293095D01*
X16312033Y-91300506D01*
X16365899Y-91613988D01*
X16367604Y-91621258D01*
X16458740Y-91925996D01*
X16461305Y-91933005D01*
X16588394Y-92224593D01*
X16591774Y-92231228D01*
X16752978Y-92505444D01*
X16757141Y-92511638D01*
X16909795Y-92711663D01*
X16921138Y-92719991D01*
X16933010Y-92713437D01*
X18633840Y-91012607D01*
X18640116Y-91001113D01*
X19358668Y-91001113D01*
X19358797Y-91002919D01*
X19362979Y-91009426D01*
X21065264Y-92711711D01*
X21078177Y-92718762D01*
X21088314Y-92711490D01*
X21194277Y-92581335D01*
X21198628Y-92575278D01*
X21368359Y-92306272D01*
X21371952Y-92299738D01*
X21508138Y-92012283D01*
X21510920Y-92005362D01*
X21611581Y-91703642D01*
X21613516Y-91696423D01*
X21677202Y-91384789D01*
X21678253Y-91377406D01*
X21704165Y-91058828D01*
X21704365Y-91054456D01*
X21704912Y-91002208D01*
X21704802Y-90997795D01*
X21703452Y-90975399D01*
X53295398Y-90975399D01*
X53311214Y-91293095D01*
X53312033Y-91300506D01*
X53365899Y-91613988D01*
X53367604Y-91621258D01*
X53458740Y-91925996D01*
X53461305Y-91933005D01*
X53588394Y-92224593D01*
X53591774Y-92231228D01*
X53752978Y-92505444D01*
X53757141Y-92511638D01*
X53909795Y-92711663D01*
X53921138Y-92719991D01*
X53933010Y-92713437D01*
X55633840Y-91012607D01*
X55640116Y-91001113D01*
X56358668Y-91001113D01*
X56358797Y-91002919D01*
X56362979Y-91009426D01*
X58065264Y-92711711D01*
X58078177Y-92718762D01*
X58088314Y-92711490D01*
X58194277Y-92581335D01*
X58198628Y-92575278D01*
X58368359Y-92306272D01*
X58371952Y-92299738D01*
X58508138Y-92012283D01*
X58510920Y-92005362D01*
X58611581Y-91703642D01*
X58613516Y-91696423D01*
X58677202Y-91384789D01*
X58678253Y-91377406D01*
X58704165Y-91058828D01*
X58704365Y-91054456D01*
X58704912Y-91002208D01*
X58704802Y-90997795D01*
X58685569Y-90678774D01*
X58684671Y-90671356D01*
X58627526Y-90358460D01*
X58625746Y-90351212D01*
X58531424Y-90047445D01*
X58528787Y-90040465D01*
X58398654Y-89750229D01*
X58395192Y-89743607D01*
X58231135Y-89471109D01*
X58226912Y-89464964D01*
X58089635Y-89288941D01*
X58078030Y-89280606D01*
X58066505Y-89287048D01*
X56366160Y-90987393D01*
X56358668Y-91001113D01*
X55640116Y-91001113D01*
X55641332Y-90998887D01*
X55641203Y-90997081D01*
X55637021Y-90990574D01*
X53934442Y-89287995D01*
X53921714Y-89281045D01*
X53911320Y-89288584D01*
X53789288Y-89441724D01*
X53784992Y-89447837D01*
X53618089Y-89718605D01*
X53614572Y-89725163D01*
X53481401Y-90014035D01*
X53478690Y-90020989D01*
X53381190Y-90323757D01*
X53379336Y-90330978D01*
X53318916Y-90643264D01*
X53317942Y-90650664D01*
X53295477Y-90967950D01*
X53295398Y-90975399D01*
X21703452Y-90975399D01*
X21685569Y-90678774D01*
X21684671Y-90671356D01*
X21627526Y-90358460D01*
X21625746Y-90351212D01*
X21561396Y-90143972D01*
X33625000Y-90143972D01*
X33625363Y-90150669D01*
X33630803Y-90200744D01*
X33634371Y-90215753D01*
X33678817Y-90334311D01*
X33687212Y-90349646D01*
X33762516Y-90450124D01*
X33774876Y-90462484D01*
X33875354Y-90537788D01*
X33890689Y-90546183D01*
X34009247Y-90590629D01*
X34024256Y-90594197D01*
X34074331Y-90599637D01*
X34081028Y-90600000D01*
X34707170Y-90600000D01*
X34722169Y-90595596D01*
X34723356Y-90594226D01*
X34725000Y-90586668D01*
X34725000Y-90582170D01*
X35225000Y-90582170D01*
X35229404Y-90597169D01*
X35230774Y-90598356D01*
X35238332Y-90600000D01*
X35868972Y-90600000D01*
X35875669Y-90599637D01*
X35925744Y-90594197D01*
X35940753Y-90590629D01*
X36059311Y-90546183D01*
X36074646Y-90537788D01*
X36175124Y-90462484D01*
X36187484Y-90450124D01*
X36262788Y-90349646D01*
X36271183Y-90334311D01*
X36315629Y-90215753D01*
X36319197Y-90200744D01*
X36324637Y-90150669D01*
X36325000Y-90143972D01*
X36325000Y-89950070D01*
X36344685Y-89883031D01*
X36397489Y-89837276D01*
X36466647Y-89827332D01*
X36530203Y-89856357D01*
X36550263Y-89878503D01*
X36568595Y-89904442D01*
X36628579Y-89989317D01*
X36636405Y-90000391D01*
X36640476Y-90004357D01*
X36640477Y-90004358D01*
X36677542Y-90040465D01*
X36787865Y-90147937D01*
X36792588Y-90151093D01*
X36792592Y-90151096D01*
X36863663Y-90198584D01*
X36963677Y-90265411D01*
X37157953Y-90348878D01*
X37168268Y-90351212D01*
X37358638Y-90394289D01*
X37358642Y-90394290D01*
X37364186Y-90395544D01*
X37490651Y-90400513D01*
X37569789Y-90403623D01*
X37569791Y-90403623D01*
X37575470Y-90403846D01*
X37581090Y-90403031D01*
X37581092Y-90403031D01*
X37779103Y-90374320D01*
X37779104Y-90374320D01*
X37784730Y-90373504D01*
X37829048Y-90358460D01*
X37979565Y-90307367D01*
X37979568Y-90307366D01*
X37984955Y-90305537D01*
X37989916Y-90302759D01*
X37989922Y-90302756D01*
X38145275Y-90215753D01*
X38169442Y-90202219D01*
X38332012Y-90067012D01*
X38354091Y-90040465D01*
X38463584Y-89908813D01*
X38463585Y-89908811D01*
X38467219Y-89904442D01*
X38553583Y-89750229D01*
X38567756Y-89724922D01*
X38567759Y-89724916D01*
X38570537Y-89719955D01*
X38601009Y-89630189D01*
X38636675Y-89525118D01*
X38638504Y-89519730D01*
X38640954Y-89502831D01*
X38662820Y-89352033D01*
X38691921Y-89288512D01*
X38745225Y-89254346D01*
X38825974Y-89254346D01*
X38879347Y-89288736D01*
X38908296Y-89352327D01*
X38909271Y-89361707D01*
X38913796Y-89430749D01*
X38965845Y-89635690D01*
X38968219Y-89640841D01*
X38968221Y-89640845D01*
X39006981Y-89724922D01*
X39054369Y-89827714D01*
X39057647Y-89832352D01*
X39168579Y-89989317D01*
X39176405Y-90000391D01*
X39180476Y-90004357D01*
X39180477Y-90004358D01*
X39217542Y-90040465D01*
X39327865Y-90147937D01*
X39332588Y-90151093D01*
X39332592Y-90151096D01*
X39403663Y-90198584D01*
X39503677Y-90265411D01*
X39697953Y-90348878D01*
X39708268Y-90351212D01*
X39898638Y-90394289D01*
X39898642Y-90394290D01*
X39904186Y-90395544D01*
X40030651Y-90400513D01*
X40109789Y-90403623D01*
X40109791Y-90403623D01*
X40115470Y-90403846D01*
X40121090Y-90403031D01*
X40121092Y-90403031D01*
X40319103Y-90374320D01*
X40319104Y-90374320D01*
X40324730Y-90373504D01*
X40369048Y-90358460D01*
X40519565Y-90307367D01*
X40519568Y-90307366D01*
X40524955Y-90305537D01*
X40529916Y-90302759D01*
X40529922Y-90302756D01*
X40685275Y-90215753D01*
X40709442Y-90202219D01*
X40872012Y-90067012D01*
X40894091Y-90040465D01*
X41003584Y-89908813D01*
X41003585Y-89908811D01*
X41007219Y-89904442D01*
X41093583Y-89750229D01*
X41107756Y-89724922D01*
X41107759Y-89724916D01*
X41110537Y-89719955D01*
X41141009Y-89630189D01*
X41176675Y-89525118D01*
X41178504Y-89519730D01*
X41208846Y-89310470D01*
X41210429Y-89250000D01*
X41191081Y-89039440D01*
X41157841Y-88921580D01*
X54280334Y-88921580D01*
X54286834Y-88933281D01*
X55987393Y-90633840D01*
X56001113Y-90641332D01*
X56002919Y-90641203D01*
X56009426Y-90637021D01*
X57712231Y-88934216D01*
X57719130Y-88921581D01*
X57711459Y-88911062D01*
X57546675Y-88781156D01*
X57540552Y-88776901D01*
X57268915Y-88611417D01*
X57262317Y-88607924D01*
X56972767Y-88476274D01*
X56965796Y-88473598D01*
X56662528Y-88377686D01*
X56655290Y-88375868D01*
X56342693Y-88317085D01*
X56335291Y-88316150D01*
X56017877Y-88295345D01*
X56010446Y-88295307D01*
X55692835Y-88312786D01*
X55685415Y-88313644D01*
X55372221Y-88369152D01*
X55364972Y-88370892D01*
X55060713Y-88463622D01*
X55053717Y-88466224D01*
X54762805Y-88594835D01*
X54756165Y-88598263D01*
X54482819Y-88760886D01*
X54476641Y-88765084D01*
X54288666Y-88910107D01*
X54280334Y-88921580D01*
X41157841Y-88921580D01*
X41133686Y-88835931D01*
X41040165Y-88646290D01*
X40913651Y-88476867D01*
X40909481Y-88473012D01*
X40909478Y-88473009D01*
X40845319Y-88413702D01*
X40758381Y-88333337D01*
X40732623Y-88317085D01*
X40584363Y-88223539D01*
X40584361Y-88223538D01*
X40579554Y-88220505D01*
X40383160Y-88142152D01*
X40377579Y-88141042D01*
X40377576Y-88141041D01*
X40279467Y-88121526D01*
X40175775Y-88100901D01*
X40170088Y-88100827D01*
X40170083Y-88100826D01*
X39970034Y-88098207D01*
X39970029Y-88098207D01*
X39964346Y-88098133D01*
X39958742Y-88099096D01*
X39958741Y-88099096D01*
X39761550Y-88132979D01*
X39761547Y-88132980D01*
X39755953Y-88133941D01*
X39557575Y-88207127D01*
X39552697Y-88210029D01*
X39552695Y-88210030D01*
X39380740Y-88312332D01*
X39380737Y-88312334D01*
X39375856Y-88315238D01*
X39216881Y-88454655D01*
X39213362Y-88459119D01*
X39213359Y-88459122D01*
X39195782Y-88481419D01*
X39085976Y-88620708D01*
X38987523Y-88807836D01*
X38985837Y-88813267D01*
X38985835Y-88813271D01*
X38952204Y-88921581D01*
X38924820Y-89009773D01*
X38907851Y-89153140D01*
X38880425Y-89217398D01*
X38825974Y-89254346D01*
X38745225Y-89254346D01*
X38745667Y-89254063D01*
X38693057Y-89222081D01*
X38662453Y-89159271D01*
X38661232Y-89149909D01*
X38651601Y-89045100D01*
X38651081Y-89039440D01*
X38593686Y-88835931D01*
X38500165Y-88646290D01*
X38373651Y-88476867D01*
X38369481Y-88473012D01*
X38369478Y-88473009D01*
X38305319Y-88413702D01*
X38218381Y-88333337D01*
X38192623Y-88317085D01*
X38044363Y-88223539D01*
X38044361Y-88223538D01*
X38039554Y-88220505D01*
X37843160Y-88142152D01*
X37837579Y-88141042D01*
X37837576Y-88141041D01*
X37739467Y-88121526D01*
X37635775Y-88100901D01*
X37630088Y-88100827D01*
X37630083Y-88100826D01*
X37430034Y-88098207D01*
X37430029Y-88098207D01*
X37424346Y-88098133D01*
X37418742Y-88099096D01*
X37418741Y-88099096D01*
X37221550Y-88132979D01*
X37221547Y-88132980D01*
X37215953Y-88133941D01*
X37017575Y-88207127D01*
X37012697Y-88210029D01*
X37012695Y-88210030D01*
X36840740Y-88312332D01*
X36840737Y-88312334D01*
X36835856Y-88315238D01*
X36676881Y-88454655D01*
X36546377Y-88620199D01*
X36489417Y-88660658D01*
X36419623Y-88663900D01*
X36359155Y-88628893D01*
X36327213Y-88566753D01*
X36325000Y-88543430D01*
X36325000Y-88356028D01*
X36324637Y-88349331D01*
X36319197Y-88299256D01*
X36315629Y-88284247D01*
X36271183Y-88165689D01*
X36262788Y-88150354D01*
X36187484Y-88049876D01*
X36175124Y-88037516D01*
X36074646Y-87962212D01*
X36059311Y-87953817D01*
X35940753Y-87909371D01*
X35925744Y-87905803D01*
X35875669Y-87900363D01*
X35868972Y-87900000D01*
X35242830Y-87900000D01*
X35227831Y-87904404D01*
X35226644Y-87905774D01*
X35225000Y-87913332D01*
X35225000Y-90582170D01*
X34725000Y-90582170D01*
X34725000Y-89517830D01*
X34720596Y-89502831D01*
X34719226Y-89501644D01*
X34711668Y-89500000D01*
X33642830Y-89500000D01*
X33627831Y-89504404D01*
X33626644Y-89505774D01*
X33625000Y-89513332D01*
X33625000Y-90143972D01*
X21561396Y-90143972D01*
X21531424Y-90047445D01*
X21528787Y-90040465D01*
X21398654Y-89750229D01*
X21395192Y-89743607D01*
X21231135Y-89471109D01*
X21226912Y-89464964D01*
X21089635Y-89288941D01*
X21078030Y-89280606D01*
X21066505Y-89287048D01*
X19366160Y-90987393D01*
X19358668Y-91001113D01*
X18640116Y-91001113D01*
X18641332Y-90998887D01*
X18641203Y-90997081D01*
X18637021Y-90990574D01*
X16934442Y-89287995D01*
X16921714Y-89281045D01*
X16911320Y-89288584D01*
X16789288Y-89441724D01*
X16784992Y-89447837D01*
X16618089Y-89718605D01*
X16614572Y-89725163D01*
X16481401Y-90014035D01*
X16478690Y-90020989D01*
X16381190Y-90323757D01*
X16379336Y-90330978D01*
X16318916Y-90643264D01*
X16317942Y-90650664D01*
X16295477Y-90967950D01*
X16295398Y-90975399D01*
X15407221Y-90975399D01*
X15373065Y-90821332D01*
X15371188Y-90810685D01*
X15348893Y-90641332D01*
X15319090Y-90414958D01*
X15318147Y-90404182D01*
X15314951Y-90330978D01*
X15302012Y-90034638D01*
X15303252Y-90015730D01*
X15303252Y-90010684D01*
X15305136Y-90000000D01*
X15302384Y-89984391D01*
X15300500Y-89962861D01*
X15300500Y-88921580D01*
X17280334Y-88921580D01*
X17286834Y-88933281D01*
X18987393Y-90633840D01*
X19001113Y-90641332D01*
X19002919Y-90641203D01*
X19009426Y-90637021D01*
X20664277Y-88982170D01*
X33625000Y-88982170D01*
X33629404Y-88997169D01*
X33630774Y-88998356D01*
X33638332Y-89000000D01*
X34707170Y-89000000D01*
X34722169Y-88995596D01*
X34723356Y-88994226D01*
X34725000Y-88986668D01*
X34725000Y-87917830D01*
X34720596Y-87902831D01*
X34719226Y-87901644D01*
X34711668Y-87900000D01*
X34081028Y-87900000D01*
X34074331Y-87900363D01*
X34024256Y-87905803D01*
X34009247Y-87909371D01*
X33890689Y-87953817D01*
X33875354Y-87962212D01*
X33774876Y-88037516D01*
X33762516Y-88049876D01*
X33687212Y-88150354D01*
X33678817Y-88165689D01*
X33634371Y-88284247D01*
X33630803Y-88299256D01*
X33625363Y-88349331D01*
X33625000Y-88356028D01*
X33625000Y-88982170D01*
X20664277Y-88982170D01*
X20712231Y-88934216D01*
X20719130Y-88921581D01*
X20711459Y-88911062D01*
X20546675Y-88781156D01*
X20540552Y-88776901D01*
X20268915Y-88611417D01*
X20262317Y-88607924D01*
X19972767Y-88476274D01*
X19965796Y-88473598D01*
X19662528Y-88377686D01*
X19655290Y-88375868D01*
X19342693Y-88317085D01*
X19335291Y-88316150D01*
X19017877Y-88295345D01*
X19010446Y-88295307D01*
X18692835Y-88312786D01*
X18685415Y-88313644D01*
X18372221Y-88369152D01*
X18364972Y-88370892D01*
X18060713Y-88463622D01*
X18053717Y-88466224D01*
X17762805Y-88594835D01*
X17756165Y-88598263D01*
X17482819Y-88760886D01*
X17476641Y-88765084D01*
X17288666Y-88910107D01*
X17280334Y-88921580D01*
X15300500Y-88921580D01*
X15300500Y-83602326D01*
X55952929Y-83602326D01*
X56005430Y-83798264D01*
X56009119Y-83808397D01*
X56104372Y-84012667D01*
X56109770Y-84022017D01*
X56239046Y-84206643D01*
X56245981Y-84214907D01*
X56405353Y-84374279D01*
X56413619Y-84381215D01*
X56598254Y-84510498D01*
X56607586Y-84515886D01*
X56799960Y-84605592D01*
X56852399Y-84651764D01*
X56871551Y-84718958D01*
X56851335Y-84785839D01*
X56798170Y-84831174D01*
X56790474Y-84834309D01*
X56782837Y-84837127D01*
X56777959Y-84840029D01*
X56777957Y-84840030D01*
X56606002Y-84942332D01*
X56605999Y-84942334D01*
X56601118Y-84945238D01*
X56442143Y-85084655D01*
X56438624Y-85089119D01*
X56438621Y-85089122D01*
X56421044Y-85111419D01*
X56311238Y-85250708D01*
X56212785Y-85437836D01*
X56150082Y-85639773D01*
X56149414Y-85645418D01*
X56149413Y-85645422D01*
X56125897Y-85844110D01*
X56125229Y-85849754D01*
X56125600Y-85855416D01*
X56125600Y-85855420D01*
X56127211Y-85880000D01*
X56139058Y-86060749D01*
X56191107Y-86265690D01*
X56193481Y-86270841D01*
X56193483Y-86270845D01*
X56232243Y-86354922D01*
X56279631Y-86457714D01*
X56401667Y-86630391D01*
X56553127Y-86777937D01*
X56557850Y-86781093D01*
X56557854Y-86781096D01*
X56628925Y-86828584D01*
X56728939Y-86895411D01*
X56923215Y-86978878D01*
X56986545Y-86993208D01*
X57123900Y-87024289D01*
X57123904Y-87024290D01*
X57129448Y-87025544D01*
X57255913Y-87030513D01*
X57335051Y-87033623D01*
X57335053Y-87033623D01*
X57340732Y-87033846D01*
X57346352Y-87033031D01*
X57346354Y-87033031D01*
X57544365Y-87004320D01*
X57544366Y-87004320D01*
X57549992Y-87003504D01*
X57629152Y-86976633D01*
X57744827Y-86937367D01*
X57744830Y-86937366D01*
X57750217Y-86935537D01*
X57755178Y-86932759D01*
X57755184Y-86932756D01*
X57861792Y-86873052D01*
X57934704Y-86832219D01*
X58097274Y-86697012D01*
X58100906Y-86692645D01*
X58228846Y-86538813D01*
X58228847Y-86538811D01*
X58232481Y-86534442D01*
X58278340Y-86452556D01*
X58333018Y-86354922D01*
X58333021Y-86354916D01*
X58335799Y-86349955D01*
X58366271Y-86260189D01*
X58401937Y-86155118D01*
X58403766Y-86149730D01*
X58434108Y-85940470D01*
X58435691Y-85880000D01*
X58416343Y-85669440D01*
X58358948Y-85465931D01*
X58265427Y-85276290D01*
X58138913Y-85106867D01*
X58134743Y-85103012D01*
X58134740Y-85103009D01*
X58070581Y-85043702D01*
X57983643Y-84963337D01*
X57804816Y-84850505D01*
X57764384Y-84834374D01*
X57709413Y-84791251D01*
X57686482Y-84725251D01*
X57702873Y-84657332D01*
X57757929Y-84606821D01*
X57952938Y-84515886D01*
X57962270Y-84510498D01*
X58146905Y-84381215D01*
X58155171Y-84374279D01*
X58314543Y-84214907D01*
X58321478Y-84206643D01*
X58450754Y-84022017D01*
X58456152Y-84012667D01*
X58551405Y-83808397D01*
X58555094Y-83798264D01*
X58606284Y-83607221D01*
X58605953Y-83593347D01*
X58598137Y-83590000D01*
X55967456Y-83590000D01*
X55954139Y-83593910D01*
X55952929Y-83602326D01*
X15300500Y-83602326D01*
X15300500Y-73193138D01*
X28144758Y-73193138D01*
X28145578Y-73200566D01*
X28145578Y-73200568D01*
X28153199Y-73269598D01*
X28162035Y-73349633D01*
X28164601Y-73356645D01*
X28164602Y-73356649D01*
X28193870Y-73436625D01*
X28216143Y-73497490D01*
X28303958Y-73628172D01*
X28333356Y-73654922D01*
X28414878Y-73729102D01*
X28414882Y-73729105D01*
X28420410Y-73734135D01*
X28426980Y-73737702D01*
X28426981Y-73737703D01*
X28552208Y-73805696D01*
X28558776Y-73809262D01*
X28654757Y-73834442D01*
X28703841Y-73847319D01*
X28703843Y-73847319D01*
X28711069Y-73849215D01*
X28788127Y-73850425D01*
X28861025Y-73851571D01*
X28861028Y-73851571D01*
X28868495Y-73851688D01*
X28875776Y-73850020D01*
X28875780Y-73850020D01*
X29014681Y-73818207D01*
X29021968Y-73816538D01*
X29162625Y-73745795D01*
X29168306Y-73740943D01*
X29168309Y-73740941D01*
X29276666Y-73648395D01*
X29276667Y-73648394D01*
X29282348Y-73643542D01*
X29339659Y-73563785D01*
X29394764Y-73520830D01*
X29464345Y-73514486D01*
X29526310Y-73546768D01*
X29560986Y-73607426D01*
X29563296Y-73652329D01*
X29544758Y-73793138D01*
X29545578Y-73800566D01*
X29545578Y-73800568D01*
X29558814Y-73920459D01*
X29562035Y-73949633D01*
X29564601Y-73956645D01*
X29564602Y-73956649D01*
X29571878Y-73976530D01*
X29616143Y-74097490D01*
X29703958Y-74228172D01*
X29757216Y-74276633D01*
X29814878Y-74329102D01*
X29814882Y-74329105D01*
X29820410Y-74334135D01*
X29826980Y-74337702D01*
X29826981Y-74337703D01*
X29952208Y-74405696D01*
X29958776Y-74409262D01*
X30061031Y-74436088D01*
X30103841Y-74447319D01*
X30103843Y-74447319D01*
X30111069Y-74449215D01*
X30188127Y-74450425D01*
X30261025Y-74451571D01*
X30261028Y-74451571D01*
X30268495Y-74451688D01*
X30275776Y-74450020D01*
X30275780Y-74450020D01*
X30414681Y-74418207D01*
X30421968Y-74416538D01*
X30468494Y-74393138D01*
X36844758Y-74393138D01*
X36845578Y-74400566D01*
X36845578Y-74400568D01*
X36850949Y-74449215D01*
X36862035Y-74549633D01*
X36864601Y-74556645D01*
X36864602Y-74556649D01*
X36871878Y-74576530D01*
X36916143Y-74697490D01*
X36920314Y-74703697D01*
X36987270Y-74803337D01*
X37003958Y-74828172D01*
X37026183Y-74848395D01*
X37114878Y-74929102D01*
X37114882Y-74929105D01*
X37120410Y-74934135D01*
X37126980Y-74937702D01*
X37126981Y-74937703D01*
X37141885Y-74945795D01*
X37258776Y-75009262D01*
X37361031Y-75036088D01*
X37403841Y-75047319D01*
X37403843Y-75047319D01*
X37411069Y-75049215D01*
X37488127Y-75050425D01*
X37561025Y-75051571D01*
X37561028Y-75051571D01*
X37568495Y-75051688D01*
X37575776Y-75050020D01*
X37575780Y-75050020D01*
X37714681Y-75018207D01*
X37721968Y-75016538D01*
X37862625Y-74945795D01*
X37868306Y-74940943D01*
X37868309Y-74940941D01*
X37976666Y-74848395D01*
X37976667Y-74848394D01*
X37982348Y-74843542D01*
X37993393Y-74828172D01*
X38026332Y-74782332D01*
X38074224Y-74715683D01*
X38132950Y-74569598D01*
X38134793Y-74556649D01*
X38154562Y-74417744D01*
X38154562Y-74417740D01*
X38155134Y-74413723D01*
X38155278Y-74400000D01*
X38149125Y-74349154D01*
X38137262Y-74251119D01*
X38137261Y-74251115D01*
X38136363Y-74243694D01*
X38118967Y-74197657D01*
X38083354Y-74103408D01*
X38083352Y-74103405D01*
X38080710Y-74096412D01*
X38070184Y-74081096D01*
X37995768Y-73972821D01*
X37995765Y-73972818D01*
X37991531Y-73966657D01*
X37873976Y-73861919D01*
X37734831Y-73788245D01*
X37582128Y-73749889D01*
X37500329Y-73749461D01*
X37432158Y-73749104D01*
X37432157Y-73749104D01*
X37424684Y-73749065D01*
X37417421Y-73750809D01*
X37417418Y-73750809D01*
X37348136Y-73767442D01*
X37271588Y-73785820D01*
X37131679Y-73858032D01*
X37013034Y-73961533D01*
X36922501Y-74090348D01*
X36919785Y-74097313D01*
X36919785Y-74097314D01*
X36906176Y-74132219D01*
X36865309Y-74237039D01*
X36844758Y-74393138D01*
X30468494Y-74393138D01*
X30562625Y-74345795D01*
X30568306Y-74340943D01*
X30568309Y-74340941D01*
X30676666Y-74248395D01*
X30676667Y-74248394D01*
X30682348Y-74243542D01*
X30692027Y-74230073D01*
X30719205Y-74192250D01*
X30774224Y-74115683D01*
X30832950Y-73969598D01*
X30834797Y-73956620D01*
X30854562Y-73817744D01*
X30854562Y-73817740D01*
X30855134Y-73813723D01*
X30855278Y-73800000D01*
X30853977Y-73789247D01*
X30837262Y-73651119D01*
X30837261Y-73651115D01*
X30836363Y-73643694D01*
X30798519Y-73543542D01*
X30783354Y-73503408D01*
X30783352Y-73503405D01*
X30780710Y-73496412D01*
X30739619Y-73436625D01*
X30695768Y-73372821D01*
X30695765Y-73372818D01*
X30691531Y-73366657D01*
X30573976Y-73261919D01*
X30434831Y-73188245D01*
X30282128Y-73149889D01*
X30200329Y-73149461D01*
X30132158Y-73149104D01*
X30132157Y-73149104D01*
X30124684Y-73149065D01*
X30117421Y-73150809D01*
X30117418Y-73150809D01*
X30048136Y-73167442D01*
X29971588Y-73185820D01*
X29831679Y-73258032D01*
X29713034Y-73361533D01*
X29660257Y-73436626D01*
X29605606Y-73480155D01*
X29536095Y-73487227D01*
X29473795Y-73455596D01*
X29438487Y-73395304D01*
X29436045Y-73347854D01*
X29454562Y-73217746D01*
X29454563Y-73217738D01*
X29455134Y-73213723D01*
X29455278Y-73200000D01*
X29453977Y-73189247D01*
X29442347Y-73093138D01*
X33144758Y-73093138D01*
X33145578Y-73100566D01*
X33145578Y-73100568D01*
X33156618Y-73200568D01*
X33162035Y-73249633D01*
X33164601Y-73256645D01*
X33164602Y-73256649D01*
X33168351Y-73266893D01*
X33216143Y-73397490D01*
X33303958Y-73528172D01*
X33343096Y-73563785D01*
X33414878Y-73629102D01*
X33414882Y-73629105D01*
X33420410Y-73634135D01*
X33426980Y-73637702D01*
X33426981Y-73637703D01*
X33552208Y-73705696D01*
X33558776Y-73709262D01*
X33653587Y-73734135D01*
X33703841Y-73747319D01*
X33703843Y-73747319D01*
X33711069Y-73749215D01*
X33788127Y-73750425D01*
X33861025Y-73751571D01*
X33861028Y-73751571D01*
X33868495Y-73751688D01*
X33875776Y-73750020D01*
X33875780Y-73750020D01*
X34014681Y-73718207D01*
X34021968Y-73716538D01*
X34162625Y-73645795D01*
X34168306Y-73640943D01*
X34168309Y-73640941D01*
X34276666Y-73548395D01*
X34276667Y-73548394D01*
X34282348Y-73543542D01*
X34293393Y-73528172D01*
X34327896Y-73480155D01*
X34374224Y-73415683D01*
X34432950Y-73269598D01*
X34435736Y-73250020D01*
X34449979Y-73149946D01*
X34478913Y-73086349D01*
X34537637Y-73048491D01*
X34607507Y-73048391D01*
X34656195Y-73075704D01*
X34714878Y-73129102D01*
X34714882Y-73129105D01*
X34720410Y-73134135D01*
X34726980Y-73137702D01*
X34726981Y-73137703D01*
X34852208Y-73205696D01*
X34858776Y-73209262D01*
X34961031Y-73236088D01*
X35003841Y-73247319D01*
X35003843Y-73247319D01*
X35011069Y-73249215D01*
X35088127Y-73250425D01*
X35161025Y-73251571D01*
X35161028Y-73251571D01*
X35168495Y-73251688D01*
X35175776Y-73250020D01*
X35175780Y-73250020D01*
X35314681Y-73218207D01*
X35321968Y-73216538D01*
X35462625Y-73145795D01*
X35468306Y-73140943D01*
X35468309Y-73140941D01*
X35524279Y-73093138D01*
X39744758Y-73093138D01*
X39745578Y-73100566D01*
X39745578Y-73100568D01*
X39756618Y-73200568D01*
X39762035Y-73249633D01*
X39764601Y-73256645D01*
X39764602Y-73256649D01*
X39768351Y-73266893D01*
X39816143Y-73397490D01*
X39903958Y-73528172D01*
X39943096Y-73563785D01*
X40014878Y-73629102D01*
X40014882Y-73629105D01*
X40020410Y-73634135D01*
X40026980Y-73637702D01*
X40026981Y-73637703D01*
X40152208Y-73705696D01*
X40158776Y-73709262D01*
X40253587Y-73734135D01*
X40303841Y-73747319D01*
X40303843Y-73747319D01*
X40311069Y-73749215D01*
X40388127Y-73750425D01*
X40461025Y-73751571D01*
X40461028Y-73751571D01*
X40468495Y-73751688D01*
X40475776Y-73750020D01*
X40475780Y-73750020D01*
X40614681Y-73718207D01*
X40621968Y-73716538D01*
X40762625Y-73645795D01*
X40768306Y-73640943D01*
X40768309Y-73640941D01*
X40876666Y-73548395D01*
X40876667Y-73548394D01*
X40882348Y-73543542D01*
X40893393Y-73528172D01*
X40927896Y-73480155D01*
X40974224Y-73415683D01*
X41032950Y-73269598D01*
X41035516Y-73251571D01*
X41054562Y-73117744D01*
X41054562Y-73117740D01*
X41055134Y-73113723D01*
X41055278Y-73100000D01*
X41048446Y-73043542D01*
X41037262Y-72951119D01*
X41037261Y-72951115D01*
X41036363Y-72943694D01*
X40980710Y-72796412D01*
X40972337Y-72784229D01*
X40895768Y-72672821D01*
X40895765Y-72672818D01*
X40891531Y-72666657D01*
X40812191Y-72595967D01*
X40779559Y-72566893D01*
X40779558Y-72566892D01*
X40773976Y-72561919D01*
X40634831Y-72488245D01*
X40482128Y-72449889D01*
X40400329Y-72449461D01*
X40332158Y-72449104D01*
X40332157Y-72449104D01*
X40324684Y-72449065D01*
X40317421Y-72450809D01*
X40317418Y-72450809D01*
X40248136Y-72467443D01*
X40171588Y-72485820D01*
X40031679Y-72558032D01*
X40026048Y-72562945D01*
X40026047Y-72562945D01*
X40004900Y-72581393D01*
X39913034Y-72661533D01*
X39822501Y-72790348D01*
X39765309Y-72937039D01*
X39744758Y-73093138D01*
X35524279Y-73093138D01*
X35576666Y-73048395D01*
X35576667Y-73048394D01*
X35582348Y-73043542D01*
X35592027Y-73030073D01*
X35631528Y-72975101D01*
X35674224Y-72915683D01*
X35732950Y-72769598D01*
X35734098Y-72761533D01*
X35754562Y-72617744D01*
X35754562Y-72617740D01*
X35755134Y-72613723D01*
X35755278Y-72600000D01*
X35753977Y-72589247D01*
X35737262Y-72451119D01*
X35737261Y-72451115D01*
X35736363Y-72443694D01*
X35722447Y-72406867D01*
X35683354Y-72303408D01*
X35683352Y-72303405D01*
X35680710Y-72296412D01*
X35655892Y-72260302D01*
X35595768Y-72172821D01*
X35595765Y-72172818D01*
X35591531Y-72166657D01*
X35545251Y-72125423D01*
X35479559Y-72066893D01*
X35479558Y-72066892D01*
X35473976Y-72061919D01*
X35334831Y-71988245D01*
X35182128Y-71949889D01*
X35100329Y-71949461D01*
X35032158Y-71949104D01*
X35032157Y-71949104D01*
X35024684Y-71949065D01*
X35017421Y-71950809D01*
X35017418Y-71950809D01*
X34948136Y-71967442D01*
X34871588Y-71985820D01*
X34731679Y-72058032D01*
X34726048Y-72062945D01*
X34726047Y-72062945D01*
X34715493Y-72072152D01*
X34613034Y-72161533D01*
X34522501Y-72290348D01*
X34465309Y-72437039D01*
X34450577Y-72548937D01*
X34422312Y-72612832D01*
X34363988Y-72651303D01*
X34294123Y-72652135D01*
X34245150Y-72625333D01*
X34179559Y-72566893D01*
X34179558Y-72566892D01*
X34173976Y-72561919D01*
X34034831Y-72488245D01*
X33882128Y-72449889D01*
X33800329Y-72449461D01*
X33732158Y-72449104D01*
X33732157Y-72449104D01*
X33724684Y-72449065D01*
X33717421Y-72450809D01*
X33717418Y-72450809D01*
X33648136Y-72467443D01*
X33571588Y-72485820D01*
X33431679Y-72558032D01*
X33426048Y-72562945D01*
X33426047Y-72562945D01*
X33404900Y-72581393D01*
X33313034Y-72661533D01*
X33222501Y-72790348D01*
X33165309Y-72937039D01*
X33144758Y-73093138D01*
X29442347Y-73093138D01*
X29437262Y-73051119D01*
X29437261Y-73051115D01*
X29436363Y-73043694D01*
X29401382Y-72951119D01*
X29383354Y-72903408D01*
X29383352Y-72903405D01*
X29380710Y-72896412D01*
X29316790Y-72803408D01*
X29295768Y-72772821D01*
X29295765Y-72772818D01*
X29291531Y-72766657D01*
X29186212Y-72672821D01*
X29179559Y-72666893D01*
X29179558Y-72666892D01*
X29173976Y-72661919D01*
X29034831Y-72588245D01*
X28905450Y-72555747D01*
X28889378Y-72551710D01*
X28882128Y-72549889D01*
X28800329Y-72549461D01*
X28732158Y-72549104D01*
X28732157Y-72549104D01*
X28724684Y-72549065D01*
X28717421Y-72550809D01*
X28717418Y-72550809D01*
X28671143Y-72561919D01*
X28571588Y-72585820D01*
X28431679Y-72658032D01*
X28313034Y-72761533D01*
X28222501Y-72890348D01*
X28165309Y-73037039D01*
X28144758Y-73193138D01*
X15300500Y-73193138D01*
X15300500Y-69393138D01*
X28144758Y-69393138D01*
X28145578Y-69400566D01*
X28145578Y-69400568D01*
X28154927Y-69485251D01*
X28162035Y-69549633D01*
X28164601Y-69556645D01*
X28164602Y-69556649D01*
X28183541Y-69608401D01*
X28216143Y-69697490D01*
X28303958Y-69828172D01*
X28346483Y-69866867D01*
X28414878Y-69929102D01*
X28414882Y-69929105D01*
X28420410Y-69934135D01*
X28558776Y-70009262D01*
X28644431Y-70031733D01*
X28703841Y-70047319D01*
X28703843Y-70047319D01*
X28711069Y-70049215D01*
X28788127Y-70050425D01*
X28861025Y-70051571D01*
X28861028Y-70051571D01*
X28868495Y-70051688D01*
X28875776Y-70050020D01*
X28875780Y-70050020D01*
X29014681Y-70018207D01*
X29021968Y-70016538D01*
X29162625Y-69945795D01*
X29168306Y-69940943D01*
X29168309Y-69940941D01*
X29276666Y-69848395D01*
X29276667Y-69848394D01*
X29282348Y-69843542D01*
X29293393Y-69828172D01*
X29368724Y-69723337D01*
X29374224Y-69715683D01*
X29432950Y-69569598D01*
X29435561Y-69551251D01*
X29454562Y-69417744D01*
X29454562Y-69417740D01*
X29455134Y-69413723D01*
X29455278Y-69400000D01*
X29436363Y-69243694D01*
X29380710Y-69096412D01*
X29372337Y-69084229D01*
X29295768Y-68972821D01*
X29295765Y-68972818D01*
X29291531Y-68966657D01*
X29218480Y-68901571D01*
X29179559Y-68866893D01*
X29179558Y-68866892D01*
X29173976Y-68861919D01*
X29034831Y-68788245D01*
X28882128Y-68749889D01*
X28800329Y-68749461D01*
X28732158Y-68749104D01*
X28732157Y-68749104D01*
X28724684Y-68749065D01*
X28717421Y-68750809D01*
X28717418Y-68750809D01*
X28648136Y-68767443D01*
X28571588Y-68785820D01*
X28431679Y-68858032D01*
X28313034Y-68961533D01*
X28222501Y-69090348D01*
X28165309Y-69237039D01*
X28144758Y-69393138D01*
X15300500Y-69393138D01*
X15300500Y-68243138D01*
X38594758Y-68243138D01*
X38595578Y-68250566D01*
X38595578Y-68250568D01*
X38606925Y-68353347D01*
X38612035Y-68399633D01*
X38666143Y-68547490D01*
X38753958Y-68678172D01*
X38776183Y-68698395D01*
X38864878Y-68779102D01*
X38864882Y-68779105D01*
X38870410Y-68784135D01*
X38876980Y-68787702D01*
X38876981Y-68787703D01*
X38879825Y-68789247D01*
X39008776Y-68859262D01*
X39111031Y-68886088D01*
X39153841Y-68897319D01*
X39153843Y-68897319D01*
X39161069Y-68899215D01*
X39238127Y-68900425D01*
X39311025Y-68901571D01*
X39311028Y-68901571D01*
X39318495Y-68901688D01*
X39325776Y-68900020D01*
X39325780Y-68900020D01*
X39464681Y-68868207D01*
X39471968Y-68866538D01*
X39612625Y-68795795D01*
X39618306Y-68790943D01*
X39618309Y-68790941D01*
X39726666Y-68698395D01*
X39726667Y-68698394D01*
X39732348Y-68693542D01*
X39743393Y-68678172D01*
X39763798Y-68649775D01*
X39824224Y-68565683D01*
X39876120Y-68436589D01*
X39919390Y-68381730D01*
X39985449Y-68358972D01*
X40022637Y-68362899D01*
X40116894Y-68387626D01*
X40161069Y-68399215D01*
X40238127Y-68400425D01*
X40311025Y-68401571D01*
X40311028Y-68401571D01*
X40318495Y-68401688D01*
X40325776Y-68400020D01*
X40325780Y-68400020D01*
X40464681Y-68368207D01*
X40471968Y-68366538D01*
X40480343Y-68362326D01*
X55952929Y-68362326D01*
X56005430Y-68558264D01*
X56009119Y-68568397D01*
X56104372Y-68772667D01*
X56109770Y-68782017D01*
X56239046Y-68966643D01*
X56245981Y-68974907D01*
X56405353Y-69134279D01*
X56413619Y-69141215D01*
X56598254Y-69270498D01*
X56607586Y-69275886D01*
X56799960Y-69365592D01*
X56852399Y-69411764D01*
X56871551Y-69478958D01*
X56851335Y-69545839D01*
X56798170Y-69591174D01*
X56790474Y-69594309D01*
X56782837Y-69597127D01*
X56777959Y-69600029D01*
X56777957Y-69600030D01*
X56606002Y-69702332D01*
X56605999Y-69702334D01*
X56601118Y-69705238D01*
X56442143Y-69844655D01*
X56438624Y-69849119D01*
X56438621Y-69849122D01*
X56421044Y-69871419D01*
X56311238Y-70010708D01*
X56212785Y-70197836D01*
X56150082Y-70399773D01*
X56149414Y-70405418D01*
X56149413Y-70405422D01*
X56125897Y-70604110D01*
X56125229Y-70609754D01*
X56125600Y-70615416D01*
X56125600Y-70615420D01*
X56127211Y-70640000D01*
X56139058Y-70820749D01*
X56191107Y-71025690D01*
X56193481Y-71030841D01*
X56193483Y-71030845D01*
X56232243Y-71114922D01*
X56279631Y-71217714D01*
X56401667Y-71390391D01*
X56553127Y-71537937D01*
X56557850Y-71541093D01*
X56557854Y-71541096D01*
X56628925Y-71588584D01*
X56728939Y-71655411D01*
X56923215Y-71738878D01*
X56986545Y-71753208D01*
X57123900Y-71784289D01*
X57123904Y-71784290D01*
X57129448Y-71785544D01*
X57148590Y-71786296D01*
X57214805Y-71808596D01*
X57258452Y-71863156D01*
X57265674Y-71932651D01*
X57234176Y-71995018D01*
X57173961Y-72030457D01*
X57164722Y-72032409D01*
X56986812Y-72062979D01*
X56986809Y-72062980D01*
X56981215Y-72063941D01*
X56782837Y-72137127D01*
X56777959Y-72140029D01*
X56777957Y-72140030D01*
X56606002Y-72242332D01*
X56605999Y-72242334D01*
X56601118Y-72245238D01*
X56442143Y-72384655D01*
X56438624Y-72389119D01*
X56438621Y-72389122D01*
X56395001Y-72444454D01*
X56311238Y-72550708D01*
X56212785Y-72737836D01*
X56211099Y-72743267D01*
X56211097Y-72743271D01*
X56192424Y-72803408D01*
X56150082Y-72939773D01*
X56149414Y-72945418D01*
X56149413Y-72945422D01*
X56129018Y-73117744D01*
X56125229Y-73149754D01*
X56125600Y-73155416D01*
X56125600Y-73155420D01*
X56130936Y-73236831D01*
X56139058Y-73360749D01*
X56191107Y-73565690D01*
X56193481Y-73570841D01*
X56193483Y-73570845D01*
X56276084Y-73750020D01*
X56279631Y-73757714D01*
X56282909Y-73762352D01*
X56350804Y-73858421D01*
X56401667Y-73930391D01*
X56405738Y-73934357D01*
X56405739Y-73934358D01*
X56449030Y-73976530D01*
X56553127Y-74077937D01*
X56557850Y-74081093D01*
X56557854Y-74081096D01*
X56628925Y-74128584D01*
X56728939Y-74195411D01*
X56923215Y-74278878D01*
X56986545Y-74293208D01*
X57123900Y-74324289D01*
X57123904Y-74324290D01*
X57129448Y-74325544D01*
X57148590Y-74326296D01*
X57214805Y-74348596D01*
X57258452Y-74403156D01*
X57265674Y-74472651D01*
X57234176Y-74535018D01*
X57173961Y-74570457D01*
X57164722Y-74572409D01*
X56986812Y-74602979D01*
X56986809Y-74602980D01*
X56981215Y-74603941D01*
X56782837Y-74677127D01*
X56777959Y-74680029D01*
X56777957Y-74680030D01*
X56606002Y-74782332D01*
X56605999Y-74782334D01*
X56601118Y-74785238D01*
X56442143Y-74924655D01*
X56438624Y-74929119D01*
X56438621Y-74929122D01*
X56421044Y-74951419D01*
X56311238Y-75090708D01*
X56212785Y-75277836D01*
X56150082Y-75479773D01*
X56149414Y-75485418D01*
X56149413Y-75485422D01*
X56125897Y-75684110D01*
X56125229Y-75689754D01*
X56125600Y-75695416D01*
X56125600Y-75695420D01*
X56127211Y-75720000D01*
X56139058Y-75900749D01*
X56191107Y-76105690D01*
X56193481Y-76110841D01*
X56193483Y-76110845D01*
X56232243Y-76194922D01*
X56279631Y-76297714D01*
X56401667Y-76470391D01*
X56553127Y-76617937D01*
X56557850Y-76621093D01*
X56557854Y-76621096D01*
X56628925Y-76668584D01*
X56728939Y-76735411D01*
X56923215Y-76818878D01*
X56986545Y-76833208D01*
X57123900Y-76864289D01*
X57123904Y-76864290D01*
X57129448Y-76865544D01*
X57148590Y-76866296D01*
X57214805Y-76888596D01*
X57258452Y-76943156D01*
X57265674Y-77012651D01*
X57234176Y-77075018D01*
X57173961Y-77110457D01*
X57164722Y-77112409D01*
X56986812Y-77142979D01*
X56986809Y-77142980D01*
X56981215Y-77143941D01*
X56782837Y-77217127D01*
X56777959Y-77220029D01*
X56777957Y-77220030D01*
X56606002Y-77322332D01*
X56605999Y-77322334D01*
X56601118Y-77325238D01*
X56442143Y-77464655D01*
X56438624Y-77469119D01*
X56438621Y-77469122D01*
X56421044Y-77491419D01*
X56311238Y-77630708D01*
X56212785Y-77817836D01*
X56150082Y-78019773D01*
X56149414Y-78025418D01*
X56149413Y-78025422D01*
X56125897Y-78224110D01*
X56125229Y-78229754D01*
X56125600Y-78235416D01*
X56125600Y-78235420D01*
X56127211Y-78260000D01*
X56139058Y-78440749D01*
X56191107Y-78645690D01*
X56193481Y-78650841D01*
X56193483Y-78650845D01*
X56232243Y-78734922D01*
X56279631Y-78837714D01*
X56401667Y-79010391D01*
X56553127Y-79157937D01*
X56557850Y-79161093D01*
X56557854Y-79161096D01*
X56628925Y-79208584D01*
X56728939Y-79275411D01*
X56923215Y-79358878D01*
X56986545Y-79373208D01*
X57123900Y-79404289D01*
X57123904Y-79404290D01*
X57129448Y-79405544D01*
X57148590Y-79406296D01*
X57214805Y-79428596D01*
X57258452Y-79483156D01*
X57265674Y-79552651D01*
X57234176Y-79615018D01*
X57173961Y-79650457D01*
X57164722Y-79652409D01*
X56986812Y-79682979D01*
X56986809Y-79682980D01*
X56981215Y-79683941D01*
X56782837Y-79757127D01*
X56777959Y-79760029D01*
X56777957Y-79760030D01*
X56606002Y-79862332D01*
X56605999Y-79862334D01*
X56601118Y-79865238D01*
X56442143Y-80004655D01*
X56438624Y-80009119D01*
X56438621Y-80009122D01*
X56421044Y-80031419D01*
X56311238Y-80170708D01*
X56212785Y-80357836D01*
X56150082Y-80559773D01*
X56149414Y-80565418D01*
X56149413Y-80565422D01*
X56125897Y-80764110D01*
X56125229Y-80769754D01*
X56125600Y-80775416D01*
X56125600Y-80775420D01*
X56127211Y-80800000D01*
X56139058Y-80980749D01*
X56191107Y-81185690D01*
X56193481Y-81190841D01*
X56193483Y-81190845D01*
X56232243Y-81274922D01*
X56279631Y-81377714D01*
X56401667Y-81550391D01*
X56553127Y-81697937D01*
X56557850Y-81701093D01*
X56557854Y-81701096D01*
X56628925Y-81748584D01*
X56728939Y-81815411D01*
X56734165Y-81817656D01*
X56734170Y-81817659D01*
X56800584Y-81846192D01*
X56854410Y-81890741D01*
X56875605Y-81957318D01*
X56857442Y-82024785D01*
X56804042Y-82072504D01*
X56607595Y-82164110D01*
X56598245Y-82169508D01*
X56413619Y-82298784D01*
X56405355Y-82305719D01*
X56245981Y-82465093D01*
X56239046Y-82473357D01*
X56109770Y-82657983D01*
X56104372Y-82667333D01*
X56009119Y-82871603D01*
X56005430Y-82881736D01*
X55954240Y-83072779D01*
X55954571Y-83086653D01*
X55962387Y-83090000D01*
X58593068Y-83090000D01*
X58606385Y-83086090D01*
X58607595Y-83077674D01*
X58555094Y-82881736D01*
X58551405Y-82871603D01*
X58456152Y-82667333D01*
X58450754Y-82657983D01*
X58321478Y-82473357D01*
X58314543Y-82465093D01*
X58155171Y-82305721D01*
X58146905Y-82298785D01*
X57962270Y-82169502D01*
X57952938Y-82164114D01*
X57761040Y-82074630D01*
X57708601Y-82028458D01*
X57689449Y-81961264D01*
X57709665Y-81894383D01*
X57752856Y-81854059D01*
X57934704Y-81752219D01*
X58097274Y-81617012D01*
X58100906Y-81612645D01*
X58228846Y-81458813D01*
X58228847Y-81458811D01*
X58232481Y-81454442D01*
X58278340Y-81372556D01*
X58333018Y-81274922D01*
X58333021Y-81274916D01*
X58335799Y-81269955D01*
X58366271Y-81180189D01*
X58401937Y-81075118D01*
X58403766Y-81069730D01*
X58434108Y-80860470D01*
X58435691Y-80800000D01*
X58416343Y-80589440D01*
X58358948Y-80385931D01*
X58265427Y-80196290D01*
X58138913Y-80026867D01*
X58134743Y-80023012D01*
X58134740Y-80023009D01*
X58070581Y-79963702D01*
X57983643Y-79883337D01*
X57804816Y-79770505D01*
X57608422Y-79692152D01*
X57602841Y-79691042D01*
X57602838Y-79691041D01*
X57406617Y-79652011D01*
X57406618Y-79652011D01*
X57401037Y-79650901D01*
X57401006Y-79650901D01*
X57338090Y-79625019D01*
X57298103Y-79567723D01*
X57295440Y-79497904D01*
X57330946Y-79437729D01*
X57397868Y-79405562D01*
X57544365Y-79384320D01*
X57544366Y-79384320D01*
X57549992Y-79383504D01*
X57629152Y-79356633D01*
X57744827Y-79317367D01*
X57744830Y-79317366D01*
X57750217Y-79315537D01*
X57755178Y-79312759D01*
X57755184Y-79312756D01*
X57861792Y-79253052D01*
X57934704Y-79212219D01*
X58097274Y-79077012D01*
X58100906Y-79072645D01*
X58228846Y-78918813D01*
X58228847Y-78918811D01*
X58232481Y-78914442D01*
X58278340Y-78832556D01*
X58333018Y-78734922D01*
X58333021Y-78734916D01*
X58335799Y-78729955D01*
X58366271Y-78640189D01*
X58401937Y-78535118D01*
X58403766Y-78529730D01*
X58434108Y-78320470D01*
X58435691Y-78260000D01*
X58416343Y-78049440D01*
X58358948Y-77845931D01*
X58265427Y-77656290D01*
X58138913Y-77486867D01*
X58134743Y-77483012D01*
X58134740Y-77483009D01*
X58070581Y-77423702D01*
X57983643Y-77343337D01*
X57804816Y-77230505D01*
X57608422Y-77152152D01*
X57602841Y-77151042D01*
X57602838Y-77151041D01*
X57406617Y-77112011D01*
X57406618Y-77112011D01*
X57401037Y-77110901D01*
X57401006Y-77110901D01*
X57338090Y-77085019D01*
X57298103Y-77027723D01*
X57295440Y-76957904D01*
X57330946Y-76897729D01*
X57397868Y-76865562D01*
X57544365Y-76844320D01*
X57544366Y-76844320D01*
X57549992Y-76843504D01*
X57629152Y-76816633D01*
X57744827Y-76777367D01*
X57744830Y-76777366D01*
X57750217Y-76775537D01*
X57755178Y-76772759D01*
X57755184Y-76772756D01*
X57861792Y-76713052D01*
X57934704Y-76672219D01*
X58097274Y-76537012D01*
X58100906Y-76532645D01*
X58228846Y-76378813D01*
X58228847Y-76378811D01*
X58232481Y-76374442D01*
X58278340Y-76292556D01*
X58333018Y-76194922D01*
X58333021Y-76194916D01*
X58335799Y-76189955D01*
X58366271Y-76100189D01*
X58401937Y-75995118D01*
X58403766Y-75989730D01*
X58434108Y-75780470D01*
X58435691Y-75720000D01*
X58416343Y-75509440D01*
X58358948Y-75305931D01*
X58265427Y-75116290D01*
X58138913Y-74946867D01*
X58134743Y-74943012D01*
X58134740Y-74943009D01*
X58070581Y-74883702D01*
X57983643Y-74803337D01*
X57950352Y-74782332D01*
X57809625Y-74693539D01*
X57809623Y-74693538D01*
X57804816Y-74690505D01*
X57608422Y-74612152D01*
X57602841Y-74611042D01*
X57602838Y-74611041D01*
X57406617Y-74572011D01*
X57406618Y-74572011D01*
X57401037Y-74570901D01*
X57401006Y-74570901D01*
X57338090Y-74545019D01*
X57298103Y-74487723D01*
X57295440Y-74417904D01*
X57330946Y-74357729D01*
X57397868Y-74325562D01*
X57544365Y-74304320D01*
X57544366Y-74304320D01*
X57549992Y-74303504D01*
X57629152Y-74276633D01*
X57744827Y-74237367D01*
X57744830Y-74237366D01*
X57750217Y-74235537D01*
X57755178Y-74232759D01*
X57755184Y-74232756D01*
X57861792Y-74173052D01*
X57934704Y-74132219D01*
X57968999Y-74103697D01*
X58092907Y-74000644D01*
X58097274Y-73997012D01*
X58126226Y-73962201D01*
X58228846Y-73838813D01*
X58228847Y-73838811D01*
X58232481Y-73834442D01*
X58288656Y-73734135D01*
X58333018Y-73654922D01*
X58333021Y-73654916D01*
X58335799Y-73649955D01*
X58337925Y-73643694D01*
X58401937Y-73455118D01*
X58403766Y-73449730D01*
X58434108Y-73240470D01*
X58435691Y-73180000D01*
X58416343Y-72969440D01*
X58358948Y-72765931D01*
X58265427Y-72576290D01*
X58138913Y-72406867D01*
X58134743Y-72403012D01*
X58134740Y-72403009D01*
X58070581Y-72343702D01*
X57983643Y-72263337D01*
X57831989Y-72167650D01*
X57809625Y-72153539D01*
X57809623Y-72153538D01*
X57804816Y-72150505D01*
X57608422Y-72072152D01*
X57602841Y-72071042D01*
X57602838Y-72071041D01*
X57406617Y-72032011D01*
X57406618Y-72032011D01*
X57401037Y-72030901D01*
X57401006Y-72030901D01*
X57338090Y-72005019D01*
X57298103Y-71947723D01*
X57295440Y-71877904D01*
X57330946Y-71817729D01*
X57397868Y-71785562D01*
X57544365Y-71764320D01*
X57544366Y-71764320D01*
X57549992Y-71763504D01*
X57629152Y-71736633D01*
X57744827Y-71697367D01*
X57744830Y-71697366D01*
X57750217Y-71695537D01*
X57755178Y-71692759D01*
X57755184Y-71692756D01*
X57861792Y-71633052D01*
X57934704Y-71592219D01*
X58097274Y-71457012D01*
X58100906Y-71452645D01*
X58228846Y-71298813D01*
X58228847Y-71298811D01*
X58232481Y-71294442D01*
X58278340Y-71212556D01*
X58333018Y-71114922D01*
X58333021Y-71114916D01*
X58335799Y-71109955D01*
X58366271Y-71020189D01*
X58401937Y-70915118D01*
X58403766Y-70909730D01*
X58434108Y-70700470D01*
X58435691Y-70640000D01*
X58416343Y-70429440D01*
X58358948Y-70225931D01*
X58265427Y-70036290D01*
X58138913Y-69866867D01*
X58134743Y-69863012D01*
X58134740Y-69863009D01*
X58070581Y-69803702D01*
X57983643Y-69723337D01*
X57804816Y-69610505D01*
X57764384Y-69594374D01*
X57709413Y-69551251D01*
X57686482Y-69485251D01*
X57702873Y-69417332D01*
X57757929Y-69366821D01*
X57952938Y-69275886D01*
X57962270Y-69270498D01*
X58146905Y-69141215D01*
X58155171Y-69134279D01*
X58314543Y-68974907D01*
X58321478Y-68966643D01*
X58450754Y-68782017D01*
X58456152Y-68772667D01*
X58551405Y-68568397D01*
X58555094Y-68558264D01*
X58606284Y-68367221D01*
X58605953Y-68353347D01*
X58598137Y-68350000D01*
X55967456Y-68350000D01*
X55954139Y-68353910D01*
X55952929Y-68362326D01*
X40480343Y-68362326D01*
X40612625Y-68295795D01*
X40618306Y-68290943D01*
X40618309Y-68290941D01*
X40726666Y-68198395D01*
X40726667Y-68198394D01*
X40732348Y-68193542D01*
X40824224Y-68065683D01*
X40882950Y-67919598D01*
X40892855Y-67850000D01*
X40895306Y-67832779D01*
X55954240Y-67832779D01*
X55954571Y-67846653D01*
X55962387Y-67850000D01*
X58593068Y-67850000D01*
X58606385Y-67846090D01*
X58607595Y-67837674D01*
X58555094Y-67641736D01*
X58551405Y-67631603D01*
X58456152Y-67427333D01*
X58450754Y-67417983D01*
X58321478Y-67233357D01*
X58314543Y-67225093D01*
X58155171Y-67065721D01*
X58146905Y-67058785D01*
X57971658Y-66936075D01*
X57928034Y-66881498D01*
X57920841Y-66811999D01*
X57952363Y-66749645D01*
X58012593Y-66714231D01*
X58042782Y-66710500D01*
X58174908Y-66710500D01*
X58178562Y-66710065D01*
X58178564Y-66710065D01*
X58183528Y-66709474D01*
X58201108Y-66707382D01*
X58303415Y-66661939D01*
X58382503Y-66582713D01*
X58427768Y-66480327D01*
X58430762Y-66454646D01*
X58430762Y-64665354D01*
X58427644Y-64639154D01*
X58382201Y-64536847D01*
X58302975Y-64457759D01*
X58292504Y-64453130D01*
X58292503Y-64453129D01*
X58209115Y-64416263D01*
X58209113Y-64416262D01*
X58200589Y-64412494D01*
X58174908Y-64409500D01*
X56385616Y-64409500D01*
X56381962Y-64409935D01*
X56381960Y-64409935D01*
X56376996Y-64410526D01*
X56359416Y-64412618D01*
X56257109Y-64458061D01*
X56178021Y-64537287D01*
X56173392Y-64547758D01*
X56173391Y-64547759D01*
X56163993Y-64569018D01*
X56132756Y-64639673D01*
X56129762Y-64665354D01*
X56129762Y-66454646D01*
X56132880Y-66480846D01*
X56178323Y-66583153D01*
X56257549Y-66662241D01*
X56268020Y-66666870D01*
X56268021Y-66666871D01*
X56351409Y-66703737D01*
X56351411Y-66703738D01*
X56359935Y-66707506D01*
X56385616Y-66710500D01*
X56517744Y-66710500D01*
X56584783Y-66730185D01*
X56630538Y-66782989D01*
X56640482Y-66852147D01*
X56611457Y-66915703D01*
X56588867Y-66936075D01*
X56413619Y-67058784D01*
X56405355Y-67065719D01*
X56245981Y-67225093D01*
X56239046Y-67233357D01*
X56109770Y-67417983D01*
X56104372Y-67427333D01*
X56009119Y-67631603D01*
X56005430Y-67641736D01*
X55954240Y-67832779D01*
X40895306Y-67832779D01*
X40904562Y-67767744D01*
X40904562Y-67767740D01*
X40905134Y-67763723D01*
X40905278Y-67750000D01*
X40900794Y-67712945D01*
X40887262Y-67601119D01*
X40887261Y-67601115D01*
X40886363Y-67593694D01*
X40830710Y-67446412D01*
X40811171Y-67417983D01*
X40745768Y-67322821D01*
X40745765Y-67322818D01*
X40741531Y-67316657D01*
X40695251Y-67275423D01*
X40629559Y-67216893D01*
X40629558Y-67216892D01*
X40623976Y-67211919D01*
X40484831Y-67138245D01*
X40332128Y-67099889D01*
X40250329Y-67099461D01*
X40182158Y-67099104D01*
X40182157Y-67099104D01*
X40174684Y-67099065D01*
X40167421Y-67100809D01*
X40167418Y-67100809D01*
X40098136Y-67117442D01*
X40021588Y-67135820D01*
X39881679Y-67208032D01*
X39876048Y-67212945D01*
X39876047Y-67212945D01*
X39822357Y-67259782D01*
X39763034Y-67311533D01*
X39672501Y-67440348D01*
X39669785Y-67447313D01*
X39669785Y-67447314D01*
X39625198Y-67561675D01*
X39582506Y-67616985D01*
X39516688Y-67640433D01*
X39479460Y-67636896D01*
X39475177Y-67635820D01*
X39332128Y-67599889D01*
X39250329Y-67599461D01*
X39182158Y-67599104D01*
X39182157Y-67599104D01*
X39174684Y-67599065D01*
X39167421Y-67600809D01*
X39167418Y-67600809D01*
X39100042Y-67616985D01*
X39021588Y-67635820D01*
X38881679Y-67708032D01*
X38763034Y-67811533D01*
X38672501Y-67940348D01*
X38615309Y-68087039D01*
X38594758Y-68243138D01*
X15300500Y-68243138D01*
X15300500Y-64993138D01*
X49094758Y-64993138D01*
X49095578Y-65000566D01*
X49095578Y-65000568D01*
X49097474Y-65017744D01*
X49112035Y-65149633D01*
X49166143Y-65297490D01*
X49253958Y-65428172D01*
X49276183Y-65448395D01*
X49364878Y-65529102D01*
X49364882Y-65529105D01*
X49370410Y-65534135D01*
X49508776Y-65609262D01*
X49611031Y-65636088D01*
X49653841Y-65647319D01*
X49653843Y-65647319D01*
X49661069Y-65649215D01*
X49738127Y-65650425D01*
X49811025Y-65651571D01*
X49811028Y-65651571D01*
X49818495Y-65651688D01*
X49825776Y-65650020D01*
X49825780Y-65650020D01*
X49964681Y-65618207D01*
X49971968Y-65616538D01*
X50112625Y-65545795D01*
X50118306Y-65540943D01*
X50118309Y-65540941D01*
X50226666Y-65448395D01*
X50226667Y-65448394D01*
X50232348Y-65443542D01*
X50243393Y-65428172D01*
X50263798Y-65399775D01*
X50324224Y-65315683D01*
X50382950Y-65169598D01*
X50384793Y-65156649D01*
X50404562Y-65017744D01*
X50404562Y-65017740D01*
X50405134Y-65013723D01*
X50405278Y-65000000D01*
X50386363Y-64843694D01*
X50330710Y-64696412D01*
X50285515Y-64630654D01*
X50243154Y-64569018D01*
X50221405Y-64502620D01*
X50239007Y-64435004D01*
X50244648Y-64426425D01*
X50264053Y-64399420D01*
X50324224Y-64315683D01*
X50382950Y-64169598D01*
X50384793Y-64156649D01*
X50404562Y-64017744D01*
X50404562Y-64017740D01*
X50405134Y-64013723D01*
X50405278Y-64000000D01*
X50386363Y-63843694D01*
X50330710Y-63696412D01*
X50289821Y-63636918D01*
X50243154Y-63569018D01*
X50221405Y-63502620D01*
X50239007Y-63435004D01*
X50244648Y-63426425D01*
X50264053Y-63399420D01*
X50324224Y-63315683D01*
X50382950Y-63169598D01*
X50384793Y-63156649D01*
X50404562Y-63017744D01*
X50404562Y-63017740D01*
X50405134Y-63013723D01*
X50405278Y-63000000D01*
X50386363Y-62843694D01*
X50330710Y-62696412D01*
X50299972Y-62651688D01*
X50245768Y-62572821D01*
X50245765Y-62572818D01*
X50241531Y-62566657D01*
X50123976Y-62461919D01*
X49984831Y-62388245D01*
X49832128Y-62349889D01*
X49750329Y-62349461D01*
X49682158Y-62349104D01*
X49682157Y-62349104D01*
X49674684Y-62349065D01*
X49667421Y-62350809D01*
X49667418Y-62350809D01*
X49598136Y-62367443D01*
X49521588Y-62385820D01*
X49381679Y-62458032D01*
X49263034Y-62561533D01*
X49172501Y-62690348D01*
X49115309Y-62837039D01*
X49094758Y-62993138D01*
X49095578Y-63000566D01*
X49095578Y-63000568D01*
X49097474Y-63017744D01*
X49112035Y-63149633D01*
X49166143Y-63297490D01*
X49170314Y-63303697D01*
X49253958Y-63428172D01*
X49252262Y-63429312D01*
X49276870Y-63483459D01*
X49266800Y-63552599D01*
X49255551Y-63572180D01*
X49172501Y-63690348D01*
X49115309Y-63837039D01*
X49094758Y-63993138D01*
X49095578Y-64000566D01*
X49095578Y-64000568D01*
X49097474Y-64017744D01*
X49112035Y-64149633D01*
X49166143Y-64297490D01*
X49170314Y-64303697D01*
X49253958Y-64428172D01*
X49252262Y-64429312D01*
X49276870Y-64483459D01*
X49266800Y-64552599D01*
X49255551Y-64572180D01*
X49172501Y-64690348D01*
X49115309Y-64837039D01*
X49094758Y-64993138D01*
X15300500Y-64993138D01*
X15300500Y-61393138D01*
X29544758Y-61393138D01*
X29545578Y-61400566D01*
X29545578Y-61400568D01*
X29558814Y-61520459D01*
X29562035Y-61549633D01*
X29564601Y-61556645D01*
X29564602Y-61556649D01*
X29571878Y-61576530D01*
X29616143Y-61697490D01*
X29703958Y-61828172D01*
X29758693Y-61877977D01*
X29814878Y-61929102D01*
X29814882Y-61929105D01*
X29820410Y-61934135D01*
X29826980Y-61937702D01*
X29826981Y-61937703D01*
X29952208Y-62005696D01*
X29958776Y-62009262D01*
X30061031Y-62036088D01*
X30103841Y-62047319D01*
X30103843Y-62047319D01*
X30111069Y-62049215D01*
X30188127Y-62050425D01*
X30261025Y-62051571D01*
X30261028Y-62051571D01*
X30268495Y-62051688D01*
X30275776Y-62050020D01*
X30275780Y-62050020D01*
X30414681Y-62018207D01*
X30421968Y-62016538D01*
X30468494Y-61993138D01*
X40644758Y-61993138D01*
X40645578Y-62000566D01*
X40645578Y-62000568D01*
X40650949Y-62049215D01*
X40662035Y-62149633D01*
X40716143Y-62297490D01*
X40803958Y-62428172D01*
X40841046Y-62461919D01*
X40914878Y-62529102D01*
X40914882Y-62529105D01*
X40920410Y-62534135D01*
X40926980Y-62537702D01*
X40926981Y-62537703D01*
X40991660Y-62572821D01*
X41058776Y-62609262D01*
X41161031Y-62636088D01*
X41203841Y-62647319D01*
X41203843Y-62647319D01*
X41211069Y-62649215D01*
X41288127Y-62650425D01*
X41361025Y-62651571D01*
X41361028Y-62651571D01*
X41368495Y-62651688D01*
X41375776Y-62650020D01*
X41375780Y-62650020D01*
X41514681Y-62618207D01*
X41521968Y-62616538D01*
X41662625Y-62545795D01*
X41668306Y-62540943D01*
X41668309Y-62540941D01*
X41776666Y-62448395D01*
X41776667Y-62448394D01*
X41782348Y-62443542D01*
X41793393Y-62428172D01*
X41849644Y-62349889D01*
X41874224Y-62315683D01*
X41932950Y-62169598D01*
X41934793Y-62156649D01*
X41954562Y-62017744D01*
X41954562Y-62017740D01*
X41955134Y-62013723D01*
X41955278Y-62000000D01*
X41947308Y-61934135D01*
X41937262Y-61851119D01*
X41937261Y-61851115D01*
X41936363Y-61843694D01*
X41887992Y-61715683D01*
X41883354Y-61703408D01*
X41883352Y-61703405D01*
X41880710Y-61696412D01*
X41798317Y-61576530D01*
X41795768Y-61572821D01*
X41795765Y-61572818D01*
X41791531Y-61566657D01*
X41673976Y-61461919D01*
X41534831Y-61388245D01*
X41436332Y-61363504D01*
X41389378Y-61351710D01*
X41382128Y-61349889D01*
X41300329Y-61349461D01*
X41232158Y-61349104D01*
X41232157Y-61349104D01*
X41224684Y-61349065D01*
X41217421Y-61350809D01*
X41217418Y-61350809D01*
X41172159Y-61361675D01*
X41071588Y-61385820D01*
X40931679Y-61458032D01*
X40813034Y-61561533D01*
X40722501Y-61690348D01*
X40665309Y-61837039D01*
X40644758Y-61993138D01*
X30468494Y-61993138D01*
X30562625Y-61945795D01*
X30568306Y-61940943D01*
X30568309Y-61940941D01*
X30676666Y-61848395D01*
X30676667Y-61848394D01*
X30682348Y-61843542D01*
X30692027Y-61830073D01*
X30713798Y-61799775D01*
X30774224Y-61715683D01*
X30832950Y-61569598D01*
X30834797Y-61556620D01*
X30854562Y-61417744D01*
X30854562Y-61417740D01*
X30855134Y-61413723D01*
X30855278Y-61400000D01*
X30853977Y-61389247D01*
X30837262Y-61251119D01*
X30837261Y-61251115D01*
X30836363Y-61243694D01*
X30780710Y-61096412D01*
X30752999Y-61056092D01*
X30695768Y-60972821D01*
X30695765Y-60972818D01*
X30691531Y-60966657D01*
X30618480Y-60901571D01*
X30579559Y-60866893D01*
X30579558Y-60866892D01*
X30573976Y-60861919D01*
X30434831Y-60788245D01*
X30282128Y-60749889D01*
X30200329Y-60749461D01*
X30132158Y-60749104D01*
X30132157Y-60749104D01*
X30124684Y-60749065D01*
X30117421Y-60750809D01*
X30117418Y-60750809D01*
X30048136Y-60767442D01*
X29971588Y-60785820D01*
X29831679Y-60858032D01*
X29713034Y-60961533D01*
X29622501Y-61090348D01*
X29619785Y-61097313D01*
X29619785Y-61097314D01*
X29619037Y-61099233D01*
X29565309Y-61237039D01*
X29544758Y-61393138D01*
X15300500Y-61393138D01*
X15300500Y-60243138D01*
X39844758Y-60243138D01*
X39845578Y-60250566D01*
X39845578Y-60250568D01*
X39847474Y-60267744D01*
X39862035Y-60399633D01*
X39864601Y-60406645D01*
X39864602Y-60406649D01*
X39871878Y-60426530D01*
X39916143Y-60547490D01*
X40003958Y-60678172D01*
X40026183Y-60698395D01*
X40114878Y-60779102D01*
X40114882Y-60779105D01*
X40120410Y-60784135D01*
X40126980Y-60787702D01*
X40126981Y-60787703D01*
X40250197Y-60854604D01*
X40258776Y-60859262D01*
X40347305Y-60882487D01*
X40403841Y-60897319D01*
X40403843Y-60897319D01*
X40411069Y-60899215D01*
X40488127Y-60900425D01*
X40561025Y-60901571D01*
X40561028Y-60901571D01*
X40568495Y-60901688D01*
X40575776Y-60900020D01*
X40575780Y-60900020D01*
X40714681Y-60868207D01*
X40721968Y-60866538D01*
X40862625Y-60795795D01*
X40868306Y-60790943D01*
X40868309Y-60790941D01*
X40976666Y-60698395D01*
X40976667Y-60698394D01*
X40982348Y-60693542D01*
X40993393Y-60678172D01*
X41027400Y-60630845D01*
X41074224Y-60565683D01*
X41132950Y-60419598D01*
X41135161Y-60404065D01*
X41136791Y-60392611D01*
X46669394Y-60392611D01*
X46670214Y-60400039D01*
X46670214Y-60400041D01*
X46681703Y-60504103D01*
X46687999Y-60561135D01*
X46690565Y-60568147D01*
X46690566Y-60568151D01*
X46709610Y-60620189D01*
X46746266Y-60720356D01*
X46750433Y-60726558D01*
X46750435Y-60726561D01*
X46799216Y-60799154D01*
X46840830Y-60861083D01*
X46846360Y-60866115D01*
X46960702Y-60970159D01*
X46960706Y-60970162D01*
X46966233Y-60975191D01*
X47115235Y-61056092D01*
X47210585Y-61081107D01*
X47272005Y-61097220D01*
X47272007Y-61097220D01*
X47279233Y-61099116D01*
X47362178Y-61100419D01*
X47441290Y-61101662D01*
X47441293Y-61101662D01*
X47448760Y-61101779D01*
X47571209Y-61073735D01*
X47606738Y-61065598D01*
X47606739Y-61065598D01*
X47614029Y-61063928D01*
X47689111Y-61026166D01*
X47758820Y-60991106D01*
X47758822Y-60991105D01*
X47765498Y-60987747D01*
X47818824Y-60942202D01*
X47882585Y-60913631D01*
X47951671Y-60924068D01*
X47982809Y-60944777D01*
X48016233Y-60975191D01*
X48165235Y-61056092D01*
X48260585Y-61081107D01*
X48322005Y-61097220D01*
X48322007Y-61097220D01*
X48329233Y-61099116D01*
X48412178Y-61100419D01*
X48491290Y-61101662D01*
X48491293Y-61101662D01*
X48498760Y-61101779D01*
X48621209Y-61073735D01*
X48656738Y-61065598D01*
X48656739Y-61065598D01*
X48664029Y-61063928D01*
X48739111Y-61026166D01*
X48808820Y-60991106D01*
X48808822Y-60991105D01*
X48815498Y-60987747D01*
X48821180Y-60982894D01*
X48821183Y-60982892D01*
X48938741Y-60882487D01*
X48944423Y-60877634D01*
X49043361Y-60739947D01*
X49106601Y-60582634D01*
X49107654Y-60575237D01*
X49129918Y-60418800D01*
X49129918Y-60418794D01*
X49130490Y-60414778D01*
X49130645Y-60400000D01*
X49118160Y-60296831D01*
X49111175Y-60239105D01*
X49111174Y-60239101D01*
X49110276Y-60231680D01*
X49099858Y-60204110D01*
X49052989Y-60080073D01*
X49052987Y-60080070D01*
X49050345Y-60073077D01*
X49020354Y-60029440D01*
X48958549Y-59939513D01*
X48958546Y-59939510D01*
X48954312Y-59933349D01*
X48867725Y-59856202D01*
X48833303Y-59825533D01*
X48833301Y-59825532D01*
X48827721Y-59820560D01*
X48820350Y-59816657D01*
X48684489Y-59744723D01*
X48677881Y-59741224D01*
X48513441Y-59699919D01*
X48427248Y-59699468D01*
X48351368Y-59699070D01*
X48351367Y-59699070D01*
X48343895Y-59699031D01*
X48322235Y-59704231D01*
X48186295Y-59736868D01*
X48186293Y-59736869D01*
X48179032Y-59738612D01*
X48172399Y-59742035D01*
X48172395Y-59742037D01*
X48105465Y-59776583D01*
X48028369Y-59816375D01*
X48022737Y-59821288D01*
X48022736Y-59821289D01*
X47981728Y-59857062D01*
X47918269Y-59886298D01*
X47849078Y-59876585D01*
X47817724Y-59856202D01*
X47783303Y-59825533D01*
X47783301Y-59825532D01*
X47777721Y-59820560D01*
X47770350Y-59816657D01*
X47634489Y-59744723D01*
X47627881Y-59741224D01*
X47463441Y-59699919D01*
X47377248Y-59699468D01*
X47301368Y-59699070D01*
X47301367Y-59699070D01*
X47293895Y-59699031D01*
X47272235Y-59704231D01*
X47136295Y-59736868D01*
X47136293Y-59736869D01*
X47129032Y-59738612D01*
X47122399Y-59742035D01*
X47122395Y-59742037D01*
X47055465Y-59776583D01*
X46978369Y-59816375D01*
X46972737Y-59821288D01*
X46909349Y-59876585D01*
X46850604Y-59927831D01*
X46753113Y-60066547D01*
X46691524Y-60224513D01*
X46690548Y-60231923D01*
X46690548Y-60231925D01*
X46686897Y-60259660D01*
X46669394Y-60392611D01*
X41136791Y-60392611D01*
X41154562Y-60267744D01*
X41154562Y-60267740D01*
X41155134Y-60263723D01*
X41155278Y-60250000D01*
X41151351Y-60217550D01*
X41137262Y-60101119D01*
X41137261Y-60101115D01*
X41136363Y-60093694D01*
X41103008Y-60005422D01*
X41083354Y-59953408D01*
X41083352Y-59953405D01*
X41080710Y-59946412D01*
X41076473Y-59940247D01*
X40995768Y-59822821D01*
X40995765Y-59822818D01*
X40991531Y-59816657D01*
X40904823Y-59739403D01*
X40879559Y-59716893D01*
X40879558Y-59716892D01*
X40873976Y-59711919D01*
X40734831Y-59638245D01*
X40582128Y-59599889D01*
X40500329Y-59599461D01*
X40432158Y-59599104D01*
X40432157Y-59599104D01*
X40424684Y-59599065D01*
X40417421Y-59600809D01*
X40417418Y-59600809D01*
X40376187Y-59610708D01*
X40271588Y-59635820D01*
X40131679Y-59708032D01*
X40013034Y-59811533D01*
X39922501Y-59940348D01*
X39865309Y-60087039D01*
X39844758Y-60243138D01*
X15300500Y-60243138D01*
X15300500Y-57793138D01*
X27744758Y-57793138D01*
X27745578Y-57800566D01*
X27745578Y-57800568D01*
X27747474Y-57817744D01*
X27762035Y-57949633D01*
X27816143Y-58097490D01*
X27903958Y-58228172D01*
X27926183Y-58248395D01*
X28014878Y-58329102D01*
X28014882Y-58329105D01*
X28020410Y-58334135D01*
X28026980Y-58337702D01*
X28026981Y-58337703D01*
X28108597Y-58382017D01*
X28158776Y-58409262D01*
X28261031Y-58436088D01*
X28303841Y-58447319D01*
X28303843Y-58447319D01*
X28311069Y-58449215D01*
X28388127Y-58450425D01*
X28461025Y-58451571D01*
X28461028Y-58451571D01*
X28468495Y-58451688D01*
X28475776Y-58450020D01*
X28475780Y-58450020D01*
X28614681Y-58418207D01*
X28621968Y-58416538D01*
X28762625Y-58345795D01*
X28768306Y-58340943D01*
X28768309Y-58340941D01*
X28876666Y-58248395D01*
X28876667Y-58248394D01*
X28882348Y-58243542D01*
X28893393Y-58228172D01*
X28943626Y-58158264D01*
X28974224Y-58115683D01*
X29032950Y-57969598D01*
X29033985Y-57962326D01*
X55952929Y-57962326D01*
X56005430Y-58158264D01*
X56009119Y-58168397D01*
X56104372Y-58372667D01*
X56109770Y-58382017D01*
X56239046Y-58566643D01*
X56245981Y-58574907D01*
X56405353Y-58734279D01*
X56413619Y-58741215D01*
X56598254Y-58870498D01*
X56607586Y-58875886D01*
X56799960Y-58965592D01*
X56852399Y-59011764D01*
X56871551Y-59078958D01*
X56851335Y-59145839D01*
X56798170Y-59191174D01*
X56790474Y-59194309D01*
X56782837Y-59197127D01*
X56777959Y-59200029D01*
X56777957Y-59200030D01*
X56606002Y-59302332D01*
X56605999Y-59302334D01*
X56601118Y-59305238D01*
X56442143Y-59444655D01*
X56438624Y-59449119D01*
X56438621Y-59449122D01*
X56421044Y-59471419D01*
X56311238Y-59610708D01*
X56212785Y-59797836D01*
X56211099Y-59803267D01*
X56211097Y-59803271D01*
X56172252Y-59928374D01*
X56150082Y-59999773D01*
X56149414Y-60005418D01*
X56149413Y-60005422D01*
X56138087Y-60101119D01*
X56125229Y-60209754D01*
X56125600Y-60215416D01*
X56125600Y-60215420D01*
X56127211Y-60240000D01*
X56139058Y-60420749D01*
X56191107Y-60625690D01*
X56193481Y-60630841D01*
X56193483Y-60630845D01*
X56267659Y-60791744D01*
X56279631Y-60817714D01*
X56282909Y-60822352D01*
X56390925Y-60975191D01*
X56401667Y-60990391D01*
X56553127Y-61137937D01*
X56557850Y-61141093D01*
X56557854Y-61141096D01*
X56628925Y-61188584D01*
X56728939Y-61255411D01*
X56923215Y-61338878D01*
X56975942Y-61350809D01*
X57123900Y-61384289D01*
X57123904Y-61384290D01*
X57129448Y-61385544D01*
X57255913Y-61390513D01*
X57335051Y-61393623D01*
X57335053Y-61393623D01*
X57340732Y-61393846D01*
X57346352Y-61393031D01*
X57346354Y-61393031D01*
X57544365Y-61364320D01*
X57544366Y-61364320D01*
X57549992Y-61363504D01*
X57629152Y-61336633D01*
X57744827Y-61297367D01*
X57744830Y-61297366D01*
X57750217Y-61295537D01*
X57755178Y-61292759D01*
X57755184Y-61292756D01*
X57867111Y-61230073D01*
X57934704Y-61192219D01*
X58041489Y-61103408D01*
X58092907Y-61060644D01*
X58097274Y-61057012D01*
X58101008Y-61052522D01*
X58228846Y-60898813D01*
X58228847Y-60898811D01*
X58232481Y-60894442D01*
X58291393Y-60789247D01*
X58333018Y-60714922D01*
X58333021Y-60714916D01*
X58335799Y-60709955D01*
X58341371Y-60693542D01*
X58401937Y-60515118D01*
X58403766Y-60509730D01*
X58434108Y-60300470D01*
X58435691Y-60240000D01*
X58416343Y-60029440D01*
X58358948Y-59825931D01*
X58354236Y-59816375D01*
X58299116Y-59704604D01*
X58265427Y-59636290D01*
X58138913Y-59466867D01*
X58134743Y-59463012D01*
X58134740Y-59463009D01*
X58070581Y-59403702D01*
X57983643Y-59323337D01*
X57804816Y-59210505D01*
X57764384Y-59194374D01*
X57709413Y-59151251D01*
X57686482Y-59085251D01*
X57702873Y-59017332D01*
X57757929Y-58966821D01*
X57952938Y-58875886D01*
X57962270Y-58870498D01*
X58146905Y-58741215D01*
X58155171Y-58734279D01*
X58314543Y-58574907D01*
X58321478Y-58566643D01*
X58450754Y-58382017D01*
X58456152Y-58372667D01*
X58551405Y-58168397D01*
X58555094Y-58158264D01*
X58606284Y-57967221D01*
X58605953Y-57953347D01*
X58598137Y-57950000D01*
X55967456Y-57950000D01*
X55954139Y-57953910D01*
X55952929Y-57962326D01*
X29033985Y-57962326D01*
X29035739Y-57950000D01*
X29054562Y-57817744D01*
X29054562Y-57817740D01*
X29055134Y-57813723D01*
X29055278Y-57800000D01*
X29036363Y-57643694D01*
X28980710Y-57496412D01*
X28948812Y-57450000D01*
X28895768Y-57372821D01*
X28895765Y-57372818D01*
X28891531Y-57366657D01*
X28773976Y-57261919D01*
X28634831Y-57188245D01*
X28482128Y-57149889D01*
X28400329Y-57149461D01*
X28332158Y-57149104D01*
X28332157Y-57149104D01*
X28324684Y-57149065D01*
X28317421Y-57150809D01*
X28317418Y-57150809D01*
X28248136Y-57167443D01*
X28171588Y-57185820D01*
X28031679Y-57258032D01*
X27913034Y-57361533D01*
X27822501Y-57490348D01*
X27765309Y-57637039D01*
X27744758Y-57793138D01*
X15300500Y-57793138D01*
X15300500Y-55793138D01*
X30244758Y-55793138D01*
X30245578Y-55800566D01*
X30245578Y-55800568D01*
X30257191Y-55905752D01*
X30262035Y-55949633D01*
X30316143Y-56097490D01*
X30403958Y-56228172D01*
X30426183Y-56248395D01*
X30514878Y-56329102D01*
X30514882Y-56329105D01*
X30520410Y-56334135D01*
X30658776Y-56409262D01*
X30747370Y-56432504D01*
X30803841Y-56447319D01*
X30803843Y-56447319D01*
X30811069Y-56449215D01*
X30888127Y-56450425D01*
X30961025Y-56451571D01*
X30961028Y-56451571D01*
X30968495Y-56451688D01*
X30975776Y-56450020D01*
X30975780Y-56450020D01*
X31114681Y-56418207D01*
X31121968Y-56416538D01*
X31262625Y-56345795D01*
X31268306Y-56340943D01*
X31268309Y-56340941D01*
X31376666Y-56248395D01*
X31376667Y-56248394D01*
X31382348Y-56243542D01*
X31393393Y-56228172D01*
X31433576Y-56172250D01*
X31474224Y-56115683D01*
X31532950Y-55969598D01*
X31534793Y-55956649D01*
X31554562Y-55817744D01*
X31554562Y-55817740D01*
X31555134Y-55813723D01*
X31555278Y-55800000D01*
X31547741Y-55737714D01*
X31537262Y-55651119D01*
X31537261Y-55651115D01*
X31536363Y-55643694D01*
X31527276Y-55619646D01*
X31483354Y-55503408D01*
X31483352Y-55503405D01*
X31480710Y-55496412D01*
X31472337Y-55484229D01*
X31395768Y-55372821D01*
X31395765Y-55372818D01*
X31391531Y-55366657D01*
X31273976Y-55261919D01*
X31134831Y-55188245D01*
X31022382Y-55160000D01*
X30989378Y-55151710D01*
X30982128Y-55149889D01*
X30900329Y-55149461D01*
X30832158Y-55149104D01*
X30832157Y-55149104D01*
X30824684Y-55149065D01*
X30817421Y-55150809D01*
X30817418Y-55150809D01*
X30779136Y-55160000D01*
X30671588Y-55185820D01*
X30531679Y-55258032D01*
X30413034Y-55361533D01*
X30322501Y-55490348D01*
X30265309Y-55637039D01*
X30244758Y-55793138D01*
X15300500Y-55793138D01*
X15300500Y-47802326D01*
X55952929Y-47802326D01*
X56005430Y-47998264D01*
X56009119Y-48008397D01*
X56104372Y-48212667D01*
X56109770Y-48222017D01*
X56239046Y-48406643D01*
X56245981Y-48414907D01*
X56405353Y-48574279D01*
X56413619Y-48581215D01*
X56598254Y-48710498D01*
X56607586Y-48715886D01*
X56799960Y-48805592D01*
X56852399Y-48851764D01*
X56871551Y-48918958D01*
X56851335Y-48985839D01*
X56798170Y-49031174D01*
X56790474Y-49034309D01*
X56782837Y-49037127D01*
X56777959Y-49040029D01*
X56777957Y-49040030D01*
X56606002Y-49142332D01*
X56605999Y-49142334D01*
X56601118Y-49145238D01*
X56442143Y-49284655D01*
X56438624Y-49289119D01*
X56438621Y-49289122D01*
X56421044Y-49311419D01*
X56311238Y-49450708D01*
X56212785Y-49637836D01*
X56150082Y-49839773D01*
X56149414Y-49845418D01*
X56149413Y-49845422D01*
X56125897Y-50044110D01*
X56125229Y-50049754D01*
X56125600Y-50055416D01*
X56125600Y-50055420D01*
X56127211Y-50080000D01*
X56139058Y-50260749D01*
X56191107Y-50465690D01*
X56193481Y-50470841D01*
X56193483Y-50470845D01*
X56232243Y-50554922D01*
X56279631Y-50657714D01*
X56401667Y-50830391D01*
X56553127Y-50977937D01*
X56557850Y-50981093D01*
X56557854Y-50981096D01*
X56628925Y-51028584D01*
X56728939Y-51095411D01*
X56923215Y-51178878D01*
X56986545Y-51193208D01*
X57123900Y-51224289D01*
X57123904Y-51224290D01*
X57129448Y-51225544D01*
X57148590Y-51226296D01*
X57214805Y-51248596D01*
X57258452Y-51303156D01*
X57265674Y-51372651D01*
X57234176Y-51435018D01*
X57173961Y-51470457D01*
X57164722Y-51472409D01*
X56986812Y-51502979D01*
X56986809Y-51502980D01*
X56981215Y-51503941D01*
X56782837Y-51577127D01*
X56777959Y-51580029D01*
X56777957Y-51580030D01*
X56606002Y-51682332D01*
X56605999Y-51682334D01*
X56601118Y-51685238D01*
X56442143Y-51824655D01*
X56438624Y-51829119D01*
X56438621Y-51829122D01*
X56421044Y-51851419D01*
X56311238Y-51990708D01*
X56212785Y-52177836D01*
X56150082Y-52379773D01*
X56149414Y-52385418D01*
X56149413Y-52385422D01*
X56125897Y-52584110D01*
X56125229Y-52589754D01*
X56125600Y-52595416D01*
X56125600Y-52595420D01*
X56127211Y-52620000D01*
X56139058Y-52800749D01*
X56191107Y-53005690D01*
X56193481Y-53010841D01*
X56193483Y-53010845D01*
X56232243Y-53094922D01*
X56279631Y-53197714D01*
X56401667Y-53370391D01*
X56553127Y-53517937D01*
X56557850Y-53521093D01*
X56557854Y-53521096D01*
X56628925Y-53568584D01*
X56728939Y-53635411D01*
X56923215Y-53718878D01*
X56986545Y-53733208D01*
X57123900Y-53764289D01*
X57123904Y-53764290D01*
X57129448Y-53765544D01*
X57148590Y-53766296D01*
X57214805Y-53788596D01*
X57258452Y-53843156D01*
X57265674Y-53912651D01*
X57234176Y-53975018D01*
X57173961Y-54010457D01*
X57164722Y-54012409D01*
X56986812Y-54042979D01*
X56986809Y-54042980D01*
X56981215Y-54043941D01*
X56782837Y-54117127D01*
X56777959Y-54120029D01*
X56777957Y-54120030D01*
X56606002Y-54222332D01*
X56605999Y-54222334D01*
X56601118Y-54225238D01*
X56442143Y-54364655D01*
X56438624Y-54369119D01*
X56438621Y-54369122D01*
X56421044Y-54391419D01*
X56311238Y-54530708D01*
X56212785Y-54717836D01*
X56150082Y-54919773D01*
X56149414Y-54925418D01*
X56149413Y-54925422D01*
X56125897Y-55124110D01*
X56125229Y-55129754D01*
X56125600Y-55135416D01*
X56125600Y-55135420D01*
X56129128Y-55189247D01*
X56139058Y-55340749D01*
X56191107Y-55545690D01*
X56193481Y-55550841D01*
X56193483Y-55550845D01*
X56239710Y-55651119D01*
X56279631Y-55737714D01*
X56282909Y-55742352D01*
X56336191Y-55817744D01*
X56401667Y-55910391D01*
X56553127Y-56057937D01*
X56557850Y-56061093D01*
X56557854Y-56061096D01*
X56628925Y-56108584D01*
X56728939Y-56175411D01*
X56734165Y-56177656D01*
X56734170Y-56177659D01*
X56800584Y-56206192D01*
X56854410Y-56250741D01*
X56875605Y-56317318D01*
X56857442Y-56384785D01*
X56804042Y-56432504D01*
X56607595Y-56524110D01*
X56598245Y-56529508D01*
X56413619Y-56658784D01*
X56405355Y-56665719D01*
X56245981Y-56825093D01*
X56239046Y-56833357D01*
X56109770Y-57017983D01*
X56104372Y-57027333D01*
X56009119Y-57231603D01*
X56005430Y-57241736D01*
X55954240Y-57432779D01*
X55954571Y-57446653D01*
X55962387Y-57450000D01*
X58593068Y-57450000D01*
X58606385Y-57446090D01*
X58607595Y-57437674D01*
X58555094Y-57241736D01*
X58551405Y-57231603D01*
X58456152Y-57027333D01*
X58450754Y-57017983D01*
X58321478Y-56833357D01*
X58314543Y-56825093D01*
X58155171Y-56665721D01*
X58146905Y-56658785D01*
X57962270Y-56529502D01*
X57952938Y-56524114D01*
X57761040Y-56434630D01*
X57708601Y-56388458D01*
X57689449Y-56321264D01*
X57709665Y-56254383D01*
X57752856Y-56214059D01*
X57934704Y-56112219D01*
X58097274Y-55977012D01*
X58120045Y-55949633D01*
X58228846Y-55818813D01*
X58228847Y-55818811D01*
X58232481Y-55814442D01*
X58323947Y-55651119D01*
X58333018Y-55634922D01*
X58333021Y-55634916D01*
X58335799Y-55629955D01*
X58366271Y-55540189D01*
X58401937Y-55435118D01*
X58403766Y-55429730D01*
X58434108Y-55220470D01*
X58435691Y-55160000D01*
X58416343Y-54949440D01*
X58358948Y-54745931D01*
X58265427Y-54556290D01*
X58138913Y-54386867D01*
X58134743Y-54383012D01*
X58134740Y-54383009D01*
X58070581Y-54323702D01*
X57983643Y-54243337D01*
X57804816Y-54130505D01*
X57608422Y-54052152D01*
X57602841Y-54051042D01*
X57602838Y-54051041D01*
X57406617Y-54012011D01*
X57406618Y-54012011D01*
X57401037Y-54010901D01*
X57401006Y-54010901D01*
X57338090Y-53985019D01*
X57298103Y-53927723D01*
X57295440Y-53857904D01*
X57330946Y-53797729D01*
X57397868Y-53765562D01*
X57544365Y-53744320D01*
X57544366Y-53744320D01*
X57549992Y-53743504D01*
X57629152Y-53716633D01*
X57744827Y-53677367D01*
X57744830Y-53677366D01*
X57750217Y-53675537D01*
X57755178Y-53672759D01*
X57755184Y-53672756D01*
X57861792Y-53613052D01*
X57934704Y-53572219D01*
X58097274Y-53437012D01*
X58100906Y-53432645D01*
X58228846Y-53278813D01*
X58228847Y-53278811D01*
X58232481Y-53274442D01*
X58278340Y-53192556D01*
X58333018Y-53094922D01*
X58333021Y-53094916D01*
X58335799Y-53089955D01*
X58366271Y-53000189D01*
X58401937Y-52895118D01*
X58403766Y-52889730D01*
X58434108Y-52680470D01*
X58435691Y-52620000D01*
X58416343Y-52409440D01*
X58358948Y-52205931D01*
X58265427Y-52016290D01*
X58138913Y-51846867D01*
X58134743Y-51843012D01*
X58134740Y-51843009D01*
X58070581Y-51783702D01*
X57983643Y-51703337D01*
X57804816Y-51590505D01*
X57608422Y-51512152D01*
X57602841Y-51511042D01*
X57602838Y-51511041D01*
X57406617Y-51472011D01*
X57406618Y-51472011D01*
X57401037Y-51470901D01*
X57401006Y-51470901D01*
X57338090Y-51445019D01*
X57298103Y-51387723D01*
X57295440Y-51317904D01*
X57330946Y-51257729D01*
X57397868Y-51225562D01*
X57544365Y-51204320D01*
X57544366Y-51204320D01*
X57549992Y-51203504D01*
X57629152Y-51176633D01*
X57744827Y-51137367D01*
X57744830Y-51137366D01*
X57750217Y-51135537D01*
X57755178Y-51132759D01*
X57755184Y-51132756D01*
X57861792Y-51073052D01*
X57934704Y-51032219D01*
X58097274Y-50897012D01*
X58100906Y-50892645D01*
X58228846Y-50738813D01*
X58228847Y-50738811D01*
X58232481Y-50734442D01*
X58278340Y-50652556D01*
X58333018Y-50554922D01*
X58333021Y-50554916D01*
X58335799Y-50549955D01*
X58366271Y-50460189D01*
X58401937Y-50355118D01*
X58403766Y-50349730D01*
X58434108Y-50140470D01*
X58435691Y-50080000D01*
X58416343Y-49869440D01*
X58358948Y-49665931D01*
X58265427Y-49476290D01*
X58138913Y-49306867D01*
X58134743Y-49303012D01*
X58134740Y-49303009D01*
X58070581Y-49243702D01*
X57983643Y-49163337D01*
X57804816Y-49050505D01*
X57764384Y-49034374D01*
X57709413Y-48991251D01*
X57686482Y-48925251D01*
X57702873Y-48857332D01*
X57757929Y-48806821D01*
X57952938Y-48715886D01*
X57962270Y-48710498D01*
X58146905Y-48581215D01*
X58155171Y-48574279D01*
X58314543Y-48414907D01*
X58321478Y-48406643D01*
X58450754Y-48222017D01*
X58456152Y-48212667D01*
X58551405Y-48008397D01*
X58555094Y-47998264D01*
X58606284Y-47807221D01*
X58605953Y-47793347D01*
X58598137Y-47790000D01*
X55967456Y-47790000D01*
X55954139Y-47793910D01*
X55952929Y-47802326D01*
X15300500Y-47802326D01*
X15300500Y-46743138D01*
X40844758Y-46743138D01*
X40845578Y-46750566D01*
X40845578Y-46750568D01*
X40847474Y-46767744D01*
X40862035Y-46899633D01*
X40916143Y-47047490D01*
X41003958Y-47178172D01*
X41026183Y-47198395D01*
X41114878Y-47279102D01*
X41114882Y-47279105D01*
X41120410Y-47284135D01*
X41258776Y-47359262D01*
X41361031Y-47386088D01*
X41403841Y-47397319D01*
X41403843Y-47397319D01*
X41411069Y-47399215D01*
X41488127Y-47400425D01*
X41561025Y-47401571D01*
X41561028Y-47401571D01*
X41568495Y-47401688D01*
X41575776Y-47400020D01*
X41575780Y-47400020D01*
X41714681Y-47368207D01*
X41721968Y-47366538D01*
X41862625Y-47295795D01*
X41868306Y-47290943D01*
X41868309Y-47290941D01*
X41976666Y-47198395D01*
X41976667Y-47198394D01*
X41982348Y-47193542D01*
X41993393Y-47178172D01*
X42013798Y-47149775D01*
X42074224Y-47065683D01*
X42132950Y-46919598D01*
X42134793Y-46906649D01*
X42154562Y-46767744D01*
X42154562Y-46767740D01*
X42155134Y-46763723D01*
X42155278Y-46750000D01*
X42154448Y-46743138D01*
X43094758Y-46743138D01*
X43095578Y-46750566D01*
X43095578Y-46750568D01*
X43097474Y-46767744D01*
X43112035Y-46899633D01*
X43166143Y-47047490D01*
X43253958Y-47178172D01*
X43276183Y-47198395D01*
X43364878Y-47279102D01*
X43364882Y-47279105D01*
X43370410Y-47284135D01*
X43508776Y-47359262D01*
X43611031Y-47386088D01*
X43653841Y-47397319D01*
X43653843Y-47397319D01*
X43661069Y-47399215D01*
X43738127Y-47400425D01*
X43811025Y-47401571D01*
X43811028Y-47401571D01*
X43818495Y-47401688D01*
X43825776Y-47400020D01*
X43825780Y-47400020D01*
X43964681Y-47368207D01*
X43971968Y-47366538D01*
X44112625Y-47295795D01*
X44118306Y-47290943D01*
X44118309Y-47290941D01*
X44226666Y-47198395D01*
X44226667Y-47198394D01*
X44232348Y-47193542D01*
X44243393Y-47178172D01*
X44263798Y-47149775D01*
X44324224Y-47065683D01*
X44382950Y-46919598D01*
X44384793Y-46906649D01*
X44404562Y-46767744D01*
X44404562Y-46767740D01*
X44405134Y-46763723D01*
X44405278Y-46750000D01*
X44386363Y-46593694D01*
X44330710Y-46446412D01*
X44274145Y-46364110D01*
X44245768Y-46322821D01*
X44245765Y-46322818D01*
X44241531Y-46316657D01*
X44142539Y-46228458D01*
X44129559Y-46216893D01*
X44129558Y-46216892D01*
X44123976Y-46211919D01*
X43984831Y-46138245D01*
X43832128Y-46099889D01*
X43750329Y-46099461D01*
X43682158Y-46099104D01*
X43682157Y-46099104D01*
X43674684Y-46099065D01*
X43667421Y-46100809D01*
X43667418Y-46100809D01*
X43598136Y-46117442D01*
X43521588Y-46135820D01*
X43381679Y-46208032D01*
X43263034Y-46311533D01*
X43172501Y-46440348D01*
X43115309Y-46587039D01*
X43094758Y-46743138D01*
X42154448Y-46743138D01*
X42136363Y-46593694D01*
X42080710Y-46446412D01*
X42024145Y-46364110D01*
X41995768Y-46322821D01*
X41995765Y-46322818D01*
X41991531Y-46316657D01*
X41892539Y-46228458D01*
X41879559Y-46216893D01*
X41879558Y-46216892D01*
X41873976Y-46211919D01*
X41734831Y-46138245D01*
X41582128Y-46099889D01*
X41500329Y-46099461D01*
X41432158Y-46099104D01*
X41432157Y-46099104D01*
X41424684Y-46099065D01*
X41417421Y-46100809D01*
X41417418Y-46100809D01*
X41348136Y-46117442D01*
X41271588Y-46135820D01*
X41131679Y-46208032D01*
X41013034Y-46311533D01*
X40922501Y-46440348D01*
X40865309Y-46587039D01*
X40844758Y-46743138D01*
X15300500Y-46743138D01*
X15300500Y-39893138D01*
X44244758Y-39893138D01*
X44245578Y-39900566D01*
X44245578Y-39900568D01*
X44247474Y-39917744D01*
X44262035Y-40049633D01*
X44316143Y-40197490D01*
X44403958Y-40328172D01*
X44426183Y-40348395D01*
X44514878Y-40429102D01*
X44514882Y-40429105D01*
X44520410Y-40434135D01*
X44658776Y-40509262D01*
X44761031Y-40536088D01*
X44803841Y-40547319D01*
X44803843Y-40547319D01*
X44811069Y-40549215D01*
X44888127Y-40550425D01*
X44961025Y-40551571D01*
X44961028Y-40551571D01*
X44968495Y-40551688D01*
X44975776Y-40550020D01*
X44975780Y-40550020D01*
X45114681Y-40518207D01*
X45121968Y-40516538D01*
X45262625Y-40445795D01*
X45268306Y-40440943D01*
X45268309Y-40440941D01*
X45376666Y-40348395D01*
X45376667Y-40348394D01*
X45382348Y-40343542D01*
X45393393Y-40328172D01*
X45413798Y-40299775D01*
X45474224Y-40215683D01*
X45487633Y-40182326D01*
X55952929Y-40182326D01*
X56005430Y-40378264D01*
X56009119Y-40388397D01*
X56104372Y-40592667D01*
X56109770Y-40602017D01*
X56239046Y-40786643D01*
X56245981Y-40794907D01*
X56405353Y-40954279D01*
X56413619Y-40961215D01*
X56598254Y-41090498D01*
X56607586Y-41095886D01*
X56799960Y-41185592D01*
X56852399Y-41231764D01*
X56871551Y-41298958D01*
X56851335Y-41365839D01*
X56798170Y-41411174D01*
X56790474Y-41414309D01*
X56782837Y-41417127D01*
X56777959Y-41420029D01*
X56777957Y-41420030D01*
X56606002Y-41522332D01*
X56605999Y-41522334D01*
X56601118Y-41525238D01*
X56442143Y-41664655D01*
X56438624Y-41669119D01*
X56438621Y-41669122D01*
X56421044Y-41691419D01*
X56311238Y-41830708D01*
X56212785Y-42017836D01*
X56150082Y-42219773D01*
X56149414Y-42225418D01*
X56149413Y-42225422D01*
X56125897Y-42424110D01*
X56125229Y-42429754D01*
X56125600Y-42435416D01*
X56125600Y-42435420D01*
X56127211Y-42460000D01*
X56139058Y-42640749D01*
X56191107Y-42845690D01*
X56193481Y-42850841D01*
X56193483Y-42850845D01*
X56232243Y-42934922D01*
X56279631Y-43037714D01*
X56401667Y-43210391D01*
X56553127Y-43357937D01*
X56557850Y-43361093D01*
X56557854Y-43361096D01*
X56628925Y-43408584D01*
X56728939Y-43475411D01*
X56923215Y-43558878D01*
X56986545Y-43573208D01*
X57123900Y-43604289D01*
X57123904Y-43604290D01*
X57129448Y-43605544D01*
X57148590Y-43606296D01*
X57214805Y-43628596D01*
X57258452Y-43683156D01*
X57265674Y-43752651D01*
X57234176Y-43815018D01*
X57173961Y-43850457D01*
X57164722Y-43852409D01*
X56986812Y-43882979D01*
X56986809Y-43882980D01*
X56981215Y-43883941D01*
X56782837Y-43957127D01*
X56777959Y-43960029D01*
X56777957Y-43960030D01*
X56606002Y-44062332D01*
X56605999Y-44062334D01*
X56601118Y-44065238D01*
X56442143Y-44204655D01*
X56438624Y-44209119D01*
X56438621Y-44209122D01*
X56421044Y-44231419D01*
X56311238Y-44370708D01*
X56212785Y-44557836D01*
X56150082Y-44759773D01*
X56149414Y-44765418D01*
X56149413Y-44765422D01*
X56125897Y-44964110D01*
X56125229Y-44969754D01*
X56125600Y-44975416D01*
X56125600Y-44975420D01*
X56127211Y-45000000D01*
X56139058Y-45180749D01*
X56191107Y-45385690D01*
X56193481Y-45390841D01*
X56193483Y-45390845D01*
X56232243Y-45474922D01*
X56279631Y-45577714D01*
X56401667Y-45750391D01*
X56553127Y-45897937D01*
X56557850Y-45901093D01*
X56557854Y-45901096D01*
X56628925Y-45948584D01*
X56728939Y-46015411D01*
X56734165Y-46017656D01*
X56734170Y-46017659D01*
X56800584Y-46046192D01*
X56854410Y-46090741D01*
X56875605Y-46157318D01*
X56857442Y-46224785D01*
X56804042Y-46272504D01*
X56607595Y-46364110D01*
X56598245Y-46369508D01*
X56413619Y-46498784D01*
X56405355Y-46505719D01*
X56245981Y-46665093D01*
X56239046Y-46673357D01*
X56109770Y-46857983D01*
X56104372Y-46867333D01*
X56009119Y-47071603D01*
X56005430Y-47081736D01*
X55954240Y-47272779D01*
X55954571Y-47286653D01*
X55962387Y-47290000D01*
X58593068Y-47290000D01*
X58606385Y-47286090D01*
X58607595Y-47277674D01*
X58555094Y-47081736D01*
X58551405Y-47071603D01*
X58456152Y-46867333D01*
X58450754Y-46857983D01*
X58321478Y-46673357D01*
X58314543Y-46665093D01*
X58155171Y-46505721D01*
X58146905Y-46498785D01*
X57962270Y-46369502D01*
X57952938Y-46364114D01*
X57761040Y-46274630D01*
X57708601Y-46228458D01*
X57689449Y-46161264D01*
X57709665Y-46094383D01*
X57752856Y-46054059D01*
X57934704Y-45952219D01*
X58097274Y-45817012D01*
X58100906Y-45812645D01*
X58228846Y-45658813D01*
X58228847Y-45658811D01*
X58232481Y-45654442D01*
X58278340Y-45572556D01*
X58333018Y-45474922D01*
X58333021Y-45474916D01*
X58335799Y-45469955D01*
X58366271Y-45380189D01*
X58401937Y-45275118D01*
X58403766Y-45269730D01*
X58434108Y-45060470D01*
X58435691Y-45000000D01*
X58416343Y-44789440D01*
X58358948Y-44585931D01*
X58265427Y-44396290D01*
X58138913Y-44226867D01*
X58134743Y-44223012D01*
X58134740Y-44223009D01*
X58070581Y-44163702D01*
X57983643Y-44083337D01*
X57804816Y-43970505D01*
X57608422Y-43892152D01*
X57602841Y-43891042D01*
X57602838Y-43891041D01*
X57406617Y-43852011D01*
X57406618Y-43852011D01*
X57401037Y-43850901D01*
X57401006Y-43850901D01*
X57338090Y-43825019D01*
X57298103Y-43767723D01*
X57295440Y-43697904D01*
X57330946Y-43637729D01*
X57397868Y-43605562D01*
X57544365Y-43584320D01*
X57544366Y-43584320D01*
X57549992Y-43583504D01*
X57629152Y-43556633D01*
X57744827Y-43517367D01*
X57744830Y-43517366D01*
X57750217Y-43515537D01*
X57755178Y-43512759D01*
X57755184Y-43512756D01*
X57861792Y-43453052D01*
X57934704Y-43412219D01*
X58097274Y-43277012D01*
X58100906Y-43272645D01*
X58228846Y-43118813D01*
X58228847Y-43118811D01*
X58232481Y-43114442D01*
X58278340Y-43032556D01*
X58333018Y-42934922D01*
X58333021Y-42934916D01*
X58335799Y-42929955D01*
X58366271Y-42840189D01*
X58401937Y-42735118D01*
X58403766Y-42729730D01*
X58434108Y-42520470D01*
X58435691Y-42460000D01*
X58416343Y-42249440D01*
X58358948Y-42045931D01*
X58265427Y-41856290D01*
X58138913Y-41686867D01*
X58134743Y-41683012D01*
X58134740Y-41683009D01*
X58070581Y-41623702D01*
X57983643Y-41543337D01*
X57804816Y-41430505D01*
X57764384Y-41414374D01*
X57709413Y-41371251D01*
X57686482Y-41305251D01*
X57702873Y-41237332D01*
X57757929Y-41186821D01*
X57952938Y-41095886D01*
X57962270Y-41090498D01*
X58146905Y-40961215D01*
X58155171Y-40954279D01*
X58314543Y-40794907D01*
X58321478Y-40786643D01*
X58450754Y-40602017D01*
X58456152Y-40592667D01*
X58551405Y-40388397D01*
X58555094Y-40378264D01*
X58606284Y-40187221D01*
X58605953Y-40173347D01*
X58598137Y-40170000D01*
X55967456Y-40170000D01*
X55954139Y-40173910D01*
X55952929Y-40182326D01*
X45487633Y-40182326D01*
X45532950Y-40069598D01*
X45534793Y-40056649D01*
X45554562Y-39917744D01*
X45554562Y-39917740D01*
X45555134Y-39913723D01*
X45555278Y-39900000D01*
X45536363Y-39743694D01*
X45527276Y-39719646D01*
X45483354Y-39603408D01*
X45483352Y-39603405D01*
X45480710Y-39596412D01*
X45472337Y-39584229D01*
X45395768Y-39472821D01*
X45395765Y-39472818D01*
X45391531Y-39466657D01*
X45273976Y-39361919D01*
X45134831Y-39288245D01*
X44982128Y-39249889D01*
X44900329Y-39249461D01*
X44832158Y-39249104D01*
X44832157Y-39249104D01*
X44824684Y-39249065D01*
X44817421Y-39250809D01*
X44817418Y-39250809D01*
X44748136Y-39267442D01*
X44671588Y-39285820D01*
X44531679Y-39358032D01*
X44413034Y-39461533D01*
X44322501Y-39590348D01*
X44265309Y-39737039D01*
X44244758Y-39893138D01*
X15300500Y-39893138D01*
X15300500Y-36293138D01*
X44244758Y-36293138D01*
X44245578Y-36300566D01*
X44245578Y-36300568D01*
X44247474Y-36317744D01*
X44262035Y-36449633D01*
X44264601Y-36456645D01*
X44264602Y-36456649D01*
X44269341Y-36469598D01*
X44316143Y-36597490D01*
X44403958Y-36728172D01*
X44426183Y-36748395D01*
X44514878Y-36829102D01*
X44514882Y-36829105D01*
X44520410Y-36834135D01*
X44658776Y-36909262D01*
X44748498Y-36932800D01*
X44803841Y-36947319D01*
X44803843Y-36947319D01*
X44811069Y-36949215D01*
X44888127Y-36950425D01*
X44961025Y-36951571D01*
X44961028Y-36951571D01*
X44968495Y-36951688D01*
X44975776Y-36950020D01*
X44975780Y-36950020D01*
X45114681Y-36918207D01*
X45121968Y-36916538D01*
X45262625Y-36845795D01*
X45268306Y-36840943D01*
X45268309Y-36840941D01*
X45376666Y-36748395D01*
X45376667Y-36748394D01*
X45382348Y-36743542D01*
X45393393Y-36728172D01*
X45413798Y-36699775D01*
X45474224Y-36615683D01*
X45532950Y-36469598D01*
X45534793Y-36456649D01*
X45554562Y-36317744D01*
X45554562Y-36317740D01*
X45555134Y-36313723D01*
X45555278Y-36300000D01*
X45551152Y-36265906D01*
X45537262Y-36151119D01*
X45537261Y-36151115D01*
X45536363Y-36143694D01*
X45511503Y-36077904D01*
X45483354Y-36003408D01*
X45483352Y-36003405D01*
X45480710Y-35996412D01*
X45476473Y-35990247D01*
X45395768Y-35872821D01*
X45395765Y-35872818D01*
X45391531Y-35866657D01*
X45273976Y-35761919D01*
X45134831Y-35688245D01*
X45010486Y-35657012D01*
X44989378Y-35651710D01*
X44982128Y-35649889D01*
X44900329Y-35649461D01*
X44832158Y-35649104D01*
X44832157Y-35649104D01*
X44824684Y-35649065D01*
X44817421Y-35650809D01*
X44817418Y-35650809D01*
X44762775Y-35663928D01*
X44671588Y-35685820D01*
X44531679Y-35758032D01*
X44413034Y-35861533D01*
X44322501Y-35990348D01*
X44265309Y-36137039D01*
X44244758Y-36293138D01*
X15300500Y-36293138D01*
X15300500Y-34992611D01*
X31169394Y-34992611D01*
X31170214Y-35000039D01*
X31170214Y-35000041D01*
X31171841Y-35014778D01*
X31187999Y-35161135D01*
X31190565Y-35168147D01*
X31190566Y-35168151D01*
X31209610Y-35220189D01*
X31246266Y-35320356D01*
X31250433Y-35326558D01*
X31250435Y-35326561D01*
X31263510Y-35346018D01*
X31340830Y-35461083D01*
X31346360Y-35466115D01*
X31460702Y-35570159D01*
X31460706Y-35570162D01*
X31466233Y-35575191D01*
X31615235Y-35656092D01*
X31710585Y-35681107D01*
X31772005Y-35697220D01*
X31772007Y-35697220D01*
X31779233Y-35699116D01*
X31862178Y-35700419D01*
X31941290Y-35701662D01*
X31941293Y-35701662D01*
X31948760Y-35701779D01*
X32071209Y-35673735D01*
X32106738Y-35665598D01*
X32106739Y-35665598D01*
X32114029Y-35663928D01*
X32189111Y-35626166D01*
X32258820Y-35591106D01*
X32258822Y-35591105D01*
X32265498Y-35587747D01*
X32318824Y-35542202D01*
X32382585Y-35513631D01*
X32451671Y-35524068D01*
X32482809Y-35544777D01*
X32516233Y-35575191D01*
X32665235Y-35656092D01*
X32760585Y-35681107D01*
X32822005Y-35697220D01*
X32822007Y-35697220D01*
X32829233Y-35699116D01*
X32912178Y-35700419D01*
X32991290Y-35701662D01*
X32991293Y-35701662D01*
X32998760Y-35701779D01*
X33121209Y-35673735D01*
X33156738Y-35665598D01*
X33156739Y-35665598D01*
X33164029Y-35663928D01*
X33239111Y-35626166D01*
X33308820Y-35591106D01*
X33308822Y-35591105D01*
X33315498Y-35587747D01*
X33321180Y-35582894D01*
X33321183Y-35582892D01*
X33438741Y-35482487D01*
X33444423Y-35477634D01*
X33543361Y-35339947D01*
X33606601Y-35182634D01*
X33616977Y-35109730D01*
X33629918Y-35018800D01*
X33629918Y-35018794D01*
X33630490Y-35014778D01*
X33630645Y-35000000D01*
X33610276Y-34831680D01*
X33550345Y-34673077D01*
X33520354Y-34629440D01*
X33458549Y-34539513D01*
X33458546Y-34539510D01*
X33454312Y-34533349D01*
X33367725Y-34456202D01*
X33333303Y-34425533D01*
X33333301Y-34425532D01*
X33327721Y-34420560D01*
X33313347Y-34412949D01*
X33184489Y-34344723D01*
X33177881Y-34341224D01*
X33013441Y-34299919D01*
X32927248Y-34299468D01*
X32851368Y-34299070D01*
X32851367Y-34299070D01*
X32843895Y-34299031D01*
X32822235Y-34304231D01*
X32686295Y-34336868D01*
X32686293Y-34336869D01*
X32679032Y-34338612D01*
X32672399Y-34342035D01*
X32672395Y-34342037D01*
X32605465Y-34376583D01*
X32528369Y-34416375D01*
X32522737Y-34421288D01*
X32522736Y-34421289D01*
X32481728Y-34457062D01*
X32418269Y-34486298D01*
X32349078Y-34476585D01*
X32317724Y-34456202D01*
X32283303Y-34425533D01*
X32283301Y-34425532D01*
X32277721Y-34420560D01*
X32263347Y-34412949D01*
X32134489Y-34344723D01*
X32127881Y-34341224D01*
X31963441Y-34299919D01*
X31877248Y-34299468D01*
X31801368Y-34299070D01*
X31801367Y-34299070D01*
X31793895Y-34299031D01*
X31772235Y-34304231D01*
X31636295Y-34336868D01*
X31636293Y-34336869D01*
X31629032Y-34338612D01*
X31622399Y-34342035D01*
X31622395Y-34342037D01*
X31555465Y-34376583D01*
X31478369Y-34416375D01*
X31472737Y-34421288D01*
X31409349Y-34476585D01*
X31350604Y-34527831D01*
X31253113Y-34666547D01*
X31191524Y-34824513D01*
X31169394Y-34992611D01*
X15300500Y-34992611D01*
X15300500Y-32562326D01*
X55952929Y-32562326D01*
X56005430Y-32758264D01*
X56009119Y-32768397D01*
X56104372Y-32972667D01*
X56109770Y-32982017D01*
X56239046Y-33166643D01*
X56245981Y-33174907D01*
X56405353Y-33334279D01*
X56413619Y-33341215D01*
X56598254Y-33470498D01*
X56607586Y-33475886D01*
X56799960Y-33565592D01*
X56852399Y-33611764D01*
X56871551Y-33678958D01*
X56851335Y-33745839D01*
X56798170Y-33791174D01*
X56790474Y-33794309D01*
X56782837Y-33797127D01*
X56777959Y-33800029D01*
X56777957Y-33800030D01*
X56606002Y-33902332D01*
X56605999Y-33902334D01*
X56601118Y-33905238D01*
X56442143Y-34044655D01*
X56438624Y-34049119D01*
X56438621Y-34049122D01*
X56421044Y-34071419D01*
X56311238Y-34210708D01*
X56212785Y-34397836D01*
X56211099Y-34403267D01*
X56211097Y-34403271D01*
X56172252Y-34528374D01*
X56150082Y-34599773D01*
X56149414Y-34605418D01*
X56149413Y-34605422D01*
X56141406Y-34673077D01*
X56125229Y-34809754D01*
X56125600Y-34815416D01*
X56125600Y-34815420D01*
X56127211Y-34840000D01*
X56139058Y-35020749D01*
X56191107Y-35225690D01*
X56193481Y-35230841D01*
X56193483Y-35230845D01*
X56231512Y-35313336D01*
X56279631Y-35417714D01*
X56282909Y-35422352D01*
X56390925Y-35575191D01*
X56401667Y-35590391D01*
X56553127Y-35737937D01*
X56557850Y-35741093D01*
X56557854Y-35741096D01*
X56628925Y-35788584D01*
X56728939Y-35855411D01*
X56923215Y-35938878D01*
X56986545Y-35953208D01*
X57123900Y-35984289D01*
X57123904Y-35984290D01*
X57129448Y-35985544D01*
X57148590Y-35986296D01*
X57214805Y-36008596D01*
X57258452Y-36063156D01*
X57265674Y-36132651D01*
X57234176Y-36195018D01*
X57173961Y-36230457D01*
X57164722Y-36232409D01*
X56986812Y-36262979D01*
X56986809Y-36262980D01*
X56981215Y-36263941D01*
X56782837Y-36337127D01*
X56777959Y-36340029D01*
X56777957Y-36340030D01*
X56606002Y-36442332D01*
X56605999Y-36442334D01*
X56601118Y-36445238D01*
X56442143Y-36584655D01*
X56438624Y-36589119D01*
X56438621Y-36589122D01*
X56379993Y-36663492D01*
X56311238Y-36750708D01*
X56212785Y-36937836D01*
X56211099Y-36943267D01*
X56211097Y-36943271D01*
X56205644Y-36960833D01*
X56150082Y-37139773D01*
X56149414Y-37145418D01*
X56149413Y-37145422D01*
X56125897Y-37344110D01*
X56125229Y-37349754D01*
X56125600Y-37355416D01*
X56125600Y-37355420D01*
X56127211Y-37380000D01*
X56139058Y-37560749D01*
X56191107Y-37765690D01*
X56193481Y-37770841D01*
X56193483Y-37770845D01*
X56232243Y-37854922D01*
X56279631Y-37957714D01*
X56401667Y-38130391D01*
X56553127Y-38277937D01*
X56557850Y-38281093D01*
X56557854Y-38281096D01*
X56628925Y-38328584D01*
X56728939Y-38395411D01*
X56734165Y-38397656D01*
X56734170Y-38397659D01*
X56800584Y-38426192D01*
X56854410Y-38470741D01*
X56875605Y-38537318D01*
X56857442Y-38604785D01*
X56804042Y-38652504D01*
X56607595Y-38744110D01*
X56598245Y-38749508D01*
X56413619Y-38878784D01*
X56405355Y-38885719D01*
X56245981Y-39045093D01*
X56239046Y-39053357D01*
X56109770Y-39237983D01*
X56104372Y-39247333D01*
X56009119Y-39451603D01*
X56005430Y-39461736D01*
X55954240Y-39652779D01*
X55954571Y-39666653D01*
X55962387Y-39670000D01*
X58593068Y-39670000D01*
X58606385Y-39666090D01*
X58607595Y-39657674D01*
X58555094Y-39461736D01*
X58551405Y-39451603D01*
X58456152Y-39247333D01*
X58450754Y-39237983D01*
X58321478Y-39053357D01*
X58314543Y-39045093D01*
X58155171Y-38885721D01*
X58146905Y-38878785D01*
X57962270Y-38749502D01*
X57952938Y-38744114D01*
X57761040Y-38654630D01*
X57708601Y-38608458D01*
X57689449Y-38541264D01*
X57709665Y-38474383D01*
X57752856Y-38434059D01*
X57934704Y-38332219D01*
X58097274Y-38197012D01*
X58100906Y-38192645D01*
X58228846Y-38038813D01*
X58228847Y-38038811D01*
X58232481Y-38034442D01*
X58278340Y-37952556D01*
X58333018Y-37854922D01*
X58333021Y-37854916D01*
X58335799Y-37849955D01*
X58366271Y-37760189D01*
X58401937Y-37655118D01*
X58403766Y-37649730D01*
X58434108Y-37440470D01*
X58435691Y-37380000D01*
X58416343Y-37169440D01*
X58358948Y-36965931D01*
X58265427Y-36776290D01*
X58138913Y-36606867D01*
X58134743Y-36603012D01*
X58134740Y-36603009D01*
X58070581Y-36543702D01*
X57983643Y-36463337D01*
X57804816Y-36350505D01*
X57608422Y-36272152D01*
X57602841Y-36271042D01*
X57602838Y-36271041D01*
X57406617Y-36232011D01*
X57406618Y-36232011D01*
X57401037Y-36230901D01*
X57401006Y-36230901D01*
X57338090Y-36205019D01*
X57298103Y-36147723D01*
X57295440Y-36077904D01*
X57330946Y-36017729D01*
X57397868Y-35985562D01*
X57544365Y-35964320D01*
X57544366Y-35964320D01*
X57549992Y-35963504D01*
X57629152Y-35936633D01*
X57744827Y-35897367D01*
X57744830Y-35897366D01*
X57750217Y-35895537D01*
X57755178Y-35892759D01*
X57755184Y-35892756D01*
X57861792Y-35833052D01*
X57934704Y-35792219D01*
X57965156Y-35766893D01*
X58092907Y-35660644D01*
X58097274Y-35657012D01*
X58103883Y-35649065D01*
X58228846Y-35498813D01*
X58228847Y-35498811D01*
X58232481Y-35494442D01*
X58319003Y-35339947D01*
X58333018Y-35314922D01*
X58333021Y-35314916D01*
X58335799Y-35309955D01*
X58366271Y-35220189D01*
X58401937Y-35115118D01*
X58403766Y-35109730D01*
X58434108Y-34900470D01*
X58435691Y-34840000D01*
X58416343Y-34629440D01*
X58358948Y-34425931D01*
X58354236Y-34416375D01*
X58315027Y-34336868D01*
X58265427Y-34236290D01*
X58138913Y-34066867D01*
X58134743Y-34063012D01*
X58134740Y-34063009D01*
X58070581Y-34003702D01*
X57983643Y-33923337D01*
X57804816Y-33810505D01*
X57764384Y-33794374D01*
X57709413Y-33751251D01*
X57686482Y-33685251D01*
X57702873Y-33617332D01*
X57757929Y-33566821D01*
X57952938Y-33475886D01*
X57962270Y-33470498D01*
X58146905Y-33341215D01*
X58155171Y-33334279D01*
X58314543Y-33174907D01*
X58321478Y-33166643D01*
X58450754Y-32982017D01*
X58456152Y-32972667D01*
X58551405Y-32768397D01*
X58555094Y-32758264D01*
X58606284Y-32567221D01*
X58605953Y-32553347D01*
X58598137Y-32550000D01*
X55967456Y-32550000D01*
X55954139Y-32553910D01*
X55952929Y-32562326D01*
X15300500Y-32562326D01*
X15300500Y-32032779D01*
X55954240Y-32032779D01*
X55954571Y-32046653D01*
X55962387Y-32050000D01*
X58593068Y-32050000D01*
X58606385Y-32046090D01*
X58607595Y-32037674D01*
X58555094Y-31841736D01*
X58551405Y-31831603D01*
X58456152Y-31627333D01*
X58450754Y-31617983D01*
X58321478Y-31433357D01*
X58314543Y-31425093D01*
X58155171Y-31265721D01*
X58146905Y-31258785D01*
X57962270Y-31129502D01*
X57952938Y-31124114D01*
X57761040Y-31034630D01*
X57708601Y-30988458D01*
X57689449Y-30921264D01*
X57709665Y-30854383D01*
X57752856Y-30814059D01*
X57934704Y-30712219D01*
X58097274Y-30577012D01*
X58100906Y-30572645D01*
X58228846Y-30418813D01*
X58228847Y-30418811D01*
X58232481Y-30414442D01*
X58301645Y-30290941D01*
X58333018Y-30234922D01*
X58333021Y-30234916D01*
X58335799Y-30229955D01*
X58366271Y-30140189D01*
X58401937Y-30035118D01*
X58403766Y-30029730D01*
X58434108Y-29820470D01*
X58435691Y-29760000D01*
X58416343Y-29549440D01*
X58358948Y-29345931D01*
X58265427Y-29156290D01*
X58138913Y-28986867D01*
X58134743Y-28983012D01*
X58134740Y-28983009D01*
X58070581Y-28923702D01*
X57983643Y-28843337D01*
X57804816Y-28730505D01*
X57608422Y-28652152D01*
X57602841Y-28651042D01*
X57602838Y-28651041D01*
X57406617Y-28612011D01*
X57406618Y-28612011D01*
X57401037Y-28610901D01*
X57401006Y-28610901D01*
X57338090Y-28585019D01*
X57298103Y-28527723D01*
X57295440Y-28457904D01*
X57330946Y-28397729D01*
X57397868Y-28365562D01*
X57544365Y-28344320D01*
X57544366Y-28344320D01*
X57549992Y-28343504D01*
X57629152Y-28316633D01*
X57744827Y-28277367D01*
X57744830Y-28277366D01*
X57750217Y-28275537D01*
X57755178Y-28272759D01*
X57755184Y-28272756D01*
X57861792Y-28213052D01*
X57934704Y-28172219D01*
X58097274Y-28037012D01*
X58100906Y-28032645D01*
X58228846Y-27878813D01*
X58228847Y-27878811D01*
X58232481Y-27874442D01*
X58285874Y-27779102D01*
X58333018Y-27694922D01*
X58333021Y-27694916D01*
X58335799Y-27689955D01*
X58366271Y-27600189D01*
X58401937Y-27495118D01*
X58403766Y-27489730D01*
X58434108Y-27280470D01*
X58435691Y-27220000D01*
X58416343Y-27009440D01*
X58358948Y-26805931D01*
X58265427Y-26616290D01*
X58138913Y-26446867D01*
X58134743Y-26443012D01*
X58134740Y-26443009D01*
X58070581Y-26383702D01*
X57983643Y-26303337D01*
X57804816Y-26190505D01*
X57608422Y-26112152D01*
X57602841Y-26111042D01*
X57602838Y-26111041D01*
X57427260Y-26076117D01*
X57365349Y-26043732D01*
X57330775Y-25983017D01*
X57334514Y-25913247D01*
X57375380Y-25856575D01*
X57440398Y-25830994D01*
X57451451Y-25830500D01*
X58174908Y-25830500D01*
X58178562Y-25830065D01*
X58178564Y-25830065D01*
X58183528Y-25829474D01*
X58201108Y-25827382D01*
X58303415Y-25781939D01*
X58382503Y-25702713D01*
X58427768Y-25600327D01*
X58430762Y-25574646D01*
X58430762Y-23785354D01*
X58427644Y-23759154D01*
X58382201Y-23656847D01*
X58302975Y-23577759D01*
X58292504Y-23573130D01*
X58292503Y-23573129D01*
X58209115Y-23536263D01*
X58209113Y-23536262D01*
X58200589Y-23532494D01*
X58174908Y-23529500D01*
X56385616Y-23529500D01*
X56381962Y-23529935D01*
X56381960Y-23529935D01*
X56376996Y-23530526D01*
X56359416Y-23532618D01*
X56257109Y-23578061D01*
X56178021Y-23657287D01*
X56132756Y-23759673D01*
X56129762Y-23785354D01*
X56129762Y-25574646D01*
X56132880Y-25600846D01*
X56178323Y-25703153D01*
X56257549Y-25782241D01*
X56268020Y-25786870D01*
X56268021Y-25786871D01*
X56351409Y-25823737D01*
X56351411Y-25823738D01*
X56359935Y-25827506D01*
X56385616Y-25830500D01*
X57118699Y-25830500D01*
X57185738Y-25850185D01*
X57231493Y-25902989D01*
X57241437Y-25972147D01*
X57212412Y-26035703D01*
X57153634Y-26073477D01*
X57139698Y-26076709D01*
X56986812Y-26102979D01*
X56986809Y-26102980D01*
X56981215Y-26103941D01*
X56782837Y-26177127D01*
X56777959Y-26180029D01*
X56777957Y-26180030D01*
X56606002Y-26282332D01*
X56605999Y-26282334D01*
X56601118Y-26285238D01*
X56442143Y-26424655D01*
X56438624Y-26429119D01*
X56438621Y-26429122D01*
X56421044Y-26451419D01*
X56311238Y-26590708D01*
X56212785Y-26777836D01*
X56211099Y-26783267D01*
X56211097Y-26783271D01*
X56200422Y-26817650D01*
X56150082Y-26979773D01*
X56149414Y-26985418D01*
X56149413Y-26985422D01*
X56135720Y-27101119D01*
X56125229Y-27189754D01*
X56125600Y-27195416D01*
X56125600Y-27195420D01*
X56129215Y-27250568D01*
X56139058Y-27400749D01*
X56191107Y-27605690D01*
X56193481Y-27610841D01*
X56193483Y-27610845D01*
X56277253Y-27792556D01*
X56279631Y-27797714D01*
X56282909Y-27802352D01*
X56353113Y-27901688D01*
X56401667Y-27970391D01*
X56553127Y-28117937D01*
X56557850Y-28121093D01*
X56557854Y-28121096D01*
X56628925Y-28168584D01*
X56728939Y-28235411D01*
X56923215Y-28318878D01*
X56986545Y-28333208D01*
X57123900Y-28364289D01*
X57123904Y-28364290D01*
X57129448Y-28365544D01*
X57148590Y-28366296D01*
X57214805Y-28388596D01*
X57258452Y-28443156D01*
X57265674Y-28512651D01*
X57234176Y-28575018D01*
X57173961Y-28610457D01*
X57164722Y-28612409D01*
X56986812Y-28642979D01*
X56986809Y-28642980D01*
X56981215Y-28643941D01*
X56782837Y-28717127D01*
X56777959Y-28720029D01*
X56777957Y-28720030D01*
X56606002Y-28822332D01*
X56605999Y-28822334D01*
X56601118Y-28825238D01*
X56442143Y-28964655D01*
X56438624Y-28969119D01*
X56438621Y-28969122D01*
X56421044Y-28991419D01*
X56311238Y-29130708D01*
X56212785Y-29317836D01*
X56150082Y-29519773D01*
X56149414Y-29525418D01*
X56149413Y-29525422D01*
X56141333Y-29593694D01*
X56125229Y-29729754D01*
X56125600Y-29735416D01*
X56125600Y-29735420D01*
X56127189Y-29759660D01*
X56139058Y-29940749D01*
X56191107Y-30145690D01*
X56193481Y-30150841D01*
X56193483Y-30150845D01*
X56277253Y-30332556D01*
X56279631Y-30337714D01*
X56294860Y-30359262D01*
X56323665Y-30400020D01*
X56401667Y-30510391D01*
X56553127Y-30657937D01*
X56557850Y-30661093D01*
X56557854Y-30661096D01*
X56628925Y-30708584D01*
X56728939Y-30775411D01*
X56734165Y-30777656D01*
X56734170Y-30777659D01*
X56800584Y-30806192D01*
X56854410Y-30850741D01*
X56875605Y-30917318D01*
X56857442Y-30984785D01*
X56804042Y-31032504D01*
X56607595Y-31124110D01*
X56598245Y-31129508D01*
X56413619Y-31258784D01*
X56405355Y-31265719D01*
X56245981Y-31425093D01*
X56239046Y-31433357D01*
X56109770Y-31617983D01*
X56104372Y-31627333D01*
X56009119Y-31831603D01*
X56005430Y-31841736D01*
X55954240Y-32032779D01*
X15300500Y-32032779D01*
X15300500Y-29743138D01*
X47094758Y-29743138D01*
X47095578Y-29750566D01*
X47095578Y-29750568D01*
X47097474Y-29767744D01*
X47112035Y-29899633D01*
X47114601Y-29906645D01*
X47114602Y-29906649D01*
X47144206Y-29987544D01*
X47166143Y-30047490D01*
X47253958Y-30178172D01*
X47276183Y-30198395D01*
X47364878Y-30279102D01*
X47364882Y-30279105D01*
X47370410Y-30284135D01*
X47376980Y-30287702D01*
X47376981Y-30287703D01*
X47477632Y-30342352D01*
X47508776Y-30359262D01*
X47611031Y-30386088D01*
X47653841Y-30397319D01*
X47653843Y-30397319D01*
X47661069Y-30399215D01*
X47738127Y-30400425D01*
X47811025Y-30401571D01*
X47811028Y-30401571D01*
X47818495Y-30401688D01*
X47825776Y-30400020D01*
X47825780Y-30400020D01*
X47964681Y-30368207D01*
X47971968Y-30366538D01*
X48112625Y-30295795D01*
X48118306Y-30290943D01*
X48118309Y-30290941D01*
X48226666Y-30198395D01*
X48226667Y-30198394D01*
X48232348Y-30193542D01*
X48243393Y-30178172D01*
X48270686Y-30140189D01*
X48324224Y-30065683D01*
X48382950Y-29919598D01*
X48384793Y-29906649D01*
X48404562Y-29767744D01*
X48404562Y-29767740D01*
X48405134Y-29763723D01*
X48405278Y-29750000D01*
X48386363Y-29593694D01*
X48330710Y-29446412D01*
X48322337Y-29434229D01*
X48245768Y-29322821D01*
X48245765Y-29322818D01*
X48241531Y-29316657D01*
X48123976Y-29211919D01*
X47984831Y-29138245D01*
X47832128Y-29099889D01*
X47750329Y-29099461D01*
X47682158Y-29099104D01*
X47682157Y-29099104D01*
X47674684Y-29099065D01*
X47667421Y-29100809D01*
X47667418Y-29100809D01*
X47598136Y-29117442D01*
X47521588Y-29135820D01*
X47381679Y-29208032D01*
X47263034Y-29311533D01*
X47172501Y-29440348D01*
X47115309Y-29587039D01*
X47094758Y-29743138D01*
X15300500Y-29743138D01*
X15300500Y-27243138D01*
X47094758Y-27243138D01*
X47095578Y-27250566D01*
X47095578Y-27250568D01*
X47098879Y-27280470D01*
X47112035Y-27399633D01*
X47166143Y-27547490D01*
X47253958Y-27678172D01*
X47276183Y-27698395D01*
X47364878Y-27779102D01*
X47364882Y-27779105D01*
X47370410Y-27784135D01*
X47508776Y-27859262D01*
X47583301Y-27878813D01*
X47653841Y-27897319D01*
X47653843Y-27897319D01*
X47661069Y-27899215D01*
X47738127Y-27900425D01*
X47811025Y-27901571D01*
X47811028Y-27901571D01*
X47818495Y-27901688D01*
X47825776Y-27900020D01*
X47825780Y-27900020D01*
X47964681Y-27868207D01*
X47971968Y-27866538D01*
X48112625Y-27795795D01*
X48118306Y-27790943D01*
X48118309Y-27790941D01*
X48226666Y-27698395D01*
X48226667Y-27698394D01*
X48232348Y-27693542D01*
X48243393Y-27678172D01*
X48299429Y-27600189D01*
X48324224Y-27565683D01*
X48382950Y-27419598D01*
X48384793Y-27406649D01*
X48404562Y-27267744D01*
X48404562Y-27267740D01*
X48405134Y-27263723D01*
X48405278Y-27250000D01*
X48398673Y-27195420D01*
X48387262Y-27101119D01*
X48387261Y-27101115D01*
X48386363Y-27093694D01*
X48377276Y-27069646D01*
X48333354Y-26953408D01*
X48333352Y-26953405D01*
X48330710Y-26946412D01*
X48322337Y-26934229D01*
X48245768Y-26822821D01*
X48245765Y-26822818D01*
X48241531Y-26816657D01*
X48123976Y-26711919D01*
X47984831Y-26638245D01*
X47832128Y-26599889D01*
X47750329Y-26599461D01*
X47682158Y-26599104D01*
X47682157Y-26599104D01*
X47674684Y-26599065D01*
X47667421Y-26600809D01*
X47667418Y-26600809D01*
X47598136Y-26617442D01*
X47521588Y-26635820D01*
X47381679Y-26708032D01*
X47263034Y-26811533D01*
X47172501Y-26940348D01*
X47169785Y-26947313D01*
X47169785Y-26947314D01*
X47147696Y-27003970D01*
X47115309Y-27087039D01*
X47094758Y-27243138D01*
X15300500Y-27243138D01*
X15300500Y-22993138D01*
X48344758Y-22993138D01*
X48345578Y-23000566D01*
X48345578Y-23000568D01*
X48347474Y-23017744D01*
X48362035Y-23149633D01*
X48416143Y-23297490D01*
X48503958Y-23428172D01*
X48526183Y-23448395D01*
X48614878Y-23529102D01*
X48614882Y-23529105D01*
X48620410Y-23534135D01*
X48626980Y-23537702D01*
X48626981Y-23537703D01*
X48700755Y-23577759D01*
X48758776Y-23609262D01*
X48861031Y-23636088D01*
X48903841Y-23647319D01*
X48903843Y-23647319D01*
X48911069Y-23649215D01*
X48988127Y-23650425D01*
X49061025Y-23651571D01*
X49061028Y-23651571D01*
X49068495Y-23651688D01*
X49075776Y-23650020D01*
X49075780Y-23650020D01*
X49214681Y-23618207D01*
X49221968Y-23616538D01*
X49362625Y-23545795D01*
X49368306Y-23540943D01*
X49368309Y-23540941D01*
X49476666Y-23448395D01*
X49476667Y-23448394D01*
X49482348Y-23443542D01*
X49493393Y-23428172D01*
X49513798Y-23399775D01*
X49574224Y-23315683D01*
X49632950Y-23169598D01*
X49634793Y-23156649D01*
X49654562Y-23017744D01*
X49654562Y-23017740D01*
X49655134Y-23013723D01*
X49655278Y-23000000D01*
X49636363Y-22843694D01*
X49580710Y-22696412D01*
X49572337Y-22684229D01*
X49495768Y-22572821D01*
X49495765Y-22572818D01*
X49491531Y-22566657D01*
X49373976Y-22461919D01*
X49234831Y-22388245D01*
X49082128Y-22349889D01*
X49000329Y-22349461D01*
X48932158Y-22349104D01*
X48932157Y-22349104D01*
X48924684Y-22349065D01*
X48917421Y-22350809D01*
X48917418Y-22350809D01*
X48848136Y-22367442D01*
X48771588Y-22385820D01*
X48631679Y-22458032D01*
X48513034Y-22561533D01*
X48422501Y-22690348D01*
X48365309Y-22837039D01*
X48344758Y-22993138D01*
X15300500Y-22993138D01*
X15300500Y-21078206D01*
X17281168Y-21078206D01*
X17288571Y-21088469D01*
X17430180Y-21202531D01*
X17436249Y-21206843D01*
X17706139Y-21375161D01*
X17712709Y-21378728D01*
X18000861Y-21513403D01*
X18007798Y-21516149D01*
X18310052Y-21615233D01*
X18317263Y-21617125D01*
X18629238Y-21679181D01*
X18636616Y-21680192D01*
X18953787Y-21704318D01*
X18961250Y-21704435D01*
X19279003Y-21690284D01*
X19286436Y-21689502D01*
X19600191Y-21637279D01*
X19607463Y-21635614D01*
X19912683Y-21546072D01*
X19919693Y-21543548D01*
X20211949Y-21417986D01*
X20218609Y-21414636D01*
X20493652Y-21254878D01*
X20499868Y-21250748D01*
X20712047Y-21090569D01*
X20720368Y-21079358D01*
X20719736Y-21078206D01*
X54281168Y-21078206D01*
X54288571Y-21088469D01*
X54430180Y-21202531D01*
X54436249Y-21206843D01*
X54706139Y-21375161D01*
X54712709Y-21378728D01*
X55000861Y-21513403D01*
X55007798Y-21516149D01*
X55310052Y-21615233D01*
X55317263Y-21617125D01*
X55629238Y-21679181D01*
X55636616Y-21680192D01*
X55953787Y-21704318D01*
X55961250Y-21704435D01*
X56279003Y-21690284D01*
X56286436Y-21689502D01*
X56600191Y-21637279D01*
X56607463Y-21635614D01*
X56912683Y-21546072D01*
X56919693Y-21543548D01*
X57211949Y-21417986D01*
X57218609Y-21414636D01*
X57493652Y-21254878D01*
X57499868Y-21250748D01*
X57712047Y-21090569D01*
X57720368Y-21079358D01*
X57713759Y-21067312D01*
X56012607Y-19366160D01*
X55998887Y-19358668D01*
X55997081Y-19358797D01*
X55990574Y-19362979D01*
X54288169Y-21065384D01*
X54281168Y-21078206D01*
X20719736Y-21078206D01*
X20713759Y-21067312D01*
X19012607Y-19366160D01*
X18998887Y-19358668D01*
X18997081Y-19358797D01*
X18990574Y-19362979D01*
X17288169Y-21065384D01*
X17281168Y-21078206D01*
X15300500Y-21078206D01*
X15300500Y-20037139D01*
X15302384Y-20015606D01*
X15303252Y-20010683D01*
X15305136Y-20000000D01*
X15303252Y-19989316D01*
X15303252Y-19984270D01*
X15302012Y-19965359D01*
X15308761Y-19810802D01*
X15318147Y-19595818D01*
X15319090Y-19585042D01*
X15346426Y-19377406D01*
X15371189Y-19189307D01*
X15373066Y-19178661D01*
X15384559Y-19126820D01*
X15418129Y-18975399D01*
X16295398Y-18975399D01*
X16311214Y-19293095D01*
X16312033Y-19300506D01*
X16365899Y-19613988D01*
X16367604Y-19621258D01*
X16458740Y-19925996D01*
X16461305Y-19933005D01*
X16588394Y-20224593D01*
X16591774Y-20231228D01*
X16752978Y-20505444D01*
X16757141Y-20511638D01*
X16909795Y-20711663D01*
X16921138Y-20719991D01*
X16933010Y-20713437D01*
X18633840Y-19012607D01*
X18640116Y-19001113D01*
X19358668Y-19001113D01*
X19358797Y-19002919D01*
X19362979Y-19009426D01*
X21065264Y-20711711D01*
X21078177Y-20718762D01*
X21088314Y-20711490D01*
X21194277Y-20581335D01*
X21198628Y-20575278D01*
X21368359Y-20306272D01*
X21371952Y-20299738D01*
X21430265Y-20176654D01*
X34334660Y-20176654D01*
X34343807Y-20188478D01*
X34380721Y-20214325D01*
X34390071Y-20219723D01*
X34574519Y-20305732D01*
X34584652Y-20309421D01*
X34781245Y-20362098D01*
X34791856Y-20363968D01*
X34994605Y-20381707D01*
X35005395Y-20381707D01*
X35208144Y-20363968D01*
X35218755Y-20362098D01*
X35415348Y-20309421D01*
X35425481Y-20305732D01*
X35609929Y-20219723D01*
X35619279Y-20214325D01*
X35657017Y-20187901D01*
X35665259Y-20177590D01*
X35664767Y-20176654D01*
X39334660Y-20176654D01*
X39343807Y-20188478D01*
X39380721Y-20214325D01*
X39390071Y-20219723D01*
X39574519Y-20305732D01*
X39584652Y-20309421D01*
X39781245Y-20362098D01*
X39791856Y-20363968D01*
X39994605Y-20381707D01*
X40005395Y-20381707D01*
X40208144Y-20363968D01*
X40218755Y-20362098D01*
X40415348Y-20309421D01*
X40425481Y-20305732D01*
X40609929Y-20219723D01*
X40619279Y-20214325D01*
X40657017Y-20187901D01*
X40665259Y-20177590D01*
X40658303Y-20164357D01*
X40012607Y-19518660D01*
X39998887Y-19511168D01*
X39997082Y-19511297D01*
X39990573Y-19515480D01*
X39340986Y-20165068D01*
X39334660Y-20176654D01*
X35664767Y-20176654D01*
X35658303Y-20164357D01*
X35012607Y-19518660D01*
X34998887Y-19511168D01*
X34997082Y-19511297D01*
X34990573Y-19515480D01*
X34340986Y-20165068D01*
X34334660Y-20176654D01*
X21430265Y-20176654D01*
X21508138Y-20012283D01*
X21510920Y-20005362D01*
X21611581Y-19703642D01*
X21613516Y-19696423D01*
X21677202Y-19384789D01*
X21678253Y-19377406D01*
X21696107Y-19157895D01*
X33770793Y-19157895D01*
X33788532Y-19360644D01*
X33790402Y-19371255D01*
X33843079Y-19567848D01*
X33846768Y-19577981D01*
X33932778Y-19762431D01*
X33938174Y-19771777D01*
X33964600Y-19809515D01*
X33974911Y-19817758D01*
X33988144Y-19810802D01*
X34633840Y-19165107D01*
X34640116Y-19153613D01*
X35358668Y-19153613D01*
X35358797Y-19155418D01*
X35362980Y-19161927D01*
X36012567Y-19811513D01*
X36024153Y-19817840D01*
X36035977Y-19808692D01*
X36061826Y-19771777D01*
X36067222Y-19762431D01*
X36153232Y-19577981D01*
X36156921Y-19567848D01*
X36209598Y-19371255D01*
X36211468Y-19360644D01*
X36229207Y-19157895D01*
X38770793Y-19157895D01*
X38788532Y-19360644D01*
X38790402Y-19371255D01*
X38843079Y-19567848D01*
X38846768Y-19577981D01*
X38932778Y-19762431D01*
X38938174Y-19771777D01*
X38964600Y-19809515D01*
X38974911Y-19817758D01*
X38988144Y-19810802D01*
X39633840Y-19165107D01*
X39640116Y-19153613D01*
X40358668Y-19153613D01*
X40358797Y-19155418D01*
X40362980Y-19161927D01*
X41012567Y-19811513D01*
X41024153Y-19817840D01*
X41035977Y-19808692D01*
X41061826Y-19771777D01*
X41067222Y-19762431D01*
X41153232Y-19577981D01*
X41156921Y-19567848D01*
X41209598Y-19371255D01*
X41211468Y-19360644D01*
X41229207Y-19157895D01*
X41229207Y-19147105D01*
X41214184Y-18975399D01*
X53295398Y-18975399D01*
X53311214Y-19293095D01*
X53312033Y-19300506D01*
X53365899Y-19613988D01*
X53367604Y-19621258D01*
X53458740Y-19925996D01*
X53461305Y-19933005D01*
X53588394Y-20224593D01*
X53591774Y-20231228D01*
X53752978Y-20505444D01*
X53757141Y-20511638D01*
X53909795Y-20711663D01*
X53921138Y-20719991D01*
X53933010Y-20713437D01*
X55633840Y-19012607D01*
X55640116Y-19001113D01*
X56358668Y-19001113D01*
X56358797Y-19002919D01*
X56362979Y-19009426D01*
X58065264Y-20711711D01*
X58078177Y-20718762D01*
X58088314Y-20711490D01*
X58194277Y-20581335D01*
X58198628Y-20575278D01*
X58368359Y-20306272D01*
X58371952Y-20299738D01*
X58508138Y-20012283D01*
X58510920Y-20005362D01*
X58611581Y-19703642D01*
X58613516Y-19696423D01*
X58677202Y-19384789D01*
X58678253Y-19377406D01*
X58704165Y-19058828D01*
X58704365Y-19054456D01*
X58704912Y-19002208D01*
X58704802Y-18997795D01*
X58685569Y-18678774D01*
X58684671Y-18671356D01*
X58627526Y-18358460D01*
X58625746Y-18351212D01*
X58531424Y-18047445D01*
X58528787Y-18040465D01*
X58398654Y-17750229D01*
X58395192Y-17743607D01*
X58231135Y-17471109D01*
X58226912Y-17464964D01*
X58089635Y-17288941D01*
X58078030Y-17280606D01*
X58066505Y-17287048D01*
X56366160Y-18987393D01*
X56358668Y-19001113D01*
X55640116Y-19001113D01*
X55641332Y-18998887D01*
X55641203Y-18997081D01*
X55637021Y-18990574D01*
X53934442Y-17287995D01*
X53921714Y-17281045D01*
X53911320Y-17288584D01*
X53789288Y-17441724D01*
X53784992Y-17447837D01*
X53618089Y-17718605D01*
X53614572Y-17725163D01*
X53481401Y-18014035D01*
X53478690Y-18020989D01*
X53381190Y-18323757D01*
X53379336Y-18330978D01*
X53318916Y-18643264D01*
X53317942Y-18650664D01*
X53295477Y-18967950D01*
X53295398Y-18975399D01*
X41214184Y-18975399D01*
X41211468Y-18944356D01*
X41209598Y-18933745D01*
X41156921Y-18737152D01*
X41153232Y-18727019D01*
X41067222Y-18542569D01*
X41061826Y-18533223D01*
X41035400Y-18495485D01*
X41025089Y-18487242D01*
X41011856Y-18494198D01*
X40366160Y-19139893D01*
X40358668Y-19153613D01*
X39640116Y-19153613D01*
X39641332Y-19151387D01*
X39641203Y-19149582D01*
X39637020Y-19143073D01*
X38987433Y-18493487D01*
X38975847Y-18487160D01*
X38964023Y-18496308D01*
X38938174Y-18533223D01*
X38932778Y-18542569D01*
X38846768Y-18727019D01*
X38843079Y-18737152D01*
X38790402Y-18933745D01*
X38788532Y-18944356D01*
X38770793Y-19147105D01*
X38770793Y-19157895D01*
X36229207Y-19157895D01*
X36229207Y-19147105D01*
X36211468Y-18944356D01*
X36209598Y-18933745D01*
X36156921Y-18737152D01*
X36153232Y-18727019D01*
X36067222Y-18542569D01*
X36061826Y-18533223D01*
X36035400Y-18495485D01*
X36025089Y-18487242D01*
X36011856Y-18494198D01*
X35366160Y-19139893D01*
X35358668Y-19153613D01*
X34640116Y-19153613D01*
X34641332Y-19151387D01*
X34641203Y-19149582D01*
X34637020Y-19143073D01*
X33987433Y-18493487D01*
X33975847Y-18487160D01*
X33964023Y-18496308D01*
X33938174Y-18533223D01*
X33932778Y-18542569D01*
X33846768Y-18727019D01*
X33843079Y-18737152D01*
X33790402Y-18933745D01*
X33788532Y-18944356D01*
X33770793Y-19147105D01*
X33770793Y-19157895D01*
X21696107Y-19157895D01*
X21704165Y-19058828D01*
X21704365Y-19054456D01*
X21704912Y-19002208D01*
X21704802Y-18997795D01*
X21685569Y-18678774D01*
X21684671Y-18671356D01*
X21627526Y-18358460D01*
X21625746Y-18351212D01*
X21531424Y-18047445D01*
X21528787Y-18040465D01*
X21398654Y-17750229D01*
X21395192Y-17743607D01*
X21231135Y-17471109D01*
X21226912Y-17464964D01*
X21089635Y-17288941D01*
X21078030Y-17280606D01*
X21066505Y-17287048D01*
X19366160Y-18987393D01*
X19358668Y-19001113D01*
X18640116Y-19001113D01*
X18641332Y-18998887D01*
X18641203Y-18997081D01*
X18637021Y-18990574D01*
X16934442Y-17287995D01*
X16921714Y-17281045D01*
X16911320Y-17288584D01*
X16789288Y-17441724D01*
X16784992Y-17447837D01*
X16618089Y-17718605D01*
X16614572Y-17725163D01*
X16481401Y-18014035D01*
X16478690Y-18020989D01*
X16381190Y-18323757D01*
X16379336Y-18330978D01*
X16318916Y-18643264D01*
X16317942Y-18650664D01*
X16295477Y-18967950D01*
X16295398Y-18975399D01*
X15418129Y-18975399D01*
X15459464Y-18788950D01*
X15462261Y-18778512D01*
X15478497Y-18727019D01*
X15582290Y-18397831D01*
X15585986Y-18387675D01*
X15598088Y-18358460D01*
X15738739Y-18018897D01*
X15743308Y-18009100D01*
X15927617Y-17655046D01*
X15933012Y-17645700D01*
X16147496Y-17309029D01*
X16153677Y-17300200D01*
X16396687Y-16983503D01*
X16403634Y-16975226D01*
X16452791Y-16921580D01*
X17280334Y-16921580D01*
X17286834Y-16933281D01*
X18987393Y-18633840D01*
X19001113Y-18641332D01*
X19002919Y-18641203D01*
X19009426Y-18637021D01*
X20712231Y-16934216D01*
X20719130Y-16921581D01*
X20711459Y-16911062D01*
X20636522Y-16851986D01*
X32900000Y-16851986D01*
X32900282Y-16857899D01*
X32914371Y-17005571D01*
X32916593Y-17017114D01*
X32972359Y-17207205D01*
X32976721Y-17218108D01*
X33067422Y-17394215D01*
X33073775Y-17404113D01*
X33196143Y-17559893D01*
X33204242Y-17568398D01*
X33353862Y-17698231D01*
X33363432Y-17705058D01*
X33534901Y-17804255D01*
X33545584Y-17809146D01*
X33732712Y-17874128D01*
X33735370Y-17874776D01*
X33746071Y-17873250D01*
X33750000Y-17859898D01*
X33750000Y-17855923D01*
X34250000Y-17855923D01*
X34253910Y-17869240D01*
X34263191Y-17870575D01*
X34285347Y-17865235D01*
X34355132Y-17868664D01*
X34411985Y-17909277D01*
X34437856Y-17974181D01*
X34424530Y-18042768D01*
X34383733Y-18085528D01*
X34385161Y-18087567D01*
X34342985Y-18117100D01*
X34334742Y-18127411D01*
X34341698Y-18140644D01*
X34987393Y-18786340D01*
X35001113Y-18793832D01*
X35002918Y-18793703D01*
X35009427Y-18789520D01*
X35659014Y-18139932D01*
X35665340Y-18128346D01*
X35664617Y-18127411D01*
X39334742Y-18127411D01*
X39341698Y-18140644D01*
X39987393Y-18786340D01*
X40001113Y-18793832D01*
X40002918Y-18793703D01*
X40009427Y-18789520D01*
X40659014Y-18139932D01*
X40665340Y-18128346D01*
X40656193Y-18116522D01*
X40623809Y-18093847D01*
X40580184Y-18039270D01*
X40572990Y-17969772D01*
X40604513Y-17907417D01*
X40664742Y-17872003D01*
X40726494Y-17874730D01*
X40726981Y-17872731D01*
X40735370Y-17874776D01*
X40746071Y-17873250D01*
X40750000Y-17859898D01*
X40750000Y-17855923D01*
X41250000Y-17855923D01*
X41253910Y-17869240D01*
X41263189Y-17870574D01*
X41354016Y-17848685D01*
X41365129Y-17844858D01*
X41545459Y-17762866D01*
X41555644Y-17757010D01*
X41717221Y-17642396D01*
X41726110Y-17634723D01*
X41863097Y-17491624D01*
X41870386Y-17482395D01*
X41977834Y-17315988D01*
X41983249Y-17305542D01*
X42057291Y-17121818D01*
X42060632Y-17110540D01*
X42097532Y-16921580D01*
X54280334Y-16921580D01*
X54286834Y-16933281D01*
X55987393Y-18633840D01*
X56001113Y-18641332D01*
X56002919Y-18641203D01*
X56009426Y-18637021D01*
X57712231Y-16934216D01*
X57719130Y-16921581D01*
X57711459Y-16911062D01*
X57546675Y-16781156D01*
X57540552Y-16776901D01*
X57268915Y-16611417D01*
X57262317Y-16607924D01*
X56972767Y-16476274D01*
X56965796Y-16473598D01*
X56662528Y-16377686D01*
X56655290Y-16375868D01*
X56342693Y-16317085D01*
X56335291Y-16316150D01*
X56017877Y-16295345D01*
X56010446Y-16295307D01*
X55692835Y-16312786D01*
X55685415Y-16313644D01*
X55372221Y-16369152D01*
X55364972Y-16370892D01*
X55060713Y-16463622D01*
X55053717Y-16466224D01*
X54762805Y-16594835D01*
X54756165Y-16598263D01*
X54482819Y-16760886D01*
X54476641Y-16765084D01*
X54288666Y-16910107D01*
X54280334Y-16921580D01*
X42097532Y-16921580D01*
X42098874Y-16914710D01*
X42099934Y-16905985D01*
X42100000Y-16903296D01*
X42100000Y-16720330D01*
X42095596Y-16705331D01*
X42094226Y-16704144D01*
X42086668Y-16702500D01*
X41267830Y-16702500D01*
X41252831Y-16706904D01*
X41251644Y-16708274D01*
X41250000Y-16715832D01*
X41250000Y-17855923D01*
X40750000Y-17855923D01*
X40750000Y-16720330D01*
X40745596Y-16705331D01*
X40744226Y-16704144D01*
X40736668Y-16702500D01*
X39917830Y-16702500D01*
X39902831Y-16706904D01*
X39901644Y-16708274D01*
X39900000Y-16715832D01*
X39900000Y-16851986D01*
X39900282Y-16857899D01*
X39914371Y-17005571D01*
X39916593Y-17017114D01*
X39972359Y-17207205D01*
X39976721Y-17218108D01*
X40067422Y-17394215D01*
X40073775Y-17404113D01*
X40196143Y-17559893D01*
X40204242Y-17568398D01*
X40353862Y-17698231D01*
X40363436Y-17705061D01*
X40441563Y-17750258D01*
X40489735Y-17800867D01*
X40502898Y-17869485D01*
X40476874Y-17934328D01*
X40419924Y-17974806D01*
X40347377Y-17977366D01*
X40218758Y-17942903D01*
X40208144Y-17941032D01*
X40005395Y-17923293D01*
X39994605Y-17923293D01*
X39791856Y-17941032D01*
X39781245Y-17942902D01*
X39584652Y-17995579D01*
X39574519Y-17999268D01*
X39390069Y-18085278D01*
X39380723Y-18090674D01*
X39342985Y-18117100D01*
X39334742Y-18127411D01*
X35664617Y-18127411D01*
X35656193Y-18116522D01*
X35619279Y-18090675D01*
X35609929Y-18085277D01*
X35425481Y-17999268D01*
X35415348Y-17995579D01*
X35218755Y-17942902D01*
X35208144Y-17941032D01*
X35005395Y-17923293D01*
X34994605Y-17923293D01*
X34791856Y-17941032D01*
X34781245Y-17942902D01*
X34664905Y-17974076D01*
X34595055Y-17972413D01*
X34537192Y-17933251D01*
X34509688Y-17869022D01*
X34521274Y-17800120D01*
X34561068Y-17753162D01*
X34717226Y-17642392D01*
X34726110Y-17634723D01*
X34863097Y-17491624D01*
X34870386Y-17482395D01*
X34977834Y-17315988D01*
X34983249Y-17305542D01*
X35057291Y-17121818D01*
X35060632Y-17110540D01*
X35098874Y-16914710D01*
X35099934Y-16905985D01*
X35100000Y-16903296D01*
X35100000Y-16720330D01*
X35095596Y-16705331D01*
X35094226Y-16704144D01*
X35086668Y-16702500D01*
X34267830Y-16702500D01*
X34252831Y-16706904D01*
X34251644Y-16708274D01*
X34250000Y-16715832D01*
X34250000Y-17855923D01*
X33750000Y-17855923D01*
X33750000Y-16720330D01*
X33745596Y-16705331D01*
X33744226Y-16704144D01*
X33736668Y-16702500D01*
X32917830Y-16702500D01*
X32902831Y-16706904D01*
X32901644Y-16708274D01*
X32900000Y-16715832D01*
X32900000Y-16851986D01*
X20636522Y-16851986D01*
X20546675Y-16781156D01*
X20540552Y-16776901D01*
X20268915Y-16611417D01*
X20262317Y-16607924D01*
X19972767Y-16476274D01*
X19965796Y-16473598D01*
X19662528Y-16377686D01*
X19655290Y-16375868D01*
X19342693Y-16317085D01*
X19335291Y-16316150D01*
X19017877Y-16295345D01*
X19010446Y-16295307D01*
X18692835Y-16312786D01*
X18685415Y-16313644D01*
X18372221Y-16369152D01*
X18364972Y-16370892D01*
X18060713Y-16463622D01*
X18053717Y-16466224D01*
X17762805Y-16594835D01*
X17756165Y-16598263D01*
X17482819Y-16760886D01*
X17476641Y-16765084D01*
X17288666Y-16910107D01*
X17280334Y-16921580D01*
X16452791Y-16921580D01*
X16511144Y-16857899D01*
X16673305Y-16680932D01*
X16680932Y-16673305D01*
X16929680Y-16445369D01*
X16975226Y-16403634D01*
X16983503Y-16396687D01*
X17300200Y-16153677D01*
X17309029Y-16147496D01*
X17645700Y-15933012D01*
X17655046Y-15927617D01*
X18009106Y-15743305D01*
X18018897Y-15738739D01*
X18387685Y-15585983D01*
X18397831Y-15582290D01*
X18778522Y-15462258D01*
X18788950Y-15459464D01*
X19178668Y-15373065D01*
X19189307Y-15371189D01*
X19558214Y-15322622D01*
X19585042Y-15319090D01*
X19595818Y-15318147D01*
X19627166Y-15316778D01*
X19965362Y-15302012D01*
X19984270Y-15303252D01*
X19989316Y-15303252D01*
X20000000Y-15305136D01*
X20015609Y-15302384D01*
X20037139Y-15300500D01*
X32980788Y-15300500D01*
X33047827Y-15320185D01*
G37*
%TD.AperFunction*%
%TD*%
M02*
