%TF.GenerationSoftware,KiCad,Pcbnew,(6.0.9)*%
%TF.CreationDate,2022-12-01T17:51:06-05:00*%
%TF.ProjectId,cdh-devkit,6364682d-6465-4766-9b69-742e6b696361,rev?*%
%TF.SameCoordinates,Original*%
%TF.FileFunction,Legend,Top*%
%TF.FilePolarity,Positive*%
%FSLAX46Y46*%
G04 Gerber Fmt 4.6, Leading zero omitted, Abs format (unit mm)*
G04 Created by KiCad (PCBNEW (6.0.9)) date 2022-12-01 17:51:06*
%MOMM*%
%LPD*%
G01*
G04 APERTURE LIST*
%ADD10C,0.187500*%
%ADD11C,0.200000*%
%ADD12C,0.300000*%
%ADD13C,0.150000*%
%ADD14C,0.120198*%
%ADD15C,0.120000*%
%ADD16C,0.127000*%
%ADD17C,0.152400*%
G04 APERTURE END LIST*
D10*
X24503571Y-54063393D02*
X24539285Y-53956250D01*
X24539285Y-53777679D01*
X24503571Y-53706250D01*
X24467857Y-53670536D01*
X24396428Y-53634822D01*
X24325000Y-53634822D01*
X24253571Y-53670536D01*
X24217857Y-53706250D01*
X24182142Y-53777679D01*
X24146428Y-53920536D01*
X24110714Y-53991964D01*
X24075000Y-54027679D01*
X24003571Y-54063393D01*
X23932142Y-54063393D01*
X23860714Y-54027679D01*
X23825000Y-53991964D01*
X23789285Y-53920536D01*
X23789285Y-53741964D01*
X23825000Y-53634822D01*
X24539285Y-53313393D02*
X23789285Y-53313393D01*
X24539285Y-52884822D01*
X23789285Y-52884822D01*
X24467857Y-52527679D02*
X24503571Y-52491964D01*
X24539285Y-52527679D01*
X24503571Y-52563393D01*
X24467857Y-52527679D01*
X24539285Y-52527679D01*
X24075000Y-52527679D02*
X24110714Y-52491964D01*
X24146428Y-52527679D01*
X24110714Y-52563393D01*
X24075000Y-52527679D01*
X24146428Y-52527679D01*
X23789285Y-51384822D02*
X24325000Y-51384822D01*
X24432142Y-51420536D01*
X24503571Y-51491964D01*
X24539285Y-51599107D01*
X24539285Y-51670536D01*
X24539285Y-50670536D02*
X24539285Y-51027679D01*
X23789285Y-51027679D01*
X24467857Y-49991964D02*
X24503571Y-50027679D01*
X24539285Y-50134822D01*
X24539285Y-50206250D01*
X24503571Y-50313393D01*
X24432142Y-50384822D01*
X24360714Y-50420536D01*
X24217857Y-50456250D01*
X24110714Y-50456250D01*
X23967857Y-50420536D01*
X23896428Y-50384822D01*
X23825000Y-50313393D01*
X23789285Y-50206250D01*
X23789285Y-50134822D01*
X23825000Y-50027679D01*
X23860714Y-49991964D01*
X23789285Y-49456250D02*
X24325000Y-49456250D01*
X24432142Y-49491964D01*
X24503571Y-49563393D01*
X24539285Y-49670536D01*
X24539285Y-49741964D01*
X24539285Y-48741964D02*
X24539285Y-49099107D01*
X23789285Y-49099107D01*
X24467857Y-48063393D02*
X24503571Y-48099107D01*
X24539285Y-48206250D01*
X24539285Y-48277679D01*
X24503571Y-48384822D01*
X24432142Y-48456250D01*
X24360714Y-48491964D01*
X24217857Y-48527679D01*
X24110714Y-48527679D01*
X23967857Y-48491964D01*
X23896428Y-48456250D01*
X23825000Y-48384822D01*
X23789285Y-48277679D01*
X23789285Y-48206250D01*
X23825000Y-48099107D01*
X23860714Y-48063393D01*
X23789285Y-47527679D02*
X24325000Y-47527679D01*
X24432142Y-47563393D01*
X24503571Y-47634822D01*
X24539285Y-47741964D01*
X24539285Y-47813393D01*
X24539285Y-46813393D02*
X24539285Y-47170536D01*
X23789285Y-47170536D01*
X24467857Y-46134822D02*
X24503571Y-46170536D01*
X24539285Y-46277679D01*
X24539285Y-46349107D01*
X24503571Y-46456250D01*
X24432142Y-46527679D01*
X24360714Y-46563393D01*
X24217857Y-46599107D01*
X24110714Y-46599107D01*
X23967857Y-46563393D01*
X23896428Y-46527679D01*
X23825000Y-46456250D01*
X23789285Y-46349107D01*
X23789285Y-46277679D01*
X23825000Y-46170536D01*
X23860714Y-46134822D01*
X23789285Y-45599107D02*
X24325000Y-45599107D01*
X24432142Y-45634822D01*
X24503571Y-45706250D01*
X24539285Y-45813393D01*
X24539285Y-45884822D01*
X24539285Y-44884822D02*
X24539285Y-45241964D01*
X23789285Y-45241964D01*
X24467857Y-44206250D02*
X24503571Y-44241964D01*
X24539285Y-44349107D01*
X24539285Y-44420536D01*
X24503571Y-44527679D01*
X24432142Y-44599107D01*
X24360714Y-44634822D01*
X24217857Y-44670536D01*
X24110714Y-44670536D01*
X23967857Y-44634822D01*
X23896428Y-44599107D01*
X23825000Y-44527679D01*
X23789285Y-44420536D01*
X23789285Y-44349107D01*
X23825000Y-44241964D01*
X23860714Y-44206250D01*
D11*
X22404761Y-53979523D02*
X22452380Y-53836666D01*
X22452380Y-53598571D01*
X22404761Y-53503333D01*
X22357142Y-53455714D01*
X22261904Y-53408095D01*
X22166666Y-53408095D01*
X22071428Y-53455714D01*
X22023809Y-53503333D01*
X21976190Y-53598571D01*
X21928571Y-53789047D01*
X21880952Y-53884285D01*
X21833333Y-53931904D01*
X21738095Y-53979523D01*
X21642857Y-53979523D01*
X21547619Y-53931904D01*
X21500000Y-53884285D01*
X21452380Y-53789047D01*
X21452380Y-53550952D01*
X21500000Y-53408095D01*
X21452380Y-53122380D02*
X21452380Y-52550952D01*
X22452380Y-52836666D02*
X21452380Y-52836666D01*
X22452380Y-52217619D02*
X21452380Y-52217619D01*
X22166666Y-51884285D01*
X21452380Y-51550952D01*
X22452380Y-51550952D01*
X21452380Y-51170000D02*
X21452380Y-50550952D01*
X21833333Y-50884285D01*
X21833333Y-50741428D01*
X21880952Y-50646190D01*
X21928571Y-50598571D01*
X22023809Y-50550952D01*
X22261904Y-50550952D01*
X22357142Y-50598571D01*
X22404761Y-50646190D01*
X22452380Y-50741428D01*
X22452380Y-51027142D01*
X22404761Y-51122380D01*
X22357142Y-51170000D01*
X21547619Y-50170000D02*
X21500000Y-50122380D01*
X21452380Y-50027142D01*
X21452380Y-49789047D01*
X21500000Y-49693809D01*
X21547619Y-49646190D01*
X21642857Y-49598571D01*
X21738095Y-49598571D01*
X21880952Y-49646190D01*
X22452380Y-50217619D01*
X22452380Y-49598571D01*
X22452380Y-48693809D02*
X22452380Y-49170000D01*
X21452380Y-49170000D01*
X21785714Y-47931904D02*
X22452380Y-47931904D01*
X21404761Y-48170000D02*
X22119047Y-48408095D01*
X22119047Y-47789047D01*
X21452380Y-47503333D02*
X21452380Y-46884285D01*
X21833333Y-47217619D01*
X21833333Y-47074761D01*
X21880952Y-46979523D01*
X21928571Y-46931904D01*
X22023809Y-46884285D01*
X22261904Y-46884285D01*
X22357142Y-46931904D01*
X22404761Y-46979523D01*
X22452380Y-47074761D01*
X22452380Y-47360476D01*
X22404761Y-47455714D01*
X22357142Y-47503333D01*
X21452380Y-46550952D02*
X21452380Y-45931904D01*
X21833333Y-46265238D01*
X21833333Y-46122380D01*
X21880952Y-46027142D01*
X21928571Y-45979523D01*
X22023809Y-45931904D01*
X22261904Y-45931904D01*
X22357142Y-45979523D01*
X22404761Y-46027142D01*
X22452380Y-46122380D01*
X22452380Y-46408095D01*
X22404761Y-46503333D01*
X22357142Y-46550952D01*
X22452380Y-44931904D02*
X21976190Y-45265238D01*
X22452380Y-45503333D02*
X21452380Y-45503333D01*
X21452380Y-45122380D01*
X21500000Y-45027142D01*
X21547619Y-44979523D01*
X21642857Y-44931904D01*
X21785714Y-44931904D01*
X21880952Y-44979523D01*
X21928571Y-45027142D01*
X21976190Y-45122380D01*
X21976190Y-45503333D01*
X22357142Y-43931904D02*
X22404761Y-43979523D01*
X22452380Y-44122380D01*
X22452380Y-44217619D01*
X22404761Y-44360476D01*
X22309523Y-44455714D01*
X22214285Y-44503333D01*
X22023809Y-44550952D01*
X21880952Y-44550952D01*
X21690476Y-44503333D01*
X21595238Y-44455714D01*
X21500000Y-44360476D01*
X21452380Y-44217619D01*
X21452380Y-44122380D01*
X21500000Y-43979523D01*
X21547619Y-43931904D01*
X21452380Y-43646190D02*
X21452380Y-43074761D01*
X22452380Y-43360476D02*
X21452380Y-43360476D01*
X21452380Y-42312857D02*
X21452380Y-42503333D01*
X21500000Y-42598571D01*
X21547619Y-42646190D01*
X21690476Y-42741428D01*
X21880952Y-42789047D01*
X22261904Y-42789047D01*
X22357142Y-42741428D01*
X22404761Y-42693809D01*
X22452380Y-42598571D01*
X22452380Y-42408095D01*
X22404761Y-42312857D01*
X22357142Y-42265238D01*
X22261904Y-42217619D01*
X22023809Y-42217619D01*
X21928571Y-42265238D01*
X21880952Y-42312857D01*
X21833333Y-42408095D01*
X21833333Y-42598571D01*
X21880952Y-42693809D01*
X21928571Y-42741428D01*
X22023809Y-42789047D01*
X21452380Y-38311012D02*
X22452380Y-37977678D01*
X21452380Y-37644345D01*
X22404761Y-36930059D02*
X22452380Y-37025297D01*
X22452380Y-37215774D01*
X22404761Y-37311012D01*
X22309523Y-37358631D01*
X21928571Y-37358631D01*
X21833333Y-37311012D01*
X21785714Y-37215774D01*
X21785714Y-37025297D01*
X21833333Y-36930059D01*
X21928571Y-36882440D01*
X22023809Y-36882440D01*
X22119047Y-37358631D01*
X22452380Y-36453869D02*
X21785714Y-36453869D01*
X21976190Y-36453869D02*
X21880952Y-36406250D01*
X21833333Y-36358631D01*
X21785714Y-36263393D01*
X21785714Y-36168155D01*
X22404761Y-35882440D02*
X22452380Y-35787202D01*
X22452380Y-35596726D01*
X22404761Y-35501488D01*
X22309523Y-35453869D01*
X22261904Y-35453869D01*
X22166666Y-35501488D01*
X22119047Y-35596726D01*
X22119047Y-35739583D01*
X22071428Y-35834821D01*
X21976190Y-35882440D01*
X21928571Y-35882440D01*
X21833333Y-35834821D01*
X21785714Y-35739583D01*
X21785714Y-35596726D01*
X21833333Y-35501488D01*
X22452380Y-35025297D02*
X21785714Y-35025297D01*
X21452380Y-35025297D02*
X21500000Y-35072916D01*
X21547619Y-35025297D01*
X21500000Y-34977678D01*
X21452380Y-35025297D01*
X21547619Y-35025297D01*
X22452380Y-34406250D02*
X22404761Y-34501488D01*
X22357142Y-34549107D01*
X22261904Y-34596726D01*
X21976190Y-34596726D01*
X21880952Y-34549107D01*
X21833333Y-34501488D01*
X21785714Y-34406250D01*
X21785714Y-34263393D01*
X21833333Y-34168155D01*
X21880952Y-34120536D01*
X21976190Y-34072916D01*
X22261904Y-34072916D01*
X22357142Y-34120536D01*
X22404761Y-34168155D01*
X22452380Y-34263393D01*
X22452380Y-34406250D01*
X21785714Y-33644345D02*
X22452380Y-33644345D01*
X21880952Y-33644345D02*
X21833333Y-33596726D01*
X21785714Y-33501488D01*
X21785714Y-33358631D01*
X21833333Y-33263393D01*
X21928571Y-33215774D01*
X22452380Y-33215774D01*
X22452380Y-31453869D02*
X22452380Y-32025297D01*
X22452380Y-31739583D02*
X21452380Y-31739583D01*
X21595238Y-31834821D01*
X21690476Y-31930059D01*
X21738095Y-32025297D01*
X22357142Y-31025297D02*
X22404761Y-30977678D01*
X22452380Y-31025297D01*
X22404761Y-31072916D01*
X22357142Y-31025297D01*
X22452380Y-31025297D01*
X21452380Y-30358631D02*
X21452380Y-30263393D01*
X21500000Y-30168155D01*
X21547619Y-30120536D01*
X21642857Y-30072916D01*
X21833333Y-30025297D01*
X22071428Y-30025297D01*
X22261904Y-30072916D01*
X22357142Y-30120536D01*
X22404761Y-30168155D01*
X22452380Y-30263393D01*
X22452380Y-30358631D01*
X22404761Y-30453869D01*
X22357142Y-30501488D01*
X22261904Y-30549107D01*
X22071428Y-30596726D01*
X21833333Y-30596726D01*
X21642857Y-30549107D01*
X21547619Y-30501488D01*
X21500000Y-30453869D01*
X21452380Y-30358631D01*
D12*
X19904761Y-53956904D02*
X17904761Y-53956904D01*
X19904761Y-52814047D02*
X18761904Y-53671190D01*
X17904761Y-52814047D02*
X19047619Y-53956904D01*
X19904761Y-50814047D02*
X18952380Y-51480714D01*
X19904761Y-51956904D02*
X17904761Y-51956904D01*
X17904761Y-51195000D01*
X18000000Y-51004523D01*
X18095238Y-50909285D01*
X18285714Y-50814047D01*
X18571428Y-50814047D01*
X18761904Y-50909285D01*
X18857142Y-51004523D01*
X18952380Y-51195000D01*
X18952380Y-51956904D01*
X17904761Y-49575952D02*
X17904761Y-49195000D01*
X18000000Y-49004523D01*
X18190476Y-48814047D01*
X18571428Y-48718809D01*
X19238095Y-48718809D01*
X19619047Y-48814047D01*
X19809523Y-49004523D01*
X19904761Y-49195000D01*
X19904761Y-49575952D01*
X19809523Y-49766428D01*
X19619047Y-49956904D01*
X19238095Y-50052142D01*
X18571428Y-50052142D01*
X18190476Y-49956904D01*
X18000000Y-49766428D01*
X17904761Y-49575952D01*
X19904761Y-47861666D02*
X17904761Y-47861666D01*
X19904761Y-46718809D01*
X17904761Y-46718809D01*
X17904761Y-45385476D02*
X17904761Y-45004523D01*
X18000000Y-44814047D01*
X18190476Y-44623571D01*
X18571428Y-44528333D01*
X19238095Y-44528333D01*
X19619047Y-44623571D01*
X19809523Y-44814047D01*
X19904761Y-45004523D01*
X19904761Y-45385476D01*
X19809523Y-45575952D01*
X19619047Y-45766428D01*
X19238095Y-45861666D01*
X18571428Y-45861666D01*
X18190476Y-45766428D01*
X18000000Y-45575952D01*
X17904761Y-45385476D01*
X19809523Y-43766428D02*
X19904761Y-43480714D01*
X19904761Y-43004523D01*
X19809523Y-42814047D01*
X19714285Y-42718809D01*
X19523809Y-42623571D01*
X19333333Y-42623571D01*
X19142857Y-42718809D01*
X19047619Y-42814047D01*
X18952380Y-43004523D01*
X18857142Y-43385476D01*
X18761904Y-43575952D01*
X18666666Y-43671190D01*
X18476190Y-43766428D01*
X18285714Y-43766428D01*
X18095238Y-43671190D01*
X18000000Y-43575952D01*
X17904761Y-43385476D01*
X17904761Y-42909285D01*
X18000000Y-42623571D01*
X19904761Y-40242619D02*
X17904761Y-40242619D01*
X17904761Y-39766428D01*
X18000000Y-39480714D01*
X18190476Y-39290238D01*
X18380952Y-39195000D01*
X18761904Y-39099761D01*
X19047619Y-39099761D01*
X19428571Y-39195000D01*
X19619047Y-39290238D01*
X19809523Y-39480714D01*
X19904761Y-39766428D01*
X19904761Y-40242619D01*
X18857142Y-38242619D02*
X18857142Y-37575952D01*
X19904761Y-37290238D02*
X19904761Y-38242619D01*
X17904761Y-38242619D01*
X17904761Y-37290238D01*
X17904761Y-36718809D02*
X19904761Y-36052142D01*
X17904761Y-35385476D01*
X19904761Y-33195000D02*
X17904761Y-33195000D01*
X19904761Y-32052142D02*
X18761904Y-32909285D01*
X17904761Y-32052142D02*
X19047619Y-33195000D01*
X19904761Y-31195000D02*
X17904761Y-31195000D01*
X17904761Y-30528333D02*
X17904761Y-29385476D01*
X19904761Y-29956904D02*
X17904761Y-29956904D01*
D13*
X32250000Y-89915000D02*
X32250000Y-92000000D01*
X42750000Y-92000000D02*
X42750000Y-90000000D01*
X32250000Y-92000000D02*
X42750000Y-92000000D01*
X43440476Y-21952380D02*
X43440476Y-20952380D01*
X43821428Y-20952380D01*
X43916666Y-21000000D01*
X43964285Y-21047619D01*
X44011904Y-21142857D01*
X44011904Y-21285714D01*
X43964285Y-21380952D01*
X43916666Y-21428571D01*
X43821428Y-21476190D01*
X43440476Y-21476190D01*
X44630952Y-20952380D02*
X44821428Y-20952380D01*
X44916666Y-21000000D01*
X45011904Y-21095238D01*
X45059523Y-21285714D01*
X45059523Y-21619047D01*
X45011904Y-21809523D01*
X44916666Y-21904761D01*
X44821428Y-21952380D01*
X44630952Y-21952380D01*
X44535714Y-21904761D01*
X44440476Y-21809523D01*
X44392857Y-21619047D01*
X44392857Y-21285714D01*
X44440476Y-21095238D01*
X44535714Y-21000000D01*
X44630952Y-20952380D01*
X45392857Y-20952380D02*
X45630952Y-21952380D01*
X45821428Y-21238095D01*
X46011904Y-21952380D01*
X46250000Y-20952380D01*
X46630952Y-21428571D02*
X46964285Y-21428571D01*
X47107142Y-21952380D02*
X46630952Y-21952380D01*
X46630952Y-20952380D01*
X47107142Y-20952380D01*
X48107142Y-21952380D02*
X47773809Y-21476190D01*
X47535714Y-21952380D02*
X47535714Y-20952380D01*
X47916666Y-20952380D01*
X48011904Y-21000000D01*
X48059523Y-21047619D01*
X48107142Y-21142857D01*
X48107142Y-21285714D01*
X48059523Y-21380952D01*
X48011904Y-21428571D01*
X47916666Y-21476190D01*
X47535714Y-21476190D01*
X48759642Y-29212380D02*
X48759642Y-30021904D01*
X48807261Y-30117142D01*
X48854880Y-30164761D01*
X48950119Y-30212380D01*
X49140595Y-30212380D01*
X49235833Y-30164761D01*
X49283452Y-30117142D01*
X49331071Y-30021904D01*
X49331071Y-29212380D01*
X49759642Y-29926666D02*
X50235833Y-29926666D01*
X49664404Y-30212380D02*
X49997738Y-29212380D01*
X50331071Y-30212380D01*
X51235833Y-30212380D02*
X50902500Y-29736190D01*
X50664404Y-30212380D02*
X50664404Y-29212380D01*
X51045357Y-29212380D01*
X51140595Y-29260000D01*
X51188214Y-29307619D01*
X51235833Y-29402857D01*
X51235833Y-29545714D01*
X51188214Y-29640952D01*
X51140595Y-29688571D01*
X51045357Y-29736190D01*
X50664404Y-29736190D01*
X51521547Y-29212380D02*
X52092976Y-29212380D01*
X51807261Y-30212380D02*
X51807261Y-29212380D01*
X52188214Y-30307619D02*
X52950119Y-30307619D01*
X53759642Y-30212380D02*
X53426309Y-29736190D01*
X53188214Y-30212380D02*
X53188214Y-29212380D01*
X53569166Y-29212380D01*
X53664404Y-29260000D01*
X53712023Y-29307619D01*
X53759642Y-29402857D01*
X53759642Y-29545714D01*
X53712023Y-29640952D01*
X53664404Y-29688571D01*
X53569166Y-29736190D01*
X53188214Y-29736190D01*
X54092976Y-29212380D02*
X54759642Y-30212380D01*
X54759642Y-29212380D02*
X54092976Y-30212380D01*
X51239095Y-81252380D02*
X51239095Y-80252380D01*
X51620047Y-80252380D01*
X51715285Y-80300000D01*
X51762904Y-80347619D01*
X51810523Y-80442857D01*
X51810523Y-80585714D01*
X51762904Y-80680952D01*
X51715285Y-80728571D01*
X51620047Y-80776190D01*
X51239095Y-80776190D01*
X52572428Y-80728571D02*
X52715285Y-80776190D01*
X52762904Y-80823809D01*
X52810523Y-80919047D01*
X52810523Y-81061904D01*
X52762904Y-81157142D01*
X52715285Y-81204761D01*
X52620047Y-81252380D01*
X52239095Y-81252380D01*
X52239095Y-80252380D01*
X52572428Y-80252380D01*
X52667666Y-80300000D01*
X52715285Y-80347619D01*
X52762904Y-80442857D01*
X52762904Y-80538095D01*
X52715285Y-80633333D01*
X52667666Y-80680952D01*
X52572428Y-80728571D01*
X52239095Y-80728571D01*
X53762904Y-81252380D02*
X53191476Y-81252380D01*
X53477190Y-81252380D02*
X53477190Y-80252380D01*
X53381952Y-80395238D01*
X53286714Y-80490476D01*
X53191476Y-80538095D01*
X54143857Y-80347619D02*
X54191476Y-80300000D01*
X54286714Y-80252380D01*
X54524809Y-80252380D01*
X54620047Y-80300000D01*
X54667666Y-80347619D01*
X54715285Y-80442857D01*
X54715285Y-80538095D01*
X54667666Y-80680952D01*
X54096238Y-81252380D01*
X54715285Y-81252380D01*
X51807261Y-59692380D02*
X52426309Y-59692380D01*
X52092976Y-60073333D01*
X52235833Y-60073333D01*
X52331071Y-60120952D01*
X52378690Y-60168571D01*
X52426309Y-60263809D01*
X52426309Y-60501904D01*
X52378690Y-60597142D01*
X52331071Y-60644761D01*
X52235833Y-60692380D01*
X51950119Y-60692380D01*
X51854880Y-60644761D01*
X51807261Y-60597142D01*
X52854880Y-60597142D02*
X52902500Y-60644761D01*
X52854880Y-60692380D01*
X52807261Y-60644761D01*
X52854880Y-60597142D01*
X52854880Y-60692380D01*
X53235833Y-59692380D02*
X53854880Y-59692380D01*
X53521547Y-60073333D01*
X53664404Y-60073333D01*
X53759642Y-60120952D01*
X53807261Y-60168571D01*
X53854880Y-60263809D01*
X53854880Y-60501904D01*
X53807261Y-60597142D01*
X53759642Y-60644761D01*
X53664404Y-60692380D01*
X53378690Y-60692380D01*
X53283452Y-60644761D01*
X53235833Y-60597142D01*
X54140595Y-59692380D02*
X54473928Y-60692380D01*
X54807261Y-59692380D01*
X52620047Y-67600000D02*
X52524809Y-67552380D01*
X52381952Y-67552380D01*
X52239095Y-67600000D01*
X52143857Y-67695238D01*
X52096238Y-67790476D01*
X52048619Y-67980952D01*
X52048619Y-68123809D01*
X52096238Y-68314285D01*
X52143857Y-68409523D01*
X52239095Y-68504761D01*
X52381952Y-68552380D01*
X52477190Y-68552380D01*
X52620047Y-68504761D01*
X52667666Y-68457142D01*
X52667666Y-68123809D01*
X52477190Y-68123809D01*
X53096238Y-68552380D02*
X53096238Y-67552380D01*
X53667666Y-68552380D01*
X53667666Y-67552380D01*
X54143857Y-68552380D02*
X54143857Y-67552380D01*
X54381952Y-67552380D01*
X54524809Y-67600000D01*
X54620047Y-67695238D01*
X54667666Y-67790476D01*
X54715285Y-67980952D01*
X54715285Y-68123809D01*
X54667666Y-68314285D01*
X54620047Y-68409523D01*
X54524809Y-68504761D01*
X54381952Y-68552380D01*
X54143857Y-68552380D01*
X34500000Y-86233595D02*
X34452380Y-86322880D01*
X34452380Y-86465738D01*
X34500000Y-86614547D01*
X34595238Y-86721690D01*
X34690476Y-86781214D01*
X34880952Y-86852642D01*
X35023809Y-86870500D01*
X35214285Y-86846690D01*
X35309523Y-86810976D01*
X35404761Y-86727642D01*
X35452380Y-86590738D01*
X35452380Y-86495500D01*
X35404761Y-86346690D01*
X35357142Y-86293119D01*
X35023809Y-86251452D01*
X35023809Y-86441928D01*
X35452380Y-85876452D02*
X34452380Y-85751452D01*
X35452380Y-85305023D01*
X34452380Y-85180023D01*
X35452380Y-84828833D02*
X34452380Y-84703833D01*
X34452380Y-84465738D01*
X34500000Y-84328833D01*
X34595238Y-84245500D01*
X34690476Y-84209785D01*
X34880952Y-84185976D01*
X35023809Y-84203833D01*
X35214285Y-84275261D01*
X35309523Y-84334785D01*
X35404761Y-84441928D01*
X35452380Y-84590738D01*
X35452380Y-84828833D01*
X52616785Y-57200000D02*
X52521547Y-57152380D01*
X52378690Y-57152380D01*
X52235833Y-57200000D01*
X52140595Y-57295238D01*
X52092976Y-57390476D01*
X52045357Y-57580952D01*
X52045357Y-57723809D01*
X52092976Y-57914285D01*
X52140595Y-58009523D01*
X52235833Y-58104761D01*
X52378690Y-58152380D01*
X52473928Y-58152380D01*
X52616785Y-58104761D01*
X52664404Y-58057142D01*
X52664404Y-57723809D01*
X52473928Y-57723809D01*
X53092976Y-58152380D02*
X53092976Y-57152380D01*
X53664404Y-58152380D01*
X53664404Y-57152380D01*
X54140595Y-58152380D02*
X54140595Y-57152380D01*
X54378690Y-57152380D01*
X54521547Y-57200000D01*
X54616785Y-57295238D01*
X54664404Y-57390476D01*
X54712023Y-57580952D01*
X54712023Y-57723809D01*
X54664404Y-57914285D01*
X54616785Y-58009523D01*
X54521547Y-58104761D01*
X54378690Y-58152380D01*
X54140595Y-58152380D01*
X48283452Y-50484761D02*
X48426309Y-50532380D01*
X48664404Y-50532380D01*
X48759642Y-50484761D01*
X48807261Y-50437142D01*
X48854880Y-50341904D01*
X48854880Y-50246666D01*
X48807261Y-50151428D01*
X48759642Y-50103809D01*
X48664404Y-50056190D01*
X48473928Y-50008571D01*
X48378690Y-49960952D01*
X48331071Y-49913333D01*
X48283452Y-49818095D01*
X48283452Y-49722857D01*
X48331071Y-49627619D01*
X48378690Y-49580000D01*
X48473928Y-49532380D01*
X48712023Y-49532380D01*
X48854880Y-49580000D01*
X49283452Y-50532380D02*
X49283452Y-49532380D01*
X49664404Y-49532380D01*
X49759642Y-49580000D01*
X49807261Y-49627619D01*
X49854880Y-49722857D01*
X49854880Y-49865714D01*
X49807261Y-49960952D01*
X49759642Y-50008571D01*
X49664404Y-50056190D01*
X49283452Y-50056190D01*
X50283452Y-50532380D02*
X50283452Y-49532380D01*
X50521547Y-50627619D02*
X51283452Y-50627619D01*
X51521547Y-50532380D02*
X51521547Y-49532380D01*
X51854880Y-50246666D01*
X52188214Y-49532380D01*
X52188214Y-50532380D01*
X52854880Y-49532380D02*
X53045357Y-49532380D01*
X53140595Y-49580000D01*
X53235833Y-49675238D01*
X53283452Y-49865714D01*
X53283452Y-50199047D01*
X53235833Y-50389523D01*
X53140595Y-50484761D01*
X53045357Y-50532380D01*
X52854880Y-50532380D01*
X52759642Y-50484761D01*
X52664404Y-50389523D01*
X52616785Y-50199047D01*
X52616785Y-49865714D01*
X52664404Y-49675238D01*
X52759642Y-49580000D01*
X52854880Y-49532380D01*
X53664404Y-50484761D02*
X53807261Y-50532380D01*
X54045357Y-50532380D01*
X54140595Y-50484761D01*
X54188214Y-50437142D01*
X54235833Y-50341904D01*
X54235833Y-50246666D01*
X54188214Y-50151428D01*
X54140595Y-50103809D01*
X54045357Y-50056190D01*
X53854880Y-50008571D01*
X53759642Y-49960952D01*
X53712023Y-49913333D01*
X53664404Y-49818095D01*
X53664404Y-49722857D01*
X53712023Y-49627619D01*
X53759642Y-49580000D01*
X53854880Y-49532380D01*
X54092976Y-49532380D01*
X54235833Y-49580000D01*
X54664404Y-50532380D02*
X54664404Y-49532380D01*
X52616785Y-39420000D02*
X52521547Y-39372380D01*
X52378690Y-39372380D01*
X52235833Y-39420000D01*
X52140595Y-39515238D01*
X52092976Y-39610476D01*
X52045357Y-39800952D01*
X52045357Y-39943809D01*
X52092976Y-40134285D01*
X52140595Y-40229523D01*
X52235833Y-40324761D01*
X52378690Y-40372380D01*
X52473928Y-40372380D01*
X52616785Y-40324761D01*
X52664404Y-40277142D01*
X52664404Y-39943809D01*
X52473928Y-39943809D01*
X53092976Y-40372380D02*
X53092976Y-39372380D01*
X53664404Y-40372380D01*
X53664404Y-39372380D01*
X54140595Y-40372380D02*
X54140595Y-39372380D01*
X54378690Y-39372380D01*
X54521547Y-39420000D01*
X54616785Y-39515238D01*
X54664404Y-39610476D01*
X54712023Y-39800952D01*
X54712023Y-39943809D01*
X54664404Y-40134285D01*
X54616785Y-40229523D01*
X54521547Y-40324761D01*
X54378690Y-40372380D01*
X54140595Y-40372380D01*
X52616785Y-47040000D02*
X52521547Y-46992380D01*
X52378690Y-46992380D01*
X52235833Y-47040000D01*
X52140595Y-47135238D01*
X52092976Y-47230476D01*
X52045357Y-47420952D01*
X52045357Y-47563809D01*
X52092976Y-47754285D01*
X52140595Y-47849523D01*
X52235833Y-47944761D01*
X52378690Y-47992380D01*
X52473928Y-47992380D01*
X52616785Y-47944761D01*
X52664404Y-47897142D01*
X52664404Y-47563809D01*
X52473928Y-47563809D01*
X53092976Y-47992380D02*
X53092976Y-46992380D01*
X53664404Y-47992380D01*
X53664404Y-46992380D01*
X54140595Y-47992380D02*
X54140595Y-46992380D01*
X54378690Y-46992380D01*
X54521547Y-47040000D01*
X54616785Y-47135238D01*
X54664404Y-47230476D01*
X54712023Y-47420952D01*
X54712023Y-47563809D01*
X54664404Y-47754285D01*
X54616785Y-47849523D01*
X54521547Y-47944761D01*
X54378690Y-47992380D01*
X54140595Y-47992380D01*
X48997738Y-26672380D02*
X48997738Y-27481904D01*
X49045357Y-27577142D01*
X49092976Y-27624761D01*
X49188214Y-27672380D01*
X49378690Y-27672380D01*
X49473928Y-27624761D01*
X49521547Y-27577142D01*
X49569166Y-27481904D01*
X49569166Y-26672380D01*
X49997738Y-27386666D02*
X50473928Y-27386666D01*
X49902500Y-27672380D02*
X50235833Y-26672380D01*
X50569166Y-27672380D01*
X51473928Y-27672380D02*
X51140595Y-27196190D01*
X50902500Y-27672380D02*
X50902500Y-26672380D01*
X51283452Y-26672380D01*
X51378690Y-26720000D01*
X51426309Y-26767619D01*
X51473928Y-26862857D01*
X51473928Y-27005714D01*
X51426309Y-27100952D01*
X51378690Y-27148571D01*
X51283452Y-27196190D01*
X50902500Y-27196190D01*
X51759642Y-26672380D02*
X52331071Y-26672380D01*
X52045357Y-27672380D02*
X52045357Y-26672380D01*
X52426309Y-27767619D02*
X53188214Y-27767619D01*
X53283452Y-26672380D02*
X53854880Y-26672380D01*
X53569166Y-27672380D02*
X53569166Y-26672380D01*
X54092976Y-26672380D02*
X54759642Y-27672380D01*
X54759642Y-26672380D02*
X54092976Y-27672380D01*
X52616785Y-31800000D02*
X52521547Y-31752380D01*
X52378690Y-31752380D01*
X52235833Y-31800000D01*
X52140595Y-31895238D01*
X52092976Y-31990476D01*
X52045357Y-32180952D01*
X52045357Y-32323809D01*
X52092976Y-32514285D01*
X52140595Y-32609523D01*
X52235833Y-32704761D01*
X52378690Y-32752380D01*
X52473928Y-32752380D01*
X52616785Y-32704761D01*
X52664404Y-32657142D01*
X52664404Y-32323809D01*
X52473928Y-32323809D01*
X53092976Y-32752380D02*
X53092976Y-31752380D01*
X53664404Y-32752380D01*
X53664404Y-31752380D01*
X54140595Y-32752380D02*
X54140595Y-31752380D01*
X54378690Y-31752380D01*
X54521547Y-31800000D01*
X54616785Y-31895238D01*
X54664404Y-31990476D01*
X54712023Y-32180952D01*
X54712023Y-32323809D01*
X54664404Y-32514285D01*
X54616785Y-32609523D01*
X54521547Y-32704761D01*
X54378690Y-32752380D01*
X54140595Y-32752380D01*
X51239095Y-73632380D02*
X51239095Y-72632380D01*
X51620047Y-72632380D01*
X51715285Y-72680000D01*
X51762904Y-72727619D01*
X51810523Y-72822857D01*
X51810523Y-72965714D01*
X51762904Y-73060952D01*
X51715285Y-73108571D01*
X51620047Y-73156190D01*
X51239095Y-73156190D01*
X52572428Y-73108571D02*
X52715285Y-73156190D01*
X52762904Y-73203809D01*
X52810523Y-73299047D01*
X52810523Y-73441904D01*
X52762904Y-73537142D01*
X52715285Y-73584761D01*
X52620047Y-73632380D01*
X52239095Y-73632380D01*
X52239095Y-72632380D01*
X52572428Y-72632380D01*
X52667666Y-72680000D01*
X52715285Y-72727619D01*
X52762904Y-72822857D01*
X52762904Y-72918095D01*
X52715285Y-73013333D01*
X52667666Y-73060952D01*
X52572428Y-73108571D01*
X52239095Y-73108571D01*
X53762904Y-73632380D02*
X53191476Y-73632380D01*
X53477190Y-73632380D02*
X53477190Y-72632380D01*
X53381952Y-72775238D01*
X53286714Y-72870476D01*
X53191476Y-72918095D01*
X54667666Y-72632380D02*
X54191476Y-72632380D01*
X54143857Y-73108571D01*
X54191476Y-73060952D01*
X54286714Y-73013333D01*
X54524809Y-73013333D01*
X54620047Y-73060952D01*
X54667666Y-73108571D01*
X54715285Y-73203809D01*
X54715285Y-73441904D01*
X54667666Y-73537142D01*
X54620047Y-73584761D01*
X54524809Y-73632380D01*
X54286714Y-73632380D01*
X54191476Y-73584761D01*
X54143857Y-73537142D01*
X36142857Y-93404761D02*
X36285714Y-93452380D01*
X36523809Y-93452380D01*
X36619047Y-93404761D01*
X36666666Y-93357142D01*
X36714285Y-93261904D01*
X36714285Y-93166666D01*
X36666666Y-93071428D01*
X36619047Y-93023809D01*
X36523809Y-92976190D01*
X36333333Y-92928571D01*
X36238095Y-92880952D01*
X36190476Y-92833333D01*
X36142857Y-92738095D01*
X36142857Y-92642857D01*
X36190476Y-92547619D01*
X36238095Y-92500000D01*
X36333333Y-92452380D01*
X36571428Y-92452380D01*
X36714285Y-92500000D01*
X37047619Y-92452380D02*
X37285714Y-93452380D01*
X37476190Y-92738095D01*
X37666666Y-93452380D01*
X37904761Y-92452380D01*
X38285714Y-93452380D02*
X38285714Y-92452380D01*
X38523809Y-92452380D01*
X38666666Y-92500000D01*
X38761904Y-92595238D01*
X38809523Y-92690476D01*
X38857142Y-92880952D01*
X38857142Y-93023809D01*
X38809523Y-93214285D01*
X38761904Y-93309523D01*
X38666666Y-93404761D01*
X38523809Y-93452380D01*
X38285714Y-93452380D01*
X50331071Y-35197142D02*
X50283452Y-35244761D01*
X50140595Y-35292380D01*
X50045357Y-35292380D01*
X49902500Y-35244761D01*
X49807261Y-35149523D01*
X49759642Y-35054285D01*
X49712023Y-34863809D01*
X49712023Y-34720952D01*
X49759642Y-34530476D01*
X49807261Y-34435238D01*
X49902500Y-34340000D01*
X50045357Y-34292380D01*
X50140595Y-34292380D01*
X50283452Y-34340000D01*
X50331071Y-34387619D01*
X50712023Y-35006666D02*
X51188214Y-35006666D01*
X50616785Y-35292380D02*
X50950119Y-34292380D01*
X51283452Y-35292380D01*
X51616785Y-35292380D02*
X51616785Y-34292380D01*
X52188214Y-35292380D01*
X52188214Y-34292380D01*
X52426309Y-35387619D02*
X53188214Y-35387619D01*
X53283452Y-34292380D02*
X53854880Y-34292380D01*
X53569166Y-35292380D02*
X53569166Y-34292380D01*
X54092976Y-34292380D02*
X54759642Y-35292380D01*
X54759642Y-34292380D02*
X54092976Y-35292380D01*
X40484761Y-86918119D02*
X40532380Y-86781214D01*
X40532380Y-86543119D01*
X40484761Y-86441928D01*
X40437142Y-86388357D01*
X40341904Y-86328833D01*
X40246666Y-86316928D01*
X40151428Y-86352642D01*
X40103809Y-86394309D01*
X40056190Y-86483595D01*
X40008571Y-86668119D01*
X39960952Y-86757404D01*
X39913333Y-86799071D01*
X39818095Y-86834785D01*
X39722857Y-86822880D01*
X39627619Y-86763357D01*
X39580000Y-86709785D01*
X39532380Y-86608595D01*
X39532380Y-86370500D01*
X39580000Y-86233595D01*
X39532380Y-85894309D02*
X40532380Y-85781214D01*
X39818095Y-85501452D01*
X40532380Y-85400261D01*
X39532380Y-85037166D01*
X40532380Y-84781214D02*
X39532380Y-84656214D01*
X39532380Y-84418119D01*
X39580000Y-84281214D01*
X39675238Y-84197880D01*
X39770476Y-84162166D01*
X39960952Y-84138357D01*
X40103809Y-84156214D01*
X40294285Y-84227642D01*
X40389523Y-84287166D01*
X40484761Y-84394309D01*
X40532380Y-84543119D01*
X40532380Y-84781214D01*
X40532380Y-83781214D02*
X39532380Y-83656214D01*
X39532380Y-82989547D02*
X39532380Y-82799071D01*
X39580000Y-82709785D01*
X39675238Y-82626452D01*
X39865714Y-82602642D01*
X40199047Y-82644309D01*
X40389523Y-82715738D01*
X40484761Y-82822880D01*
X40532380Y-82924071D01*
X40532380Y-83114547D01*
X40484761Y-83203833D01*
X40389523Y-83287166D01*
X40199047Y-83310976D01*
X39865714Y-83269309D01*
X39675238Y-83197880D01*
X39580000Y-83090738D01*
X39532380Y-82989547D01*
X50092976Y-37737142D02*
X50045357Y-37784761D01*
X49902500Y-37832380D01*
X49807261Y-37832380D01*
X49664404Y-37784761D01*
X49569166Y-37689523D01*
X49521547Y-37594285D01*
X49473928Y-37403809D01*
X49473928Y-37260952D01*
X49521547Y-37070476D01*
X49569166Y-36975238D01*
X49664404Y-36880000D01*
X49807261Y-36832380D01*
X49902500Y-36832380D01*
X50045357Y-36880000D01*
X50092976Y-36927619D01*
X50473928Y-37546666D02*
X50950119Y-37546666D01*
X50378690Y-37832380D02*
X50712023Y-36832380D01*
X51045357Y-37832380D01*
X51378690Y-37832380D02*
X51378690Y-36832380D01*
X51950119Y-37832380D01*
X51950119Y-36832380D01*
X52188214Y-37927619D02*
X52950119Y-37927619D01*
X53759642Y-37832380D02*
X53426309Y-37356190D01*
X53188214Y-37832380D02*
X53188214Y-36832380D01*
X53569166Y-36832380D01*
X53664404Y-36880000D01*
X53712023Y-36927619D01*
X53759642Y-37022857D01*
X53759642Y-37165714D01*
X53712023Y-37260952D01*
X53664404Y-37308571D01*
X53569166Y-37356190D01*
X53188214Y-37356190D01*
X54092976Y-36832380D02*
X54759642Y-37832380D01*
X54759642Y-36832380D02*
X54092976Y-37832380D01*
X52191476Y-71092380D02*
X52191476Y-70092380D01*
X52572428Y-70092380D01*
X52667666Y-70140000D01*
X52715285Y-70187619D01*
X52762904Y-70282857D01*
X52762904Y-70425714D01*
X52715285Y-70520952D01*
X52667666Y-70568571D01*
X52572428Y-70616190D01*
X52191476Y-70616190D01*
X53762904Y-70997142D02*
X53715285Y-71044761D01*
X53572428Y-71092380D01*
X53477190Y-71092380D01*
X53334333Y-71044761D01*
X53239095Y-70949523D01*
X53191476Y-70854285D01*
X53143857Y-70663809D01*
X53143857Y-70520952D01*
X53191476Y-70330476D01*
X53239095Y-70235238D01*
X53334333Y-70140000D01*
X53477190Y-70092380D01*
X53572428Y-70092380D01*
X53715285Y-70140000D01*
X53762904Y-70187619D01*
X54620047Y-70092380D02*
X54429571Y-70092380D01*
X54334333Y-70140000D01*
X54286714Y-70187619D01*
X54191476Y-70330476D01*
X54143857Y-70520952D01*
X54143857Y-70901904D01*
X54191476Y-70997142D01*
X54239095Y-71044761D01*
X54334333Y-71092380D01*
X54524809Y-71092380D01*
X54620047Y-71044761D01*
X54667666Y-70997142D01*
X54715285Y-70901904D01*
X54715285Y-70663809D01*
X54667666Y-70568571D01*
X54620047Y-70520952D01*
X54524809Y-70473333D01*
X54334333Y-70473333D01*
X54239095Y-70520952D01*
X54191476Y-70568571D01*
X54143857Y-70663809D01*
X52620047Y-82840000D02*
X52524809Y-82792380D01*
X52381952Y-82792380D01*
X52239095Y-82840000D01*
X52143857Y-82935238D01*
X52096238Y-83030476D01*
X52048619Y-83220952D01*
X52048619Y-83363809D01*
X52096238Y-83554285D01*
X52143857Y-83649523D01*
X52239095Y-83744761D01*
X52381952Y-83792380D01*
X52477190Y-83792380D01*
X52620047Y-83744761D01*
X52667666Y-83697142D01*
X52667666Y-83363809D01*
X52477190Y-83363809D01*
X53096238Y-83792380D02*
X53096238Y-82792380D01*
X53667666Y-83792380D01*
X53667666Y-82792380D01*
X54143857Y-83792380D02*
X54143857Y-82792380D01*
X54381952Y-82792380D01*
X54524809Y-82840000D01*
X54620047Y-82935238D01*
X54667666Y-83030476D01*
X54715285Y-83220952D01*
X54715285Y-83363809D01*
X54667666Y-83554285D01*
X54620047Y-83649523D01*
X54524809Y-83744761D01*
X54381952Y-83792380D01*
X54143857Y-83792380D01*
X37904761Y-86918119D02*
X37952380Y-86781214D01*
X37952380Y-86543119D01*
X37904761Y-86441928D01*
X37857142Y-86388357D01*
X37761904Y-86328833D01*
X37666666Y-86316928D01*
X37571428Y-86352642D01*
X37523809Y-86394309D01*
X37476190Y-86483595D01*
X37428571Y-86668119D01*
X37380952Y-86757404D01*
X37333333Y-86799071D01*
X37238095Y-86834785D01*
X37142857Y-86822880D01*
X37047619Y-86763357D01*
X37000000Y-86709785D01*
X36952380Y-86608595D01*
X36952380Y-86370500D01*
X37000000Y-86233595D01*
X36952380Y-85894309D02*
X37952380Y-85781214D01*
X37238095Y-85501452D01*
X37952380Y-85400261D01*
X36952380Y-85037166D01*
X37857142Y-84197880D02*
X37904761Y-84251452D01*
X37952380Y-84400261D01*
X37952380Y-84495500D01*
X37904761Y-84632404D01*
X37809523Y-84715738D01*
X37714285Y-84751452D01*
X37523809Y-84775261D01*
X37380952Y-84757404D01*
X37190476Y-84685976D01*
X37095238Y-84626452D01*
X37000000Y-84519309D01*
X36952380Y-84370500D01*
X36952380Y-84275261D01*
X37000000Y-84138357D01*
X37047619Y-84096690D01*
X37952380Y-83305023D02*
X37952380Y-83781214D01*
X36952380Y-83656214D01*
X37952380Y-82971690D02*
X36952380Y-82846690D01*
X37952380Y-82400261D02*
X37380952Y-82757404D01*
X36952380Y-82275261D02*
X37523809Y-82918119D01*
X51810523Y-85332380D02*
X52429571Y-85332380D01*
X52096238Y-85713333D01*
X52239095Y-85713333D01*
X52334333Y-85760952D01*
X52381952Y-85808571D01*
X52429571Y-85903809D01*
X52429571Y-86141904D01*
X52381952Y-86237142D01*
X52334333Y-86284761D01*
X52239095Y-86332380D01*
X51953381Y-86332380D01*
X51858142Y-86284761D01*
X51810523Y-86237142D01*
X52858142Y-86237142D02*
X52905762Y-86284761D01*
X52858142Y-86332380D01*
X52810523Y-86284761D01*
X52858142Y-86237142D01*
X52858142Y-86332380D01*
X53239095Y-85332380D02*
X53858142Y-85332380D01*
X53524809Y-85713333D01*
X53667666Y-85713333D01*
X53762904Y-85760952D01*
X53810523Y-85808571D01*
X53858142Y-85903809D01*
X53858142Y-86141904D01*
X53810523Y-86237142D01*
X53762904Y-86284761D01*
X53667666Y-86332380D01*
X53381952Y-86332380D01*
X53286714Y-86284761D01*
X53239095Y-86237142D01*
X54143857Y-85332380D02*
X54477190Y-86332380D01*
X54810523Y-85332380D01*
X49738095Y-20952380D02*
X49738095Y-21761904D01*
X49785714Y-21857142D01*
X49833333Y-21904761D01*
X49928571Y-21952380D01*
X50119047Y-21952380D01*
X50214285Y-21904761D01*
X50261904Y-21857142D01*
X50309523Y-21761904D01*
X50309523Y-20952380D01*
X50738095Y-21904761D02*
X50880952Y-21952380D01*
X51119047Y-21952380D01*
X51214285Y-21904761D01*
X51261904Y-21857142D01*
X51309523Y-21761904D01*
X51309523Y-21666666D01*
X51261904Y-21571428D01*
X51214285Y-21523809D01*
X51119047Y-21476190D01*
X50928571Y-21428571D01*
X50833333Y-21380952D01*
X50785714Y-21333333D01*
X50738095Y-21238095D01*
X50738095Y-21142857D01*
X50785714Y-21047619D01*
X50833333Y-21000000D01*
X50928571Y-20952380D01*
X51166666Y-20952380D01*
X51309523Y-21000000D01*
X52071428Y-21428571D02*
X52214285Y-21476190D01*
X52261904Y-21523809D01*
X52309523Y-21619047D01*
X52309523Y-21761904D01*
X52261904Y-21857142D01*
X52214285Y-21904761D01*
X52119047Y-21952380D01*
X51738095Y-21952380D01*
X51738095Y-20952380D01*
X52071428Y-20952380D01*
X52166666Y-21000000D01*
X52214285Y-21047619D01*
X52261904Y-21142857D01*
X52261904Y-21238095D01*
X52214285Y-21333333D01*
X52166666Y-21380952D01*
X52071428Y-21428571D01*
X51738095Y-21428571D01*
X51810523Y-65012380D02*
X52429571Y-65012380D01*
X52096238Y-65393333D01*
X52239095Y-65393333D01*
X52334333Y-65440952D01*
X52381952Y-65488571D01*
X52429571Y-65583809D01*
X52429571Y-65821904D01*
X52381952Y-65917142D01*
X52334333Y-65964761D01*
X52239095Y-66012380D01*
X51953381Y-66012380D01*
X51858142Y-65964761D01*
X51810523Y-65917142D01*
X52858142Y-65917142D02*
X52905762Y-65964761D01*
X52858142Y-66012380D01*
X52810523Y-65964761D01*
X52858142Y-65917142D01*
X52858142Y-66012380D01*
X53239095Y-65012380D02*
X53858142Y-65012380D01*
X53524809Y-65393333D01*
X53667666Y-65393333D01*
X53762904Y-65440952D01*
X53810523Y-65488571D01*
X53858142Y-65583809D01*
X53858142Y-65821904D01*
X53810523Y-65917142D01*
X53762904Y-65964761D01*
X53667666Y-66012380D01*
X53381952Y-66012380D01*
X53286714Y-65964761D01*
X53239095Y-65917142D01*
X54143857Y-65012380D02*
X54477190Y-66012380D01*
X54810523Y-65012380D01*
X51807261Y-24132380D02*
X52426309Y-24132380D01*
X52092976Y-24513333D01*
X52235833Y-24513333D01*
X52331071Y-24560952D01*
X52378690Y-24608571D01*
X52426309Y-24703809D01*
X52426309Y-24941904D01*
X52378690Y-25037142D01*
X52331071Y-25084761D01*
X52235833Y-25132380D01*
X51950119Y-25132380D01*
X51854880Y-25084761D01*
X51807261Y-25037142D01*
X52854880Y-25037142D02*
X52902500Y-25084761D01*
X52854880Y-25132380D01*
X52807261Y-25084761D01*
X52854880Y-25037142D01*
X52854880Y-25132380D01*
X53235833Y-24132380D02*
X53854880Y-24132380D01*
X53521547Y-24513333D01*
X53664404Y-24513333D01*
X53759642Y-24560952D01*
X53807261Y-24608571D01*
X53854880Y-24703809D01*
X53854880Y-24941904D01*
X53807261Y-25037142D01*
X53759642Y-25084761D01*
X53664404Y-25132380D01*
X53378690Y-25132380D01*
X53283452Y-25084761D01*
X53235833Y-25037142D01*
X54140595Y-24132380D02*
X54473928Y-25132380D01*
X54807261Y-24132380D01*
X48950119Y-55564761D02*
X49092976Y-55612380D01*
X49331071Y-55612380D01*
X49426309Y-55564761D01*
X49473928Y-55517142D01*
X49521547Y-55421904D01*
X49521547Y-55326666D01*
X49473928Y-55231428D01*
X49426309Y-55183809D01*
X49331071Y-55136190D01*
X49140595Y-55088571D01*
X49045357Y-55040952D01*
X48997738Y-54993333D01*
X48950119Y-54898095D01*
X48950119Y-54802857D01*
X48997738Y-54707619D01*
X49045357Y-54660000D01*
X49140595Y-54612380D01*
X49378690Y-54612380D01*
X49521547Y-54660000D01*
X49950119Y-55612380D02*
X49950119Y-54612380D01*
X50331071Y-54612380D01*
X50426309Y-54660000D01*
X50473928Y-54707619D01*
X50521547Y-54802857D01*
X50521547Y-54945714D01*
X50473928Y-55040952D01*
X50426309Y-55088571D01*
X50331071Y-55136190D01*
X49950119Y-55136190D01*
X50950119Y-55612380D02*
X50950119Y-54612380D01*
X51188214Y-55707619D02*
X51950119Y-55707619D01*
X52140595Y-55564761D02*
X52283452Y-55612380D01*
X52521547Y-55612380D01*
X52616785Y-55564761D01*
X52664404Y-55517142D01*
X52712023Y-55421904D01*
X52712023Y-55326666D01*
X52664404Y-55231428D01*
X52616785Y-55183809D01*
X52521547Y-55136190D01*
X52331071Y-55088571D01*
X52235833Y-55040952D01*
X52188214Y-54993333D01*
X52140595Y-54898095D01*
X52140595Y-54802857D01*
X52188214Y-54707619D01*
X52235833Y-54660000D01*
X52331071Y-54612380D01*
X52569166Y-54612380D01*
X52712023Y-54660000D01*
X53712023Y-55517142D02*
X53664404Y-55564761D01*
X53521547Y-55612380D01*
X53426309Y-55612380D01*
X53283452Y-55564761D01*
X53188214Y-55469523D01*
X53140595Y-55374285D01*
X53092976Y-55183809D01*
X53092976Y-55040952D01*
X53140595Y-54850476D01*
X53188214Y-54755238D01*
X53283452Y-54660000D01*
X53426309Y-54612380D01*
X53521547Y-54612380D01*
X53664404Y-54660000D01*
X53712023Y-54707619D01*
X54140595Y-55612380D02*
X54140595Y-54612380D01*
X54712023Y-55612380D02*
X54283452Y-55040952D01*
X54712023Y-54612380D02*
X54140595Y-55183809D01*
X49140595Y-45452380D02*
X49140595Y-44452380D01*
X49569166Y-44547619D02*
X49616785Y-44500000D01*
X49712023Y-44452380D01*
X49950119Y-44452380D01*
X50045357Y-44500000D01*
X50092976Y-44547619D01*
X50140595Y-44642857D01*
X50140595Y-44738095D01*
X50092976Y-44880952D01*
X49521547Y-45452380D01*
X50140595Y-45452380D01*
X51140595Y-45357142D02*
X51092976Y-45404761D01*
X50950119Y-45452380D01*
X50854880Y-45452380D01*
X50712023Y-45404761D01*
X50616785Y-45309523D01*
X50569166Y-45214285D01*
X50521547Y-45023809D01*
X50521547Y-44880952D01*
X50569166Y-44690476D01*
X50616785Y-44595238D01*
X50712023Y-44500000D01*
X50854880Y-44452380D01*
X50950119Y-44452380D01*
X51092976Y-44500000D01*
X51140595Y-44547619D01*
X51331071Y-45547619D02*
X52092976Y-45547619D01*
X52283452Y-45404761D02*
X52426309Y-45452380D01*
X52664404Y-45452380D01*
X52759642Y-45404761D01*
X52807261Y-45357142D01*
X52854880Y-45261904D01*
X52854880Y-45166666D01*
X52807261Y-45071428D01*
X52759642Y-45023809D01*
X52664404Y-44976190D01*
X52473928Y-44928571D01*
X52378690Y-44880952D01*
X52331071Y-44833333D01*
X52283452Y-44738095D01*
X52283452Y-44642857D01*
X52331071Y-44547619D01*
X52378690Y-44500000D01*
X52473928Y-44452380D01*
X52712023Y-44452380D01*
X52854880Y-44500000D01*
X53283452Y-45452380D02*
X53283452Y-44452380D01*
X53521547Y-44452380D01*
X53664404Y-44500000D01*
X53759642Y-44595238D01*
X53807261Y-44690476D01*
X53854880Y-44880952D01*
X53854880Y-45023809D01*
X53807261Y-45214285D01*
X53759642Y-45309523D01*
X53664404Y-45404761D01*
X53521547Y-45452380D01*
X53283452Y-45452380D01*
X54235833Y-45166666D02*
X54712023Y-45166666D01*
X54140595Y-45452380D02*
X54473928Y-44452380D01*
X54807261Y-45452380D01*
X25547619Y-23452380D02*
X25214285Y-22976190D01*
X24976190Y-23452380D02*
X24976190Y-22452380D01*
X25357142Y-22452380D01*
X25452380Y-22500000D01*
X25500000Y-22547619D01*
X25547619Y-22642857D01*
X25547619Y-22785714D01*
X25500000Y-22880952D01*
X25452380Y-22928571D01*
X25357142Y-22976190D01*
X24976190Y-22976190D01*
X25976190Y-22928571D02*
X26309523Y-22928571D01*
X26452380Y-23452380D02*
X25976190Y-23452380D01*
X25976190Y-22452380D01*
X26452380Y-22452380D01*
X26833333Y-23404761D02*
X26976190Y-23452380D01*
X27214285Y-23452380D01*
X27309523Y-23404761D01*
X27357142Y-23357142D01*
X27404761Y-23261904D01*
X27404761Y-23166666D01*
X27357142Y-23071428D01*
X27309523Y-23023809D01*
X27214285Y-22976190D01*
X27023809Y-22928571D01*
X26928571Y-22880952D01*
X26880952Y-22833333D01*
X26833333Y-22738095D01*
X26833333Y-22642857D01*
X26880952Y-22547619D01*
X26928571Y-22500000D01*
X27023809Y-22452380D01*
X27261904Y-22452380D01*
X27404761Y-22500000D01*
X27833333Y-22928571D02*
X28166666Y-22928571D01*
X28309523Y-23452380D02*
X27833333Y-23452380D01*
X27833333Y-22452380D01*
X28309523Y-22452380D01*
X28595238Y-22452380D02*
X29166666Y-22452380D01*
X28880952Y-23452380D02*
X28880952Y-22452380D01*
X48283452Y-53024761D02*
X48426309Y-53072380D01*
X48664404Y-53072380D01*
X48759642Y-53024761D01*
X48807261Y-52977142D01*
X48854880Y-52881904D01*
X48854880Y-52786666D01*
X48807261Y-52691428D01*
X48759642Y-52643809D01*
X48664404Y-52596190D01*
X48473928Y-52548571D01*
X48378690Y-52500952D01*
X48331071Y-52453333D01*
X48283452Y-52358095D01*
X48283452Y-52262857D01*
X48331071Y-52167619D01*
X48378690Y-52120000D01*
X48473928Y-52072380D01*
X48712023Y-52072380D01*
X48854880Y-52120000D01*
X49283452Y-53072380D02*
X49283452Y-52072380D01*
X49664404Y-52072380D01*
X49759642Y-52120000D01*
X49807261Y-52167619D01*
X49854880Y-52262857D01*
X49854880Y-52405714D01*
X49807261Y-52500952D01*
X49759642Y-52548571D01*
X49664404Y-52596190D01*
X49283452Y-52596190D01*
X50283452Y-53072380D02*
X50283452Y-52072380D01*
X50521547Y-53167619D02*
X51283452Y-53167619D01*
X51521547Y-53072380D02*
X51521547Y-52072380D01*
X51854880Y-52786666D01*
X52188214Y-52072380D01*
X52188214Y-53072380D01*
X52664404Y-53072380D02*
X52664404Y-52072380D01*
X53092976Y-53024761D02*
X53235833Y-53072380D01*
X53473928Y-53072380D01*
X53569166Y-53024761D01*
X53616785Y-52977142D01*
X53664404Y-52881904D01*
X53664404Y-52786666D01*
X53616785Y-52691428D01*
X53569166Y-52643809D01*
X53473928Y-52596190D01*
X53283452Y-52548571D01*
X53188214Y-52500952D01*
X53140595Y-52453333D01*
X53092976Y-52358095D01*
X53092976Y-52262857D01*
X53140595Y-52167619D01*
X53188214Y-52120000D01*
X53283452Y-52072380D01*
X53521547Y-52072380D01*
X53664404Y-52120000D01*
X54283452Y-52072380D02*
X54473928Y-52072380D01*
X54569166Y-52120000D01*
X54664404Y-52215238D01*
X54712023Y-52405714D01*
X54712023Y-52739047D01*
X54664404Y-52929523D01*
X54569166Y-53024761D01*
X54473928Y-53072380D01*
X54283452Y-53072380D01*
X54188214Y-53024761D01*
X54092976Y-52929523D01*
X54045357Y-52739047D01*
X54045357Y-52405714D01*
X54092976Y-52215238D01*
X54188214Y-52120000D01*
X54283452Y-52072380D01*
X51239095Y-78712380D02*
X51239095Y-77712380D01*
X51620047Y-77712380D01*
X51715285Y-77760000D01*
X51762904Y-77807619D01*
X51810523Y-77902857D01*
X51810523Y-78045714D01*
X51762904Y-78140952D01*
X51715285Y-78188571D01*
X51620047Y-78236190D01*
X51239095Y-78236190D01*
X52572428Y-78188571D02*
X52715285Y-78236190D01*
X52762904Y-78283809D01*
X52810523Y-78379047D01*
X52810523Y-78521904D01*
X52762904Y-78617142D01*
X52715285Y-78664761D01*
X52620047Y-78712380D01*
X52239095Y-78712380D01*
X52239095Y-77712380D01*
X52572428Y-77712380D01*
X52667666Y-77760000D01*
X52715285Y-77807619D01*
X52762904Y-77902857D01*
X52762904Y-77998095D01*
X52715285Y-78093333D01*
X52667666Y-78140952D01*
X52572428Y-78188571D01*
X52239095Y-78188571D01*
X53762904Y-78712380D02*
X53191476Y-78712380D01*
X53477190Y-78712380D02*
X53477190Y-77712380D01*
X53381952Y-77855238D01*
X53286714Y-77950476D01*
X53191476Y-77998095D01*
X54096238Y-77712380D02*
X54715285Y-77712380D01*
X54381952Y-78093333D01*
X54524809Y-78093333D01*
X54620047Y-78140952D01*
X54667666Y-78188571D01*
X54715285Y-78283809D01*
X54715285Y-78521904D01*
X54667666Y-78617142D01*
X54620047Y-78664761D01*
X54524809Y-78712380D01*
X54239095Y-78712380D01*
X54143857Y-78664761D01*
X54096238Y-78617142D01*
X51239095Y-76172380D02*
X51239095Y-75172380D01*
X51620047Y-75172380D01*
X51715285Y-75220000D01*
X51762904Y-75267619D01*
X51810523Y-75362857D01*
X51810523Y-75505714D01*
X51762904Y-75600952D01*
X51715285Y-75648571D01*
X51620047Y-75696190D01*
X51239095Y-75696190D01*
X52572428Y-75648571D02*
X52715285Y-75696190D01*
X52762904Y-75743809D01*
X52810523Y-75839047D01*
X52810523Y-75981904D01*
X52762904Y-76077142D01*
X52715285Y-76124761D01*
X52620047Y-76172380D01*
X52239095Y-76172380D01*
X52239095Y-75172380D01*
X52572428Y-75172380D01*
X52667666Y-75220000D01*
X52715285Y-75267619D01*
X52762904Y-75362857D01*
X52762904Y-75458095D01*
X52715285Y-75553333D01*
X52667666Y-75600952D01*
X52572428Y-75648571D01*
X52239095Y-75648571D01*
X53762904Y-76172380D02*
X53191476Y-76172380D01*
X53477190Y-76172380D02*
X53477190Y-75172380D01*
X53381952Y-75315238D01*
X53286714Y-75410476D01*
X53191476Y-75458095D01*
X54620047Y-75505714D02*
X54620047Y-76172380D01*
X54381952Y-75124761D02*
X54143857Y-75839047D01*
X54762904Y-75839047D01*
X49188214Y-42912380D02*
X49188214Y-41912380D01*
X49616785Y-42007619D02*
X49664404Y-41960000D01*
X49759642Y-41912380D01*
X49997738Y-41912380D01*
X50092976Y-41960000D01*
X50140595Y-42007619D01*
X50188214Y-42102857D01*
X50188214Y-42198095D01*
X50140595Y-42340952D01*
X49569166Y-42912380D01*
X50188214Y-42912380D01*
X51188214Y-42817142D02*
X51140595Y-42864761D01*
X50997738Y-42912380D01*
X50902500Y-42912380D01*
X50759642Y-42864761D01*
X50664404Y-42769523D01*
X50616785Y-42674285D01*
X50569166Y-42483809D01*
X50569166Y-42340952D01*
X50616785Y-42150476D01*
X50664404Y-42055238D01*
X50759642Y-41960000D01*
X50902500Y-41912380D01*
X50997738Y-41912380D01*
X51140595Y-41960000D01*
X51188214Y-42007619D01*
X51378690Y-43007619D02*
X52140595Y-43007619D01*
X52331071Y-42864761D02*
X52473928Y-42912380D01*
X52712023Y-42912380D01*
X52807261Y-42864761D01*
X52854880Y-42817142D01*
X52902500Y-42721904D01*
X52902500Y-42626666D01*
X52854880Y-42531428D01*
X52807261Y-42483809D01*
X52712023Y-42436190D01*
X52521547Y-42388571D01*
X52426309Y-42340952D01*
X52378690Y-42293333D01*
X52331071Y-42198095D01*
X52331071Y-42102857D01*
X52378690Y-42007619D01*
X52426309Y-41960000D01*
X52521547Y-41912380D01*
X52759642Y-41912380D01*
X52902500Y-41960000D01*
X53902500Y-42817142D02*
X53854880Y-42864761D01*
X53712023Y-42912380D01*
X53616785Y-42912380D01*
X53473928Y-42864761D01*
X53378690Y-42769523D01*
X53331071Y-42674285D01*
X53283452Y-42483809D01*
X53283452Y-42340952D01*
X53331071Y-42150476D01*
X53378690Y-42055238D01*
X53473928Y-41960000D01*
X53616785Y-41912380D01*
X53712023Y-41912380D01*
X53854880Y-41960000D01*
X53902500Y-42007619D01*
X54807261Y-42912380D02*
X54331071Y-42912380D01*
X54331071Y-41912380D01*
%TO.C,C2*%
X42533333Y-23857142D02*
X42485714Y-23904761D01*
X42342857Y-23952380D01*
X42247619Y-23952380D01*
X42104761Y-23904761D01*
X42009523Y-23809523D01*
X41961904Y-23714285D01*
X41914285Y-23523809D01*
X41914285Y-23380952D01*
X41961904Y-23190476D01*
X42009523Y-23095238D01*
X42104761Y-23000000D01*
X42247619Y-22952380D01*
X42342857Y-22952380D01*
X42485714Y-23000000D01*
X42533333Y-23047619D01*
X42914285Y-23047619D02*
X42961904Y-23000000D01*
X43057142Y-22952380D01*
X43295238Y-22952380D01*
X43390476Y-23000000D01*
X43438095Y-23047619D01*
X43485714Y-23142857D01*
X43485714Y-23238095D01*
X43438095Y-23380952D01*
X42866666Y-23952380D01*
X43485714Y-23952380D01*
%TO.C,R5*%
X30083333Y-72952380D02*
X29750000Y-72476190D01*
X29511904Y-72952380D02*
X29511904Y-71952380D01*
X29892857Y-71952380D01*
X29988095Y-72000000D01*
X30035714Y-72047619D01*
X30083333Y-72142857D01*
X30083333Y-72285714D01*
X30035714Y-72380952D01*
X29988095Y-72428571D01*
X29892857Y-72476190D01*
X29511904Y-72476190D01*
X30988095Y-71952380D02*
X30511904Y-71952380D01*
X30464285Y-72428571D01*
X30511904Y-72380952D01*
X30607142Y-72333333D01*
X30845238Y-72333333D01*
X30940476Y-72380952D01*
X30988095Y-72428571D01*
X31035714Y-72523809D01*
X31035714Y-72761904D01*
X30988095Y-72857142D01*
X30940476Y-72904761D01*
X30845238Y-72952380D01*
X30607142Y-72952380D01*
X30511904Y-72904761D01*
X30464285Y-72857142D01*
%TO.C,C7*%
X36233333Y-72257142D02*
X36185714Y-72304761D01*
X36042857Y-72352380D01*
X35947619Y-72352380D01*
X35804761Y-72304761D01*
X35709523Y-72209523D01*
X35661904Y-72114285D01*
X35614285Y-71923809D01*
X35614285Y-71780952D01*
X35661904Y-71590476D01*
X35709523Y-71495238D01*
X35804761Y-71400000D01*
X35947619Y-71352380D01*
X36042857Y-71352380D01*
X36185714Y-71400000D01*
X36233333Y-71447619D01*
X36566666Y-71352380D02*
X37233333Y-71352380D01*
X36804761Y-72352380D01*
%TO.C,R1*%
X49952380Y-16701666D02*
X49476190Y-17035000D01*
X49952380Y-17273095D02*
X48952380Y-17273095D01*
X48952380Y-16892142D01*
X49000000Y-16796904D01*
X49047619Y-16749285D01*
X49142857Y-16701666D01*
X49285714Y-16701666D01*
X49380952Y-16749285D01*
X49428571Y-16796904D01*
X49476190Y-16892142D01*
X49476190Y-17273095D01*
X49952380Y-15749285D02*
X49952380Y-16320714D01*
X49952380Y-16035000D02*
X48952380Y-16035000D01*
X49095238Y-16130238D01*
X49190476Y-16225476D01*
X49238095Y-16320714D01*
%TO.C,U4*%
X41038095Y-39752380D02*
X41038095Y-40561904D01*
X41085714Y-40657142D01*
X41133333Y-40704761D01*
X41228571Y-40752380D01*
X41419047Y-40752380D01*
X41514285Y-40704761D01*
X41561904Y-40657142D01*
X41609523Y-40561904D01*
X41609523Y-39752380D01*
X42514285Y-40085714D02*
X42514285Y-40752380D01*
X42276190Y-39704761D02*
X42038095Y-40419047D01*
X42657142Y-40419047D01*
%TO.C,C9*%
X42833333Y-71957142D02*
X42785714Y-72004761D01*
X42642857Y-72052380D01*
X42547619Y-72052380D01*
X42404761Y-72004761D01*
X42309523Y-71909523D01*
X42261904Y-71814285D01*
X42214285Y-71623809D01*
X42214285Y-71480952D01*
X42261904Y-71290476D01*
X42309523Y-71195238D01*
X42404761Y-71100000D01*
X42547619Y-71052380D01*
X42642857Y-71052380D01*
X42785714Y-71100000D01*
X42833333Y-71147619D01*
X43309523Y-72052380D02*
X43500000Y-72052380D01*
X43595238Y-72004761D01*
X43642857Y-71957142D01*
X43738095Y-71814285D01*
X43785714Y-71623809D01*
X43785714Y-71242857D01*
X43738095Y-71147619D01*
X43690476Y-71100000D01*
X43595238Y-71052380D01*
X43404761Y-71052380D01*
X43309523Y-71100000D01*
X43261904Y-71147619D01*
X43214285Y-71242857D01*
X43214285Y-71480952D01*
X43261904Y-71576190D01*
X43309523Y-71623809D01*
X43404761Y-71671428D01*
X43595238Y-71671428D01*
X43690476Y-71623809D01*
X43738095Y-71576190D01*
X43785714Y-71480952D01*
%TO.C,C10*%
X30657142Y-57757142D02*
X30609523Y-57804761D01*
X30466666Y-57852380D01*
X30371428Y-57852380D01*
X30228571Y-57804761D01*
X30133333Y-57709523D01*
X30085714Y-57614285D01*
X30038095Y-57423809D01*
X30038095Y-57280952D01*
X30085714Y-57090476D01*
X30133333Y-56995238D01*
X30228571Y-56900000D01*
X30371428Y-56852380D01*
X30466666Y-56852380D01*
X30609523Y-56900000D01*
X30657142Y-56947619D01*
X31609523Y-57852380D02*
X31038095Y-57852380D01*
X31323809Y-57852380D02*
X31323809Y-56852380D01*
X31228571Y-56995238D01*
X31133333Y-57090476D01*
X31038095Y-57138095D01*
X32228571Y-56852380D02*
X32323809Y-56852380D01*
X32419047Y-56900000D01*
X32466666Y-56947619D01*
X32514285Y-57042857D01*
X32561904Y-57233333D01*
X32561904Y-57471428D01*
X32514285Y-57661904D01*
X32466666Y-57757142D01*
X32419047Y-57804761D01*
X32323809Y-57852380D01*
X32228571Y-57852380D01*
X32133333Y-57804761D01*
X32085714Y-57757142D01*
X32038095Y-57661904D01*
X31990476Y-57471428D01*
X31990476Y-57233333D01*
X32038095Y-57042857D01*
X32085714Y-56947619D01*
X32133333Y-56900000D01*
X32228571Y-56852380D01*
%TO.C,R2*%
X44952380Y-16701666D02*
X44476190Y-17035000D01*
X44952380Y-17273095D02*
X43952380Y-17273095D01*
X43952380Y-16892142D01*
X44000000Y-16796904D01*
X44047619Y-16749285D01*
X44142857Y-16701666D01*
X44285714Y-16701666D01*
X44380952Y-16749285D01*
X44428571Y-16796904D01*
X44476190Y-16892142D01*
X44476190Y-17273095D01*
X44047619Y-16320714D02*
X44000000Y-16273095D01*
X43952380Y-16177857D01*
X43952380Y-15939761D01*
X44000000Y-15844523D01*
X44047619Y-15796904D01*
X44142857Y-15749285D01*
X44238095Y-15749285D01*
X44380952Y-15796904D01*
X44952380Y-16368333D01*
X44952380Y-15749285D01*
%TO.C,C8*%
X27308333Y-64357142D02*
X27260714Y-64404761D01*
X27117857Y-64452380D01*
X27022619Y-64452380D01*
X26879761Y-64404761D01*
X26784523Y-64309523D01*
X26736904Y-64214285D01*
X26689285Y-64023809D01*
X26689285Y-63880952D01*
X26736904Y-63690476D01*
X26784523Y-63595238D01*
X26879761Y-63500000D01*
X27022619Y-63452380D01*
X27117857Y-63452380D01*
X27260714Y-63500000D01*
X27308333Y-63547619D01*
X27879761Y-63880952D02*
X27784523Y-63833333D01*
X27736904Y-63785714D01*
X27689285Y-63690476D01*
X27689285Y-63642857D01*
X27736904Y-63547619D01*
X27784523Y-63500000D01*
X27879761Y-63452380D01*
X28070238Y-63452380D01*
X28165476Y-63500000D01*
X28213095Y-63547619D01*
X28260714Y-63642857D01*
X28260714Y-63690476D01*
X28213095Y-63785714D01*
X28165476Y-63833333D01*
X28070238Y-63880952D01*
X27879761Y-63880952D01*
X27784523Y-63928571D01*
X27736904Y-63976190D01*
X27689285Y-64071428D01*
X27689285Y-64261904D01*
X27736904Y-64357142D01*
X27784523Y-64404761D01*
X27879761Y-64452380D01*
X28070238Y-64452380D01*
X28165476Y-64404761D01*
X28213095Y-64357142D01*
X28260714Y-64261904D01*
X28260714Y-64071428D01*
X28213095Y-63976190D01*
X28165476Y-63928571D01*
X28070238Y-63880952D01*
%TO.C,C1*%
X33333333Y-54607142D02*
X33285714Y-54654761D01*
X33142857Y-54702380D01*
X33047619Y-54702380D01*
X32904761Y-54654761D01*
X32809523Y-54559523D01*
X32761904Y-54464285D01*
X32714285Y-54273809D01*
X32714285Y-54130952D01*
X32761904Y-53940476D01*
X32809523Y-53845238D01*
X32904761Y-53750000D01*
X33047619Y-53702380D01*
X33142857Y-53702380D01*
X33285714Y-53750000D01*
X33333333Y-53797619D01*
X34285714Y-54702380D02*
X33714285Y-54702380D01*
X34000000Y-54702380D02*
X34000000Y-53702380D01*
X33904761Y-53845238D01*
X33809523Y-53940476D01*
X33714285Y-53988095D01*
%TO.C,C3*%
X44533333Y-59257142D02*
X44485714Y-59304761D01*
X44342857Y-59352380D01*
X44247619Y-59352380D01*
X44104761Y-59304761D01*
X44009523Y-59209523D01*
X43961904Y-59114285D01*
X43914285Y-58923809D01*
X43914285Y-58780952D01*
X43961904Y-58590476D01*
X44009523Y-58495238D01*
X44104761Y-58400000D01*
X44247619Y-58352380D01*
X44342857Y-58352380D01*
X44485714Y-58400000D01*
X44533333Y-58447619D01*
X44866666Y-58352380D02*
X45485714Y-58352380D01*
X45152380Y-58733333D01*
X45295238Y-58733333D01*
X45390476Y-58780952D01*
X45438095Y-58828571D01*
X45485714Y-58923809D01*
X45485714Y-59161904D01*
X45438095Y-59257142D01*
X45390476Y-59304761D01*
X45295238Y-59352380D01*
X45009523Y-59352380D01*
X44914285Y-59304761D01*
X44866666Y-59257142D01*
%TO.C,Y1*%
X21948809Y-60026190D02*
X21948809Y-60502380D01*
X21615476Y-59502380D02*
X21948809Y-60026190D01*
X22282142Y-59502380D01*
X23139285Y-60502380D02*
X22567857Y-60502380D01*
X22853571Y-60502380D02*
X22853571Y-59502380D01*
X22758333Y-59645238D01*
X22663095Y-59740476D01*
X22567857Y-59788095D01*
X21127380Y-64740476D02*
X21127380Y-65311904D01*
X21127380Y-65026190D02*
X20127380Y-65026190D01*
X20270238Y-65121428D01*
X20365476Y-65216666D01*
X20413095Y-65311904D01*
X20127380Y-63883333D02*
X20127380Y-64073809D01*
X20175000Y-64169047D01*
X20222619Y-64216666D01*
X20365476Y-64311904D01*
X20555952Y-64359523D01*
X20936904Y-64359523D01*
X21032142Y-64311904D01*
X21079761Y-64264285D01*
X21127380Y-64169047D01*
X21127380Y-63978571D01*
X21079761Y-63883333D01*
X21032142Y-63835714D01*
X20936904Y-63788095D01*
X20698809Y-63788095D01*
X20603571Y-63835714D01*
X20555952Y-63883333D01*
X20508333Y-63978571D01*
X20508333Y-64169047D01*
X20555952Y-64264285D01*
X20603571Y-64311904D01*
X20698809Y-64359523D01*
X21127380Y-63359523D02*
X20127380Y-63359523D01*
X20841666Y-63026190D01*
X20127380Y-62692857D01*
X21127380Y-62692857D01*
X21127380Y-62216666D02*
X20127380Y-62216666D01*
X20603571Y-62216666D02*
X20603571Y-61645238D01*
X21127380Y-61645238D02*
X20127380Y-61645238D01*
X20460714Y-61264285D02*
X20460714Y-60740476D01*
X21127380Y-61264285D01*
X21127380Y-60740476D01*
%TO.C,C13*%
X24957142Y-68457142D02*
X24909523Y-68504761D01*
X24766666Y-68552380D01*
X24671428Y-68552380D01*
X24528571Y-68504761D01*
X24433333Y-68409523D01*
X24385714Y-68314285D01*
X24338095Y-68123809D01*
X24338095Y-67980952D01*
X24385714Y-67790476D01*
X24433333Y-67695238D01*
X24528571Y-67600000D01*
X24671428Y-67552380D01*
X24766666Y-67552380D01*
X24909523Y-67600000D01*
X24957142Y-67647619D01*
X25909523Y-68552380D02*
X25338095Y-68552380D01*
X25623809Y-68552380D02*
X25623809Y-67552380D01*
X25528571Y-67695238D01*
X25433333Y-67790476D01*
X25338095Y-67838095D01*
X26242857Y-67552380D02*
X26861904Y-67552380D01*
X26528571Y-67933333D01*
X26671428Y-67933333D01*
X26766666Y-67980952D01*
X26814285Y-68028571D01*
X26861904Y-68123809D01*
X26861904Y-68361904D01*
X26814285Y-68457142D01*
X26766666Y-68504761D01*
X26671428Y-68552380D01*
X26385714Y-68552380D01*
X26290476Y-68504761D01*
X26242857Y-68457142D01*
%TO.C,U3*%
X33738095Y-73950380D02*
X33738095Y-74759904D01*
X33785714Y-74855142D01*
X33833333Y-74902761D01*
X33928571Y-74950380D01*
X34119047Y-74950380D01*
X34214285Y-74902761D01*
X34261904Y-74855142D01*
X34309523Y-74759904D01*
X34309523Y-73950380D01*
X34690476Y-73950380D02*
X35309523Y-73950380D01*
X34976190Y-74331333D01*
X35119047Y-74331333D01*
X35214285Y-74378952D01*
X35261904Y-74426571D01*
X35309523Y-74521809D01*
X35309523Y-74759904D01*
X35261904Y-74855142D01*
X35214285Y-74902761D01*
X35119047Y-74950380D01*
X34833333Y-74950380D01*
X34738095Y-74902761D01*
X34690476Y-74855142D01*
%TO.C,D2*%
X49952380Y-19838095D02*
X48952380Y-19838095D01*
X48952380Y-19600000D01*
X49000000Y-19457142D01*
X49095238Y-19361904D01*
X49190476Y-19314285D01*
X49380952Y-19266666D01*
X49523809Y-19266666D01*
X49714285Y-19314285D01*
X49809523Y-19361904D01*
X49904761Y-19457142D01*
X49952380Y-19600000D01*
X49952380Y-19838095D01*
X49047619Y-18885714D02*
X49000000Y-18838095D01*
X48952380Y-18742857D01*
X48952380Y-18504761D01*
X49000000Y-18409523D01*
X49047619Y-18361904D01*
X49142857Y-18314285D01*
X49238095Y-18314285D01*
X49380952Y-18361904D01*
X49952380Y-18933333D01*
X49952380Y-18314285D01*
%TO.C,C5*%
X28583333Y-60057142D02*
X28535714Y-60104761D01*
X28392857Y-60152380D01*
X28297619Y-60152380D01*
X28154761Y-60104761D01*
X28059523Y-60009523D01*
X28011904Y-59914285D01*
X27964285Y-59723809D01*
X27964285Y-59580952D01*
X28011904Y-59390476D01*
X28059523Y-59295238D01*
X28154761Y-59200000D01*
X28297619Y-59152380D01*
X28392857Y-59152380D01*
X28535714Y-59200000D01*
X28583333Y-59247619D01*
X29488095Y-59152380D02*
X29011904Y-59152380D01*
X28964285Y-59628571D01*
X29011904Y-59580952D01*
X29107142Y-59533333D01*
X29345238Y-59533333D01*
X29440476Y-59580952D01*
X29488095Y-59628571D01*
X29535714Y-59723809D01*
X29535714Y-59961904D01*
X29488095Y-60057142D01*
X29440476Y-60104761D01*
X29345238Y-60152380D01*
X29107142Y-60152380D01*
X29011904Y-60104761D01*
X28964285Y-60057142D01*
D14*
%TO.C,Y2*%
X34973809Y-40776190D02*
X34973809Y-41252380D01*
X34640476Y-40252380D02*
X34973809Y-40776190D01*
X35307142Y-40252380D01*
X35592857Y-40347619D02*
X35640476Y-40300000D01*
X35735714Y-40252380D01*
X35973809Y-40252380D01*
X36069047Y-40300000D01*
X36116666Y-40347619D01*
X36164285Y-40442857D01*
X36164285Y-40538095D01*
X36116666Y-40680952D01*
X35545238Y-41252380D01*
X36164285Y-41252380D01*
D13*
%TO.C,R3*%
X45252380Y-49396666D02*
X44776190Y-49730000D01*
X45252380Y-49968095D02*
X44252380Y-49968095D01*
X44252380Y-49587142D01*
X44300000Y-49491904D01*
X44347619Y-49444285D01*
X44442857Y-49396666D01*
X44585714Y-49396666D01*
X44680952Y-49444285D01*
X44728571Y-49491904D01*
X44776190Y-49587142D01*
X44776190Y-49968095D01*
X44252380Y-49063333D02*
X44252380Y-48444285D01*
X44633333Y-48777619D01*
X44633333Y-48634761D01*
X44680952Y-48539523D01*
X44728571Y-48491904D01*
X44823809Y-48444285D01*
X45061904Y-48444285D01*
X45157142Y-48491904D01*
X45204761Y-48539523D01*
X45252380Y-48634761D01*
X45252380Y-48920476D01*
X45204761Y-49015714D01*
X45157142Y-49063333D01*
%TO.C,C12*%
X27657142Y-66857142D02*
X27609523Y-66904761D01*
X27466666Y-66952380D01*
X27371428Y-66952380D01*
X27228571Y-66904761D01*
X27133333Y-66809523D01*
X27085714Y-66714285D01*
X27038095Y-66523809D01*
X27038095Y-66380952D01*
X27085714Y-66190476D01*
X27133333Y-66095238D01*
X27228571Y-66000000D01*
X27371428Y-65952380D01*
X27466666Y-65952380D01*
X27609523Y-66000000D01*
X27657142Y-66047619D01*
X28609523Y-66952380D02*
X28038095Y-66952380D01*
X28323809Y-66952380D02*
X28323809Y-65952380D01*
X28228571Y-66095238D01*
X28133333Y-66190476D01*
X28038095Y-66238095D01*
X28990476Y-66047619D02*
X29038095Y-66000000D01*
X29133333Y-65952380D01*
X29371428Y-65952380D01*
X29466666Y-66000000D01*
X29514285Y-66047619D01*
X29561904Y-66142857D01*
X29561904Y-66238095D01*
X29514285Y-66380952D01*
X28942857Y-66952380D01*
X29561904Y-66952380D01*
%TO.C,C11*%
X20357142Y-24607142D02*
X20309523Y-24654761D01*
X20166666Y-24702380D01*
X20071428Y-24702380D01*
X19928571Y-24654761D01*
X19833333Y-24559523D01*
X19785714Y-24464285D01*
X19738095Y-24273809D01*
X19738095Y-24130952D01*
X19785714Y-23940476D01*
X19833333Y-23845238D01*
X19928571Y-23750000D01*
X20071428Y-23702380D01*
X20166666Y-23702380D01*
X20309523Y-23750000D01*
X20357142Y-23797619D01*
X21309523Y-24702380D02*
X20738095Y-24702380D01*
X21023809Y-24702380D02*
X21023809Y-23702380D01*
X20928571Y-23845238D01*
X20833333Y-23940476D01*
X20738095Y-23988095D01*
X22261904Y-24702380D02*
X21690476Y-24702380D01*
X21976190Y-24702380D02*
X21976190Y-23702380D01*
X21880952Y-23845238D01*
X21785714Y-23940476D01*
X21690476Y-23988095D01*
%TO.C,U1*%
X34452380Y-31291904D02*
X35261904Y-31291904D01*
X35357142Y-31244285D01*
X35404761Y-31196666D01*
X35452380Y-31101428D01*
X35452380Y-30910952D01*
X35404761Y-30815714D01*
X35357142Y-30768095D01*
X35261904Y-30720476D01*
X34452380Y-30720476D01*
X35452380Y-29720476D02*
X35452380Y-30291904D01*
X35452380Y-30006190D02*
X34452380Y-30006190D01*
X34595238Y-30101428D01*
X34690476Y-30196666D01*
X34738095Y-30291904D01*
%TO.C,R4*%
X42952380Y-49406666D02*
X42476190Y-49740000D01*
X42952380Y-49978095D02*
X41952380Y-49978095D01*
X41952380Y-49597142D01*
X42000000Y-49501904D01*
X42047619Y-49454285D01*
X42142857Y-49406666D01*
X42285714Y-49406666D01*
X42380952Y-49454285D01*
X42428571Y-49501904D01*
X42476190Y-49597142D01*
X42476190Y-49978095D01*
X42285714Y-48549523D02*
X42952380Y-48549523D01*
X41904761Y-48787619D02*
X42619047Y-49025714D01*
X42619047Y-48406666D01*
%TO.C,D1*%
X44952380Y-19838095D02*
X43952380Y-19838095D01*
X43952380Y-19600000D01*
X44000000Y-19457142D01*
X44095238Y-19361904D01*
X44190476Y-19314285D01*
X44380952Y-19266666D01*
X44523809Y-19266666D01*
X44714285Y-19314285D01*
X44809523Y-19361904D01*
X44904761Y-19457142D01*
X44952380Y-19600000D01*
X44952380Y-19838095D01*
X44952380Y-18314285D02*
X44952380Y-18885714D01*
X44952380Y-18600000D02*
X43952380Y-18600000D01*
X44095238Y-18695238D01*
X44190476Y-18790476D01*
X44238095Y-18885714D01*
%TO.C,C4*%
X27333333Y-62057142D02*
X27285714Y-62104761D01*
X27142857Y-62152380D01*
X27047619Y-62152380D01*
X26904761Y-62104761D01*
X26809523Y-62009523D01*
X26761904Y-61914285D01*
X26714285Y-61723809D01*
X26714285Y-61580952D01*
X26761904Y-61390476D01*
X26809523Y-61295238D01*
X26904761Y-61200000D01*
X27047619Y-61152380D01*
X27142857Y-61152380D01*
X27285714Y-61200000D01*
X27333333Y-61247619D01*
X28190476Y-61485714D02*
X28190476Y-62152380D01*
X27952380Y-61104761D02*
X27714285Y-61819047D01*
X28333333Y-61819047D01*
%TO.C,C6*%
X44333333Y-28357142D02*
X44285714Y-28404761D01*
X44142857Y-28452380D01*
X44047619Y-28452380D01*
X43904761Y-28404761D01*
X43809523Y-28309523D01*
X43761904Y-28214285D01*
X43714285Y-28023809D01*
X43714285Y-27880952D01*
X43761904Y-27690476D01*
X43809523Y-27595238D01*
X43904761Y-27500000D01*
X44047619Y-27452380D01*
X44142857Y-27452380D01*
X44285714Y-27500000D01*
X44333333Y-27547619D01*
X45190476Y-27452380D02*
X45000000Y-27452380D01*
X44904761Y-27500000D01*
X44857142Y-27547619D01*
X44761904Y-27690476D01*
X44714285Y-27880952D01*
X44714285Y-28261904D01*
X44761904Y-28357142D01*
X44809523Y-28404761D01*
X44904761Y-28452380D01*
X45095238Y-28452380D01*
X45190476Y-28404761D01*
X45238095Y-28357142D01*
X45285714Y-28261904D01*
X45285714Y-28023809D01*
X45238095Y-27928571D01*
X45190476Y-27880952D01*
X45095238Y-27833333D01*
X44904761Y-27833333D01*
X44809523Y-27880952D01*
X44761904Y-27928571D01*
X44714285Y-28023809D01*
D15*
%TO.C,J4*%
X33600000Y-19452500D02*
X34050000Y-19452500D01*
X33600000Y-17602500D02*
X33600000Y-19452500D01*
X39200000Y-20002500D02*
X38750000Y-20002500D01*
X41400000Y-17602500D02*
X41400000Y-19452500D01*
X39200000Y-20002500D02*
X39200000Y-19552500D01*
X41400000Y-19452500D02*
X40950000Y-19452500D01*
D16*
%TO.C,S1*%
X29550000Y-19956250D02*
X29550000Y-18043750D01*
X24450000Y-19956250D02*
X24450000Y-18043750D01*
X28912500Y-21550000D02*
X25087500Y-21550000D01*
X28912500Y-16450000D02*
X25087500Y-16450000D01*
X28400000Y-19000000D02*
G75*
G03*
X28400000Y-19000000I-1400000J0D01*
G01*
D15*
%TO.C,J3*%
X56010262Y-65560000D02*
X56010262Y-64290000D01*
X56010262Y-64290000D02*
X57280262Y-64290000D01*
%TO.C,C2*%
X39488748Y-25735000D02*
X40011252Y-25735000D01*
X39488748Y-24265000D02*
X40011252Y-24265000D01*
%TO.C,R5*%
X29677500Y-70437258D02*
X29677500Y-69962742D01*
X30722500Y-70437258D02*
X30722500Y-69962742D01*
%TO.C,C7*%
X34607836Y-71860000D02*
X34392164Y-71860000D01*
X34607836Y-71140000D02*
X34392164Y-71140000D01*
%TO.C,J1*%
X41385000Y-90580000D02*
X41385000Y-87920000D01*
X36245000Y-90580000D02*
X41385000Y-90580000D01*
X34975000Y-90580000D02*
X33645000Y-90580000D01*
X36245000Y-90580000D02*
X36245000Y-87920000D01*
X33645000Y-90580000D02*
X33645000Y-89250000D01*
X36245000Y-87920000D02*
X41385000Y-87920000D01*
%TO.C,R1*%
X50620000Y-16688641D02*
X50620000Y-16381359D01*
X51380000Y-16688641D02*
X51380000Y-16381359D01*
D17*
%TO.C,U4*%
X44376400Y-41123600D02*
X41023600Y-41123600D01*
X41023600Y-44476400D02*
X44376400Y-44476400D01*
D15*
%TO.C,C9*%
X41107836Y-71140000D02*
X40892164Y-71140000D01*
X41107836Y-71860000D02*
X40892164Y-71860000D01*
%TO.C,J2*%
X56010262Y-23410000D02*
X57280262Y-23410000D01*
X56010262Y-24680000D02*
X56010262Y-23410000D01*
%TO.C,C10*%
X33642164Y-57360000D02*
X33857836Y-57360000D01*
X33642164Y-56640000D02*
X33857836Y-56640000D01*
%TO.C,R2*%
X45620000Y-16688641D02*
X45620000Y-16381359D01*
X46380000Y-16688641D02*
X46380000Y-16381359D01*
%TO.C,C8*%
X25565000Y-64407836D02*
X25565000Y-64192164D01*
X26285000Y-64407836D02*
X26285000Y-64192164D01*
%TO.C,C1*%
X33359420Y-55240000D02*
X33640580Y-55240000D01*
X33359420Y-56260000D02*
X33640580Y-56260000D01*
%TO.C,C3*%
X44390000Y-60392164D02*
X44390000Y-60607836D01*
X45110000Y-60392164D02*
X45110000Y-60607836D01*
%TO.C,Y1*%
X21750000Y-61075000D02*
X21750000Y-65075000D01*
X25050000Y-61075000D02*
X21750000Y-61075000D01*
%TO.C,U2*%
X33340000Y-69360000D02*
X32390000Y-69360000D01*
X32390000Y-69360000D02*
X32390000Y-68410000D01*
X42610000Y-69360000D02*
X42610000Y-68410000D01*
X32390000Y-60090000D02*
X31050000Y-60090000D01*
X33340000Y-59140000D02*
X32390000Y-59140000D01*
X42610000Y-59140000D02*
X42610000Y-60090000D01*
X41660000Y-59140000D02*
X42610000Y-59140000D01*
X41660000Y-69360000D02*
X42610000Y-69360000D01*
X32390000Y-59140000D02*
X32390000Y-60090000D01*
%TO.C,C13*%
X28307836Y-68260000D02*
X28092164Y-68260000D01*
X28307836Y-67540000D02*
X28092164Y-67540000D01*
D16*
%TO.C,U3*%
X31310000Y-80690000D02*
X36690000Y-80690000D01*
X31310000Y-75310000D02*
X36690000Y-75310000D01*
D11*
X28885000Y-75515000D02*
G75*
G03*
X28885000Y-75515000I-100000J0D01*
G01*
D15*
%TO.C,D2*%
X51735000Y-17615000D02*
X50265000Y-17615000D01*
X51735000Y-19900000D02*
X51735000Y-17615000D01*
X50265000Y-17615000D02*
X50265000Y-19900000D01*
%TO.C,C5*%
X29890000Y-60107836D02*
X29890000Y-59892164D01*
X30610000Y-60107836D02*
X30610000Y-59892164D01*
D16*
%TO.C,Y2*%
X36750000Y-42530000D02*
X36750000Y-41670000D01*
X38250000Y-42530000D02*
X38250000Y-41670000D01*
D11*
X37600000Y-39850000D02*
G75*
G03*
X37600000Y-39850000I-100000J0D01*
G01*
D15*
%TO.C,R3*%
X45280000Y-47096359D02*
X45280000Y-47403641D01*
X44520000Y-47096359D02*
X44520000Y-47403641D01*
%TO.C,C12*%
X30610000Y-66357836D02*
X30610000Y-66142164D01*
X29890000Y-66357836D02*
X29890000Y-66142164D01*
%TO.C,C11*%
X23357836Y-22640000D02*
X23142164Y-22640000D01*
X23357836Y-23360000D02*
X23142164Y-23360000D01*
%TO.C,U1*%
X43160000Y-32410000D02*
X41900000Y-32410000D01*
X36340000Y-32410000D02*
X37600000Y-32410000D01*
X36340000Y-28650000D02*
X36340000Y-32410000D01*
X43160000Y-26400000D02*
X43160000Y-32410000D01*
%TO.C,R4*%
X42220000Y-47106359D02*
X42220000Y-47413641D01*
X42980000Y-47106359D02*
X42980000Y-47413641D01*
%TO.C,D1*%
X46735000Y-17615000D02*
X45265000Y-17615000D01*
X45265000Y-17615000D02*
X45265000Y-19900000D01*
X46735000Y-19900000D02*
X46735000Y-17615000D01*
%TO.C,C4*%
X25565000Y-62157836D02*
X25565000Y-61942164D01*
X26285000Y-62157836D02*
X26285000Y-61942164D01*
%TO.C,C6*%
X43765000Y-30761252D02*
X43765000Y-30238748D01*
X45235000Y-30761252D02*
X45235000Y-30238748D01*
%TD*%
M02*
