%TF.GenerationSoftware,KiCad,Pcbnew,(6.0.9)*%
%TF.CreationDate,2022-12-01T17:51:06-05:00*%
%TF.ProjectId,cdh-devkit,6364682d-6465-4766-9b69-742e6b696361,rev?*%
%TF.SameCoordinates,Original*%
%TF.FileFunction,Copper,L4,Bot*%
%TF.FilePolarity,Positive*%
%FSLAX46Y46*%
G04 Gerber Fmt 4.6, Leading zero omitted, Abs format (unit mm)*
G04 Created by KiCad (PCBNEW (6.0.9)) date 2022-12-01 17:51:06*
%MOMM*%
%LPD*%
G01*
G04 APERTURE LIST*
%TA.AperFunction,ComponentPad*%
%ADD10C,1.450000*%
%TD*%
%TA.AperFunction,ComponentPad*%
%ADD11O,1.200000X1.900000*%
%TD*%
%TA.AperFunction,ComponentPad*%
%ADD12C,4.400000*%
%TD*%
%TA.AperFunction,ComponentPad*%
%ADD13R,1.700000X1.700000*%
%TD*%
%TA.AperFunction,ComponentPad*%
%ADD14O,1.700000X1.700000*%
%TD*%
%TA.AperFunction,ViaPad*%
%ADD15C,0.700000*%
%TD*%
%TA.AperFunction,ViaPad*%
%ADD16C,0.800000*%
%TD*%
%TA.AperFunction,Conductor*%
%ADD17C,0.300000*%
%TD*%
%TA.AperFunction,Conductor*%
%ADD18C,0.200000*%
%TD*%
%TA.AperFunction,Conductor*%
%ADD19C,0.500000*%
%TD*%
G04 APERTURE END LIST*
D10*
%TO.P,J4,6,Shield*%
%TO.N,GND*%
X35000000Y-19152500D03*
D11*
X41000000Y-16452500D03*
D10*
X40000000Y-19152500D03*
D11*
X34000000Y-16452500D03*
%TD*%
D12*
%TO.P,H1,1,1*%
%TO.N,GND*%
X19000000Y-19000000D03*
%TD*%
D13*
%TO.P,J3,1,Pin_1*%
%TO.N,+3.3V*%
X57280262Y-65560000D03*
D14*
%TO.P,J3,2,Pin_2*%
%TO.N,GND*%
X57280262Y-68100000D03*
%TO.P,J3,3,Pin_3*%
%TO.N,GPIO_1*%
X57280262Y-70640000D03*
%TO.P,J3,4,Pin_4*%
%TO.N,GPIO_2*%
X57280262Y-73180000D03*
%TO.P,J3,5,Pin_5*%
%TO.N,GPIO_3*%
X57280262Y-75720000D03*
%TO.P,J3,6,Pin_6*%
%TO.N,GPIO_4*%
X57280262Y-78260000D03*
%TO.P,J3,7,Pin_7*%
%TO.N,GPIO_5*%
X57280262Y-80800000D03*
%TO.P,J3,8,Pin_8*%
%TO.N,GND*%
X57280262Y-83340000D03*
%TO.P,J3,9,Pin_9*%
%TO.N,+3.3V*%
X57280262Y-85880000D03*
%TD*%
D12*
%TO.P,H2,1,1*%
%TO.N,GND*%
X56000000Y-91000000D03*
%TD*%
%TO.P,H4,1,1*%
%TO.N,GND*%
X19000000Y-91000000D03*
%TD*%
D13*
%TO.P,J1,1,Pin_1*%
%TO.N,GND*%
X34975000Y-89250000D03*
D14*
%TO.P,J1,2,Pin_2*%
%TO.N,SWCLK*%
X37515000Y-89250000D03*
%TO.P,J1,3,Pin_3*%
%TO.N,SWDIO*%
X40055000Y-89250000D03*
%TD*%
D13*
%TO.P,J2,1,Pin_1*%
%TO.N,+3.3V*%
X57280262Y-24680000D03*
D14*
%TO.P,J2,2,Pin_2*%
%TO.N,UART_TX*%
X57280262Y-27220000D03*
%TO.P,J2,3,Pin_3*%
%TO.N,UART_RX*%
X57280262Y-29760000D03*
%TO.P,J2,4,Pin_4*%
%TO.N,GND*%
X57280262Y-32300000D03*
%TO.P,J2,5,Pin_5*%
%TO.N,CAN_TX*%
X57280262Y-34840000D03*
%TO.P,J2,6,Pin_6*%
%TO.N,CAN_RX*%
X57280262Y-37380000D03*
%TO.P,J2,7,Pin_7*%
%TO.N,GND*%
X57280262Y-39920000D03*
%TO.P,J2,8,Pin_8*%
%TO.N,I2C_SCL*%
X57280262Y-42460000D03*
%TO.P,J2,9,Pin_9*%
%TO.N,I2C_SDA*%
X57280262Y-45000000D03*
%TO.P,J2,10,Pin_10*%
%TO.N,GND*%
X57280262Y-47540000D03*
%TO.P,J2,11,Pin_11*%
%TO.N,SPI_MOSI*%
X57280262Y-50080000D03*
%TO.P,J2,12,Pin_12*%
%TO.N,SPI_MISO*%
X57280262Y-52620000D03*
%TO.P,J2,13,Pin_13*%
%TO.N,SPI_SCK*%
X57280262Y-55160000D03*
%TO.P,J2,14,Pin_14*%
%TO.N,GND*%
X57280262Y-57700000D03*
%TO.P,J2,15,Pin_15*%
%TO.N,+3.3V*%
X57280262Y-60240000D03*
%TD*%
D12*
%TO.P,H3,1,1*%
%TO.N,GND*%
X56000000Y-19000000D03*
%TD*%
D15*
%TO.N,GND*%
X47655378Y-30644622D03*
X45900000Y-29600000D03*
X42500000Y-29000000D03*
X41600000Y-29000000D03*
X30925497Y-35000000D03*
X33874503Y-35000000D03*
D16*
%TO.N,D+*%
X47375000Y-60400000D03*
%TO.N,D-*%
X48425000Y-60400000D03*
%TO.N,D+*%
X31875000Y-35000000D03*
%TO.N,D-*%
X32925000Y-35000000D03*
D15*
%TO.N,+3.3V*%
X28400000Y-57800000D03*
X28800000Y-69400000D03*
X28800000Y-73200000D03*
X30200000Y-61400000D03*
X30200000Y-73800000D03*
X35100000Y-72600000D03*
X40400000Y-73100000D03*
X30900000Y-55800000D03*
X37500000Y-74400000D03*
X44900000Y-39900000D03*
X33800000Y-73100000D03*
X44900000Y-36300000D03*
%TO.N,GND*%
X32600000Y-79900000D03*
X41250000Y-68250000D03*
X39600500Y-46788661D03*
X41500000Y-45600000D03*
X28900000Y-63200000D03*
X34250000Y-60250000D03*
X49899503Y-23000000D03*
X33750000Y-66000000D03*
X31500000Y-59500000D03*
X39250000Y-67000000D03*
X41400000Y-60900000D03*
X43750000Y-45600000D03*
X47750000Y-26350497D03*
X50600000Y-64500000D03*
X49227521Y-62267798D03*
X35000000Y-68500000D03*
X49241849Y-60884059D03*
X46425497Y-60400000D03*
X40750000Y-23500000D03*
%TO.N,UART_TX*%
X49750000Y-64000000D03*
X47750000Y-27250000D03*
%TO.N,UART_RX*%
X47750000Y-29750000D03*
X49750000Y-63000000D03*
%TO.N,I2C_SDA*%
X40250000Y-67750000D03*
X43750000Y-46750000D03*
%TO.N,I2C_SCL*%
X41500000Y-46750000D03*
X39250000Y-68250000D03*
%TO.N,SWDIO*%
X41300000Y-62000000D03*
%TO.N,SWCLK*%
X40500000Y-60250000D03*
%TO.N,/USB_NOE*%
X49750000Y-65000000D03*
X49000000Y-23000000D03*
%TD*%
D17*
%TO.N,/USB_NOE*%
X49000000Y-23000000D02*
X49000000Y-25800000D01*
X49000000Y-25800000D02*
X51400000Y-28200000D01*
X51400000Y-28200000D02*
X51400000Y-65200000D01*
X51400000Y-65200000D02*
X50900000Y-65700000D01*
X50900000Y-65700000D02*
X50450000Y-65700000D01*
X50450000Y-65700000D02*
X49750000Y-65000000D01*
D18*
%TO.N,D+*%
X46306800Y-44125000D02*
X47674999Y-45493199D01*
X31875000Y-35000000D02*
X41000000Y-44125000D01*
X47674999Y-45493199D02*
X47674999Y-60100001D01*
%TO.N,D-*%
X41186397Y-43675000D02*
X46493200Y-43675000D01*
X48125001Y-60100001D02*
X48425000Y-60400000D01*
%TO.N,D+*%
X41000000Y-44125000D02*
X46306800Y-44125000D01*
%TO.N,D-*%
X32925000Y-35413603D02*
X41186397Y-43675000D01*
%TO.N,D+*%
X47674999Y-60100001D02*
X47375000Y-60400000D01*
%TO.N,D-*%
X32925000Y-35000000D02*
X32925000Y-35413603D01*
X46493200Y-43675000D02*
X48125001Y-45306801D01*
X48125001Y-45306801D02*
X48125001Y-60100001D01*
D17*
%TO.N,+3.3V*%
X28400000Y-60500000D02*
X28400000Y-57800000D01*
X38800000Y-73100000D02*
X37500000Y-74400000D01*
X30200000Y-61400000D02*
X29300000Y-61400000D01*
X35600000Y-73100000D02*
X35100000Y-72600000D01*
X30400000Y-55800000D02*
X30900000Y-55800000D01*
D19*
X44900000Y-36300000D02*
X44900000Y-39900000D01*
D17*
X29300000Y-61400000D02*
X28400000Y-60500000D01*
X28800000Y-73200000D02*
X28800000Y-69400000D01*
X33800000Y-73100000D02*
X30900000Y-73100000D01*
X40400000Y-73100000D02*
X38800000Y-73100000D01*
X30900000Y-73100000D02*
X30200000Y-73800000D01*
X40400000Y-73100000D02*
X35600000Y-73100000D01*
X28400000Y-57800000D02*
X30400000Y-55800000D01*
%TO.N,UART_TX*%
X49750000Y-64000000D02*
X50450000Y-63300000D01*
X50450000Y-29950000D02*
X47750000Y-27250000D01*
X50450000Y-63300000D02*
X50450000Y-29950000D01*
%TO.N,UART_RX*%
X49950000Y-62800000D02*
X49950000Y-31950000D01*
X49750000Y-63000000D02*
X49950000Y-62800000D01*
X49950000Y-31950000D02*
X47750000Y-29750000D01*
%TO.N,I2C_SDA*%
X39950000Y-67289950D02*
X39950000Y-66710050D01*
X39869975Y-67369975D02*
X39950000Y-67289950D01*
X39000000Y-54000000D02*
X43750000Y-49250000D01*
X40250000Y-67750000D02*
X39869975Y-67369975D01*
X39000000Y-66300000D02*
X39000000Y-54000000D01*
X39950000Y-66710050D02*
X39539950Y-66300000D01*
X39539950Y-66300000D02*
X39000000Y-66300000D01*
X43750000Y-49250000D02*
X43750000Y-46750000D01*
%TO.N,I2C_SCL*%
X39250000Y-68250000D02*
X38500000Y-67500000D01*
X38500000Y-67500000D02*
X38500000Y-53792894D01*
X38500000Y-53792894D02*
X41500000Y-50792894D01*
X41500000Y-50792894D02*
X41500000Y-46750000D01*
%TO.N,SWDIO*%
X42500000Y-86805000D02*
X40055000Y-89250000D01*
X41300000Y-62000000D02*
X41500000Y-62200000D01*
X41500000Y-62200000D02*
X41500000Y-66750000D01*
X41500000Y-66750000D02*
X42500000Y-67750000D01*
X42500000Y-67750000D02*
X42500000Y-86805000D01*
%TO.N,SWCLK*%
X41950000Y-67960050D02*
X41950000Y-86647894D01*
X41950000Y-86647894D02*
X41097894Y-87500000D01*
X41097894Y-87500000D02*
X39265000Y-87500000D01*
X40500000Y-60250000D02*
X40400000Y-60350000D01*
X39265000Y-87500000D02*
X37515000Y-89250000D01*
X40400000Y-60350000D02*
X40400000Y-66410050D01*
X40400000Y-66410050D02*
X41950000Y-67960050D01*
%TD*%
M02*
