M48
; DRILL file {KiCad (6.0.9)} date Thu 01 Dec 2022 05:51:00 PM
; FORMAT={-:-/ absolute / metric / decimal}
; #@! TF.CreationDate,2022-12-01T17:51:00-05:00
; #@! TF.GenerationSoftware,Kicad,Pcbnew,(6.0.9)
; #@! TF.FileFunction,MixedPlating,1,4
FMAT,2
METRIC
; #@! TA.AperFunction,Plated,PTH,ViaDrill
T1C0.300
; #@! TA.AperFunction,Plated,PTH,ViaDrill
T2C0.400
; #@! TA.AperFunction,Plated,PTH,ComponentDrill
T3C0.600
; #@! TA.AperFunction,Plated,PTH,ComponentDrill
T4C0.850
; #@! TA.AperFunction,Plated,PTH,ComponentDrill
T5C1.000
; #@! TA.AperFunction,Plated,PTH,ComponentDrill
T6C2.200
%
G90
G05
T1
X28.4Y-57.8
X28.8Y-69.4
X28.8Y-73.2
X28.9Y-63.2
X30.2Y-61.4
X30.2Y-73.8
X30.9Y-55.8
X30.925Y-35.0
X31.5Y-59.5
X32.6Y-79.9
X33.75Y-66.0
X33.8Y-73.1
X33.875Y-35.0
X34.25Y-60.25
X35.0Y-68.5
X35.1Y-72.6
X37.5Y-74.4
X39.25Y-67.0
X39.25Y-68.25
X39.6Y-46.789
X40.25Y-67.75
X40.4Y-73.1
X40.5Y-60.25
X40.75Y-23.5
X41.25Y-68.25
X41.3Y-62.0
X41.4Y-60.9
X41.5Y-45.6
X41.5Y-46.75
X41.6Y-29.0
X42.5Y-29.0
X43.75Y-45.6
X43.75Y-46.75
X44.9Y-36.3
X44.9Y-39.9
X45.9Y-29.6
X46.425Y-60.4
X47.655Y-30.645
X47.75Y-26.35
X47.75Y-27.25
X47.75Y-29.75
X49.0Y-23.0
X49.228Y-62.268
X49.242Y-60.884
X49.75Y-63.0
X49.75Y-64.0
X49.75Y-65.0
X49.9Y-23.0
X50.6Y-64.5
T2
X31.875Y-35.0
X32.925Y-35.0
X47.375Y-60.4
X48.425Y-60.4
T4
X35.0Y-19.152
X40.0Y-19.152
T5
X34.975Y-89.25
X37.515Y-89.25
X40.055Y-89.25
X57.28Y-24.68
X57.28Y-27.22
X57.28Y-29.76
X57.28Y-32.3
X57.28Y-34.84
X57.28Y-37.38
X57.28Y-39.92
X57.28Y-42.46
X57.28Y-45.0
X57.28Y-47.54
X57.28Y-50.08
X57.28Y-52.62
X57.28Y-55.16
X57.28Y-57.7
X57.28Y-60.24
X57.28Y-65.56
X57.28Y-68.1
X57.28Y-70.64
X57.28Y-73.18
X57.28Y-75.72
X57.28Y-78.26
X57.28Y-80.8
X57.28Y-83.34
X57.28Y-85.88
T6
X19.0Y-19.0
X19.0Y-91.0
X56.0Y-19.0
X56.0Y-91.0
T3
G00X34.0Y-16.802
M15
G01X34.0Y-16.102
M16
G05
G00X41.0Y-16.102
M15
G01X41.0Y-16.802
M16
G05
T0
M30
