%TF.GenerationSoftware,KiCad,Pcbnew,(6.0.9)*%
%TF.CreationDate,2022-12-06T19:37:18-05:00*%
%TF.ProjectId,cdh-devkit,6364682d-6465-4766-9b69-742e6b696361,rev?*%
%TF.SameCoordinates,Original*%
%TF.FileFunction,Paste,Top*%
%TF.FilePolarity,Positive*%
%FSLAX46Y46*%
G04 Gerber Fmt 4.6, Leading zero omitted, Abs format (unit mm)*
G04 Created by KiCad (PCBNEW (6.0.9)) date 2022-12-06 19:37:18*
%MOMM*%
%LPD*%
G01*
G04 APERTURE LIST*
G04 Aperture macros list*
%AMRoundRect*
0 Rectangle with rounded corners*
0 $1 Rounding radius*
0 $2 $3 $4 $5 $6 $7 $8 $9 X,Y pos of 4 corners*
0 Add a 4 corners polygon primitive as box body*
4,1,4,$2,$3,$4,$5,$6,$7,$8,$9,$2,$3,0*
0 Add four circle primitives for the rounded corners*
1,1,$1+$1,$2,$3*
1,1,$1+$1,$4,$5*
1,1,$1+$1,$6,$7*
1,1,$1+$1,$8,$9*
0 Add four rect primitives between the rounded corners*
20,1,$1+$1,$2,$3,$4,$5,0*
20,1,$1+$1,$4,$5,$6,$7,0*
20,1,$1+$1,$6,$7,$8,$9,0*
20,1,$1+$1,$8,$9,$2,$3,0*%
G04 Aperture macros list end*
%TA.AperFunction,Profile*%
%ADD10C,0.200000*%
%TD*%
%ADD11RoundRect,0.135000X0.185000X-0.135000X0.185000X0.135000X-0.185000X0.135000X-0.185000X-0.135000X0*%
%ADD12RoundRect,0.135000X-0.185000X0.135000X-0.185000X-0.135000X0.185000X-0.135000X0.185000X0.135000X0*%
%ADD13R,1.050000X0.600000*%
%ADD14RoundRect,0.140000X0.170000X-0.140000X0.170000X0.140000X-0.170000X0.140000X-0.170000X-0.140000X0*%
%ADD15RoundRect,0.140000X0.140000X0.170000X-0.140000X0.170000X-0.140000X-0.170000X0.140000X-0.170000X0*%
%ADD16R,0.600000X0.200000*%
%ADD17RoundRect,0.135000X-0.135000X-0.185000X0.135000X-0.185000X0.135000X0.185000X-0.135000X0.185000X0*%
%ADD18RoundRect,0.135000X0.135000X0.185000X-0.135000X0.185000X-0.135000X-0.185000X0.135000X-0.185000X0*%
%ADD19RoundRect,0.225000X-0.225000X-0.250000X0.225000X-0.250000X0.225000X0.250000X-0.225000X0.250000X0*%
%ADD20R,1.000000X1.600000*%
%ADD21RoundRect,0.075000X-0.700000X-0.075000X0.700000X-0.075000X0.700000X0.075000X-0.700000X0.075000X0*%
%ADD22RoundRect,0.075000X-0.075000X-0.700000X0.075000X-0.700000X0.075000X0.700000X-0.075000X0.700000X0*%
%ADD23RoundRect,0.218750X-0.218750X-0.256250X0.218750X-0.256250X0.218750X0.256250X-0.218750X0.256250X0*%
%ADD24RoundRect,0.140000X-0.170000X0.140000X-0.170000X-0.140000X0.170000X-0.140000X0.170000X0.140000X0*%
%ADD25RoundRect,0.200000X0.275000X-0.200000X0.275000X0.200000X-0.275000X0.200000X-0.275000X-0.200000X0*%
%ADD26R,0.406400X1.371600*%
%ADD27R,2.000000X1.500000*%
%ADD28R,2.000000X3.800000*%
%ADD29RoundRect,0.040600X-0.764400X-0.249400X0.764400X-0.249400X0.764400X0.249400X-0.764400X0.249400X0*%
%ADD30R,0.200000X0.600000*%
%ADD31R,1.350000X0.400000*%
%ADD32R,1.900000X1.500000*%
%ADD33RoundRect,0.140000X-0.140000X-0.170000X0.140000X-0.170000X0.140000X0.170000X-0.140000X0.170000X0*%
%ADD34R,1.200000X1.400000*%
%ADD35RoundRect,0.250000X-0.475000X0.250000X-0.475000X-0.250000X0.475000X-0.250000X0.475000X0.250000X0*%
%ADD36R,1.000000X1.800000*%
G04 APERTURE END LIST*
D10*
X67000000Y-70000000D02*
G75*
G03*
X70000000Y-67000000I0J3000000D01*
G01*
X20000000Y-67000000D02*
X20000000Y-23000000D01*
X70000000Y-23000000D02*
X70000000Y-67000000D01*
X23000000Y-20000000D02*
G75*
G03*
X20000000Y-23000000I0J-3000000D01*
G01*
X20000000Y-67000000D02*
G75*
G03*
X23000000Y-70000000I3000000J0D01*
G01*
X23000000Y-20000000D02*
X67000000Y-20000000D01*
X70000000Y-23000000D02*
G75*
G03*
X67000000Y-20000000I-3000000J0D01*
G01*
X67000000Y-70000000D02*
X23000000Y-70000000D01*
D11*
%TO.C,R18*%
X52000000Y-34110000D03*
X52000000Y-33090000D03*
%TD*%
D12*
%TO.C,R10*%
X55800000Y-55740000D03*
X55800000Y-56760000D03*
%TD*%
D13*
%TO.C,D4*%
X62650000Y-43000000D03*
X62650000Y-41100000D03*
X60450000Y-42050000D03*
%TD*%
D14*
%TO.C,C3*%
X38800000Y-40360000D03*
X38800000Y-39400000D03*
%TD*%
D12*
%TO.C,R6*%
X57400000Y-57940000D03*
X57400000Y-58960000D03*
%TD*%
D15*
%TO.C,C9*%
X48980000Y-52200000D03*
X48020000Y-52200000D03*
%TD*%
D16*
%TO.C,U4*%
X29975000Y-38180000D03*
X29975000Y-37280000D03*
X29975000Y-36480000D03*
X29975000Y-35680000D03*
X29975000Y-34780000D03*
X29025000Y-35180000D03*
X29025000Y-36080000D03*
X29025000Y-36880000D03*
X29025000Y-37780000D03*
%TD*%
D17*
%TO.C,R15*%
X38440000Y-34000000D03*
X39460000Y-34000000D03*
%TD*%
D18*
%TO.C,R21*%
X30812500Y-57230000D03*
X29792500Y-57230000D03*
%TD*%
D19*
%TO.C,C1*%
X40725000Y-36500000D03*
X42275000Y-36500000D03*
%TD*%
D20*
%TO.C,S1*%
X63100000Y-60600000D03*
X63100000Y-54200000D03*
X66900000Y-60600000D03*
X66900000Y-54200000D03*
%TD*%
D21*
%TO.C,U2*%
X39325000Y-41250000D03*
X39325000Y-41750000D03*
X39325000Y-42250000D03*
X39325000Y-42750000D03*
X39325000Y-43250000D03*
X39325000Y-43750000D03*
X39325000Y-44250000D03*
X39325000Y-44750000D03*
X39325000Y-45250000D03*
X39325000Y-45750000D03*
X39325000Y-46250000D03*
X39325000Y-46750000D03*
X39325000Y-47250000D03*
X39325000Y-47750000D03*
X39325000Y-48250000D03*
X39325000Y-48750000D03*
D22*
X41250000Y-50675000D03*
X41750000Y-50675000D03*
X42250000Y-50675000D03*
X42750000Y-50675000D03*
X43250000Y-50675000D03*
X43750000Y-50675000D03*
X44250000Y-50675000D03*
X44750000Y-50675000D03*
X45250000Y-50675000D03*
X45750000Y-50675000D03*
X46250000Y-50675000D03*
X46750000Y-50675000D03*
X47250000Y-50675000D03*
X47750000Y-50675000D03*
X48250000Y-50675000D03*
X48750000Y-50675000D03*
D21*
X50675000Y-48750000D03*
X50675000Y-48250000D03*
X50675000Y-47750000D03*
X50675000Y-47250000D03*
X50675000Y-46750000D03*
X50675000Y-46250000D03*
X50675000Y-45750000D03*
X50675000Y-45250000D03*
X50675000Y-44750000D03*
X50675000Y-44250000D03*
X50675000Y-43750000D03*
X50675000Y-43250000D03*
X50675000Y-42750000D03*
X50675000Y-42250000D03*
X50675000Y-41750000D03*
X50675000Y-41250000D03*
D22*
X48750000Y-39325000D03*
X48250000Y-39325000D03*
X47750000Y-39325000D03*
X47250000Y-39325000D03*
X46750000Y-39325000D03*
X46250000Y-39325000D03*
X45750000Y-39325000D03*
X45250000Y-39325000D03*
X44750000Y-39325000D03*
X44250000Y-39325000D03*
X43750000Y-39325000D03*
X43250000Y-39325000D03*
X42750000Y-39325000D03*
X42250000Y-39325000D03*
X41750000Y-39325000D03*
X41250000Y-39325000D03*
%TD*%
D17*
%TO.C,R16*%
X34040000Y-35000000D03*
X35060000Y-35000000D03*
%TD*%
D23*
%TO.C,D3*%
X32095000Y-57190000D03*
X33670000Y-57190000D03*
%TD*%
D15*
%TO.C,C13*%
X37680000Y-48900000D03*
X36720000Y-48900000D03*
%TD*%
D18*
%TO.C,R3*%
X60060000Y-29200000D03*
X59040000Y-29200000D03*
%TD*%
D24*
%TO.C,C4*%
X37170000Y-41730000D03*
X37170000Y-42690000D03*
%TD*%
D17*
%TO.C,R11*%
X31840000Y-38950000D03*
X32860000Y-38950000D03*
%TD*%
D25*
%TO.C,R22*%
X38950000Y-51525000D03*
X38950000Y-49875000D03*
%TD*%
D26*
%TO.C,U7*%
X58990600Y-35315600D03*
X58330200Y-35315600D03*
X57669800Y-35315600D03*
X57009400Y-35315600D03*
X57009400Y-39684400D03*
X57669800Y-39684400D03*
X58330200Y-39684400D03*
X58990600Y-39684400D03*
%TD*%
D11*
%TO.C,R5*%
X46750000Y-31760000D03*
X46750000Y-30740000D03*
%TD*%
D14*
%TO.C,C12*%
X37600000Y-47880000D03*
X37600000Y-46920000D03*
%TD*%
D27*
%TO.C,U1*%
X61250000Y-49800000D03*
D28*
X54950000Y-47500000D03*
D27*
X61250000Y-47500000D03*
X61250000Y-45200000D03*
%TD*%
D11*
%TO.C,R13*%
X55200000Y-36010000D03*
X55200000Y-34990000D03*
%TD*%
%TO.C,R9*%
X54050000Y-55460000D03*
X54050000Y-54440000D03*
%TD*%
D18*
%TO.C,R2*%
X30812500Y-53795000D03*
X29792500Y-53795000D03*
%TD*%
D17*
%TO.C,R12*%
X34040000Y-37000000D03*
X35060000Y-37000000D03*
%TD*%
%TO.C,R19*%
X51990000Y-37500000D03*
X53010000Y-37500000D03*
%TD*%
D29*
%TO.C,U3*%
X41395000Y-55545000D03*
X41395000Y-56815000D03*
X41395000Y-58085000D03*
X41395000Y-59355000D03*
X48605000Y-59355000D03*
X48605000Y-58085000D03*
X48605000Y-56815000D03*
X48605000Y-55545000D03*
%TD*%
D11*
%TO.C,R7*%
X52750000Y-55460000D03*
X52750000Y-54440000D03*
%TD*%
D23*
%TO.C,D1*%
X32095000Y-53795000D03*
X33670000Y-53795000D03*
%TD*%
D12*
%TO.C,R8*%
X58550000Y-55590000D03*
X58550000Y-56610000D03*
%TD*%
D24*
%TO.C,C7*%
X52200000Y-40720000D03*
X52200000Y-41680000D03*
%TD*%
D30*
%TO.C,U6*%
X55700000Y-60025000D03*
X54800000Y-60025000D03*
X54000000Y-60025000D03*
X53200000Y-60025000D03*
X52300000Y-60025000D03*
X52700000Y-60975000D03*
X53600000Y-60975000D03*
X54400000Y-60975000D03*
X55300000Y-60975000D03*
%TD*%
D31*
%TO.C,J4*%
X65837500Y-44100000D03*
X65837500Y-43450000D03*
X65837500Y-42800000D03*
X65837500Y-42150000D03*
X65837500Y-41500000D03*
D32*
X68537500Y-43800000D03*
X68537500Y-41800000D03*
%TD*%
D18*
%TO.C,R1*%
X30812500Y-60585000D03*
X29792500Y-60585000D03*
%TD*%
%TO.C,R20*%
X50510000Y-37500000D03*
X49490000Y-37500000D03*
%TD*%
D15*
%TO.C,C10*%
X42500000Y-52200000D03*
X41540000Y-52200000D03*
%TD*%
D14*
%TO.C,C8*%
X37170000Y-45070000D03*
X37170000Y-44110000D03*
%TD*%
D17*
%TO.C,R4*%
X56840000Y-26750000D03*
X57860000Y-26750000D03*
%TD*%
D11*
%TO.C,R17*%
X50800000Y-31660000D03*
X50800000Y-30640000D03*
%TD*%
D33*
%TO.C,C5*%
X41020000Y-37790000D03*
X41980000Y-37790000D03*
%TD*%
D24*
%TO.C,C11*%
X61650000Y-53580000D03*
X61650000Y-54540000D03*
%TD*%
D30*
%TO.C,U5*%
X51820000Y-29975000D03*
X52720000Y-29975000D03*
X53520000Y-29975000D03*
X54320000Y-29975000D03*
X55220000Y-29975000D03*
X54820000Y-29025000D03*
X53920000Y-29025000D03*
X53120000Y-29025000D03*
X52220000Y-29025000D03*
%TD*%
D34*
%TO.C,Y1*%
X34100000Y-42300000D03*
X34100000Y-44500000D03*
X35800000Y-44500000D03*
X35800000Y-42300000D03*
%TD*%
D23*
%TO.C,D2*%
X32095000Y-60585000D03*
X33670000Y-60585000D03*
%TD*%
D35*
%TO.C,C2*%
X63700000Y-44650000D03*
X63700000Y-46550000D03*
%TD*%
D36*
%TO.C,Y2*%
X59250000Y-33000000D03*
X56750000Y-33000000D03*
%TD*%
D35*
%TO.C,C6*%
X63700000Y-48450000D03*
X63700000Y-50350000D03*
%TD*%
D17*
%TO.C,R14*%
X50890000Y-39550000D03*
X51910000Y-39550000D03*
%TD*%
M02*
