%TF.GenerationSoftware,KiCad,Pcbnew,(6.0.9)*%
%TF.CreationDate,2022-12-06T19:37:18-05:00*%
%TF.ProjectId,cdh-devkit,6364682d-6465-4766-9b69-742e6b696361,rev?*%
%TF.SameCoordinates,Original*%
%TF.FileFunction,Copper,L4,Bot*%
%TF.FilePolarity,Positive*%
%FSLAX46Y46*%
G04 Gerber Fmt 4.6, Leading zero omitted, Abs format (unit mm)*
G04 Created by KiCad (PCBNEW (6.0.9)) date 2022-12-06 19:37:18*
%MOMM*%
%LPD*%
G01*
G04 APERTURE LIST*
%TA.AperFunction,Profile*%
%ADD10C,0.200000*%
%TD*%
%TA.AperFunction,ComponentPad*%
%ADD11R,1.700000X1.700000*%
%TD*%
%TA.AperFunction,ComponentPad*%
%ADD12O,1.700000X1.700000*%
%TD*%
%TA.AperFunction,ComponentPad*%
%ADD13C,4.400000*%
%TD*%
%TA.AperFunction,ComponentPad*%
%ADD14O,1.900000X1.200000*%
%TD*%
%TA.AperFunction,ComponentPad*%
%ADD15C,1.450000*%
%TD*%
%TA.AperFunction,ViaPad*%
%ADD16C,0.800000*%
%TD*%
%TA.AperFunction,ViaPad*%
%ADD17C,0.700000*%
%TD*%
%TA.AperFunction,Conductor*%
%ADD18C,0.300000*%
%TD*%
G04 APERTURE END LIST*
D10*
X67000000Y-70000000D02*
G75*
G03*
X70000000Y-67000000I0J3000000D01*
G01*
X20000000Y-67000000D02*
X20000000Y-23000000D01*
X70000000Y-23000000D02*
X70000000Y-67000000D01*
X23000000Y-20000000D02*
G75*
G03*
X20000000Y-23000000I0J-3000000D01*
G01*
X20000000Y-67000000D02*
G75*
G03*
X23000000Y-70000000I3000000J0D01*
G01*
X23000000Y-20000000D02*
X67000000Y-20000000D01*
X70000000Y-23000000D02*
G75*
G03*
X67000000Y-20000000I-3000000J0D01*
G01*
X67000000Y-70000000D02*
X23000000Y-70000000D01*
D11*
%TO.P,J3,1,Pin_1*%
%TO.N,+3.3V*%
X53875000Y-65000000D03*
D12*
%TO.P,J3,2,Pin_2*%
%TO.N,GPIO_1*%
X51335000Y-65000000D03*
%TO.P,J3,3,Pin_3*%
%TO.N,GPIO_2*%
X48795000Y-65000000D03*
%TO.P,J3,4,Pin_4*%
%TO.N,GPIO_3*%
X46255000Y-65000000D03*
%TO.P,J3,5,Pin_5*%
%TO.N,GPIO_4*%
X43715000Y-65000000D03*
%TO.P,J3,6,Pin_6*%
%TO.N,GPIO_5*%
X41175000Y-65000000D03*
%TO.P,J3,7,Pin_7*%
%TO.N,GND*%
X38635000Y-65000000D03*
%TO.P,J3,8,Pin_8*%
%TO.N,+3.3V*%
X36095000Y-65000000D03*
%TD*%
D11*
%TO.P,J2,1,Pin_1*%
%TO.N,+3.3V*%
X36125000Y-25000000D03*
D12*
%TO.P,J2,2,Pin_2*%
%TO.N,I2C_SCL*%
X38665000Y-25000000D03*
%TO.P,J2,3,Pin_3*%
%TO.N,I2C_SDA*%
X41205000Y-25000000D03*
%TO.P,J2,4,Pin_4*%
%TO.N,GND*%
X43745000Y-25000000D03*
%TO.P,J2,5,Pin_5*%
%TO.N,SPI_MOSI*%
X46285000Y-25000000D03*
%TO.P,J2,6,Pin_6*%
%TO.N,SPI_MISO*%
X48825000Y-25000000D03*
%TO.P,J2,7,Pin_7*%
%TO.N,SPI_SCK*%
X51365000Y-25000000D03*
%TO.P,J2,8,Pin_8*%
%TO.N,+3.3V*%
X53905000Y-25000000D03*
%TD*%
D13*
%TO.P,H3,1,1*%
%TO.N,GND*%
X25000000Y-65000000D03*
%TD*%
D14*
%TO.P,J4,6,Shield*%
%TO.N,GND*%
X68537500Y-39300000D03*
X68537500Y-46300000D03*
D15*
X65837500Y-45300000D03*
X65837500Y-40300000D03*
%TD*%
D11*
%TO.P,J1,1,Pin_1*%
%TO.N,+3.3V*%
X25000000Y-53875000D03*
D12*
%TO.P,J1,2,Pin_2*%
%TO.N,UART_TX*%
X25000000Y-51335000D03*
%TO.P,J1,3,Pin_3*%
%TO.N,UART_RX*%
X25000000Y-48795000D03*
%TO.P,J1,4,Pin_4*%
%TO.N,GND*%
X25000000Y-46255000D03*
%TO.P,J1,5,Pin_5*%
%TO.N,CAN_TX*%
X25000000Y-43715000D03*
%TO.P,J1,6,Pin_6*%
%TO.N,CAN_RX*%
X25000000Y-41175000D03*
%TO.P,J1,7,Pin_7*%
%TO.N,GND*%
X25000000Y-38635000D03*
%TO.P,J1,8,Pin_8*%
%TO.N,+3.3V*%
X25000000Y-36095000D03*
%TD*%
D13*
%TO.P,H1,1,1*%
%TO.N,GND*%
X25000000Y-25000000D03*
%TD*%
D11*
%TO.P,J5,1,Pin_1*%
%TO.N,GND*%
X65000000Y-30250000D03*
D12*
%TO.P,J5,2,Pin_2*%
%TO.N,SWCLK*%
X65000000Y-32790000D03*
%TO.P,J5,3,Pin_3*%
%TO.N,SWDIO*%
X65000000Y-35330000D03*
%TD*%
D13*
%TO.P,H4,1,1*%
%TO.N,GND*%
X65000000Y-65000000D03*
%TD*%
%TO.P,H2,1,1*%
%TO.N,GND*%
X65000000Y-25000000D03*
%TD*%
D16*
%TO.N,GND*%
X34000000Y-51000000D03*
X32000000Y-51000000D03*
X30000000Y-51000000D03*
X28000000Y-53200000D03*
X28000000Y-55400000D03*
X28000000Y-57600000D03*
X28000000Y-59800000D03*
X28000000Y-62000000D03*
X30000000Y-62000000D03*
X32000000Y-62000000D03*
X34000000Y-62000000D03*
X36000000Y-62000000D03*
X38000000Y-62000000D03*
X40000000Y-62000000D03*
X42000000Y-62000000D03*
X44000000Y-62000000D03*
X46000000Y-62000000D03*
X56000000Y-62000000D03*
X58000000Y-62000000D03*
X59000000Y-61000000D03*
X60000000Y-60000000D03*
X60000000Y-58000000D03*
X41000000Y-33000000D03*
X36000000Y-33000000D03*
X34000000Y-33000000D03*
X32000000Y-33000000D03*
X30000000Y-33000000D03*
X28000000Y-33000000D03*
X27000000Y-34000000D03*
X32000000Y-47000000D03*
X28000000Y-51000000D03*
X29000000Y-50000000D03*
X30000000Y-49000000D03*
X31000000Y-48000000D03*
X66000000Y-38000000D03*
X61000000Y-38000000D03*
X64000000Y-40000000D03*
X64000000Y-38000000D03*
X62000000Y-37000000D03*
X62000000Y-35000000D03*
X61000000Y-34000000D03*
X45000000Y-33000000D03*
X45000000Y-35000000D03*
X45000000Y-37000000D03*
D17*
%TO.N,+3.3V*%
X37304999Y-40470000D03*
D16*
X39050000Y-54200000D03*
X43600000Y-52250000D03*
D17*
X49500000Y-36250000D03*
X53000000Y-38550500D03*
D16*
X35650000Y-50550000D03*
X65600000Y-48400000D03*
X46750000Y-55550000D03*
D17*
X59000000Y-38000000D03*
D16*
X50170023Y-52229977D03*
D17*
X53690105Y-40345758D03*
X39300000Y-36500000D03*
D16*
X34360000Y-52340000D03*
D17*
%TO.N,GND*%
X32590000Y-43773000D03*
D16*
X41500000Y-35050000D03*
D17*
X37304999Y-45975000D03*
X31250000Y-36500000D03*
X32590000Y-41571000D03*
X32590000Y-45975000D03*
X41550000Y-53250000D03*
X36126247Y-45970000D03*
X53200000Y-45950000D03*
X54380000Y-58640000D03*
D16*
X43600000Y-59350000D03*
D17*
X32590000Y-44874000D03*
X33768749Y-45970000D03*
X53450000Y-33300500D03*
X36126247Y-40470000D03*
X50000000Y-32500000D03*
X58000000Y-27750000D03*
D16*
X62350000Y-42050000D03*
D17*
X52250000Y-44050000D03*
X32590000Y-42672000D03*
X34947498Y-45970000D03*
X34947498Y-40470000D03*
X52250000Y-45950000D03*
X32590000Y-40470000D03*
X48000000Y-27500000D03*
X54520500Y-40000000D03*
D16*
X47050000Y-52650000D03*
D17*
X53200000Y-44050000D03*
X51250000Y-27250000D03*
X33768749Y-40470000D03*
%TO.N,Net-(C11-Pad1)*%
X60000000Y-52000000D03*
X49750000Y-50750000D03*
%TO.N,UART_TX*%
X33750000Y-38250000D03*
X43000000Y-42750000D03*
X30000000Y-40500000D03*
X35500000Y-39250000D03*
%TO.N,UART_RX*%
X28750000Y-39500000D03*
X36000000Y-37000000D03*
X32250000Y-37000000D03*
X42750000Y-41250000D03*
%TO.N,CAN_TX*%
X27750000Y-36750000D03*
X32250000Y-36000000D03*
%TO.N,SPI_SCK*%
X48750000Y-34250000D03*
X61200000Y-29250500D03*
X54000000Y-27750000D03*
%TO.N,SPI_MISO*%
X48250000Y-32500000D03*
X59500000Y-27750000D03*
%TO.N,I2C_SDA*%
X57000000Y-38250000D03*
X52000000Y-36200000D03*
X48500000Y-47500000D03*
X52000000Y-38550500D03*
X53000000Y-32500000D03*
%TO.N,I2C_SCL*%
X50500000Y-38500000D03*
X57750000Y-37750000D03*
X47250000Y-47500000D03*
X51000000Y-35300000D03*
X51750000Y-31250000D03*
%TO.N,SWCLK*%
X56500000Y-28500000D03*
X54500000Y-31250000D03*
%TO.N,GPIO_1*%
X56370000Y-59030000D03*
%TO.N,GPIO_2*%
X55120000Y-57900000D03*
%TO.N,GPIO_3*%
X52663696Y-58340863D03*
%TO.N,GPIO_5*%
X56600000Y-52800000D03*
X52200500Y-52800000D03*
D16*
%TO.N,/USB_NOE*%
X48990000Y-45310000D03*
X34360000Y-59100000D03*
%TO.N,/GPIO_LED*%
X44320000Y-41510000D03*
X34360000Y-55690000D03*
%TD*%
D18*
%TO.N,Net-(C11-Pad1)*%
X51000000Y-52000000D02*
X49750000Y-50750000D01*
X60000000Y-52000000D02*
X51000000Y-52000000D01*
%TO.N,UART_TX*%
X31500000Y-40500000D02*
X30000000Y-40500000D01*
X43000000Y-42750000D02*
X39500000Y-39250000D01*
X33750000Y-38250000D02*
X31500000Y-40500000D01*
X39500000Y-39250000D02*
X35500000Y-39250000D01*
%TO.N,UART_RX*%
X38500000Y-37000000D02*
X36000000Y-37000000D01*
X29750000Y-39500000D02*
X28750000Y-39500000D01*
X42750000Y-41250000D02*
X38500000Y-37000000D01*
X32250000Y-37000000D02*
X29750000Y-39500000D01*
%TO.N,CAN_TX*%
X28700000Y-35800000D02*
X27750000Y-36750000D01*
X32050000Y-35800000D02*
X28700000Y-35800000D01*
X32250000Y-36000000D02*
X32050000Y-35800000D01*
%TO.N,SPI_SCK*%
X54000000Y-27750000D02*
X54000000Y-27635000D01*
X58000000Y-31900000D02*
X55300000Y-34600000D01*
X58999500Y-29250500D02*
X58000000Y-30250000D01*
X55300000Y-34600000D02*
X49100000Y-34600000D01*
X49100000Y-34600000D02*
X48750000Y-34250000D01*
X58000000Y-30250000D02*
X58000000Y-31900000D01*
X61200000Y-29250500D02*
X58999500Y-29250500D01*
X54000000Y-27635000D02*
X51365000Y-25000000D01*
%TO.N,SPI_MISO*%
X48900000Y-32500000D02*
X50400000Y-34000000D01*
X50400000Y-34000000D02*
X54900000Y-34000000D01*
X54900000Y-34000000D02*
X57250000Y-31650000D01*
X57250000Y-31650000D02*
X57250000Y-30000000D01*
X57250000Y-30000000D02*
X59500000Y-27750000D01*
X48250000Y-32500000D02*
X48900000Y-32500000D01*
%TO.N,I2C_SDA*%
X51439450Y-38550500D02*
X50789950Y-39200000D01*
X41205000Y-29455000D02*
X41205000Y-25000000D01*
X53000000Y-32500000D02*
X53000000Y-30750000D01*
X48000000Y-41500000D02*
X48000000Y-47000000D01*
X52000000Y-36200000D02*
X54950000Y-36200000D01*
X52500000Y-30250000D02*
X42000000Y-30250000D01*
X42000000Y-30250000D02*
X41205000Y-29455000D01*
X48000000Y-47000000D02*
X48500000Y-47500000D01*
X50789950Y-39200000D02*
X50300000Y-39200000D01*
X50300000Y-39200000D02*
X48000000Y-41500000D01*
X52000000Y-38550500D02*
X51439450Y-38550500D01*
X53000000Y-30750000D02*
X52500000Y-30250000D01*
X54950000Y-36200000D02*
X57000000Y-38250000D01*
%TO.N,I2C_SCL*%
X50500000Y-38500000D02*
X50000000Y-38500000D01*
X38665000Y-30415000D02*
X38665000Y-25000000D01*
X51750000Y-31250000D02*
X39500000Y-31250000D01*
X47250000Y-41250000D02*
X47250000Y-47500000D01*
X39500000Y-31250000D02*
X38665000Y-30415000D01*
X51000000Y-35300000D02*
X55300000Y-35300000D01*
X50000000Y-38500000D02*
X47250000Y-41250000D01*
X55300000Y-35300000D02*
X57750000Y-37750000D01*
%TO.N,SWCLK*%
X56500000Y-30500000D02*
X55750000Y-31250000D01*
X56500000Y-28500000D02*
X56500000Y-30500000D01*
X55750000Y-31250000D02*
X54500000Y-31250000D01*
%TO.N,GPIO_1*%
X56370000Y-59030000D02*
X56370000Y-59330000D01*
X51335000Y-64365000D02*
X51335000Y-65000000D01*
X56370000Y-59330000D02*
X51335000Y-64365000D01*
%TO.N,GPIO_2*%
X48795000Y-65000000D02*
X49180000Y-65000000D01*
X55120000Y-59060000D02*
X55120000Y-57900000D01*
X49180000Y-65000000D02*
X55120000Y-59060000D01*
%TO.N,GPIO_3*%
X52663696Y-58591304D02*
X46255000Y-65000000D01*
X52663696Y-58340863D02*
X52663696Y-58591304D01*
%TO.N,GPIO_5*%
X52200500Y-52800000D02*
X56600000Y-52800000D01*
%TO.N,/USB_NOE*%
X39040000Y-59100000D02*
X49460000Y-48680000D01*
X49460000Y-47010000D02*
X49460000Y-48680000D01*
X48990000Y-46540000D02*
X49460000Y-47010000D01*
X48990000Y-45310000D02*
X48990000Y-46540000D01*
X39040000Y-59100000D02*
X34490000Y-59100000D01*
%TO.N,/GPIO_LED*%
X44320000Y-45840000D02*
X44320000Y-41510000D01*
X34470000Y-55690000D02*
X44320000Y-45840000D01*
%TD*%
%TA.AperFunction,Conductor*%
%TO.N,GND*%
G36*
X66970489Y-20501976D02*
G01*
X66985093Y-20504250D01*
X66985095Y-20504250D01*
X66993823Y-20505609D01*
X67010745Y-20503396D01*
X67034310Y-20502575D01*
X67293796Y-20518271D01*
X67308658Y-20520076D01*
X67590798Y-20571780D01*
X67605332Y-20575363D01*
X67863767Y-20655894D01*
X67879169Y-20660694D01*
X67893169Y-20666003D01*
X68154737Y-20783725D01*
X68167996Y-20790684D01*
X68413460Y-20939072D01*
X68425783Y-20947578D01*
X68651573Y-21124473D01*
X68662781Y-21134403D01*
X68865597Y-21337219D01*
X68875527Y-21348427D01*
X69052422Y-21574217D01*
X69060928Y-21586540D01*
X69209316Y-21832004D01*
X69216275Y-21845263D01*
X69333997Y-22106831D01*
X69339306Y-22120831D01*
X69419346Y-22377686D01*
X69424636Y-22394663D01*
X69428220Y-22409202D01*
X69479924Y-22691340D01*
X69481729Y-22706202D01*
X69495521Y-22934216D01*
X69496994Y-22958573D01*
X69495752Y-22984948D01*
X69495750Y-22985092D01*
X69494391Y-22993823D01*
X69495537Y-23002585D01*
X69498453Y-23024886D01*
X69499500Y-23040964D01*
X69499500Y-38176998D01*
X69479815Y-38244037D01*
X69427011Y-38289792D01*
X69357853Y-38299736D01*
X69329149Y-38292009D01*
X69206818Y-38242709D01*
X69195540Y-38239368D01*
X68999710Y-38201126D01*
X68990985Y-38200066D01*
X68988295Y-38200000D01*
X68805330Y-38200000D01*
X68790331Y-38204404D01*
X68789144Y-38205774D01*
X68787500Y-38213332D01*
X68787500Y-40382170D01*
X68791904Y-40397169D01*
X68793274Y-40398356D01*
X68800832Y-40400000D01*
X68936986Y-40400000D01*
X68942899Y-40399718D01*
X69090571Y-40385629D01*
X69102114Y-40383407D01*
X69292205Y-40327641D01*
X69303109Y-40323279D01*
X69318724Y-40315237D01*
X69387336Y-40302041D01*
X69452191Y-40328035D01*
X69492696Y-40384966D01*
X69499500Y-40425475D01*
X69499500Y-45176998D01*
X69479815Y-45244037D01*
X69427011Y-45289792D01*
X69357853Y-45299736D01*
X69329149Y-45292009D01*
X69206818Y-45242709D01*
X69195540Y-45239368D01*
X68999710Y-45201126D01*
X68990985Y-45200066D01*
X68988295Y-45200000D01*
X68805330Y-45200000D01*
X68790331Y-45204404D01*
X68789144Y-45205774D01*
X68787500Y-45213332D01*
X68787500Y-47382170D01*
X68791904Y-47397169D01*
X68793274Y-47398356D01*
X68800832Y-47400000D01*
X68936986Y-47400000D01*
X68942899Y-47399718D01*
X69090571Y-47385629D01*
X69102114Y-47383407D01*
X69292205Y-47327641D01*
X69303109Y-47323279D01*
X69318724Y-47315237D01*
X69387336Y-47302041D01*
X69452191Y-47328035D01*
X69492696Y-47384966D01*
X69499500Y-47425475D01*
X69499500Y-66951413D01*
X69498024Y-66970489D01*
X69494391Y-66993823D01*
X69495537Y-67002584D01*
X69496604Y-67010745D01*
X69497425Y-67034311D01*
X69481729Y-67293794D01*
X69479924Y-67308659D01*
X69428220Y-67590798D01*
X69424637Y-67605332D01*
X69344106Y-67863767D01*
X69339306Y-67879169D01*
X69333997Y-67893169D01*
X69216275Y-68154737D01*
X69209316Y-68167996D01*
X69060928Y-68413460D01*
X69052422Y-68425783D01*
X68875527Y-68651573D01*
X68865597Y-68662781D01*
X68662781Y-68865597D01*
X68651573Y-68875527D01*
X68425783Y-69052422D01*
X68413460Y-69060928D01*
X68167996Y-69209316D01*
X68154737Y-69216275D01*
X67893169Y-69333997D01*
X67879169Y-69339306D01*
X67605332Y-69424637D01*
X67590798Y-69428220D01*
X67308656Y-69479924D01*
X67293798Y-69481729D01*
X67041425Y-69496994D01*
X67015052Y-69495752D01*
X67014908Y-69495750D01*
X67006177Y-69494391D01*
X66975114Y-69498453D01*
X66959036Y-69499500D01*
X23048587Y-69499500D01*
X23029511Y-69498024D01*
X23014907Y-69495750D01*
X23014905Y-69495750D01*
X23006177Y-69494391D01*
X22989779Y-69496536D01*
X22989255Y-69496604D01*
X22965690Y-69497425D01*
X22706204Y-69481729D01*
X22691341Y-69479924D01*
X22682005Y-69478213D01*
X22409202Y-69428220D01*
X22394668Y-69424637D01*
X22120831Y-69339306D01*
X22106831Y-69333997D01*
X21845263Y-69216275D01*
X21832004Y-69209316D01*
X21586540Y-69060928D01*
X21574217Y-69052422D01*
X21348427Y-68875527D01*
X21337219Y-68865597D01*
X21134403Y-68662781D01*
X21124473Y-68651573D01*
X20947578Y-68425783D01*
X20939072Y-68413460D01*
X20790684Y-68167996D01*
X20783725Y-68154737D01*
X20666003Y-67893169D01*
X20660694Y-67879169D01*
X20655894Y-67863767D01*
X20575363Y-67605332D01*
X20571780Y-67590798D01*
X20520076Y-67308659D01*
X20518271Y-67293794D01*
X20505231Y-67078206D01*
X23281168Y-67078206D01*
X23288571Y-67088469D01*
X23430180Y-67202531D01*
X23436249Y-67206843D01*
X23706139Y-67375161D01*
X23712709Y-67378728D01*
X24000861Y-67513403D01*
X24007798Y-67516149D01*
X24310052Y-67615233D01*
X24317263Y-67617125D01*
X24629238Y-67679181D01*
X24636616Y-67680192D01*
X24953787Y-67704318D01*
X24961250Y-67704435D01*
X25279003Y-67690284D01*
X25286436Y-67689502D01*
X25600191Y-67637279D01*
X25607463Y-67635614D01*
X25912683Y-67546072D01*
X25919693Y-67543548D01*
X26211949Y-67417986D01*
X26218609Y-67414636D01*
X26493652Y-67254878D01*
X26499868Y-67250748D01*
X26712047Y-67090569D01*
X26720368Y-67079358D01*
X26719736Y-67078206D01*
X63281168Y-67078206D01*
X63288571Y-67088469D01*
X63430180Y-67202531D01*
X63436249Y-67206843D01*
X63706139Y-67375161D01*
X63712709Y-67378728D01*
X64000861Y-67513403D01*
X64007798Y-67516149D01*
X64310052Y-67615233D01*
X64317263Y-67617125D01*
X64629238Y-67679181D01*
X64636616Y-67680192D01*
X64953787Y-67704318D01*
X64961250Y-67704435D01*
X65279003Y-67690284D01*
X65286436Y-67689502D01*
X65600191Y-67637279D01*
X65607463Y-67635614D01*
X65912683Y-67546072D01*
X65919693Y-67543548D01*
X66211949Y-67417986D01*
X66218609Y-67414636D01*
X66493652Y-67254878D01*
X66499868Y-67250748D01*
X66712047Y-67090569D01*
X66720368Y-67079358D01*
X66713759Y-67067312D01*
X65012607Y-65366160D01*
X64998887Y-65358668D01*
X64997081Y-65358797D01*
X64990574Y-65362979D01*
X63288169Y-67065384D01*
X63281168Y-67078206D01*
X26719736Y-67078206D01*
X26713759Y-67067312D01*
X25012607Y-65366160D01*
X24998887Y-65358668D01*
X24997081Y-65358797D01*
X24990574Y-65362979D01*
X23288169Y-67065384D01*
X23281168Y-67078206D01*
X20505231Y-67078206D01*
X20503225Y-67045044D01*
X20504458Y-67021866D01*
X20504274Y-67021850D01*
X20504702Y-67017071D01*
X20505496Y-67012354D01*
X20505647Y-67000000D01*
X20504763Y-66993823D01*
X20501752Y-66972802D01*
X20500500Y-66955223D01*
X20500500Y-64975399D01*
X22295398Y-64975399D01*
X22311214Y-65293095D01*
X22312033Y-65300506D01*
X22365899Y-65613988D01*
X22367604Y-65621258D01*
X22458740Y-65925996D01*
X22461305Y-65933005D01*
X22588394Y-66224593D01*
X22591774Y-66231228D01*
X22752978Y-66505444D01*
X22757141Y-66511638D01*
X22909795Y-66711663D01*
X22921138Y-66719991D01*
X22933010Y-66713437D01*
X24633840Y-65012607D01*
X24640116Y-65001113D01*
X25358668Y-65001113D01*
X25358797Y-65002919D01*
X25362979Y-65009426D01*
X27065264Y-66711711D01*
X27078177Y-66718762D01*
X27088314Y-66711490D01*
X27194277Y-66581335D01*
X27198628Y-66575278D01*
X27368359Y-66306272D01*
X27371952Y-66299738D01*
X27508138Y-66012283D01*
X27510920Y-66005362D01*
X27611581Y-65703642D01*
X27613516Y-65696423D01*
X27677202Y-65384789D01*
X27678253Y-65377406D01*
X27704165Y-65058828D01*
X27704365Y-65054456D01*
X27704912Y-65002208D01*
X27704857Y-65000000D01*
X34739341Y-65000000D01*
X34759937Y-65235408D01*
X34821097Y-65463663D01*
X34823384Y-65468567D01*
X34823386Y-65468573D01*
X34891195Y-65613988D01*
X34920965Y-65677829D01*
X34924072Y-65682266D01*
X34924073Y-65682268D01*
X35053399Y-65866966D01*
X35053403Y-65866970D01*
X35056505Y-65871401D01*
X35223599Y-66038495D01*
X35417170Y-66174035D01*
X35631337Y-66273903D01*
X35684807Y-66288230D01*
X35854366Y-66333663D01*
X35854369Y-66333664D01*
X35859592Y-66335063D01*
X35864979Y-66335534D01*
X35864983Y-66335535D01*
X36089605Y-66355187D01*
X36095000Y-66355659D01*
X36100395Y-66355187D01*
X36325017Y-66335535D01*
X36325021Y-66335534D01*
X36330408Y-66335063D01*
X36335631Y-66333664D01*
X36335634Y-66333663D01*
X36505193Y-66288230D01*
X36558663Y-66273903D01*
X36772830Y-66174035D01*
X36966401Y-66038495D01*
X37133495Y-65871401D01*
X37136597Y-65866970D01*
X37136601Y-65866966D01*
X37226001Y-65739288D01*
X37263731Y-65685404D01*
X37318307Y-65641780D01*
X37387805Y-65634586D01*
X37450160Y-65666109D01*
X37466880Y-65685404D01*
X37593788Y-65866648D01*
X37600719Y-65874907D01*
X37760091Y-66034279D01*
X37768357Y-66041215D01*
X37952992Y-66170498D01*
X37962324Y-66175886D01*
X38166603Y-66271143D01*
X38176736Y-66274832D01*
X38367779Y-66326022D01*
X38381653Y-66325691D01*
X38385000Y-66317875D01*
X38385000Y-66312806D01*
X38885000Y-66312806D01*
X38888910Y-66326123D01*
X38897326Y-66327333D01*
X39093264Y-66274832D01*
X39103397Y-66271143D01*
X39307676Y-66175886D01*
X39317008Y-66170498D01*
X39501643Y-66041215D01*
X39509909Y-66034279D01*
X39669281Y-65874907D01*
X39676212Y-65866648D01*
X39803120Y-65685404D01*
X39857697Y-65641780D01*
X39927196Y-65634587D01*
X39989550Y-65666109D01*
X40006269Y-65685403D01*
X40043999Y-65739288D01*
X40133399Y-65866966D01*
X40133403Y-65866970D01*
X40136505Y-65871401D01*
X40303599Y-66038495D01*
X40497170Y-66174035D01*
X40711337Y-66273903D01*
X40764807Y-66288230D01*
X40934366Y-66333663D01*
X40934369Y-66333664D01*
X40939592Y-66335063D01*
X40944979Y-66335534D01*
X40944983Y-66335535D01*
X41169605Y-66355187D01*
X41175000Y-66355659D01*
X41180395Y-66355187D01*
X41405017Y-66335535D01*
X41405021Y-66335534D01*
X41410408Y-66335063D01*
X41415631Y-66333664D01*
X41415634Y-66333663D01*
X41585193Y-66288230D01*
X41638663Y-66273903D01*
X41852830Y-66174035D01*
X42046401Y-66038495D01*
X42213495Y-65871401D01*
X42216597Y-65866970D01*
X42216601Y-65866966D01*
X42343425Y-65685841D01*
X42398002Y-65642216D01*
X42467500Y-65635022D01*
X42529855Y-65666545D01*
X42546575Y-65685841D01*
X42673399Y-65866966D01*
X42673403Y-65866970D01*
X42676505Y-65871401D01*
X42843599Y-66038495D01*
X43037170Y-66174035D01*
X43251337Y-66273903D01*
X43304807Y-66288230D01*
X43474366Y-66333663D01*
X43474369Y-66333664D01*
X43479592Y-66335063D01*
X43484979Y-66335534D01*
X43484983Y-66335535D01*
X43709605Y-66355187D01*
X43715000Y-66355659D01*
X43720395Y-66355187D01*
X43945017Y-66335535D01*
X43945021Y-66335534D01*
X43950408Y-66335063D01*
X43955631Y-66333664D01*
X43955634Y-66333663D01*
X44125193Y-66288230D01*
X44178663Y-66273903D01*
X44392830Y-66174035D01*
X44586401Y-66038495D01*
X44753495Y-65871401D01*
X44756597Y-65866970D01*
X44756601Y-65866966D01*
X44883425Y-65685841D01*
X44938002Y-65642216D01*
X45007500Y-65635022D01*
X45069855Y-65666545D01*
X45086575Y-65685841D01*
X45213399Y-65866966D01*
X45213403Y-65866970D01*
X45216505Y-65871401D01*
X45383599Y-66038495D01*
X45577170Y-66174035D01*
X45791337Y-66273903D01*
X45844807Y-66288230D01*
X46014366Y-66333663D01*
X46014369Y-66333664D01*
X46019592Y-66335063D01*
X46024979Y-66335534D01*
X46024983Y-66335535D01*
X46249605Y-66355187D01*
X46255000Y-66355659D01*
X46260395Y-66355187D01*
X46485017Y-66335535D01*
X46485021Y-66335534D01*
X46490408Y-66335063D01*
X46495631Y-66333664D01*
X46495634Y-66333663D01*
X46665193Y-66288230D01*
X46718663Y-66273903D01*
X46932830Y-66174035D01*
X47126401Y-66038495D01*
X47293495Y-65871401D01*
X47296597Y-65866970D01*
X47296601Y-65866966D01*
X47423425Y-65685841D01*
X47478002Y-65642216D01*
X47547500Y-65635022D01*
X47609855Y-65666545D01*
X47626575Y-65685841D01*
X47753399Y-65866966D01*
X47753403Y-65866970D01*
X47756505Y-65871401D01*
X47923599Y-66038495D01*
X48117170Y-66174035D01*
X48331337Y-66273903D01*
X48384807Y-66288230D01*
X48554366Y-66333663D01*
X48554369Y-66333664D01*
X48559592Y-66335063D01*
X48564979Y-66335534D01*
X48564983Y-66335535D01*
X48789605Y-66355187D01*
X48795000Y-66355659D01*
X48800395Y-66355187D01*
X49025017Y-66335535D01*
X49025021Y-66335534D01*
X49030408Y-66335063D01*
X49035631Y-66333664D01*
X49035634Y-66333663D01*
X49205193Y-66288230D01*
X49258663Y-66273903D01*
X49472830Y-66174035D01*
X49666401Y-66038495D01*
X49833495Y-65871401D01*
X49836597Y-65866970D01*
X49836601Y-65866966D01*
X49963425Y-65685841D01*
X50018002Y-65642216D01*
X50087500Y-65635022D01*
X50149855Y-65666545D01*
X50166575Y-65685841D01*
X50293399Y-65866966D01*
X50293403Y-65866970D01*
X50296505Y-65871401D01*
X50463599Y-66038495D01*
X50657170Y-66174035D01*
X50871337Y-66273903D01*
X50924807Y-66288230D01*
X51094366Y-66333663D01*
X51094369Y-66333664D01*
X51099592Y-66335063D01*
X51104979Y-66335534D01*
X51104983Y-66335535D01*
X51329605Y-66355187D01*
X51335000Y-66355659D01*
X51340395Y-66355187D01*
X51565017Y-66335535D01*
X51565021Y-66335534D01*
X51570408Y-66335063D01*
X51575631Y-66333664D01*
X51575634Y-66333663D01*
X51745193Y-66288230D01*
X51798663Y-66273903D01*
X52012830Y-66174035D01*
X52206401Y-66038495D01*
X52328207Y-65916689D01*
X52389530Y-65883204D01*
X52459222Y-65888188D01*
X52515155Y-65930060D01*
X52531997Y-65960842D01*
X52581474Y-66092824D01*
X52667454Y-66207546D01*
X52674519Y-66212841D01*
X52775109Y-66288230D01*
X52775111Y-66288231D01*
X52782176Y-66293526D01*
X52790444Y-66296626D01*
X52790445Y-66296626D01*
X52816176Y-66306272D01*
X52916420Y-66343851D01*
X52977623Y-66350500D01*
X53874866Y-66350500D01*
X54772376Y-66350499D01*
X54833580Y-66343851D01*
X54967824Y-66293526D01*
X54974889Y-66288231D01*
X54974891Y-66288230D01*
X55075481Y-66212841D01*
X55082546Y-66207546D01*
X55168526Y-66092824D01*
X55218851Y-65958580D01*
X55225500Y-65897377D01*
X55225499Y-64975399D01*
X62295398Y-64975399D01*
X62311214Y-65293095D01*
X62312033Y-65300506D01*
X62365899Y-65613988D01*
X62367604Y-65621258D01*
X62458740Y-65925996D01*
X62461305Y-65933005D01*
X62588394Y-66224593D01*
X62591774Y-66231228D01*
X62752978Y-66505444D01*
X62757141Y-66511638D01*
X62909795Y-66711663D01*
X62921138Y-66719991D01*
X62933010Y-66713437D01*
X64633840Y-65012607D01*
X64640116Y-65001113D01*
X65358668Y-65001113D01*
X65358797Y-65002919D01*
X65362979Y-65009426D01*
X67065264Y-66711711D01*
X67078177Y-66718762D01*
X67088314Y-66711490D01*
X67194277Y-66581335D01*
X67198628Y-66575278D01*
X67368359Y-66306272D01*
X67371952Y-66299738D01*
X67508138Y-66012283D01*
X67510920Y-66005362D01*
X67611581Y-65703642D01*
X67613516Y-65696423D01*
X67677202Y-65384789D01*
X67678253Y-65377406D01*
X67704165Y-65058828D01*
X67704365Y-65054456D01*
X67704912Y-65002208D01*
X67704802Y-64997795D01*
X67685569Y-64678774D01*
X67684671Y-64671356D01*
X67627526Y-64358460D01*
X67625746Y-64351212D01*
X67531424Y-64047445D01*
X67528787Y-64040465D01*
X67398654Y-63750229D01*
X67395192Y-63743607D01*
X67231135Y-63471109D01*
X67226912Y-63464964D01*
X67089635Y-63288941D01*
X67078030Y-63280606D01*
X67066505Y-63287048D01*
X65366160Y-64987393D01*
X65358668Y-65001113D01*
X64640116Y-65001113D01*
X64641332Y-64998887D01*
X64641203Y-64997081D01*
X64637021Y-64990574D01*
X62934442Y-63287995D01*
X62921714Y-63281045D01*
X62911320Y-63288584D01*
X62789288Y-63441724D01*
X62784992Y-63447837D01*
X62618089Y-63718605D01*
X62614572Y-63725163D01*
X62481401Y-64014035D01*
X62478690Y-64020989D01*
X62381190Y-64323757D01*
X62379336Y-64330978D01*
X62318916Y-64643264D01*
X62317942Y-64650664D01*
X62295477Y-64967950D01*
X62295398Y-64975399D01*
X55225499Y-64975399D01*
X55225499Y-64102624D01*
X55218851Y-64041420D01*
X55168526Y-63907176D01*
X55082546Y-63792454D01*
X55061861Y-63776951D01*
X54974891Y-63711770D01*
X54974889Y-63711769D01*
X54967824Y-63706474D01*
X54833580Y-63656149D01*
X54772377Y-63649500D01*
X54751973Y-63649500D01*
X53269806Y-63649501D01*
X53202768Y-63629816D01*
X53157013Y-63577013D01*
X53147069Y-63507854D01*
X53176094Y-63444298D01*
X53182126Y-63437820D01*
X53698366Y-62921580D01*
X63280334Y-62921580D01*
X63286834Y-62933281D01*
X64987393Y-64633840D01*
X65001113Y-64641332D01*
X65002919Y-64641203D01*
X65009426Y-64637021D01*
X66712231Y-62934216D01*
X66719130Y-62921581D01*
X66711459Y-62911062D01*
X66546675Y-62781156D01*
X66540552Y-62776901D01*
X66268915Y-62611417D01*
X66262317Y-62607924D01*
X65972767Y-62476274D01*
X65965796Y-62473598D01*
X65662528Y-62377686D01*
X65655290Y-62375868D01*
X65342693Y-62317085D01*
X65335291Y-62316150D01*
X65017877Y-62295345D01*
X65010446Y-62295307D01*
X64692835Y-62312786D01*
X64685415Y-62313644D01*
X64372221Y-62369152D01*
X64364972Y-62370892D01*
X64060713Y-62463622D01*
X64053717Y-62466224D01*
X63762805Y-62594835D01*
X63756165Y-62598263D01*
X63482819Y-62760886D01*
X63476641Y-62765084D01*
X63288666Y-62910107D01*
X63280334Y-62921580D01*
X53698366Y-62921580D01*
X56772647Y-59847299D01*
X56781288Y-59839436D01*
X56781353Y-59839382D01*
X56787940Y-59835202D01*
X56835865Y-59784167D01*
X56838576Y-59781370D01*
X56858911Y-59761035D01*
X56861609Y-59757556D01*
X56869197Y-59748672D01*
X56900448Y-59715393D01*
X56904202Y-59708565D01*
X56904206Y-59708559D01*
X56904954Y-59707198D01*
X56906322Y-59705647D01*
X56908794Y-59702244D01*
X56909116Y-59702478D01*
X56933333Y-59675011D01*
X56932145Y-59673692D01*
X56936970Y-59669348D01*
X56942230Y-59665526D01*
X56964023Y-59641323D01*
X57057512Y-59537493D01*
X57057513Y-59537492D01*
X57061859Y-59532665D01*
X57151250Y-59377835D01*
X57206497Y-59207803D01*
X57225185Y-59030000D01*
X57206497Y-58852197D01*
X57203681Y-58843528D01*
X57169779Y-58739192D01*
X57151250Y-58682165D01*
X57061859Y-58527335D01*
X57054054Y-58518666D01*
X56946577Y-58399302D01*
X56942230Y-58394474D01*
X56797593Y-58289388D01*
X56634267Y-58216671D01*
X56607651Y-58211014D01*
X56465754Y-58180852D01*
X56465749Y-58180852D01*
X56459391Y-58179500D01*
X56280609Y-58179500D01*
X56274251Y-58180852D01*
X56274246Y-58180852D01*
X56105733Y-58216671D01*
X56105175Y-58214045D01*
X56047208Y-58215690D01*
X55987382Y-58179598D01*
X55956566Y-58116891D01*
X55957313Y-58077889D01*
X55956497Y-58077803D01*
X55974506Y-57906460D01*
X55975185Y-57900000D01*
X55956497Y-57722197D01*
X55901250Y-57552165D01*
X55811859Y-57397335D01*
X55692230Y-57264474D01*
X55547593Y-57159388D01*
X55384267Y-57086671D01*
X55357651Y-57081014D01*
X55215754Y-57050852D01*
X55215749Y-57050852D01*
X55209391Y-57049500D01*
X55030609Y-57049500D01*
X55024251Y-57050852D01*
X55024246Y-57050852D01*
X54882349Y-57081014D01*
X54855733Y-57086671D01*
X54692408Y-57159388D01*
X54547770Y-57264474D01*
X54428141Y-57397335D01*
X54338750Y-57552165D01*
X54283503Y-57722197D01*
X54264815Y-57900000D01*
X54283503Y-58077803D01*
X54285510Y-58083981D01*
X54285511Y-58083984D01*
X54309196Y-58156879D01*
X54338750Y-58247835D01*
X54428141Y-58402665D01*
X54432487Y-58407492D01*
X54432488Y-58407493D01*
X54437651Y-58413227D01*
X54467880Y-58476218D01*
X54469500Y-58496198D01*
X54469500Y-58739192D01*
X54449815Y-58806231D01*
X54433181Y-58826873D01*
X49507804Y-63752250D01*
X49446481Y-63785735D01*
X49376789Y-63780751D01*
X49367728Y-63776955D01*
X49310414Y-63750229D01*
X49263573Y-63728386D01*
X49263567Y-63728384D01*
X49258663Y-63726097D01*
X49172142Y-63702914D01*
X49035634Y-63666337D01*
X49035631Y-63666336D01*
X49030408Y-63664937D01*
X49025019Y-63664465D01*
X49025016Y-63664465D01*
X48920373Y-63655310D01*
X48816780Y-63646247D01*
X48751712Y-63620795D01*
X48710733Y-63564204D01*
X48706855Y-63494442D01*
X48739907Y-63435038D01*
X53066337Y-59108608D01*
X53074978Y-59100744D01*
X53075044Y-59100690D01*
X53081636Y-59096506D01*
X53086979Y-59090817D01*
X53086982Y-59090814D01*
X53097311Y-59079815D01*
X53114814Y-59064385D01*
X53230666Y-58980212D01*
X53230674Y-58980205D01*
X53235926Y-58976389D01*
X53341932Y-58858658D01*
X53351208Y-58848356D01*
X53351209Y-58848355D01*
X53355555Y-58843528D01*
X53444946Y-58688698D01*
X53489783Y-58550705D01*
X53498185Y-58524847D01*
X53498186Y-58524844D01*
X53500193Y-58518666D01*
X53518881Y-58340863D01*
X53500193Y-58163060D01*
X53444946Y-57993028D01*
X53355555Y-57838198D01*
X53235926Y-57705337D01*
X53091289Y-57600251D01*
X52997162Y-57558343D01*
X52933902Y-57530178D01*
X52933900Y-57530177D01*
X52927963Y-57527534D01*
X52901347Y-57521877D01*
X52759450Y-57491715D01*
X52759445Y-57491715D01*
X52753087Y-57490363D01*
X52574305Y-57490363D01*
X52567947Y-57491715D01*
X52567942Y-57491715D01*
X52426045Y-57521877D01*
X52399429Y-57527534D01*
X52236104Y-57600251D01*
X52091466Y-57705337D01*
X51971837Y-57838198D01*
X51882446Y-57993028D01*
X51827199Y-58163060D01*
X51808511Y-58340863D01*
X51819930Y-58449500D01*
X51819989Y-58450062D01*
X51807420Y-58518792D01*
X51784349Y-58550705D01*
X46682763Y-63652291D01*
X46621440Y-63685776D01*
X46562989Y-63684385D01*
X46525385Y-63674309D01*
X46495631Y-63666336D01*
X46495626Y-63666335D01*
X46490408Y-63664937D01*
X46255000Y-63644341D01*
X46249605Y-63644813D01*
X46024983Y-63664465D01*
X46024979Y-63664466D01*
X46019592Y-63664937D01*
X46014369Y-63666336D01*
X46014366Y-63666337D01*
X45877858Y-63702914D01*
X45791337Y-63726097D01*
X45786433Y-63728384D01*
X45786427Y-63728386D01*
X45660390Y-63787159D01*
X45577171Y-63825965D01*
X45572734Y-63829072D01*
X45572732Y-63829073D01*
X45388034Y-63958399D01*
X45388033Y-63958400D01*
X45383599Y-63961505D01*
X45216505Y-64128599D01*
X45213403Y-64133030D01*
X45213399Y-64133034D01*
X45086575Y-64314159D01*
X45031998Y-64357784D01*
X44962500Y-64364978D01*
X44900145Y-64333455D01*
X44883425Y-64314159D01*
X44756601Y-64133034D01*
X44756597Y-64133030D01*
X44753495Y-64128599D01*
X44586401Y-63961505D01*
X44392830Y-63825965D01*
X44178663Y-63726097D01*
X44092142Y-63702914D01*
X43955634Y-63666337D01*
X43955631Y-63666336D01*
X43950408Y-63664937D01*
X43945021Y-63664466D01*
X43945017Y-63664465D01*
X43720395Y-63644813D01*
X43715000Y-63644341D01*
X43709605Y-63644813D01*
X43484983Y-63664465D01*
X43484979Y-63664466D01*
X43479592Y-63664937D01*
X43474369Y-63666336D01*
X43474366Y-63666337D01*
X43337858Y-63702914D01*
X43251337Y-63726097D01*
X43246433Y-63728384D01*
X43246427Y-63728386D01*
X43120390Y-63787159D01*
X43037171Y-63825965D01*
X43032734Y-63829072D01*
X43032732Y-63829073D01*
X42848034Y-63958399D01*
X42848033Y-63958400D01*
X42843599Y-63961505D01*
X42676505Y-64128599D01*
X42673403Y-64133030D01*
X42673399Y-64133034D01*
X42546575Y-64314159D01*
X42491998Y-64357784D01*
X42422500Y-64364978D01*
X42360145Y-64333455D01*
X42343425Y-64314159D01*
X42216601Y-64133034D01*
X42216597Y-64133030D01*
X42213495Y-64128599D01*
X42046401Y-63961505D01*
X41852830Y-63825965D01*
X41638663Y-63726097D01*
X41552142Y-63702914D01*
X41415634Y-63666337D01*
X41415631Y-63666336D01*
X41410408Y-63664937D01*
X41405021Y-63664466D01*
X41405017Y-63664465D01*
X41180395Y-63644813D01*
X41175000Y-63644341D01*
X41169605Y-63644813D01*
X40944983Y-63664465D01*
X40944979Y-63664466D01*
X40939592Y-63664937D01*
X40934369Y-63666336D01*
X40934366Y-63666337D01*
X40797858Y-63702914D01*
X40711337Y-63726097D01*
X40706433Y-63728384D01*
X40706427Y-63728386D01*
X40580390Y-63787159D01*
X40497171Y-63825965D01*
X40492734Y-63829072D01*
X40492732Y-63829073D01*
X40308034Y-63958399D01*
X40308033Y-63958400D01*
X40303599Y-63961505D01*
X40136505Y-64128599D01*
X40133403Y-64133030D01*
X40133399Y-64133034D01*
X40006270Y-64314595D01*
X39951693Y-64358220D01*
X39882195Y-64365414D01*
X39819840Y-64333891D01*
X39803120Y-64314596D01*
X39676212Y-64133352D01*
X39669281Y-64125093D01*
X39509909Y-63965721D01*
X39501643Y-63958785D01*
X39317008Y-63829502D01*
X39307676Y-63824114D01*
X39103397Y-63728857D01*
X39093264Y-63725168D01*
X38902221Y-63673978D01*
X38888347Y-63674309D01*
X38885000Y-63682125D01*
X38885000Y-66312806D01*
X38385000Y-66312806D01*
X38385000Y-63687194D01*
X38381090Y-63673877D01*
X38372674Y-63672667D01*
X38176736Y-63725168D01*
X38166603Y-63728857D01*
X37962333Y-63824110D01*
X37952983Y-63829508D01*
X37768357Y-63958784D01*
X37760093Y-63965719D01*
X37600719Y-64125093D01*
X37593788Y-64133352D01*
X37466880Y-64314596D01*
X37412303Y-64358220D01*
X37342804Y-64365413D01*
X37280450Y-64333891D01*
X37263730Y-64314595D01*
X37136601Y-64133034D01*
X37136597Y-64133030D01*
X37133495Y-64128599D01*
X36966401Y-63961505D01*
X36772830Y-63825965D01*
X36558663Y-63726097D01*
X36472142Y-63702914D01*
X36335634Y-63666337D01*
X36335631Y-63666336D01*
X36330408Y-63664937D01*
X36325021Y-63664466D01*
X36325017Y-63664465D01*
X36100395Y-63644813D01*
X36095000Y-63644341D01*
X36089605Y-63644813D01*
X35864983Y-63664465D01*
X35864979Y-63664466D01*
X35859592Y-63664937D01*
X35854369Y-63666336D01*
X35854366Y-63666337D01*
X35717858Y-63702914D01*
X35631337Y-63726097D01*
X35626433Y-63728384D01*
X35626427Y-63728386D01*
X35500390Y-63787159D01*
X35417171Y-63825965D01*
X35412734Y-63829072D01*
X35412732Y-63829073D01*
X35228034Y-63958399D01*
X35228033Y-63958400D01*
X35223599Y-63961505D01*
X35056505Y-64128599D01*
X35053403Y-64133030D01*
X35053399Y-64133034D01*
X34926575Y-64314159D01*
X34920965Y-64322171D01*
X34918675Y-64327082D01*
X34823386Y-64531427D01*
X34823384Y-64531433D01*
X34821097Y-64536337D01*
X34819695Y-64541570D01*
X34782932Y-64678774D01*
X34759937Y-64764592D01*
X34739341Y-65000000D01*
X27704857Y-65000000D01*
X27704802Y-64997795D01*
X27685569Y-64678774D01*
X27684671Y-64671356D01*
X27627526Y-64358460D01*
X27625746Y-64351212D01*
X27531424Y-64047445D01*
X27528787Y-64040465D01*
X27398654Y-63750229D01*
X27395192Y-63743607D01*
X27231135Y-63471109D01*
X27226912Y-63464964D01*
X27089635Y-63288941D01*
X27078030Y-63280606D01*
X27066505Y-63287048D01*
X25366160Y-64987393D01*
X25358668Y-65001113D01*
X24640116Y-65001113D01*
X24641332Y-64998887D01*
X24641203Y-64997081D01*
X24637021Y-64990574D01*
X22934442Y-63287995D01*
X22921714Y-63281045D01*
X22911320Y-63288584D01*
X22789288Y-63441724D01*
X22784992Y-63447837D01*
X22618089Y-63718605D01*
X22614572Y-63725163D01*
X22481401Y-64014035D01*
X22478690Y-64020989D01*
X22381190Y-64323757D01*
X22379336Y-64330978D01*
X22318916Y-64643264D01*
X22317942Y-64650664D01*
X22295477Y-64967950D01*
X22295398Y-64975399D01*
X20500500Y-64975399D01*
X20500500Y-62921580D01*
X23280334Y-62921580D01*
X23286834Y-62933281D01*
X24987393Y-64633840D01*
X25001113Y-64641332D01*
X25002919Y-64641203D01*
X25009426Y-64637021D01*
X26712231Y-62934216D01*
X26719130Y-62921581D01*
X26711459Y-62911062D01*
X26546675Y-62781156D01*
X26540552Y-62776901D01*
X26268915Y-62611417D01*
X26262317Y-62607924D01*
X25972767Y-62476274D01*
X25965796Y-62473598D01*
X25662528Y-62377686D01*
X25655290Y-62375868D01*
X25342693Y-62317085D01*
X25335291Y-62316150D01*
X25017877Y-62295345D01*
X25010446Y-62295307D01*
X24692835Y-62312786D01*
X24685415Y-62313644D01*
X24372221Y-62369152D01*
X24364972Y-62370892D01*
X24060713Y-62463622D01*
X24053717Y-62466224D01*
X23762805Y-62594835D01*
X23756165Y-62598263D01*
X23482819Y-62760886D01*
X23476641Y-62765084D01*
X23288666Y-62910107D01*
X23280334Y-62921580D01*
X20500500Y-62921580D01*
X20500500Y-59100000D01*
X33454540Y-59100000D01*
X33474326Y-59288256D01*
X33532821Y-59468284D01*
X33627467Y-59632216D01*
X33631813Y-59637043D01*
X33631814Y-59637044D01*
X33686492Y-59697770D01*
X33754129Y-59772888D01*
X33759387Y-59776708D01*
X33759388Y-59776709D01*
X33767711Y-59782756D01*
X33907270Y-59884151D01*
X34080197Y-59961144D01*
X34148637Y-59975691D01*
X34258991Y-59999148D01*
X34258996Y-59999148D01*
X34265354Y-60000500D01*
X34454646Y-60000500D01*
X34461004Y-59999148D01*
X34461009Y-59999148D01*
X34571363Y-59975691D01*
X34639803Y-59961144D01*
X34812730Y-59884151D01*
X34952289Y-59782756D01*
X34964090Y-59774182D01*
X35036975Y-59750500D01*
X38958927Y-59750500D01*
X38970596Y-59751050D01*
X38970682Y-59751058D01*
X38978296Y-59752760D01*
X38986093Y-59752515D01*
X38986094Y-59752515D01*
X39048262Y-59750561D01*
X39052157Y-59750500D01*
X39080925Y-59750500D01*
X39085302Y-59749947D01*
X39096936Y-59749032D01*
X39142569Y-59747597D01*
X39150061Y-59745420D01*
X39150063Y-59745420D01*
X39162945Y-59741677D01*
X39181992Y-59737732D01*
X39203058Y-59735071D01*
X39210309Y-59732200D01*
X39210317Y-59732198D01*
X39245508Y-59718264D01*
X39256558Y-59714480D01*
X39300398Y-59701744D01*
X39307118Y-59697770D01*
X39318670Y-59690939D01*
X39336137Y-59682381D01*
X39355871Y-59674568D01*
X39392801Y-59647737D01*
X39402565Y-59641323D01*
X39427477Y-59626590D01*
X39441865Y-59618081D01*
X39456872Y-59603074D01*
X39471668Y-59590437D01*
X39472567Y-59589784D01*
X39488837Y-59577963D01*
X39517937Y-59542787D01*
X39525800Y-59534146D01*
X43509946Y-55550000D01*
X45844540Y-55550000D01*
X45864326Y-55738256D01*
X45922821Y-55918284D01*
X46017467Y-56082216D01*
X46144129Y-56222888D01*
X46297270Y-56334151D01*
X46470197Y-56411144D01*
X46538637Y-56425691D01*
X46648991Y-56449148D01*
X46648996Y-56449148D01*
X46655354Y-56450500D01*
X46844646Y-56450500D01*
X46851004Y-56449148D01*
X46851009Y-56449148D01*
X46961363Y-56425691D01*
X47029803Y-56411144D01*
X47202730Y-56334151D01*
X47355871Y-56222888D01*
X47482533Y-56082216D01*
X47577179Y-55918284D01*
X47635674Y-55738256D01*
X47655460Y-55550000D01*
X47635674Y-55361744D01*
X47577179Y-55181716D01*
X47560575Y-55152956D01*
X47485781Y-55023410D01*
X47482533Y-55017784D01*
X47385187Y-54909670D01*
X47360220Y-54881942D01*
X47355871Y-54877112D01*
X47202730Y-54765849D01*
X47029803Y-54688856D01*
X46961363Y-54674309D01*
X46851009Y-54650852D01*
X46851004Y-54650852D01*
X46844646Y-54649500D01*
X46655354Y-54649500D01*
X46648996Y-54650852D01*
X46648991Y-54650852D01*
X46538637Y-54674309D01*
X46470197Y-54688856D01*
X46297270Y-54765849D01*
X46144129Y-54877112D01*
X46139780Y-54881942D01*
X46114814Y-54909670D01*
X46017467Y-55017784D01*
X46014219Y-55023410D01*
X45939426Y-55152956D01*
X45922821Y-55181716D01*
X45864326Y-55361744D01*
X45844540Y-55550000D01*
X43509946Y-55550000D01*
X48753203Y-50306743D01*
X48814526Y-50273258D01*
X48884218Y-50278242D01*
X48940151Y-50320114D01*
X48964568Y-50385578D01*
X48958815Y-50432741D01*
X48913503Y-50572197D01*
X48894815Y-50750000D01*
X48913503Y-50927803D01*
X48968750Y-51097835D01*
X49058141Y-51252665D01*
X49177770Y-51385526D01*
X49322407Y-51490612D01*
X49328341Y-51493254D01*
X49383825Y-51517957D01*
X49437062Y-51563207D01*
X49457384Y-51630056D01*
X49438530Y-51696606D01*
X49437490Y-51697761D01*
X49434451Y-51703025D01*
X49369216Y-51816016D01*
X49342844Y-51861693D01*
X49284349Y-52041721D01*
X49264563Y-52229977D01*
X49284349Y-52418233D01*
X49342844Y-52598261D01*
X49346091Y-52603886D01*
X49346092Y-52603887D01*
X49382939Y-52667708D01*
X49437490Y-52762193D01*
X49441836Y-52767020D01*
X49441837Y-52767021D01*
X49515785Y-52849148D01*
X49564152Y-52902865D01*
X49569410Y-52906685D01*
X49569411Y-52906686D01*
X49640723Y-52958497D01*
X49717293Y-53014128D01*
X49890220Y-53091121D01*
X49958660Y-53105668D01*
X50069014Y-53129125D01*
X50069019Y-53129125D01*
X50075377Y-53130477D01*
X50264669Y-53130477D01*
X50271027Y-53129125D01*
X50271032Y-53129125D01*
X50381386Y-53105668D01*
X50449826Y-53091121D01*
X50622753Y-53014128D01*
X50699323Y-52958497D01*
X50770635Y-52906686D01*
X50770636Y-52906685D01*
X50775894Y-52902865D01*
X50824261Y-52849148D01*
X50898209Y-52767021D01*
X50898210Y-52767020D01*
X50902556Y-52762193D01*
X50931247Y-52712499D01*
X50981812Y-52664285D01*
X51038633Y-52650500D01*
X51223312Y-52650500D01*
X51290351Y-52670185D01*
X51336106Y-52722989D01*
X51346633Y-52787461D01*
X51345315Y-52800000D01*
X51364003Y-52977803D01*
X51419250Y-53147835D01*
X51508641Y-53302665D01*
X51628270Y-53435526D01*
X51772907Y-53540612D01*
X51936233Y-53613329D01*
X51942595Y-53614681D01*
X51942594Y-53614681D01*
X52104746Y-53649148D01*
X52104751Y-53649148D01*
X52111109Y-53650500D01*
X52289891Y-53650500D01*
X52296249Y-53649148D01*
X52296254Y-53649148D01*
X52458406Y-53614681D01*
X52458405Y-53614681D01*
X52464767Y-53613329D01*
X52628093Y-53540612D01*
X52719525Y-53474182D01*
X52785331Y-53450702D01*
X52792411Y-53450500D01*
X56008089Y-53450500D01*
X56075128Y-53470185D01*
X56080975Y-53474182D01*
X56172407Y-53540612D01*
X56335733Y-53613329D01*
X56342095Y-53614681D01*
X56342094Y-53614681D01*
X56504246Y-53649148D01*
X56504251Y-53649148D01*
X56510609Y-53650500D01*
X56689391Y-53650500D01*
X56695749Y-53649148D01*
X56695754Y-53649148D01*
X56857906Y-53614681D01*
X56857905Y-53614681D01*
X56864267Y-53613329D01*
X57027593Y-53540612D01*
X57172230Y-53435526D01*
X57291859Y-53302665D01*
X57381250Y-53147835D01*
X57436497Y-52977803D01*
X57455185Y-52800000D01*
X57453867Y-52787461D01*
X57466436Y-52718733D01*
X57514168Y-52667708D01*
X57577188Y-52650500D01*
X59408089Y-52650500D01*
X59475128Y-52670185D01*
X59480975Y-52674182D01*
X59548151Y-52722989D01*
X59572407Y-52740612D01*
X59578341Y-52743254D01*
X59720305Y-52806460D01*
X59735733Y-52813329D01*
X59742095Y-52814681D01*
X59742094Y-52814681D01*
X59904246Y-52849148D01*
X59904251Y-52849148D01*
X59910609Y-52850500D01*
X60089391Y-52850500D01*
X60095749Y-52849148D01*
X60095754Y-52849148D01*
X60257906Y-52814681D01*
X60257905Y-52814681D01*
X60264267Y-52813329D01*
X60279696Y-52806460D01*
X60421659Y-52743254D01*
X60427593Y-52740612D01*
X60572230Y-52635526D01*
X60680613Y-52515155D01*
X60687512Y-52507493D01*
X60687513Y-52507492D01*
X60691859Y-52502665D01*
X60744336Y-52411772D01*
X60778002Y-52353461D01*
X60778003Y-52353460D01*
X60781250Y-52347835D01*
X60836497Y-52177803D01*
X60855185Y-52000000D01*
X60836497Y-51822197D01*
X60828851Y-51798663D01*
X60787676Y-51671942D01*
X60781250Y-51652165D01*
X60768486Y-51630056D01*
X60725642Y-51555849D01*
X60691859Y-51497335D01*
X60675221Y-51478856D01*
X60614252Y-51411144D01*
X60572230Y-51364474D01*
X60427593Y-51259388D01*
X60399857Y-51247039D01*
X60270206Y-51189315D01*
X60270204Y-51189314D01*
X60264267Y-51186671D01*
X60237651Y-51181014D01*
X60095754Y-51150852D01*
X60095749Y-51150852D01*
X60089391Y-51149500D01*
X59910609Y-51149500D01*
X59904251Y-51150852D01*
X59904246Y-51150852D01*
X59762349Y-51181014D01*
X59735733Y-51186671D01*
X59572408Y-51259388D01*
X59567153Y-51263206D01*
X59567148Y-51263209D01*
X59480974Y-51325818D01*
X59415168Y-51349298D01*
X59408089Y-51349500D01*
X51320808Y-51349500D01*
X51253769Y-51329815D01*
X51233127Y-51313181D01*
X50628629Y-50708683D01*
X50595144Y-50647360D01*
X50592989Y-50633964D01*
X50587176Y-50578658D01*
X50586497Y-50572197D01*
X50531250Y-50402165D01*
X50441859Y-50247335D01*
X50322230Y-50114474D01*
X50177593Y-50009388D01*
X50086958Y-49969035D01*
X50020206Y-49939315D01*
X50020204Y-49939314D01*
X50014267Y-49936671D01*
X49987651Y-49931014D01*
X49845754Y-49900852D01*
X49845749Y-49900852D01*
X49839391Y-49899500D01*
X49660609Y-49899500D01*
X49654251Y-49900852D01*
X49654246Y-49900852D01*
X49512349Y-49931014D01*
X49485733Y-49936671D01*
X49479796Y-49939314D01*
X49479794Y-49939315D01*
X49443588Y-49955435D01*
X49374338Y-49964719D01*
X49311062Y-49935090D01*
X49273849Y-49875955D01*
X49274514Y-49806089D01*
X49305472Y-49754474D01*
X49862647Y-49197299D01*
X49871288Y-49189436D01*
X49871353Y-49189382D01*
X49877940Y-49185202D01*
X49925865Y-49134167D01*
X49928576Y-49131370D01*
X49948911Y-49111035D01*
X49951609Y-49107556D01*
X49959197Y-49098672D01*
X49990448Y-49065393D01*
X49994200Y-49058567D01*
X49994205Y-49058561D01*
X50000674Y-49046793D01*
X50011357Y-49030531D01*
X50019581Y-49019929D01*
X50019585Y-49019923D01*
X50024362Y-49013764D01*
X50042492Y-48971869D01*
X50047631Y-48961379D01*
X50065868Y-48928206D01*
X50065869Y-48928205D01*
X50069627Y-48921368D01*
X50074906Y-48900807D01*
X50081206Y-48882406D01*
X50089635Y-48862927D01*
X50090855Y-48855224D01*
X50090857Y-48855217D01*
X50096777Y-48817839D01*
X50099146Y-48806398D01*
X50108560Y-48769735D01*
X50108561Y-48769730D01*
X50110500Y-48762177D01*
X50110500Y-48740948D01*
X50112027Y-48721550D01*
X50114125Y-48708304D01*
X50115346Y-48700595D01*
X50111050Y-48655147D01*
X50110500Y-48643478D01*
X50110500Y-48400000D01*
X64694540Y-48400000D01*
X64714326Y-48588256D01*
X64772821Y-48768284D01*
X64776068Y-48773909D01*
X64776069Y-48773910D01*
X64820144Y-48850250D01*
X64867467Y-48932216D01*
X64871813Y-48937043D01*
X64871814Y-48937044D01*
X64898339Y-48966503D01*
X64994129Y-49072888D01*
X65147270Y-49184151D01*
X65153206Y-49186794D01*
X65153208Y-49186795D01*
X65205221Y-49209953D01*
X65320197Y-49261144D01*
X65388637Y-49275691D01*
X65498991Y-49299148D01*
X65498996Y-49299148D01*
X65505354Y-49300500D01*
X65694646Y-49300500D01*
X65701004Y-49299148D01*
X65701009Y-49299148D01*
X65811363Y-49275691D01*
X65879803Y-49261144D01*
X65994779Y-49209953D01*
X66046792Y-49186795D01*
X66046794Y-49186794D01*
X66052730Y-49184151D01*
X66205871Y-49072888D01*
X66301661Y-48966503D01*
X66328186Y-48937044D01*
X66328187Y-48937043D01*
X66332533Y-48932216D01*
X66379856Y-48850250D01*
X66423931Y-48773910D01*
X66423932Y-48773909D01*
X66427179Y-48768284D01*
X66485674Y-48588256D01*
X66505460Y-48400000D01*
X66485674Y-48211744D01*
X66427179Y-48031716D01*
X66410407Y-48002665D01*
X66335781Y-47873410D01*
X66332533Y-47867784D01*
X66319637Y-47853461D01*
X66210220Y-47731942D01*
X66205871Y-47727112D01*
X66052730Y-47615849D01*
X66038583Y-47609550D01*
X65953555Y-47571693D01*
X65879803Y-47538856D01*
X65796253Y-47521097D01*
X65701009Y-47500852D01*
X65701004Y-47500852D01*
X65694646Y-47499500D01*
X65505354Y-47499500D01*
X65498996Y-47500852D01*
X65498991Y-47500852D01*
X65403747Y-47521097D01*
X65320197Y-47538856D01*
X65246445Y-47571693D01*
X65161418Y-47609550D01*
X65147270Y-47615849D01*
X64994129Y-47727112D01*
X64989780Y-47731942D01*
X64880364Y-47853461D01*
X64867467Y-47867784D01*
X64864219Y-47873410D01*
X64789594Y-48002665D01*
X64772821Y-48031716D01*
X64714326Y-48211744D01*
X64694540Y-48400000D01*
X50110500Y-48400000D01*
X50110500Y-47091072D01*
X50111050Y-47079403D01*
X50111058Y-47079317D01*
X50112760Y-47071703D01*
X50110561Y-47001737D01*
X50110500Y-46997842D01*
X50110500Y-46969075D01*
X50109947Y-46964700D01*
X50109031Y-46953056D01*
X50107842Y-46915228D01*
X50107597Y-46907430D01*
X50101674Y-46887043D01*
X50097731Y-46867999D01*
X50096049Y-46854682D01*
X50096048Y-46854680D01*
X50095071Y-46846942D01*
X50092200Y-46839691D01*
X50092199Y-46839686D01*
X50078265Y-46804493D01*
X50074481Y-46793441D01*
X50063921Y-46757092D01*
X50063919Y-46757088D01*
X50061744Y-46749601D01*
X50050938Y-46731329D01*
X50042380Y-46713860D01*
X50037437Y-46701376D01*
X50034568Y-46694129D01*
X50007734Y-46657195D01*
X50001333Y-46647451D01*
X49978081Y-46608135D01*
X49963074Y-46593128D01*
X49950437Y-46578332D01*
X49949784Y-46577433D01*
X49939435Y-46563189D01*
X67119426Y-46563189D01*
X67141315Y-46654016D01*
X67145142Y-46665129D01*
X67227134Y-46845459D01*
X67232990Y-46855644D01*
X67347604Y-47017221D01*
X67355277Y-47026110D01*
X67498376Y-47163097D01*
X67507605Y-47170386D01*
X67674012Y-47277834D01*
X67684458Y-47283249D01*
X67868182Y-47357291D01*
X67879460Y-47360632D01*
X68075290Y-47398874D01*
X68084015Y-47399934D01*
X68086704Y-47400000D01*
X68269670Y-47400000D01*
X68284669Y-47395596D01*
X68285856Y-47394226D01*
X68287500Y-47386668D01*
X68287500Y-46567830D01*
X68283096Y-46552831D01*
X68281726Y-46551644D01*
X68274168Y-46550000D01*
X67134077Y-46550000D01*
X67120760Y-46553910D01*
X67119426Y-46563189D01*
X49939435Y-46563189D01*
X49937963Y-46561163D01*
X49902787Y-46532063D01*
X49894146Y-46524200D01*
X49694100Y-46324154D01*
X65172160Y-46324154D01*
X65181307Y-46335978D01*
X65218221Y-46361825D01*
X65227571Y-46367223D01*
X65412019Y-46453232D01*
X65422152Y-46456921D01*
X65618745Y-46509598D01*
X65629356Y-46511468D01*
X65832105Y-46529207D01*
X65842895Y-46529207D01*
X66045644Y-46511468D01*
X66056255Y-46509598D01*
X66252848Y-46456921D01*
X66262981Y-46453232D01*
X66447429Y-46367223D01*
X66456779Y-46361825D01*
X66494517Y-46335401D01*
X66502759Y-46325090D01*
X66495803Y-46311857D01*
X65850107Y-45666160D01*
X65836387Y-45658668D01*
X65834582Y-45658797D01*
X65828073Y-45662980D01*
X65178486Y-46312568D01*
X65172160Y-46324154D01*
X49694100Y-46324154D01*
X49676819Y-46306873D01*
X49643334Y-46245550D01*
X49640500Y-46219192D01*
X49640500Y-45980922D01*
X49660185Y-45913883D01*
X49672350Y-45897950D01*
X49718186Y-45847044D01*
X49718187Y-45847043D01*
X49722533Y-45842216D01*
X49817179Y-45678284D01*
X49875674Y-45498256D01*
X49895460Y-45310000D01*
X49894976Y-45305395D01*
X64608293Y-45305395D01*
X64626032Y-45508144D01*
X64627902Y-45518755D01*
X64680579Y-45715348D01*
X64684268Y-45725481D01*
X64770278Y-45909931D01*
X64775674Y-45919277D01*
X64802100Y-45957015D01*
X64812411Y-45965258D01*
X64825644Y-45958302D01*
X65471340Y-45312607D01*
X65477616Y-45301113D01*
X66196168Y-45301113D01*
X66196297Y-45302918D01*
X66200480Y-45309427D01*
X66850067Y-45959013D01*
X66861653Y-45965340D01*
X66873476Y-45956193D01*
X66896154Y-45923805D01*
X66950731Y-45880180D01*
X67020229Y-45872986D01*
X67082584Y-45904509D01*
X67117998Y-45964739D01*
X67115274Y-46026495D01*
X67117269Y-46026981D01*
X67115224Y-46035370D01*
X67116750Y-46046071D01*
X67130102Y-46050000D01*
X68269670Y-46050000D01*
X68284669Y-46045596D01*
X68285856Y-46044226D01*
X68287500Y-46036668D01*
X68287500Y-45217830D01*
X68283096Y-45202831D01*
X68281726Y-45201644D01*
X68274168Y-45200000D01*
X68138014Y-45200000D01*
X68132101Y-45200282D01*
X67984429Y-45214371D01*
X67972886Y-45216593D01*
X67782795Y-45272359D01*
X67771892Y-45276721D01*
X67595785Y-45367422D01*
X67585887Y-45373775D01*
X67430107Y-45496143D01*
X67421602Y-45504242D01*
X67291769Y-45653862D01*
X67284939Y-45663436D01*
X67239742Y-45741563D01*
X67189133Y-45789735D01*
X67120515Y-45802898D01*
X67055672Y-45776874D01*
X67015194Y-45719924D01*
X67012634Y-45647377D01*
X67047097Y-45518758D01*
X67048968Y-45508144D01*
X67066707Y-45305395D01*
X67066707Y-45294605D01*
X67048968Y-45091856D01*
X67047098Y-45081245D01*
X66994421Y-44884652D01*
X66990732Y-44874519D01*
X66904722Y-44690069D01*
X66899326Y-44680723D01*
X66872900Y-44642985D01*
X66862589Y-44634742D01*
X66849356Y-44641698D01*
X66203660Y-45287393D01*
X66196168Y-45301113D01*
X65477616Y-45301113D01*
X65478832Y-45298887D01*
X65478703Y-45297082D01*
X65474520Y-45290573D01*
X64824933Y-44640987D01*
X64813347Y-44634660D01*
X64801523Y-44643808D01*
X64775674Y-44680723D01*
X64770278Y-44690069D01*
X64684268Y-44874519D01*
X64680579Y-44884652D01*
X64627902Y-45081245D01*
X64626032Y-45091856D01*
X64608293Y-45294605D01*
X64608293Y-45305395D01*
X49894976Y-45305395D01*
X49875674Y-45121744D01*
X49817179Y-44941716D01*
X49722533Y-44777784D01*
X49703463Y-44756604D01*
X49600220Y-44641942D01*
X49595871Y-44637112D01*
X49442730Y-44525849D01*
X49269803Y-44448856D01*
X49179718Y-44429708D01*
X49091009Y-44410852D01*
X49091004Y-44410852D01*
X49084646Y-44409500D01*
X48895354Y-44409500D01*
X48888996Y-44410852D01*
X48888991Y-44410852D01*
X48800281Y-44429708D01*
X48730613Y-44424392D01*
X48674880Y-44382255D01*
X48650775Y-44316675D01*
X48650500Y-44308418D01*
X48650500Y-44274911D01*
X65172242Y-44274911D01*
X65179198Y-44288144D01*
X65824893Y-44933840D01*
X65838613Y-44941332D01*
X65840418Y-44941203D01*
X65846927Y-44937020D01*
X66496514Y-44287432D01*
X66502840Y-44275846D01*
X66493693Y-44264022D01*
X66456779Y-44238175D01*
X66447429Y-44232777D01*
X66262981Y-44146768D01*
X66252848Y-44143079D01*
X66056255Y-44090402D01*
X66045644Y-44088532D01*
X65842895Y-44070793D01*
X65832105Y-44070793D01*
X65629356Y-44088532D01*
X65618745Y-44090402D01*
X65422152Y-44143079D01*
X65412019Y-44146768D01*
X65227569Y-44232778D01*
X65218223Y-44238174D01*
X65180485Y-44264600D01*
X65172242Y-44274911D01*
X48650500Y-44274911D01*
X48650500Y-41820808D01*
X48670185Y-41753769D01*
X48686819Y-41733127D01*
X49095792Y-41324154D01*
X65172160Y-41324154D01*
X65181307Y-41335978D01*
X65218221Y-41361825D01*
X65227571Y-41367223D01*
X65412019Y-41453232D01*
X65422152Y-41456921D01*
X65618745Y-41509598D01*
X65629356Y-41511468D01*
X65832105Y-41529207D01*
X65842895Y-41529207D01*
X66045644Y-41511468D01*
X66056255Y-41509598D01*
X66252848Y-41456921D01*
X66262981Y-41453232D01*
X66447429Y-41367223D01*
X66456779Y-41361825D01*
X66494517Y-41335401D01*
X66502759Y-41325090D01*
X66495803Y-41311857D01*
X65850107Y-40666160D01*
X65836387Y-40658668D01*
X65834582Y-40658797D01*
X65828073Y-40662980D01*
X65178486Y-41312568D01*
X65172160Y-41324154D01*
X49095792Y-41324154D01*
X50533127Y-39886819D01*
X50594450Y-39853334D01*
X50620808Y-39850500D01*
X50708877Y-39850500D01*
X50720546Y-39851050D01*
X50720632Y-39851058D01*
X50728246Y-39852760D01*
X50736043Y-39852515D01*
X50736044Y-39852515D01*
X50798212Y-39850561D01*
X50802107Y-39850500D01*
X50830875Y-39850500D01*
X50835252Y-39849947D01*
X50846886Y-39849032D01*
X50892519Y-39847597D01*
X50900011Y-39845420D01*
X50900013Y-39845420D01*
X50912895Y-39841677D01*
X50931942Y-39837732D01*
X50953008Y-39835071D01*
X50960259Y-39832200D01*
X50960267Y-39832198D01*
X50995458Y-39818264D01*
X51006508Y-39814480D01*
X51050348Y-39801744D01*
X51057068Y-39797770D01*
X51068620Y-39790939D01*
X51086087Y-39782381D01*
X51105821Y-39774568D01*
X51142751Y-39747737D01*
X51152515Y-39741323D01*
X51180910Y-39724530D01*
X51191815Y-39718081D01*
X51206822Y-39703074D01*
X51221618Y-39690437D01*
X51222517Y-39689784D01*
X51238787Y-39677963D01*
X51267887Y-39642787D01*
X51275750Y-39634146D01*
X51544235Y-39365661D01*
X51605558Y-39332176D01*
X51675250Y-39337160D01*
X51682351Y-39340062D01*
X51735733Y-39363829D01*
X51742095Y-39365181D01*
X51742094Y-39365181D01*
X51904246Y-39399648D01*
X51904251Y-39399648D01*
X51910609Y-39401000D01*
X52089391Y-39401000D01*
X52095749Y-39399648D01*
X52095754Y-39399648D01*
X52257906Y-39365181D01*
X52257905Y-39365181D01*
X52264267Y-39363829D01*
X52427593Y-39291112D01*
X52432845Y-39287296D01*
X52438002Y-39284319D01*
X52505902Y-39267848D01*
X52561998Y-39284319D01*
X52567155Y-39287296D01*
X52572407Y-39291112D01*
X52735733Y-39363829D01*
X52742095Y-39365181D01*
X52742094Y-39365181D01*
X52904246Y-39399648D01*
X52904251Y-39399648D01*
X52910609Y-39401000D01*
X53089391Y-39401000D01*
X53095749Y-39399648D01*
X53095754Y-39399648D01*
X53160663Y-39385851D01*
X53230331Y-39391167D01*
X53286064Y-39433304D01*
X53310169Y-39498884D01*
X53294992Y-39567086D01*
X53259329Y-39607459D01*
X53123133Y-39706411D01*
X53123128Y-39706415D01*
X53117875Y-39710232D01*
X53087202Y-39744298D01*
X53010202Y-39829815D01*
X52998246Y-39843093D01*
X52908855Y-39997923D01*
X52894486Y-40042147D01*
X52862583Y-40140334D01*
X52853608Y-40167955D01*
X52834920Y-40345758D01*
X52853608Y-40523561D01*
X52908855Y-40693593D01*
X52912102Y-40699218D01*
X52912103Y-40699219D01*
X52927478Y-40725849D01*
X52998246Y-40848423D01*
X53117875Y-40981284D01*
X53262512Y-41086370D01*
X53268446Y-41089012D01*
X53407005Y-41150702D01*
X53425838Y-41159087D01*
X53432200Y-41160439D01*
X53432199Y-41160439D01*
X53594351Y-41194906D01*
X53594356Y-41194906D01*
X53600714Y-41196258D01*
X53779496Y-41196258D01*
X53785854Y-41194906D01*
X53785859Y-41194906D01*
X53948011Y-41160439D01*
X53948010Y-41160439D01*
X53954372Y-41159087D01*
X53973206Y-41150702D01*
X54111764Y-41089012D01*
X54117698Y-41086370D01*
X54262335Y-40981284D01*
X54381964Y-40848423D01*
X54452732Y-40725849D01*
X54468107Y-40699219D01*
X54468108Y-40699218D01*
X54471355Y-40693593D01*
X54526602Y-40523561D01*
X54545290Y-40345758D01*
X54541048Y-40305395D01*
X64608293Y-40305395D01*
X64626032Y-40508144D01*
X64627902Y-40518755D01*
X64680579Y-40715348D01*
X64684268Y-40725481D01*
X64770278Y-40909931D01*
X64775674Y-40919277D01*
X64802100Y-40957015D01*
X64812411Y-40965258D01*
X64825644Y-40958302D01*
X65471340Y-40312607D01*
X65477616Y-40301113D01*
X66196168Y-40301113D01*
X66196297Y-40302918D01*
X66200480Y-40309427D01*
X66850067Y-40959013D01*
X66861653Y-40965340D01*
X66873477Y-40956192D01*
X66899326Y-40919277D01*
X66904722Y-40909931D01*
X66990732Y-40725481D01*
X66994421Y-40715348D01*
X67047098Y-40518755D01*
X67048968Y-40508144D01*
X67066707Y-40305395D01*
X67066707Y-40294605D01*
X67048968Y-40091856D01*
X67047098Y-40081245D01*
X67015924Y-39964905D01*
X67017587Y-39895055D01*
X67056749Y-39837192D01*
X67120978Y-39809688D01*
X67189880Y-39821274D01*
X67236838Y-39861068D01*
X67347608Y-40017226D01*
X67355277Y-40026110D01*
X67498376Y-40163097D01*
X67507605Y-40170386D01*
X67674012Y-40277834D01*
X67684458Y-40283249D01*
X67868182Y-40357291D01*
X67879460Y-40360632D01*
X68075290Y-40398874D01*
X68084015Y-40399934D01*
X68086704Y-40400000D01*
X68269670Y-40400000D01*
X68284669Y-40395596D01*
X68285856Y-40394226D01*
X68287500Y-40386668D01*
X68287500Y-39567830D01*
X68283096Y-39552831D01*
X68281726Y-39551644D01*
X68274168Y-39550000D01*
X67134077Y-39550000D01*
X67120760Y-39553910D01*
X67119425Y-39563191D01*
X67124765Y-39585347D01*
X67121336Y-39655132D01*
X67080723Y-39711985D01*
X67015819Y-39737856D01*
X66947232Y-39724530D01*
X66904472Y-39683733D01*
X66902433Y-39685161D01*
X66872900Y-39642985D01*
X66862589Y-39634742D01*
X66849356Y-39641698D01*
X66203660Y-40287393D01*
X66196168Y-40301113D01*
X65477616Y-40301113D01*
X65478832Y-40298887D01*
X65478703Y-40297082D01*
X65474520Y-40290573D01*
X64824933Y-39640987D01*
X64813347Y-39634660D01*
X64801523Y-39643808D01*
X64775674Y-39680723D01*
X64770278Y-39690069D01*
X64684268Y-39874519D01*
X64680579Y-39884652D01*
X64627902Y-40081245D01*
X64626032Y-40091856D01*
X64608293Y-40294605D01*
X64608293Y-40305395D01*
X54541048Y-40305395D01*
X54526602Y-40167955D01*
X54517628Y-40140334D01*
X54485724Y-40042147D01*
X54471355Y-39997923D01*
X54381964Y-39843093D01*
X54370009Y-39829815D01*
X54293008Y-39744298D01*
X54262335Y-39710232D01*
X54117698Y-39605146D01*
X54087401Y-39591657D01*
X53960311Y-39535073D01*
X53960309Y-39535072D01*
X53954372Y-39532429D01*
X53927756Y-39526772D01*
X53785859Y-39496610D01*
X53785854Y-39496610D01*
X53779496Y-39495258D01*
X53600714Y-39495258D01*
X53594356Y-39496610D01*
X53594351Y-39496610D01*
X53541287Y-39507890D01*
X53529444Y-39510407D01*
X53459777Y-39505091D01*
X53404043Y-39462954D01*
X53379938Y-39397374D01*
X53395115Y-39329173D01*
X53430777Y-39288799D01*
X53449892Y-39274911D01*
X65172242Y-39274911D01*
X65179198Y-39288144D01*
X65824893Y-39933840D01*
X65838613Y-39941332D01*
X65840418Y-39941203D01*
X65846927Y-39937020D01*
X66496514Y-39287432D01*
X66502840Y-39275846D01*
X66493693Y-39264022D01*
X66456779Y-39238175D01*
X66447429Y-39232777D01*
X66262981Y-39146768D01*
X66252848Y-39143079D01*
X66056255Y-39090402D01*
X66045644Y-39088532D01*
X65842895Y-39070793D01*
X65832105Y-39070793D01*
X65629356Y-39088532D01*
X65618745Y-39090402D01*
X65422152Y-39143079D01*
X65412019Y-39146768D01*
X65227569Y-39232778D01*
X65218223Y-39238174D01*
X65180485Y-39264600D01*
X65172242Y-39274911D01*
X53449892Y-39274911D01*
X53566976Y-39189843D01*
X53572230Y-39186026D01*
X53668905Y-39078658D01*
X53687512Y-39057993D01*
X53687513Y-39057992D01*
X53691859Y-39053165D01*
X53781250Y-38898335D01*
X53827013Y-38757493D01*
X53834489Y-38734484D01*
X53834490Y-38734481D01*
X53836497Y-38728303D01*
X53855185Y-38550500D01*
X53836497Y-38372697D01*
X53826412Y-38341657D01*
X53796630Y-38250000D01*
X53781250Y-38202665D01*
X53691859Y-38047835D01*
X53674045Y-38028050D01*
X53576577Y-37919802D01*
X53572230Y-37914974D01*
X53427593Y-37809888D01*
X53421657Y-37807245D01*
X53270206Y-37739815D01*
X53270204Y-37739814D01*
X53264267Y-37737171D01*
X53237651Y-37731514D01*
X53095754Y-37701352D01*
X53095749Y-37701352D01*
X53089391Y-37700000D01*
X52910609Y-37700000D01*
X52904251Y-37701352D01*
X52904246Y-37701352D01*
X52762349Y-37731514D01*
X52735733Y-37737171D01*
X52572408Y-37809888D01*
X52567149Y-37813709D01*
X52562003Y-37816680D01*
X52494103Y-37833154D01*
X52438001Y-37816681D01*
X52432848Y-37813706D01*
X52427593Y-37809888D01*
X52421657Y-37807245D01*
X52270206Y-37739815D01*
X52270204Y-37739814D01*
X52264267Y-37737171D01*
X52237651Y-37731514D01*
X52095754Y-37701352D01*
X52095749Y-37701352D01*
X52089391Y-37700000D01*
X51910609Y-37700000D01*
X51904251Y-37701352D01*
X51904246Y-37701352D01*
X51762349Y-37731514D01*
X51735733Y-37737171D01*
X51572408Y-37809888D01*
X51492698Y-37867801D01*
X51480975Y-37876318D01*
X51415169Y-37899798D01*
X51408090Y-37900000D01*
X51398525Y-37900000D01*
X51394154Y-37900552D01*
X51382522Y-37901467D01*
X51352188Y-37902421D01*
X51344673Y-37902657D01*
X51344672Y-37902657D01*
X51336881Y-37902902D01*
X51329396Y-37905077D01*
X51329387Y-37905078D01*
X51316492Y-37908824D01*
X51297446Y-37912769D01*
X51295911Y-37912963D01*
X51276392Y-37915429D01*
X51258374Y-37922563D01*
X51239838Y-37929902D01*
X51170260Y-37936279D01*
X51108280Y-37904027D01*
X51102049Y-37897591D01*
X51072230Y-37864474D01*
X50927593Y-37759388D01*
X50891355Y-37743254D01*
X50770206Y-37689315D01*
X50770204Y-37689314D01*
X50764267Y-37686671D01*
X50705511Y-37674182D01*
X50595754Y-37650852D01*
X50595749Y-37650852D01*
X50589391Y-37649500D01*
X50410609Y-37649500D01*
X50404251Y-37650852D01*
X50404246Y-37650852D01*
X50294489Y-37674182D01*
X50235733Y-37686671D01*
X50072408Y-37759388D01*
X50067153Y-37763206D01*
X50067148Y-37763209D01*
X49977368Y-37828438D01*
X49912870Y-37850521D01*
X49912936Y-37850937D01*
X49910552Y-37851315D01*
X49908378Y-37852059D01*
X49897430Y-37852403D01*
X49877043Y-37858326D01*
X49857999Y-37862269D01*
X49844682Y-37863951D01*
X49844680Y-37863952D01*
X49836942Y-37864929D01*
X49829691Y-37867800D01*
X49829686Y-37867801D01*
X49794493Y-37881735D01*
X49783441Y-37885519D01*
X49747092Y-37896079D01*
X49747088Y-37896081D01*
X49739601Y-37898256D01*
X49721732Y-37908824D01*
X49721331Y-37909061D01*
X49703861Y-37917619D01*
X49684129Y-37925432D01*
X49677822Y-37930015D01*
X49677819Y-37930016D01*
X49671806Y-37934385D01*
X49647195Y-37952266D01*
X49637451Y-37958667D01*
X49598135Y-37981919D01*
X49583128Y-37996926D01*
X49568332Y-38009563D01*
X49551163Y-38022037D01*
X49546189Y-38028050D01*
X49522063Y-38057213D01*
X49514200Y-38065854D01*
X46847353Y-40732701D01*
X46838712Y-40740564D01*
X46838647Y-40740618D01*
X46832060Y-40744798D01*
X46826722Y-40750482D01*
X46826720Y-40750484D01*
X46784135Y-40795833D01*
X46781424Y-40798630D01*
X46761089Y-40818965D01*
X46758706Y-40822037D01*
X46758392Y-40822442D01*
X46750805Y-40831325D01*
X46719552Y-40864607D01*
X46715800Y-40871433D01*
X46715795Y-40871439D01*
X46709326Y-40883207D01*
X46698643Y-40899469D01*
X46690424Y-40910065D01*
X46690421Y-40910069D01*
X46685638Y-40916236D01*
X46673198Y-40944983D01*
X46667510Y-40958128D01*
X46662370Y-40968621D01*
X46640373Y-41008632D01*
X46638435Y-41016181D01*
X46638432Y-41016188D01*
X46635092Y-41029198D01*
X46628791Y-41047602D01*
X46620365Y-41067074D01*
X46619145Y-41074777D01*
X46619144Y-41074780D01*
X46613223Y-41112163D01*
X46610854Y-41123601D01*
X46599500Y-41167823D01*
X46599500Y-41189046D01*
X46597973Y-41208444D01*
X46594653Y-41229405D01*
X46595387Y-41237170D01*
X46595387Y-41237172D01*
X46598950Y-41274860D01*
X46599500Y-41286530D01*
X46599500Y-46903802D01*
X46579815Y-46970841D01*
X46567651Y-46986773D01*
X46558141Y-46997335D01*
X46468750Y-47152165D01*
X46413503Y-47322197D01*
X46394815Y-47500000D01*
X46413503Y-47677803D01*
X46415510Y-47683981D01*
X46415511Y-47683984D01*
X46431094Y-47731942D01*
X46468750Y-47847835D01*
X46471997Y-47853460D01*
X46471998Y-47853461D01*
X46483516Y-47873410D01*
X46558141Y-48002665D01*
X46677770Y-48135526D01*
X46822407Y-48240612D01*
X46828341Y-48243254D01*
X46940500Y-48293190D01*
X46985733Y-48313329D01*
X46992095Y-48314681D01*
X46992094Y-48314681D01*
X47154246Y-48349148D01*
X47154251Y-48349148D01*
X47160609Y-48350500D01*
X47339391Y-48350500D01*
X47345749Y-48349148D01*
X47345754Y-48349148D01*
X47507906Y-48314681D01*
X47507905Y-48314681D01*
X47514267Y-48313329D01*
X47559501Y-48293190D01*
X47671659Y-48243254D01*
X47677593Y-48240612D01*
X47802115Y-48150141D01*
X47867920Y-48126661D01*
X47935974Y-48142486D01*
X47947883Y-48150139D01*
X48072407Y-48240612D01*
X48078341Y-48243254D01*
X48190500Y-48293190D01*
X48235733Y-48313329D01*
X48242095Y-48314681D01*
X48242094Y-48314681D01*
X48404246Y-48349148D01*
X48404251Y-48349148D01*
X48410609Y-48350500D01*
X48570192Y-48350500D01*
X48637231Y-48370185D01*
X48682986Y-48422989D01*
X48692930Y-48492147D01*
X48663905Y-48555703D01*
X48657873Y-48562181D01*
X44698499Y-52521555D01*
X44637176Y-52555040D01*
X44567484Y-52550056D01*
X44511551Y-52508184D01*
X44487134Y-52442720D01*
X44487497Y-52420913D01*
X44504781Y-52256460D01*
X44505460Y-52250000D01*
X44485674Y-52061744D01*
X44427179Y-51881716D01*
X44332533Y-51717784D01*
X44205871Y-51577112D01*
X44052730Y-51465849D01*
X44015220Y-51449148D01*
X43993550Y-51439500D01*
X43879803Y-51388856D01*
X43787808Y-51369302D01*
X43701009Y-51350852D01*
X43701004Y-51350852D01*
X43694646Y-51349500D01*
X43505354Y-51349500D01*
X43498996Y-51350852D01*
X43498991Y-51350852D01*
X43412192Y-51369302D01*
X43320197Y-51388856D01*
X43206450Y-51439500D01*
X43184781Y-51449148D01*
X43147270Y-51465849D01*
X42994129Y-51577112D01*
X42867467Y-51717784D01*
X42772821Y-51881716D01*
X42714326Y-52061744D01*
X42694540Y-52250000D01*
X42714326Y-52438256D01*
X42772821Y-52618284D01*
X42867467Y-52782216D01*
X42994129Y-52922888D01*
X43147270Y-53034151D01*
X43320197Y-53111144D01*
X43381391Y-53124151D01*
X43498991Y-53149148D01*
X43498996Y-53149148D01*
X43505354Y-53150500D01*
X43694646Y-53150500D01*
X43701004Y-53149148D01*
X43701009Y-53149148D01*
X43736278Y-53141651D01*
X43761287Y-53136335D01*
X43830953Y-53141651D01*
X43886686Y-53183788D01*
X43910792Y-53249367D01*
X43895615Y-53317569D01*
X43874748Y-53345306D01*
X38806873Y-58413181D01*
X38745550Y-58446666D01*
X38719192Y-58449500D01*
X35036975Y-58449500D01*
X34964090Y-58425818D01*
X34817989Y-58319670D01*
X34817990Y-58319670D01*
X34812730Y-58315849D01*
X34639803Y-58238856D01*
X34571363Y-58224309D01*
X34461009Y-58200852D01*
X34461004Y-58200852D01*
X34454646Y-58199500D01*
X34265354Y-58199500D01*
X34258996Y-58200852D01*
X34258991Y-58200852D01*
X34148637Y-58224309D01*
X34080197Y-58238856D01*
X33907270Y-58315849D01*
X33902010Y-58319670D01*
X33902011Y-58319670D01*
X33787778Y-58402665D01*
X33754129Y-58427112D01*
X33749780Y-58431942D01*
X33663888Y-58527335D01*
X33627467Y-58567784D01*
X33532821Y-58731716D01*
X33474326Y-58911744D01*
X33454540Y-59100000D01*
X20500500Y-59100000D01*
X20500500Y-55690000D01*
X33454540Y-55690000D01*
X33474326Y-55878256D01*
X33532821Y-56058284D01*
X33536068Y-56063909D01*
X33536069Y-56063910D01*
X33580144Y-56140250D01*
X33627467Y-56222216D01*
X33631813Y-56227043D01*
X33631814Y-56227044D01*
X33728254Y-56334151D01*
X33754129Y-56362888D01*
X33907270Y-56474151D01*
X34080197Y-56551144D01*
X34148637Y-56565691D01*
X34258991Y-56589148D01*
X34258996Y-56589148D01*
X34265354Y-56590500D01*
X34454646Y-56590500D01*
X34461004Y-56589148D01*
X34461009Y-56589148D01*
X34571363Y-56565691D01*
X34639803Y-56551144D01*
X34812730Y-56474151D01*
X34965871Y-56362888D01*
X34991746Y-56334151D01*
X35088186Y-56227044D01*
X35088187Y-56227043D01*
X35092533Y-56222216D01*
X35139856Y-56140250D01*
X35183931Y-56063910D01*
X35183932Y-56063909D01*
X35187179Y-56058284D01*
X35232668Y-55918284D01*
X35243666Y-55884437D01*
X35243667Y-55884434D01*
X35245674Y-55878256D01*
X35246353Y-55871795D01*
X35247705Y-55865435D01*
X35249145Y-55865741D01*
X35272833Y-55808162D01*
X35281890Y-55798056D01*
X36879946Y-54200000D01*
X38144540Y-54200000D01*
X38164326Y-54388256D01*
X38222821Y-54568284D01*
X38317467Y-54732216D01*
X38321813Y-54737043D01*
X38321814Y-54737044D01*
X38366494Y-54786666D01*
X38444129Y-54872888D01*
X38597270Y-54984151D01*
X38770197Y-55061144D01*
X38837648Y-55075481D01*
X38948991Y-55099148D01*
X38948996Y-55099148D01*
X38955354Y-55100500D01*
X39144646Y-55100500D01*
X39151004Y-55099148D01*
X39151009Y-55099148D01*
X39262352Y-55075481D01*
X39329803Y-55061144D01*
X39502730Y-54984151D01*
X39655871Y-54872888D01*
X39733506Y-54786666D01*
X39778186Y-54737044D01*
X39778187Y-54737043D01*
X39782533Y-54732216D01*
X39877179Y-54568284D01*
X39935674Y-54388256D01*
X39955460Y-54200000D01*
X39935674Y-54011744D01*
X39877179Y-53831716D01*
X39782533Y-53667784D01*
X39766971Y-53650500D01*
X39660220Y-53531942D01*
X39655871Y-53527112D01*
X39502730Y-53415849D01*
X39329803Y-53338856D01*
X39229655Y-53317569D01*
X39151009Y-53300852D01*
X39151004Y-53300852D01*
X39144646Y-53299500D01*
X38955354Y-53299500D01*
X38948996Y-53300852D01*
X38948991Y-53300852D01*
X38870345Y-53317569D01*
X38770197Y-53338856D01*
X38597270Y-53415849D01*
X38444129Y-53527112D01*
X38439780Y-53531942D01*
X38333030Y-53650500D01*
X38317467Y-53667784D01*
X38222821Y-53831716D01*
X38164326Y-54011744D01*
X38144540Y-54200000D01*
X36879946Y-54200000D01*
X44722647Y-46357299D01*
X44731288Y-46349436D01*
X44731353Y-46349382D01*
X44737940Y-46345202D01*
X44756827Y-46325090D01*
X44785865Y-46294167D01*
X44788576Y-46291370D01*
X44808912Y-46271034D01*
X44811616Y-46267547D01*
X44819197Y-46258672D01*
X44845107Y-46231081D01*
X44845109Y-46231079D01*
X44850448Y-46225393D01*
X44860672Y-46206796D01*
X44871355Y-46190533D01*
X44879585Y-46179923D01*
X44879585Y-46179922D01*
X44884363Y-46173763D01*
X44902495Y-46131862D01*
X44907636Y-46121368D01*
X44925868Y-46088205D01*
X44929627Y-46081368D01*
X44934906Y-46060806D01*
X44941207Y-46042404D01*
X44946537Y-46030087D01*
X44949636Y-46022926D01*
X44952475Y-46005000D01*
X44956779Y-45977830D01*
X44959147Y-45966393D01*
X44970500Y-45922177D01*
X44970500Y-45900954D01*
X44972027Y-45881556D01*
X44974126Y-45868304D01*
X44975347Y-45860595D01*
X44971050Y-45815137D01*
X44970500Y-45803468D01*
X44970500Y-42180922D01*
X44990185Y-42113883D01*
X45002350Y-42097950D01*
X45048186Y-42047044D01*
X45048187Y-42047043D01*
X45052533Y-42042216D01*
X45147179Y-41878284D01*
X45205674Y-41698256D01*
X45225460Y-41510000D01*
X45205674Y-41321744D01*
X45147179Y-41141716D01*
X45128489Y-41109343D01*
X45075798Y-41018081D01*
X45052533Y-40977784D01*
X45044284Y-40968622D01*
X44930220Y-40841942D01*
X44925871Y-40837112D01*
X44905680Y-40822442D01*
X44795658Y-40742507D01*
X44772730Y-40725849D01*
X44751890Y-40716570D01*
X44664818Y-40677803D01*
X44599803Y-40648856D01*
X44531363Y-40634309D01*
X44421009Y-40610852D01*
X44421004Y-40610852D01*
X44414646Y-40609500D01*
X44225354Y-40609500D01*
X44218996Y-40610852D01*
X44218991Y-40610852D01*
X44108637Y-40634309D01*
X44040197Y-40648856D01*
X43975182Y-40677803D01*
X43888111Y-40716570D01*
X43867270Y-40725849D01*
X43844342Y-40742507D01*
X43734321Y-40822442D01*
X43714129Y-40837112D01*
X43694018Y-40859448D01*
X43634531Y-40896097D01*
X43564674Y-40894768D01*
X43506626Y-40855882D01*
X43494480Y-40838477D01*
X43445107Y-40752961D01*
X43441859Y-40747335D01*
X43435763Y-40740564D01*
X43326577Y-40619302D01*
X43322230Y-40614474D01*
X43177593Y-40509388D01*
X43014267Y-40436671D01*
X42849990Y-40401753D01*
X42788090Y-40368144D01*
X39791428Y-37371482D01*
X39757943Y-37310159D01*
X39762927Y-37240467D01*
X39806224Y-37183483D01*
X39866972Y-37139347D01*
X39866977Y-37139343D01*
X39872230Y-37135526D01*
X39991859Y-37002665D01*
X40038811Y-36921342D01*
X40078002Y-36853461D01*
X40078003Y-36853460D01*
X40081250Y-36847835D01*
X40130247Y-36697039D01*
X40134489Y-36683984D01*
X40134490Y-36683981D01*
X40136497Y-36677803D01*
X40155185Y-36500000D01*
X40136497Y-36322197D01*
X40117529Y-36263818D01*
X40097248Y-36201401D01*
X40081250Y-36152165D01*
X39991859Y-35997335D01*
X39872230Y-35864474D01*
X39727593Y-35759388D01*
X39700521Y-35747335D01*
X39570206Y-35689315D01*
X39570204Y-35689314D01*
X39564267Y-35686671D01*
X39537651Y-35681014D01*
X39395754Y-35650852D01*
X39395749Y-35650852D01*
X39389391Y-35649500D01*
X39210609Y-35649500D01*
X39204251Y-35650852D01*
X39204246Y-35650852D01*
X39062349Y-35681014D01*
X39035733Y-35686671D01*
X38872408Y-35759388D01*
X38727770Y-35864474D01*
X38608141Y-35997335D01*
X38518750Y-36152165D01*
X38482671Y-36263206D01*
X38482472Y-36263818D01*
X38443035Y-36321493D01*
X38378676Y-36348692D01*
X38364541Y-36349500D01*
X36591911Y-36349500D01*
X36524872Y-36329815D01*
X36519025Y-36325818D01*
X36432848Y-36263206D01*
X36427593Y-36259388D01*
X36391998Y-36243540D01*
X36270206Y-36189315D01*
X36270204Y-36189314D01*
X36264267Y-36186671D01*
X36237651Y-36181014D01*
X36095754Y-36150852D01*
X36095749Y-36150852D01*
X36089391Y-36149500D01*
X35910609Y-36149500D01*
X35904251Y-36150852D01*
X35904246Y-36150852D01*
X35762349Y-36181014D01*
X35735733Y-36186671D01*
X35572408Y-36259388D01*
X35427770Y-36364474D01*
X35308141Y-36497335D01*
X35218750Y-36652165D01*
X35200773Y-36707493D01*
X35173537Y-36791317D01*
X35163503Y-36822197D01*
X35144815Y-37000000D01*
X35163503Y-37177803D01*
X35218750Y-37347835D01*
X35221997Y-37353460D01*
X35221998Y-37353461D01*
X35237723Y-37380698D01*
X35308141Y-37502665D01*
X35427770Y-37635526D01*
X35572407Y-37740612D01*
X35578341Y-37743254D01*
X35634724Y-37768357D01*
X35735733Y-37813329D01*
X35751498Y-37816680D01*
X35904246Y-37849148D01*
X35904251Y-37849148D01*
X35910609Y-37850500D01*
X36089391Y-37850500D01*
X36095749Y-37849148D01*
X36095754Y-37849148D01*
X36248502Y-37816680D01*
X36264267Y-37813329D01*
X36365277Y-37768357D01*
X36421659Y-37743254D01*
X36427593Y-37740612D01*
X36519025Y-37674182D01*
X36584831Y-37650702D01*
X36591911Y-37650500D01*
X38179192Y-37650500D01*
X38246231Y-37670185D01*
X38266873Y-37686819D01*
X38967873Y-38387819D01*
X39001358Y-38449142D01*
X38996374Y-38518834D01*
X38954502Y-38574767D01*
X38889038Y-38599184D01*
X38880192Y-38599500D01*
X36091911Y-38599500D01*
X36024872Y-38579815D01*
X36019025Y-38575818D01*
X35932848Y-38513206D01*
X35927593Y-38509388D01*
X35857907Y-38478362D01*
X35770206Y-38439315D01*
X35770204Y-38439314D01*
X35764267Y-38436671D01*
X35737651Y-38431014D01*
X35595754Y-38400852D01*
X35595749Y-38400852D01*
X35589391Y-38399500D01*
X35410609Y-38399500D01*
X35404251Y-38400852D01*
X35404246Y-38400852D01*
X35262349Y-38431014D01*
X35235733Y-38436671D01*
X35072408Y-38509388D01*
X34927770Y-38614474D01*
X34923423Y-38619302D01*
X34825278Y-38728303D01*
X34808141Y-38747335D01*
X34804893Y-38752961D01*
X34728357Y-38885526D01*
X34718750Y-38902165D01*
X34716743Y-38908343D01*
X34676333Y-39032712D01*
X34663503Y-39072197D01*
X34644815Y-39250000D01*
X34663503Y-39427803D01*
X34665510Y-39433981D01*
X34665511Y-39433984D01*
X34689060Y-39506460D01*
X34718750Y-39597835D01*
X34808141Y-39752665D01*
X34812487Y-39757492D01*
X34812488Y-39757493D01*
X34830062Y-39777011D01*
X34927770Y-39885526D01*
X35072407Y-39990612D01*
X35078341Y-39993254D01*
X35110323Y-40007493D01*
X35235733Y-40063329D01*
X35242095Y-40064681D01*
X35242094Y-40064681D01*
X35404246Y-40099148D01*
X35404251Y-40099148D01*
X35410609Y-40100500D01*
X35589391Y-40100500D01*
X35595749Y-40099148D01*
X35595754Y-40099148D01*
X35757906Y-40064681D01*
X35757905Y-40064681D01*
X35764267Y-40063329D01*
X35889678Y-40007493D01*
X35921659Y-39993254D01*
X35927593Y-39990612D01*
X36019025Y-39924182D01*
X36084831Y-39900702D01*
X36091911Y-39900500D01*
X36436953Y-39900500D01*
X36503992Y-39920185D01*
X36549747Y-39972989D01*
X36559691Y-40042147D01*
X36544340Y-40086500D01*
X36526997Y-40116538D01*
X36526994Y-40116544D01*
X36523749Y-40122165D01*
X36508871Y-40167955D01*
X36484405Y-40243254D01*
X36468502Y-40292197D01*
X36449814Y-40470000D01*
X36468502Y-40647803D01*
X36470509Y-40653981D01*
X36470510Y-40653984D01*
X36490449Y-40715348D01*
X36523749Y-40817835D01*
X36526996Y-40823460D01*
X36526997Y-40823461D01*
X36537667Y-40841942D01*
X36613140Y-40972665D01*
X36617486Y-40977492D01*
X36617487Y-40977493D01*
X36649331Y-41012859D01*
X36732769Y-41105526D01*
X36877406Y-41210612D01*
X36883340Y-41213254D01*
X37034778Y-41280678D01*
X37040732Y-41283329D01*
X37047094Y-41284681D01*
X37047093Y-41284681D01*
X37209245Y-41319148D01*
X37209250Y-41319148D01*
X37215608Y-41320500D01*
X37394390Y-41320500D01*
X37400748Y-41319148D01*
X37400753Y-41319148D01*
X37562905Y-41284681D01*
X37562904Y-41284681D01*
X37569266Y-41283329D01*
X37575221Y-41280678D01*
X37726658Y-41213254D01*
X37732592Y-41210612D01*
X37877229Y-41105526D01*
X37960667Y-41012859D01*
X37992511Y-40977493D01*
X37992512Y-40977492D01*
X37996858Y-40972665D01*
X38072331Y-40841942D01*
X38083001Y-40823461D01*
X38083002Y-40823460D01*
X38086249Y-40817835D01*
X38119549Y-40715348D01*
X38139488Y-40653984D01*
X38139489Y-40653981D01*
X38141496Y-40647803D01*
X38160184Y-40470000D01*
X38141496Y-40292197D01*
X38125594Y-40243254D01*
X38101127Y-40167955D01*
X38086249Y-40122165D01*
X38083004Y-40116544D01*
X38083001Y-40116538D01*
X38065658Y-40086500D01*
X38049185Y-40018599D01*
X38072038Y-39952573D01*
X38126959Y-39909382D01*
X38173045Y-39900500D01*
X39179192Y-39900500D01*
X39246231Y-39920185D01*
X39266873Y-39936819D01*
X42121371Y-42791317D01*
X42154856Y-42852640D01*
X42157011Y-42866034D01*
X42163503Y-42927803D01*
X42218750Y-43097835D01*
X42308141Y-43252665D01*
X42427770Y-43385526D01*
X42572407Y-43490612D01*
X42735733Y-43563329D01*
X42742095Y-43564681D01*
X42742094Y-43564681D01*
X42904246Y-43599148D01*
X42904251Y-43599148D01*
X42910609Y-43600500D01*
X43089391Y-43600500D01*
X43095749Y-43599148D01*
X43095754Y-43599148D01*
X43257906Y-43564681D01*
X43257905Y-43564681D01*
X43264267Y-43563329D01*
X43427593Y-43490612D01*
X43472614Y-43457902D01*
X43538420Y-43434422D01*
X43606474Y-43450247D01*
X43655169Y-43500353D01*
X43669500Y-43558220D01*
X43669500Y-45519192D01*
X43649815Y-45586231D01*
X43633181Y-45606873D01*
X34486873Y-54753181D01*
X34425550Y-54786666D01*
X34399192Y-54789500D01*
X34265354Y-54789500D01*
X34258996Y-54790852D01*
X34258991Y-54790852D01*
X34148637Y-54814309D01*
X34080197Y-54828856D01*
X33907270Y-54905849D01*
X33754129Y-55017112D01*
X33627467Y-55157784D01*
X33532821Y-55321716D01*
X33474326Y-55501744D01*
X33454540Y-55690000D01*
X20500500Y-55690000D01*
X20500500Y-51335000D01*
X23644341Y-51335000D01*
X23644813Y-51340395D01*
X23664318Y-51563329D01*
X23664937Y-51570408D01*
X23726097Y-51798663D01*
X23728384Y-51803567D01*
X23728386Y-51803573D01*
X23809674Y-51977894D01*
X23825965Y-52012829D01*
X23829072Y-52017266D01*
X23829073Y-52017268D01*
X23958399Y-52201966D01*
X23958403Y-52201970D01*
X23961505Y-52206401D01*
X24083311Y-52328207D01*
X24116796Y-52389530D01*
X24111812Y-52459222D01*
X24069940Y-52515155D01*
X24039158Y-52531997D01*
X23990985Y-52550056D01*
X23915447Y-52578373D01*
X23915445Y-52578374D01*
X23907176Y-52581474D01*
X23900111Y-52586769D01*
X23900109Y-52586770D01*
X23811544Y-52653147D01*
X23792454Y-52667454D01*
X23787159Y-52674519D01*
X23721451Y-52762193D01*
X23706474Y-52782176D01*
X23703374Y-52790444D01*
X23703374Y-52790445D01*
X23699792Y-52800000D01*
X23656149Y-52916420D01*
X23649500Y-52977623D01*
X23649501Y-54772376D01*
X23656149Y-54833580D01*
X23706474Y-54967824D01*
X23711769Y-54974889D01*
X23711770Y-54974891D01*
X23774431Y-55058498D01*
X23792454Y-55082546D01*
X23799519Y-55087841D01*
X23900109Y-55163230D01*
X23900111Y-55163231D01*
X23907176Y-55168526D01*
X24041420Y-55218851D01*
X24102623Y-55225500D01*
X24999866Y-55225500D01*
X25897376Y-55225499D01*
X25958580Y-55218851D01*
X26092824Y-55168526D01*
X26099889Y-55163231D01*
X26099891Y-55163230D01*
X26200481Y-55087841D01*
X26207546Y-55082546D01*
X26225569Y-55058498D01*
X26288230Y-54974891D01*
X26288231Y-54974889D01*
X26293526Y-54967824D01*
X26343851Y-54833580D01*
X26350500Y-54772377D01*
X26350499Y-52977624D01*
X26343851Y-52916420D01*
X26300208Y-52800000D01*
X26296626Y-52790445D01*
X26296626Y-52790444D01*
X26293526Y-52782176D01*
X26278550Y-52762193D01*
X26212841Y-52674519D01*
X26207546Y-52667454D01*
X26188456Y-52653147D01*
X26099891Y-52586770D01*
X26099889Y-52586769D01*
X26092824Y-52581474D01*
X26084555Y-52578374D01*
X26084553Y-52578373D01*
X26009015Y-52550056D01*
X25960843Y-52531997D01*
X25904980Y-52490034D01*
X25880671Y-52424529D01*
X25895637Y-52356281D01*
X25907846Y-52340000D01*
X33454540Y-52340000D01*
X33474326Y-52528256D01*
X33532821Y-52708284D01*
X33536068Y-52713909D01*
X33536069Y-52713910D01*
X33553011Y-52743254D01*
X33627467Y-52872216D01*
X33631813Y-52877043D01*
X33631814Y-52877044D01*
X33725403Y-52980985D01*
X33754129Y-53012888D01*
X33907270Y-53124151D01*
X33913206Y-53126794D01*
X33913208Y-53126795D01*
X33960464Y-53147835D01*
X34080197Y-53201144D01*
X34148637Y-53215691D01*
X34258991Y-53239148D01*
X34258996Y-53239148D01*
X34265354Y-53240500D01*
X34454646Y-53240500D01*
X34461004Y-53239148D01*
X34461009Y-53239148D01*
X34571363Y-53215691D01*
X34639803Y-53201144D01*
X34759536Y-53147835D01*
X34806792Y-53126795D01*
X34806794Y-53126794D01*
X34812730Y-53124151D01*
X34965871Y-53012888D01*
X34994597Y-52980985D01*
X35088186Y-52877044D01*
X35088187Y-52877043D01*
X35092533Y-52872216D01*
X35166989Y-52743254D01*
X35183931Y-52713910D01*
X35183932Y-52713909D01*
X35187179Y-52708284D01*
X35245674Y-52528256D01*
X35265460Y-52340000D01*
X35245674Y-52151744D01*
X35187179Y-51971716D01*
X35092533Y-51807784D01*
X35084321Y-51798663D01*
X34970220Y-51671942D01*
X34965871Y-51667112D01*
X34953802Y-51658343D01*
X34817989Y-51559670D01*
X34817990Y-51559670D01*
X34812730Y-51555849D01*
X34639803Y-51478856D01*
X34566170Y-51463205D01*
X34461009Y-51440852D01*
X34461004Y-51440852D01*
X34454646Y-51439500D01*
X34265354Y-51439500D01*
X34258996Y-51440852D01*
X34258991Y-51440852D01*
X34153830Y-51463205D01*
X34080197Y-51478856D01*
X33907270Y-51555849D01*
X33902010Y-51559670D01*
X33902011Y-51559670D01*
X33766199Y-51658343D01*
X33754129Y-51667112D01*
X33749780Y-51671942D01*
X33635680Y-51798663D01*
X33627467Y-51807784D01*
X33532821Y-51971716D01*
X33474326Y-52151744D01*
X33454540Y-52340000D01*
X25907846Y-52340000D01*
X25916689Y-52328207D01*
X26038495Y-52206401D01*
X26041597Y-52201970D01*
X26041601Y-52201966D01*
X26170927Y-52017268D01*
X26170928Y-52017266D01*
X26174035Y-52012829D01*
X26190326Y-51977894D01*
X26271614Y-51803573D01*
X26271616Y-51803567D01*
X26273903Y-51798663D01*
X26335063Y-51570408D01*
X26335683Y-51563329D01*
X26355187Y-51340395D01*
X26355659Y-51335000D01*
X26348813Y-51256746D01*
X26335535Y-51104983D01*
X26335534Y-51104979D01*
X26335063Y-51099592D01*
X26273903Y-50871337D01*
X26271616Y-50866433D01*
X26271614Y-50866427D01*
X26176325Y-50662082D01*
X26174035Y-50657171D01*
X26170927Y-50652732D01*
X26098994Y-50550000D01*
X34744540Y-50550000D01*
X34764326Y-50738256D01*
X34822821Y-50918284D01*
X34917467Y-51082216D01*
X34921813Y-51087043D01*
X34921814Y-51087044D01*
X34978050Y-51149500D01*
X35044129Y-51222888D01*
X35197270Y-51334151D01*
X35203206Y-51336794D01*
X35203208Y-51336795D01*
X35255221Y-51359953D01*
X35370197Y-51411144D01*
X35438637Y-51425691D01*
X35548991Y-51449148D01*
X35548996Y-51449148D01*
X35555354Y-51450500D01*
X35744646Y-51450500D01*
X35751004Y-51449148D01*
X35751009Y-51449148D01*
X35861363Y-51425691D01*
X35929803Y-51411144D01*
X36044779Y-51359953D01*
X36096792Y-51336795D01*
X36096794Y-51336794D01*
X36102730Y-51334151D01*
X36255871Y-51222888D01*
X36321950Y-51149500D01*
X36378186Y-51087044D01*
X36378187Y-51087043D01*
X36382533Y-51082216D01*
X36477179Y-50918284D01*
X36535674Y-50738256D01*
X36555460Y-50550000D01*
X36535674Y-50361744D01*
X36477179Y-50181716D01*
X36468438Y-50166575D01*
X36385781Y-50023410D01*
X36382533Y-50017784D01*
X36255871Y-49877112D01*
X36102730Y-49765849D01*
X35929803Y-49688856D01*
X35824160Y-49666401D01*
X35751009Y-49650852D01*
X35751004Y-49650852D01*
X35744646Y-49649500D01*
X35555354Y-49649500D01*
X35548996Y-49650852D01*
X35548991Y-49650852D01*
X35475840Y-49666401D01*
X35370197Y-49688856D01*
X35197270Y-49765849D01*
X35044129Y-49877112D01*
X34917467Y-50017784D01*
X34914219Y-50023410D01*
X34831563Y-50166575D01*
X34822821Y-50181716D01*
X34764326Y-50361744D01*
X34744540Y-50550000D01*
X26098994Y-50550000D01*
X26041601Y-50468034D01*
X26041597Y-50468030D01*
X26038495Y-50463599D01*
X25871401Y-50296505D01*
X25685842Y-50166575D01*
X25642218Y-50111998D01*
X25635025Y-50042499D01*
X25666547Y-49980145D01*
X25685842Y-49963425D01*
X25710921Y-49945864D01*
X25871401Y-49833495D01*
X26038495Y-49666401D01*
X26041597Y-49661970D01*
X26041601Y-49661966D01*
X26170927Y-49477268D01*
X26170928Y-49477266D01*
X26174035Y-49472829D01*
X26254394Y-49300500D01*
X26271614Y-49263573D01*
X26271616Y-49263567D01*
X26273903Y-49258663D01*
X26313459Y-49111035D01*
X26333663Y-49035634D01*
X26333664Y-49035631D01*
X26335063Y-49030408D01*
X26336520Y-49013764D01*
X26355187Y-48800395D01*
X26355659Y-48795000D01*
X26348074Y-48708304D01*
X26335535Y-48564983D01*
X26335534Y-48564979D01*
X26335063Y-48559592D01*
X26316992Y-48492147D01*
X26275305Y-48336570D01*
X26273903Y-48331337D01*
X26271616Y-48326433D01*
X26271614Y-48326427D01*
X26176325Y-48122082D01*
X26174035Y-48117171D01*
X26170927Y-48112732D01*
X26041601Y-47928034D01*
X26041597Y-47928030D01*
X26038495Y-47923599D01*
X25871401Y-47756505D01*
X25866961Y-47753396D01*
X25685407Y-47626270D01*
X25641782Y-47571693D01*
X25634588Y-47502195D01*
X25666111Y-47439840D01*
X25685406Y-47423120D01*
X25866643Y-47296215D01*
X25874909Y-47289279D01*
X26034281Y-47129907D01*
X26041216Y-47121643D01*
X26170492Y-46937017D01*
X26175890Y-46927667D01*
X26271143Y-46723397D01*
X26274832Y-46713264D01*
X26326022Y-46522221D01*
X26325691Y-46508347D01*
X26317875Y-46505000D01*
X23687194Y-46505000D01*
X23673877Y-46508910D01*
X23672667Y-46517326D01*
X23725168Y-46713264D01*
X23728857Y-46723397D01*
X23824110Y-46927667D01*
X23829508Y-46937017D01*
X23958784Y-47121643D01*
X23965719Y-47129907D01*
X24125091Y-47289279D01*
X24133357Y-47296215D01*
X24314595Y-47423120D01*
X24358219Y-47477697D01*
X24365412Y-47547196D01*
X24333890Y-47609550D01*
X24314594Y-47626270D01*
X24133034Y-47753399D01*
X24133030Y-47753403D01*
X24128599Y-47756505D01*
X23961505Y-47923599D01*
X23958403Y-47928030D01*
X23958399Y-47928034D01*
X23829073Y-48112732D01*
X23825965Y-48117171D01*
X23823675Y-48122082D01*
X23728386Y-48326427D01*
X23728384Y-48326433D01*
X23726097Y-48331337D01*
X23724695Y-48336570D01*
X23683009Y-48492147D01*
X23664937Y-48559592D01*
X23664466Y-48564979D01*
X23664465Y-48564983D01*
X23651926Y-48708304D01*
X23644341Y-48795000D01*
X23644813Y-48800395D01*
X23663481Y-49013764D01*
X23664937Y-49030408D01*
X23666336Y-49035631D01*
X23666337Y-49035634D01*
X23686541Y-49111035D01*
X23726097Y-49258663D01*
X23728384Y-49263567D01*
X23728386Y-49263573D01*
X23745606Y-49300500D01*
X23825965Y-49472829D01*
X23829072Y-49477266D01*
X23829073Y-49477268D01*
X23958399Y-49661966D01*
X23958403Y-49661970D01*
X23961505Y-49666401D01*
X24128599Y-49833495D01*
X24222864Y-49899500D01*
X24314159Y-49963426D01*
X24357783Y-50018003D01*
X24364976Y-50087502D01*
X24333454Y-50149856D01*
X24314160Y-50166575D01*
X24283712Y-50187894D01*
X24133034Y-50293399D01*
X24133033Y-50293400D01*
X24128599Y-50296505D01*
X23961505Y-50463599D01*
X23958403Y-50468030D01*
X23958399Y-50468034D01*
X23829073Y-50652732D01*
X23825965Y-50657171D01*
X23823675Y-50662082D01*
X23728386Y-50866427D01*
X23728384Y-50866433D01*
X23726097Y-50871337D01*
X23664937Y-51099592D01*
X23664466Y-51104979D01*
X23664465Y-51104983D01*
X23651187Y-51256746D01*
X23644341Y-51335000D01*
X20500500Y-51335000D01*
X20500500Y-43715000D01*
X23644341Y-43715000D01*
X23664937Y-43950408D01*
X23726097Y-44178663D01*
X23728384Y-44183567D01*
X23728386Y-44183573D01*
X23815631Y-44370669D01*
X23825965Y-44392829D01*
X23829072Y-44397266D01*
X23829073Y-44397268D01*
X23958399Y-44581966D01*
X23958403Y-44581970D01*
X23961505Y-44586401D01*
X24128599Y-44753495D01*
X24171322Y-44783410D01*
X24314595Y-44883731D01*
X24358219Y-44938308D01*
X24365412Y-45007807D01*
X24333890Y-45070161D01*
X24314595Y-45086881D01*
X24133352Y-45213789D01*
X24125093Y-45220719D01*
X23965719Y-45380093D01*
X23958784Y-45388357D01*
X23829508Y-45572983D01*
X23824110Y-45582333D01*
X23728857Y-45786603D01*
X23725168Y-45796736D01*
X23673978Y-45987779D01*
X23674309Y-46001653D01*
X23682125Y-46005000D01*
X26312806Y-46005000D01*
X26326123Y-46001090D01*
X26327333Y-45992674D01*
X26274832Y-45796736D01*
X26271143Y-45786603D01*
X26175890Y-45582333D01*
X26170492Y-45572983D01*
X26041216Y-45388357D01*
X26034281Y-45380093D01*
X25874909Y-45220721D01*
X25866643Y-45213785D01*
X25685406Y-45086880D01*
X25641781Y-45032303D01*
X25634589Y-44962804D01*
X25666111Y-44900449D01*
X25685407Y-44883730D01*
X25866961Y-44756604D01*
X25866962Y-44756604D01*
X25871401Y-44753495D01*
X26038495Y-44586401D01*
X26041597Y-44581970D01*
X26041601Y-44581966D01*
X26170927Y-44397268D01*
X26170928Y-44397266D01*
X26174035Y-44392829D01*
X26184369Y-44370669D01*
X26271614Y-44183573D01*
X26271616Y-44183567D01*
X26273903Y-44178663D01*
X26335063Y-43950408D01*
X26355659Y-43715000D01*
X26345523Y-43599148D01*
X26335535Y-43484983D01*
X26335534Y-43484979D01*
X26335063Y-43479592D01*
X26329252Y-43457902D01*
X26275305Y-43256570D01*
X26273903Y-43251337D01*
X26271616Y-43246433D01*
X26271614Y-43246427D01*
X26176325Y-43042082D01*
X26174035Y-43037171D01*
X26092931Y-42921342D01*
X26041601Y-42848034D01*
X26041597Y-42848030D01*
X26038495Y-42843599D01*
X25871401Y-42676505D01*
X25685842Y-42546575D01*
X25642218Y-42491998D01*
X25635025Y-42422499D01*
X25666547Y-42360145D01*
X25685842Y-42343425D01*
X25858536Y-42222503D01*
X25871401Y-42213495D01*
X26038495Y-42046401D01*
X26041597Y-42041970D01*
X26041601Y-42041966D01*
X26170927Y-41857268D01*
X26170928Y-41857266D01*
X26174035Y-41852829D01*
X26188967Y-41820808D01*
X26271614Y-41643573D01*
X26271616Y-41643567D01*
X26273903Y-41638663D01*
X26308378Y-41510000D01*
X26333663Y-41415634D01*
X26333664Y-41415631D01*
X26335063Y-41410408D01*
X26338842Y-41367223D01*
X26355187Y-41180395D01*
X26355659Y-41175000D01*
X26353521Y-41150561D01*
X26335535Y-40944983D01*
X26335534Y-40944979D01*
X26335063Y-40939592D01*
X26330725Y-40923400D01*
X26284392Y-40750484D01*
X26273903Y-40711337D01*
X26271616Y-40706433D01*
X26271614Y-40706427D01*
X26176325Y-40502082D01*
X26174035Y-40497171D01*
X26155010Y-40470000D01*
X26041601Y-40308034D01*
X26041597Y-40308030D01*
X26038495Y-40303599D01*
X25871401Y-40136505D01*
X25863108Y-40130698D01*
X25685407Y-40006270D01*
X25641782Y-39951693D01*
X25634588Y-39882195D01*
X25666111Y-39819840D01*
X25685406Y-39803120D01*
X25866643Y-39676215D01*
X25874909Y-39669279D01*
X26034281Y-39509907D01*
X26041216Y-39501643D01*
X26170492Y-39317017D01*
X26175890Y-39307667D01*
X26271143Y-39103397D01*
X26274832Y-39093264D01*
X26326022Y-38902221D01*
X26325691Y-38888347D01*
X26317875Y-38885000D01*
X23687194Y-38885000D01*
X23673877Y-38888910D01*
X23672667Y-38897326D01*
X23725168Y-39093264D01*
X23728857Y-39103397D01*
X23824110Y-39307667D01*
X23829508Y-39317017D01*
X23958784Y-39501643D01*
X23965719Y-39509907D01*
X24125091Y-39669279D01*
X24133357Y-39676215D01*
X24314595Y-39803120D01*
X24358219Y-39857697D01*
X24365412Y-39927196D01*
X24333890Y-39989550D01*
X24314594Y-40006270D01*
X24133034Y-40133399D01*
X24133030Y-40133403D01*
X24128599Y-40136505D01*
X23961505Y-40303599D01*
X23958403Y-40308030D01*
X23958399Y-40308034D01*
X23844990Y-40470000D01*
X23825965Y-40497171D01*
X23823675Y-40502082D01*
X23728386Y-40706427D01*
X23728384Y-40706433D01*
X23726097Y-40711337D01*
X23715608Y-40750484D01*
X23669276Y-40923400D01*
X23664937Y-40939592D01*
X23664466Y-40944979D01*
X23664465Y-40944983D01*
X23646479Y-41150561D01*
X23644341Y-41175000D01*
X23644813Y-41180395D01*
X23661159Y-41367223D01*
X23664937Y-41410408D01*
X23666336Y-41415631D01*
X23666337Y-41415634D01*
X23691622Y-41510000D01*
X23726097Y-41638663D01*
X23728384Y-41643567D01*
X23728386Y-41643573D01*
X23811033Y-41820808D01*
X23825965Y-41852829D01*
X23829072Y-41857266D01*
X23829073Y-41857268D01*
X23958399Y-42041966D01*
X23958403Y-42041970D01*
X23961505Y-42046401D01*
X24128599Y-42213495D01*
X24141464Y-42222503D01*
X24314159Y-42343426D01*
X24357783Y-42398003D01*
X24364976Y-42467502D01*
X24333454Y-42529856D01*
X24314158Y-42546576D01*
X24133034Y-42673399D01*
X24133033Y-42673400D01*
X24128599Y-42676505D01*
X23961505Y-42843599D01*
X23958403Y-42848030D01*
X23958399Y-42848034D01*
X23907069Y-42921342D01*
X23825965Y-43037171D01*
X23823675Y-43042082D01*
X23728386Y-43246427D01*
X23728384Y-43246433D01*
X23726097Y-43251337D01*
X23724695Y-43256570D01*
X23670749Y-43457902D01*
X23664937Y-43479592D01*
X23664466Y-43484979D01*
X23664465Y-43484983D01*
X23654477Y-43599148D01*
X23644341Y-43715000D01*
X20500500Y-43715000D01*
X20500500Y-36095000D01*
X23644341Y-36095000D01*
X23644813Y-36100395D01*
X23664219Y-36322197D01*
X23664937Y-36330408D01*
X23666336Y-36335631D01*
X23666337Y-36335634D01*
X23702390Y-36470185D01*
X23726097Y-36558663D01*
X23728384Y-36563567D01*
X23728386Y-36563573D01*
X23790623Y-36697039D01*
X23825965Y-36772829D01*
X23829072Y-36777266D01*
X23829073Y-36777268D01*
X23958399Y-36961966D01*
X23958403Y-36961970D01*
X23961505Y-36966401D01*
X24128599Y-37133495D01*
X24204542Y-37186671D01*
X24314595Y-37263731D01*
X24358219Y-37318308D01*
X24365412Y-37387807D01*
X24333890Y-37450161D01*
X24314595Y-37466881D01*
X24133352Y-37593789D01*
X24125093Y-37600719D01*
X23965719Y-37760093D01*
X23958784Y-37768357D01*
X23829508Y-37952983D01*
X23824110Y-37962333D01*
X23728857Y-38166603D01*
X23725168Y-38176736D01*
X23673978Y-38367779D01*
X23674309Y-38381653D01*
X23682125Y-38385000D01*
X26312806Y-38385000D01*
X26326123Y-38381090D01*
X26327333Y-38372674D01*
X26274832Y-38176736D01*
X26271143Y-38166603D01*
X26175890Y-37962333D01*
X26170492Y-37952983D01*
X26041216Y-37768357D01*
X26034281Y-37760093D01*
X25874909Y-37600721D01*
X25866643Y-37593785D01*
X25685406Y-37466880D01*
X25641781Y-37412303D01*
X25634589Y-37342804D01*
X25666111Y-37280449D01*
X25685407Y-37263730D01*
X25866961Y-37136604D01*
X25866962Y-37136604D01*
X25871401Y-37133495D01*
X26038495Y-36966401D01*
X26041597Y-36961970D01*
X26041601Y-36961966D01*
X26170927Y-36777268D01*
X26170928Y-36777266D01*
X26174035Y-36772829D01*
X26184681Y-36750000D01*
X26894815Y-36750000D01*
X26913503Y-36927803D01*
X26915510Y-36933981D01*
X26915511Y-36933984D01*
X26924603Y-36961966D01*
X26968750Y-37097835D01*
X26971997Y-37103460D01*
X26971998Y-37103461D01*
X26981144Y-37119302D01*
X27058141Y-37252665D01*
X27177770Y-37385526D01*
X27322407Y-37490612D01*
X27328341Y-37493254D01*
X27360323Y-37507493D01*
X27485733Y-37563329D01*
X27492095Y-37564681D01*
X27492094Y-37564681D01*
X27654246Y-37599148D01*
X27654251Y-37599148D01*
X27660609Y-37600500D01*
X27839391Y-37600500D01*
X27845749Y-37599148D01*
X27845754Y-37599148D01*
X28007906Y-37564681D01*
X28007905Y-37564681D01*
X28014267Y-37563329D01*
X28139678Y-37507493D01*
X28171659Y-37493254D01*
X28177593Y-37490612D01*
X28322230Y-37385526D01*
X28441859Y-37252665D01*
X28518856Y-37119302D01*
X28528002Y-37103461D01*
X28528003Y-37103460D01*
X28531250Y-37097835D01*
X28575397Y-36961966D01*
X28584489Y-36933984D01*
X28584490Y-36933981D01*
X28586497Y-36927803D01*
X28592989Y-36866036D01*
X28619574Y-36801422D01*
X28628629Y-36791317D01*
X28933127Y-36486819D01*
X28994450Y-36453334D01*
X29020808Y-36450500D01*
X31370407Y-36450500D01*
X31437446Y-36470185D01*
X31483201Y-36522989D01*
X31493145Y-36592147D01*
X31477795Y-36636498D01*
X31468750Y-36652165D01*
X31450773Y-36707493D01*
X31423537Y-36791317D01*
X31413503Y-36822197D01*
X31412610Y-36830698D01*
X31407011Y-36883964D01*
X31380426Y-36948578D01*
X31371371Y-36958683D01*
X29516873Y-38813181D01*
X29455550Y-38846666D01*
X29429192Y-38849500D01*
X29341911Y-38849500D01*
X29274872Y-38829815D01*
X29269025Y-38825818D01*
X29182848Y-38763206D01*
X29177593Y-38759388D01*
X29141355Y-38743254D01*
X29020206Y-38689315D01*
X29020204Y-38689314D01*
X29014267Y-38686671D01*
X28987651Y-38681014D01*
X28845754Y-38650852D01*
X28845749Y-38650852D01*
X28839391Y-38649500D01*
X28660609Y-38649500D01*
X28654251Y-38650852D01*
X28654246Y-38650852D01*
X28512349Y-38681014D01*
X28485733Y-38686671D01*
X28322408Y-38759388D01*
X28177770Y-38864474D01*
X28058141Y-38997335D01*
X28054893Y-39002961D01*
X27999880Y-39098247D01*
X27968750Y-39152165D01*
X27966743Y-39158343D01*
X27924568Y-39288144D01*
X27913503Y-39322197D01*
X27894815Y-39500000D01*
X27913503Y-39677803D01*
X27915510Y-39683981D01*
X27915511Y-39683984D01*
X27939396Y-39757493D01*
X27968750Y-39847835D01*
X28058141Y-40002665D01*
X28177770Y-40135526D01*
X28322407Y-40240612D01*
X28328341Y-40243254D01*
X28476969Y-40309427D01*
X28485733Y-40313329D01*
X28512349Y-40318986D01*
X28654246Y-40349148D01*
X28654251Y-40349148D01*
X28660609Y-40350500D01*
X28839391Y-40350500D01*
X28845749Y-40349148D01*
X28845754Y-40349148D01*
X28975915Y-40321481D01*
X29000924Y-40316165D01*
X29070591Y-40321481D01*
X29126325Y-40363618D01*
X29150430Y-40429198D01*
X29150026Y-40450416D01*
X29148647Y-40463540D01*
X29144815Y-40500000D01*
X29163503Y-40677803D01*
X29165510Y-40683981D01*
X29165511Y-40683984D01*
X29183467Y-40739247D01*
X29218750Y-40847835D01*
X29308141Y-41002665D01*
X29312487Y-41007492D01*
X29312488Y-41007493D01*
X29342949Y-41041323D01*
X29427770Y-41135526D01*
X29572407Y-41240612D01*
X29578341Y-41243254D01*
X29668352Y-41283329D01*
X29735733Y-41313329D01*
X29742095Y-41314681D01*
X29742094Y-41314681D01*
X29904246Y-41349148D01*
X29904251Y-41349148D01*
X29910609Y-41350500D01*
X30089391Y-41350500D01*
X30095749Y-41349148D01*
X30095754Y-41349148D01*
X30257906Y-41314681D01*
X30257905Y-41314681D01*
X30264267Y-41313329D01*
X30331649Y-41283329D01*
X30421659Y-41243254D01*
X30427593Y-41240612D01*
X30519025Y-41174182D01*
X30584831Y-41150702D01*
X30591911Y-41150500D01*
X31418927Y-41150500D01*
X31430596Y-41151050D01*
X31430682Y-41151058D01*
X31438296Y-41152760D01*
X31446093Y-41152515D01*
X31446094Y-41152515D01*
X31508262Y-41150561D01*
X31512157Y-41150500D01*
X31540925Y-41150500D01*
X31545302Y-41149947D01*
X31556936Y-41149032D01*
X31602569Y-41147597D01*
X31610061Y-41145420D01*
X31610063Y-41145420D01*
X31622945Y-41141677D01*
X31641992Y-41137732D01*
X31663058Y-41135071D01*
X31670309Y-41132200D01*
X31670317Y-41132198D01*
X31705508Y-41118264D01*
X31716558Y-41114480D01*
X31760398Y-41101744D01*
X31767118Y-41097770D01*
X31778670Y-41090939D01*
X31796137Y-41082381D01*
X31815871Y-41074568D01*
X31852801Y-41047737D01*
X31862565Y-41041323D01*
X31883067Y-41029198D01*
X31901865Y-41018081D01*
X31916872Y-41003074D01*
X31931668Y-40990437D01*
X31939012Y-40985101D01*
X31948837Y-40977963D01*
X31977937Y-40942787D01*
X31985800Y-40934146D01*
X33788090Y-39131856D01*
X33849990Y-39098247D01*
X34014267Y-39063329D01*
X34053030Y-39046071D01*
X34171659Y-38993254D01*
X34177593Y-38990612D01*
X34322230Y-38885526D01*
X34441859Y-38752665D01*
X34518856Y-38619302D01*
X34528002Y-38603461D01*
X34528003Y-38603460D01*
X34531250Y-38597835D01*
X34586497Y-38427803D01*
X34605185Y-38250000D01*
X34586497Y-38072197D01*
X34581629Y-38057213D01*
X34547762Y-37952983D01*
X34531250Y-37902165D01*
X34521640Y-37885519D01*
X34445107Y-37752961D01*
X34441859Y-37747335D01*
X34322230Y-37614474D01*
X34177593Y-37509388D01*
X34141355Y-37493254D01*
X34020206Y-37439315D01*
X34020204Y-37439314D01*
X34014267Y-37436671D01*
X33983179Y-37430063D01*
X33845754Y-37400852D01*
X33845749Y-37400852D01*
X33839391Y-37399500D01*
X33660609Y-37399500D01*
X33654251Y-37400852D01*
X33654246Y-37400852D01*
X33516821Y-37430063D01*
X33485733Y-37436671D01*
X33322408Y-37509388D01*
X33177770Y-37614474D01*
X33058141Y-37747335D01*
X33054893Y-37752961D01*
X32978361Y-37885519D01*
X32968750Y-37902165D01*
X32952238Y-37952983D01*
X32918372Y-38057213D01*
X32913503Y-38072197D01*
X32912824Y-38078658D01*
X32907011Y-38133964D01*
X32880426Y-38198578D01*
X32871371Y-38208683D01*
X31266873Y-39813181D01*
X31205550Y-39846666D01*
X31179192Y-39849500D01*
X30619808Y-39849500D01*
X30552769Y-39829815D01*
X30507014Y-39777011D01*
X30497070Y-39707853D01*
X30526095Y-39644297D01*
X30532127Y-39637819D01*
X32288090Y-37881856D01*
X32349990Y-37848247D01*
X32514267Y-37813329D01*
X32615277Y-37768357D01*
X32671659Y-37743254D01*
X32677593Y-37740612D01*
X32822230Y-37635526D01*
X32941859Y-37502665D01*
X33012277Y-37380698D01*
X33028002Y-37353461D01*
X33028003Y-37353460D01*
X33031250Y-37347835D01*
X33086497Y-37177803D01*
X33105185Y-37000000D01*
X33086497Y-36822197D01*
X33076464Y-36791317D01*
X33049227Y-36707493D01*
X33031250Y-36652165D01*
X32979193Y-36561999D01*
X32962721Y-36494099D01*
X32979193Y-36438001D01*
X33019322Y-36368495D01*
X33031250Y-36347835D01*
X33071815Y-36222989D01*
X33084489Y-36183984D01*
X33084490Y-36183981D01*
X33086497Y-36177803D01*
X33105185Y-36000000D01*
X33086497Y-35822197D01*
X33075526Y-35788430D01*
X33043321Y-35689315D01*
X33031250Y-35652165D01*
X32941859Y-35497335D01*
X32822230Y-35364474D01*
X32677593Y-35259388D01*
X32610769Y-35229636D01*
X32520206Y-35189315D01*
X32520204Y-35189314D01*
X32514267Y-35186671D01*
X32487651Y-35181014D01*
X32345754Y-35150852D01*
X32345749Y-35150852D01*
X32339391Y-35149500D01*
X32160609Y-35149500D01*
X32156220Y-35150433D01*
X32134941Y-35150210D01*
X32132177Y-35149500D01*
X32110954Y-35149500D01*
X32091555Y-35147973D01*
X32070595Y-35144653D01*
X32062830Y-35145387D01*
X32062828Y-35145387D01*
X32025140Y-35148950D01*
X32013470Y-35149500D01*
X28781073Y-35149500D01*
X28769404Y-35148950D01*
X28769318Y-35148942D01*
X28761704Y-35147240D01*
X28753907Y-35147485D01*
X28753906Y-35147485D01*
X28691738Y-35149439D01*
X28687843Y-35149500D01*
X28659075Y-35149500D01*
X28654698Y-35150053D01*
X28643064Y-35150968D01*
X28597431Y-35152403D01*
X28589939Y-35154580D01*
X28589937Y-35154580D01*
X28577055Y-35158323D01*
X28558008Y-35162268D01*
X28536942Y-35164929D01*
X28529691Y-35167800D01*
X28529683Y-35167802D01*
X28494492Y-35181736D01*
X28483442Y-35185520D01*
X28439602Y-35198256D01*
X28432883Y-35202230D01*
X28432882Y-35202230D01*
X28421330Y-35209061D01*
X28403863Y-35217619D01*
X28384129Y-35225432D01*
X28377820Y-35230016D01*
X28347199Y-35252263D01*
X28337435Y-35258677D01*
X28298135Y-35281919D01*
X28283128Y-35296926D01*
X28268332Y-35309563D01*
X28251163Y-35322037D01*
X28223064Y-35356003D01*
X28222063Y-35357213D01*
X28214200Y-35365854D01*
X27711910Y-35868144D01*
X27650010Y-35901753D01*
X27485733Y-35936671D01*
X27322408Y-36009388D01*
X27177770Y-36114474D01*
X27058141Y-36247335D01*
X26968750Y-36402165D01*
X26957106Y-36438001D01*
X26916817Y-36561999D01*
X26913503Y-36572197D01*
X26894815Y-36750000D01*
X26184681Y-36750000D01*
X26209377Y-36697039D01*
X26271614Y-36563573D01*
X26271616Y-36563567D01*
X26273903Y-36558663D01*
X26297610Y-36470185D01*
X26333663Y-36335634D01*
X26333664Y-36335631D01*
X26335063Y-36330408D01*
X26335782Y-36322197D01*
X26355187Y-36100395D01*
X26355659Y-36095000D01*
X26347913Y-36006460D01*
X26335535Y-35864983D01*
X26335534Y-35864979D01*
X26335063Y-35859592D01*
X26326775Y-35828658D01*
X26289438Y-35689315D01*
X26273903Y-35631337D01*
X26271616Y-35626433D01*
X26271614Y-35626427D01*
X26176325Y-35422082D01*
X26174035Y-35417171D01*
X26161662Y-35399500D01*
X26041601Y-35228034D01*
X26041597Y-35228030D01*
X26038495Y-35223599D01*
X25871401Y-35056505D01*
X25677830Y-34920965D01*
X25463663Y-34821097D01*
X25379863Y-34798643D01*
X25240634Y-34761337D01*
X25240631Y-34761336D01*
X25235408Y-34759937D01*
X25230021Y-34759466D01*
X25230017Y-34759465D01*
X25005395Y-34739813D01*
X25000000Y-34739341D01*
X24994605Y-34739813D01*
X24769983Y-34759465D01*
X24769979Y-34759466D01*
X24764592Y-34759937D01*
X24759369Y-34761336D01*
X24759366Y-34761337D01*
X24620137Y-34798643D01*
X24536337Y-34821097D01*
X24531433Y-34823384D01*
X24531427Y-34823386D01*
X24389984Y-34889343D01*
X24322171Y-34920965D01*
X24317734Y-34924072D01*
X24317732Y-34924073D01*
X24133034Y-35053399D01*
X24133033Y-35053400D01*
X24128599Y-35056505D01*
X23961505Y-35223599D01*
X23958403Y-35228030D01*
X23958399Y-35228034D01*
X23838338Y-35399500D01*
X23825965Y-35417171D01*
X23823675Y-35422082D01*
X23728386Y-35626427D01*
X23728384Y-35626433D01*
X23726097Y-35631337D01*
X23710562Y-35689315D01*
X23673226Y-35828658D01*
X23664937Y-35859592D01*
X23664466Y-35864979D01*
X23664465Y-35864983D01*
X23652087Y-36006460D01*
X23644341Y-36095000D01*
X20500500Y-36095000D01*
X20500500Y-27078206D01*
X23281168Y-27078206D01*
X23288571Y-27088469D01*
X23430180Y-27202531D01*
X23436249Y-27206843D01*
X23706139Y-27375161D01*
X23712709Y-27378728D01*
X24000861Y-27513403D01*
X24007798Y-27516149D01*
X24310052Y-27615233D01*
X24317263Y-27617125D01*
X24629238Y-27679181D01*
X24636616Y-27680192D01*
X24953787Y-27704318D01*
X24961250Y-27704435D01*
X25279003Y-27690284D01*
X25286436Y-27689502D01*
X25600191Y-27637279D01*
X25607463Y-27635614D01*
X25912683Y-27546072D01*
X25919693Y-27543548D01*
X26211949Y-27417986D01*
X26218609Y-27414636D01*
X26493652Y-27254878D01*
X26499868Y-27250748D01*
X26712047Y-27090569D01*
X26720368Y-27079358D01*
X26713759Y-27067312D01*
X25012607Y-25366160D01*
X24998887Y-25358668D01*
X24997081Y-25358797D01*
X24990574Y-25362979D01*
X23288169Y-27065384D01*
X23281168Y-27078206D01*
X20500500Y-27078206D01*
X20500500Y-24975399D01*
X22295398Y-24975399D01*
X22311214Y-25293095D01*
X22312033Y-25300506D01*
X22365899Y-25613988D01*
X22367604Y-25621258D01*
X22458740Y-25925996D01*
X22461305Y-25933005D01*
X22588394Y-26224593D01*
X22591774Y-26231228D01*
X22752978Y-26505444D01*
X22757141Y-26511638D01*
X22909795Y-26711663D01*
X22921138Y-26719991D01*
X22933010Y-26713437D01*
X24633840Y-25012607D01*
X24640116Y-25001113D01*
X25358668Y-25001113D01*
X25358797Y-25002919D01*
X25362979Y-25009426D01*
X27065264Y-26711711D01*
X27078177Y-26718762D01*
X27088314Y-26711490D01*
X27194277Y-26581335D01*
X27198628Y-26575278D01*
X27368359Y-26306272D01*
X27371952Y-26299738D01*
X27508138Y-26012283D01*
X27510920Y-26005362D01*
X27611581Y-25703642D01*
X27613516Y-25696423D01*
X27677202Y-25384789D01*
X27678253Y-25377406D01*
X27704165Y-25058828D01*
X27704365Y-25054456D01*
X27704912Y-25002208D01*
X27704802Y-24997795D01*
X27685569Y-24678774D01*
X27684671Y-24671356D01*
X27627526Y-24358460D01*
X27625746Y-24351212D01*
X27548557Y-24102623D01*
X34774500Y-24102623D01*
X34774501Y-25897376D01*
X34781149Y-25958580D01*
X34831474Y-26092824D01*
X34917454Y-26207546D01*
X34924519Y-26212841D01*
X35025109Y-26288230D01*
X35025111Y-26288231D01*
X35032176Y-26293526D01*
X35040444Y-26296626D01*
X35040445Y-26296626D01*
X35066176Y-26306272D01*
X35166420Y-26343851D01*
X35227623Y-26350500D01*
X36124866Y-26350500D01*
X37022376Y-26350499D01*
X37083580Y-26343851D01*
X37217824Y-26293526D01*
X37224889Y-26288231D01*
X37224891Y-26288230D01*
X37325481Y-26212841D01*
X37332546Y-26207546D01*
X37418526Y-26092824D01*
X37468003Y-25960843D01*
X37509966Y-25904980D01*
X37575471Y-25880671D01*
X37643719Y-25895637D01*
X37671793Y-25916689D01*
X37793599Y-26038495D01*
X37798038Y-26041604D01*
X37798039Y-26041604D01*
X37961623Y-26156147D01*
X38005248Y-26210724D01*
X38014500Y-26257722D01*
X38014500Y-30333927D01*
X38013950Y-30345596D01*
X38013942Y-30345682D01*
X38012240Y-30353296D01*
X38012485Y-30361093D01*
X38012485Y-30361094D01*
X38014439Y-30423262D01*
X38014500Y-30427157D01*
X38014500Y-30455925D01*
X38014988Y-30459787D01*
X38015052Y-30460292D01*
X38015968Y-30471936D01*
X38017403Y-30517569D01*
X38019580Y-30525061D01*
X38019580Y-30525063D01*
X38023323Y-30537945D01*
X38027268Y-30556992D01*
X38029929Y-30578058D01*
X38032800Y-30585309D01*
X38032802Y-30585317D01*
X38046736Y-30620508D01*
X38050520Y-30631558D01*
X38063256Y-30675398D01*
X38067230Y-30682117D01*
X38067230Y-30682118D01*
X38074061Y-30693670D01*
X38082619Y-30711137D01*
X38090432Y-30730871D01*
X38095016Y-30737180D01*
X38117263Y-30767801D01*
X38123677Y-30777565D01*
X38146919Y-30816865D01*
X38161926Y-30831872D01*
X38174563Y-30846668D01*
X38187037Y-30863837D01*
X38193050Y-30868811D01*
X38222213Y-30892937D01*
X38230854Y-30900800D01*
X38982701Y-31652647D01*
X38990564Y-31661288D01*
X38990618Y-31661353D01*
X38994798Y-31667940D01*
X39000482Y-31673278D01*
X39000484Y-31673280D01*
X39045833Y-31715865D01*
X39048630Y-31718576D01*
X39068965Y-31738911D01*
X39072037Y-31741294D01*
X39072442Y-31741608D01*
X39081325Y-31749195D01*
X39114607Y-31780448D01*
X39121433Y-31784200D01*
X39121439Y-31784205D01*
X39133207Y-31790674D01*
X39149469Y-31801357D01*
X39160071Y-31809581D01*
X39160077Y-31809585D01*
X39166236Y-31814362D01*
X39189820Y-31824568D01*
X39208131Y-31832492D01*
X39218621Y-31837631D01*
X39244293Y-31851744D01*
X39258632Y-31859627D01*
X39279192Y-31864906D01*
X39297594Y-31871206D01*
X39317073Y-31879635D01*
X39324776Y-31880855D01*
X39324783Y-31880857D01*
X39362161Y-31886777D01*
X39373602Y-31889146D01*
X39410265Y-31898560D01*
X39410270Y-31898561D01*
X39417823Y-31900500D01*
X39439052Y-31900500D01*
X39458450Y-31902027D01*
X39479405Y-31905346D01*
X39487171Y-31904612D01*
X39487174Y-31904612D01*
X39524853Y-31901050D01*
X39536522Y-31900500D01*
X47399275Y-31900500D01*
X47466314Y-31920185D01*
X47512069Y-31972989D01*
X47522013Y-32042147D01*
X47506663Y-32086498D01*
X47468750Y-32152165D01*
X47455852Y-32191862D01*
X47427683Y-32278557D01*
X47413503Y-32322197D01*
X47394815Y-32500000D01*
X47413503Y-32677803D01*
X47468750Y-32847835D01*
X47558141Y-33002665D01*
X47677770Y-33135526D01*
X47822407Y-33240612D01*
X47985733Y-33313329D01*
X47992095Y-33314681D01*
X47992094Y-33314681D01*
X48154246Y-33349148D01*
X48154251Y-33349148D01*
X48160609Y-33350500D01*
X48167111Y-33350500D01*
X48172573Y-33351074D01*
X48237187Y-33377659D01*
X48277171Y-33434957D01*
X48279830Y-33504776D01*
X48244320Y-33564950D01*
X48232496Y-33574713D01*
X48177770Y-33614474D01*
X48058141Y-33747335D01*
X47968750Y-33902165D01*
X47913503Y-34072197D01*
X47894815Y-34250000D01*
X47913503Y-34427803D01*
X47968750Y-34597835D01*
X48058141Y-34752665D01*
X48177770Y-34885526D01*
X48322407Y-34990612D01*
X48328341Y-34993254D01*
X48479011Y-35060336D01*
X48485733Y-35063329D01*
X48655319Y-35099376D01*
X48700713Y-35123134D01*
X48702610Y-35120523D01*
X48708921Y-35125109D01*
X48714607Y-35130448D01*
X48721439Y-35134204D01*
X48721446Y-35134209D01*
X48733205Y-35140673D01*
X48749472Y-35151358D01*
X48766237Y-35164363D01*
X48773394Y-35167460D01*
X48773399Y-35167463D01*
X48808138Y-35182495D01*
X48818627Y-35187633D01*
X48858632Y-35209627D01*
X48879194Y-35214906D01*
X48897594Y-35221206D01*
X48917074Y-35229636D01*
X48924781Y-35230857D01*
X48924782Y-35230857D01*
X48962170Y-35236779D01*
X48973597Y-35239145D01*
X49017823Y-35250500D01*
X49039046Y-35250500D01*
X49058444Y-35252027D01*
X49079405Y-35255347D01*
X49078986Y-35257989D01*
X49133121Y-35275744D01*
X49177200Y-35329955D01*
X49184973Y-35399391D01*
X49153972Y-35462006D01*
X49113284Y-35491188D01*
X49078347Y-35506743D01*
X49078341Y-35506746D01*
X49072408Y-35509388D01*
X48927770Y-35614474D01*
X48808141Y-35747335D01*
X48718750Y-35902165D01*
X48706679Y-35939315D01*
X48673766Y-36040612D01*
X48663503Y-36072197D01*
X48644815Y-36250000D01*
X48663503Y-36427803D01*
X48665510Y-36433981D01*
X48665511Y-36433984D01*
X48684527Y-36492507D01*
X48718750Y-36597835D01*
X48808141Y-36752665D01*
X48812487Y-36757492D01*
X48812488Y-36757493D01*
X48852042Y-36801422D01*
X48927770Y-36885526D01*
X49072407Y-36990612D01*
X49078341Y-36993254D01*
X49203882Y-37049148D01*
X49235733Y-37063329D01*
X49242095Y-37064681D01*
X49242094Y-37064681D01*
X49404246Y-37099148D01*
X49404251Y-37099148D01*
X49410609Y-37100500D01*
X49589391Y-37100500D01*
X49595749Y-37099148D01*
X49595754Y-37099148D01*
X49757906Y-37064681D01*
X49757905Y-37064681D01*
X49764267Y-37063329D01*
X49796119Y-37049148D01*
X49921659Y-36993254D01*
X49927593Y-36990612D01*
X50072230Y-36885526D01*
X50147958Y-36801422D01*
X50187512Y-36757493D01*
X50187513Y-36757492D01*
X50191859Y-36752665D01*
X50281250Y-36597835D01*
X50315473Y-36492507D01*
X50334489Y-36433984D01*
X50334490Y-36433981D01*
X50336497Y-36427803D01*
X50355185Y-36250000D01*
X50342511Y-36129415D01*
X50355080Y-36060685D01*
X50402812Y-36009661D01*
X50470553Y-35992543D01*
X50538718Y-36016136D01*
X50567146Y-36036791D01*
X50567155Y-36036796D01*
X50572407Y-36040612D01*
X50578341Y-36043254D01*
X50729732Y-36110657D01*
X50735733Y-36113329D01*
X50742095Y-36114681D01*
X50742094Y-36114681D01*
X50904246Y-36149148D01*
X50904251Y-36149148D01*
X50910609Y-36150500D01*
X51027962Y-36150500D01*
X51095001Y-36170185D01*
X51140756Y-36222989D01*
X51151283Y-36261538D01*
X51163503Y-36377803D01*
X51165510Y-36383981D01*
X51165511Y-36383984D01*
X51173426Y-36408343D01*
X51218750Y-36547835D01*
X51221997Y-36553460D01*
X51221998Y-36553461D01*
X51247617Y-36597835D01*
X51308141Y-36702665D01*
X51312487Y-36707492D01*
X51312488Y-36707493D01*
X51366895Y-36767918D01*
X51427770Y-36835526D01*
X51572407Y-36940612D01*
X51578341Y-36943254D01*
X51720305Y-37006460D01*
X51735733Y-37013329D01*
X51742095Y-37014681D01*
X51742094Y-37014681D01*
X51904246Y-37049148D01*
X51904251Y-37049148D01*
X51910609Y-37050500D01*
X52089391Y-37050500D01*
X52095749Y-37049148D01*
X52095754Y-37049148D01*
X52257906Y-37014681D01*
X52257905Y-37014681D01*
X52264267Y-37013329D01*
X52279696Y-37006460D01*
X52421659Y-36943254D01*
X52427593Y-36940612D01*
X52501632Y-36886819D01*
X52519025Y-36874182D01*
X52584831Y-36850702D01*
X52591911Y-36850500D01*
X54629192Y-36850500D01*
X54696231Y-36870185D01*
X54716873Y-36886819D01*
X56121371Y-38291316D01*
X56154856Y-38352639D01*
X56157011Y-38366035D01*
X56163503Y-38427803D01*
X56218750Y-38597835D01*
X56221997Y-38603460D01*
X56221998Y-38603461D01*
X56231144Y-38619302D01*
X56308141Y-38752665D01*
X56427770Y-38885526D01*
X56572407Y-38990612D01*
X56578341Y-38993254D01*
X56696971Y-39046071D01*
X56735733Y-39063329D01*
X56762349Y-39068986D01*
X56904246Y-39099148D01*
X56904251Y-39099148D01*
X56910609Y-39100500D01*
X57089391Y-39100500D01*
X57095749Y-39099148D01*
X57095754Y-39099148D01*
X57237651Y-39068986D01*
X57264267Y-39063329D01*
X57303030Y-39046071D01*
X57327065Y-39035370D01*
X67115224Y-39035370D01*
X67116750Y-39046071D01*
X67130102Y-39050000D01*
X68269670Y-39050000D01*
X68284669Y-39045596D01*
X68285856Y-39044226D01*
X68287500Y-39036668D01*
X68287500Y-38217830D01*
X68283096Y-38202831D01*
X68281726Y-38201644D01*
X68274168Y-38200000D01*
X68138014Y-38200000D01*
X68132101Y-38200282D01*
X67984429Y-38214371D01*
X67972886Y-38216593D01*
X67782795Y-38272359D01*
X67771892Y-38276721D01*
X67595785Y-38367422D01*
X67585887Y-38373775D01*
X67430107Y-38496143D01*
X67421602Y-38504242D01*
X67291769Y-38653862D01*
X67284942Y-38663432D01*
X67185745Y-38834901D01*
X67180854Y-38845584D01*
X67115872Y-39032712D01*
X67115224Y-39035370D01*
X57327065Y-39035370D01*
X57421659Y-38993254D01*
X57427593Y-38990612D01*
X57572230Y-38885526D01*
X57691859Y-38752665D01*
X57744685Y-38661167D01*
X57795252Y-38612952D01*
X57836921Y-38600500D01*
X57839391Y-38600500D01*
X57845749Y-38599148D01*
X57845754Y-38599148D01*
X58007906Y-38564681D01*
X58007905Y-38564681D01*
X58014267Y-38563329D01*
X58028573Y-38556960D01*
X58177593Y-38490612D01*
X58178443Y-38492521D01*
X58236837Y-38478362D01*
X58302861Y-38501222D01*
X58323070Y-38519246D01*
X58427770Y-38635526D01*
X58572407Y-38740612D01*
X58578341Y-38743254D01*
X58610323Y-38757493D01*
X58735733Y-38813329D01*
X58742095Y-38814681D01*
X58742094Y-38814681D01*
X58904246Y-38849148D01*
X58904251Y-38849148D01*
X58910609Y-38850500D01*
X59089391Y-38850500D01*
X59095749Y-38849148D01*
X59095754Y-38849148D01*
X59257906Y-38814681D01*
X59257905Y-38814681D01*
X59264267Y-38813329D01*
X59389678Y-38757493D01*
X59421659Y-38743254D01*
X59427593Y-38740612D01*
X59572230Y-38635526D01*
X59691859Y-38502665D01*
X59769735Y-38367779D01*
X59778002Y-38353461D01*
X59778003Y-38353460D01*
X59781250Y-38347835D01*
X59816493Y-38239368D01*
X59834489Y-38183984D01*
X59834490Y-38183981D01*
X59836497Y-38177803D01*
X59855185Y-38000000D01*
X59836497Y-37822197D01*
X59781250Y-37652165D01*
X59771644Y-37635526D01*
X59695107Y-37502961D01*
X59691859Y-37497335D01*
X59572230Y-37364474D01*
X59427593Y-37259388D01*
X59385421Y-37240612D01*
X59270206Y-37189315D01*
X59270204Y-37189314D01*
X59264267Y-37186671D01*
X59237651Y-37181014D01*
X59095754Y-37150852D01*
X59095749Y-37150852D01*
X59089391Y-37149500D01*
X58910609Y-37149500D01*
X58904251Y-37150852D01*
X58904246Y-37150852D01*
X58762349Y-37181014D01*
X58735733Y-37186671D01*
X58572408Y-37259388D01*
X58571557Y-37257477D01*
X58513177Y-37271640D01*
X58447150Y-37248787D01*
X58426930Y-37230754D01*
X58322230Y-37114474D01*
X58177593Y-37009388D01*
X58014267Y-36936671D01*
X57849990Y-36901753D01*
X57788090Y-36868144D01*
X56249946Y-35330000D01*
X63644341Y-35330000D01*
X63644813Y-35335395D01*
X63650422Y-35399500D01*
X63664937Y-35565408D01*
X63666336Y-35570631D01*
X63666337Y-35570634D01*
X63697067Y-35685319D01*
X63726097Y-35793663D01*
X63728384Y-35798567D01*
X63728386Y-35798573D01*
X63792153Y-35935319D01*
X63825965Y-36007829D01*
X63829072Y-36012266D01*
X63829073Y-36012268D01*
X63958399Y-36196966D01*
X63958403Y-36196970D01*
X63961505Y-36201401D01*
X64128599Y-36368495D01*
X64322170Y-36504035D01*
X64536337Y-36603903D01*
X64620137Y-36626357D01*
X64759366Y-36663663D01*
X64759369Y-36663664D01*
X64764592Y-36665063D01*
X64769979Y-36665534D01*
X64769983Y-36665535D01*
X64994605Y-36685187D01*
X65000000Y-36685659D01*
X65005395Y-36685187D01*
X65230017Y-36665535D01*
X65230021Y-36665534D01*
X65235408Y-36665063D01*
X65240631Y-36663664D01*
X65240634Y-36663663D01*
X65379863Y-36626357D01*
X65463663Y-36603903D01*
X65677830Y-36504035D01*
X65871401Y-36368495D01*
X66038495Y-36201401D01*
X66041597Y-36196970D01*
X66041601Y-36196966D01*
X66170927Y-36012268D01*
X66170928Y-36012266D01*
X66174035Y-36007829D01*
X66207847Y-35935319D01*
X66271614Y-35798573D01*
X66271616Y-35798567D01*
X66273903Y-35793663D01*
X66302933Y-35685319D01*
X66333663Y-35570634D01*
X66333664Y-35570631D01*
X66335063Y-35565408D01*
X66349579Y-35399500D01*
X66355187Y-35335395D01*
X66355659Y-35330000D01*
X66348837Y-35252027D01*
X66335535Y-35099983D01*
X66335534Y-35099979D01*
X66335063Y-35094592D01*
X66327049Y-35064681D01*
X66289373Y-34924073D01*
X66273903Y-34866337D01*
X66271616Y-34861433D01*
X66271614Y-34861427D01*
X66176325Y-34657082D01*
X66174035Y-34652171D01*
X66131663Y-34591657D01*
X66041601Y-34463034D01*
X66041597Y-34463030D01*
X66038495Y-34458599D01*
X65871401Y-34291505D01*
X65685842Y-34161575D01*
X65642218Y-34106998D01*
X65635025Y-34037499D01*
X65666547Y-33975145D01*
X65685842Y-33958425D01*
X65774224Y-33896539D01*
X65871401Y-33828495D01*
X66038495Y-33661401D01*
X66041597Y-33656970D01*
X66041601Y-33656966D01*
X66170927Y-33472268D01*
X66170928Y-33472266D01*
X66174035Y-33467829D01*
X66229213Y-33349500D01*
X66271614Y-33258573D01*
X66271616Y-33258567D01*
X66273903Y-33253663D01*
X66306140Y-33133353D01*
X66333663Y-33030634D01*
X66333664Y-33030631D01*
X66335063Y-33025408D01*
X66336631Y-33007493D01*
X66355187Y-32795395D01*
X66355659Y-32790000D01*
X66335063Y-32554592D01*
X66318705Y-32493540D01*
X66275305Y-32331570D01*
X66273903Y-32326337D01*
X66271616Y-32321433D01*
X66271614Y-32321427D01*
X66176325Y-32117082D01*
X66174035Y-32112171D01*
X66148350Y-32075489D01*
X66041601Y-31923034D01*
X66041597Y-31923030D01*
X66038495Y-31918599D01*
X65916301Y-31796405D01*
X65882816Y-31735082D01*
X65887800Y-31665390D01*
X65929672Y-31609457D01*
X65960454Y-31592615D01*
X66084313Y-31546182D01*
X66099646Y-31537788D01*
X66200124Y-31462484D01*
X66212484Y-31450124D01*
X66287788Y-31349646D01*
X66296183Y-31334311D01*
X66340629Y-31215753D01*
X66344197Y-31200744D01*
X66349637Y-31150669D01*
X66350000Y-31143972D01*
X66350000Y-30517830D01*
X66345596Y-30502831D01*
X66344226Y-30501644D01*
X66336668Y-30500000D01*
X63667830Y-30500000D01*
X63652831Y-30504404D01*
X63651644Y-30505774D01*
X63650000Y-30513332D01*
X63650000Y-31143972D01*
X63650363Y-31150669D01*
X63655803Y-31200744D01*
X63659371Y-31215753D01*
X63703817Y-31334311D01*
X63712212Y-31349646D01*
X63787516Y-31450124D01*
X63799876Y-31462484D01*
X63900354Y-31537788D01*
X63915687Y-31546182D01*
X64039546Y-31592615D01*
X64095409Y-31634579D01*
X64119717Y-31700085D01*
X64104751Y-31768333D01*
X64083699Y-31796405D01*
X63961505Y-31918599D01*
X63958403Y-31923030D01*
X63958399Y-31923034D01*
X63851650Y-32075489D01*
X63825965Y-32112171D01*
X63823675Y-32117082D01*
X63728386Y-32321427D01*
X63728384Y-32321433D01*
X63726097Y-32326337D01*
X63724695Y-32331570D01*
X63681296Y-32493540D01*
X63664937Y-32554592D01*
X63644341Y-32790000D01*
X63644813Y-32795395D01*
X63663370Y-33007493D01*
X63664937Y-33025408D01*
X63666336Y-33030631D01*
X63666337Y-33030634D01*
X63693860Y-33133353D01*
X63726097Y-33253663D01*
X63728384Y-33258567D01*
X63728386Y-33258573D01*
X63770787Y-33349500D01*
X63825965Y-33467829D01*
X63829072Y-33472266D01*
X63829073Y-33472268D01*
X63958399Y-33656966D01*
X63958403Y-33656970D01*
X63961505Y-33661401D01*
X64128599Y-33828495D01*
X64225776Y-33896539D01*
X64314159Y-33958426D01*
X64357783Y-34013003D01*
X64364976Y-34082502D01*
X64333454Y-34144856D01*
X64314158Y-34161576D01*
X64133034Y-34288399D01*
X64133033Y-34288400D01*
X64128599Y-34291505D01*
X63961505Y-34458599D01*
X63958403Y-34463030D01*
X63958399Y-34463034D01*
X63868337Y-34591657D01*
X63825965Y-34652171D01*
X63823675Y-34657082D01*
X63728386Y-34861427D01*
X63728384Y-34861433D01*
X63726097Y-34866337D01*
X63710627Y-34924073D01*
X63672952Y-35064681D01*
X63664937Y-35094592D01*
X63664466Y-35099979D01*
X63664465Y-35099983D01*
X63651163Y-35252027D01*
X63644341Y-35330000D01*
X56249946Y-35330000D01*
X55957627Y-35037681D01*
X55924142Y-34976358D01*
X55929126Y-34906666D01*
X55957627Y-34862319D01*
X58402647Y-32417299D01*
X58411288Y-32409436D01*
X58411353Y-32409382D01*
X58417940Y-32405202D01*
X58465865Y-32354167D01*
X58468576Y-32351370D01*
X58488912Y-32331034D01*
X58491616Y-32327547D01*
X58499197Y-32318672D01*
X58525107Y-32291081D01*
X58525109Y-32291079D01*
X58530448Y-32285393D01*
X58540672Y-32266796D01*
X58551355Y-32250533D01*
X58559585Y-32239923D01*
X58559585Y-32239922D01*
X58564363Y-32233763D01*
X58582495Y-32191862D01*
X58587636Y-32181368D01*
X58600295Y-32158343D01*
X58609627Y-32141368D01*
X58614906Y-32120806D01*
X58621207Y-32102404D01*
X58622616Y-32099148D01*
X58629636Y-32082926D01*
X58633159Y-32060685D01*
X58636779Y-32037830D01*
X58639147Y-32026393D01*
X58650500Y-31982177D01*
X58650500Y-31960954D01*
X58652027Y-31941556D01*
X58654126Y-31928304D01*
X58655347Y-31920595D01*
X58653500Y-31901050D01*
X58651050Y-31875137D01*
X58650500Y-31863468D01*
X58650500Y-30570808D01*
X58670185Y-30503769D01*
X58686819Y-30483127D01*
X59232627Y-29937319D01*
X59293950Y-29903834D01*
X59320308Y-29901000D01*
X60608089Y-29901000D01*
X60675128Y-29920685D01*
X60680975Y-29924682D01*
X60772407Y-29991112D01*
X60935733Y-30063829D01*
X60942095Y-30065181D01*
X60942094Y-30065181D01*
X61104246Y-30099648D01*
X61104251Y-30099648D01*
X61110609Y-30101000D01*
X61289391Y-30101000D01*
X61295749Y-30099648D01*
X61295754Y-30099648D01*
X61457906Y-30065181D01*
X61457905Y-30065181D01*
X61464267Y-30063829D01*
X61627593Y-29991112D01*
X61639900Y-29982170D01*
X63650000Y-29982170D01*
X63654404Y-29997169D01*
X63655774Y-29998356D01*
X63663332Y-30000000D01*
X64732170Y-30000000D01*
X64747169Y-29995596D01*
X64748356Y-29994226D01*
X64750000Y-29986668D01*
X64750000Y-29982170D01*
X65250000Y-29982170D01*
X65254404Y-29997169D01*
X65255774Y-29998356D01*
X65263332Y-30000000D01*
X66332170Y-30000000D01*
X66347169Y-29995596D01*
X66348356Y-29994226D01*
X66350000Y-29986668D01*
X66350000Y-29356028D01*
X66349637Y-29349331D01*
X66344197Y-29299256D01*
X66340629Y-29284247D01*
X66296183Y-29165689D01*
X66287788Y-29150354D01*
X66212484Y-29049876D01*
X66200124Y-29037516D01*
X66099646Y-28962212D01*
X66084311Y-28953817D01*
X65965753Y-28909371D01*
X65950744Y-28905803D01*
X65900669Y-28900363D01*
X65893972Y-28900000D01*
X65267830Y-28900000D01*
X65252831Y-28904404D01*
X65251644Y-28905774D01*
X65250000Y-28913332D01*
X65250000Y-29982170D01*
X64750000Y-29982170D01*
X64750000Y-28917830D01*
X64745596Y-28902831D01*
X64744226Y-28901644D01*
X64736668Y-28900000D01*
X64106028Y-28900000D01*
X64099331Y-28900363D01*
X64049256Y-28905803D01*
X64034247Y-28909371D01*
X63915689Y-28953817D01*
X63900354Y-28962212D01*
X63799876Y-29037516D01*
X63787516Y-29049876D01*
X63712212Y-29150354D01*
X63703817Y-29165689D01*
X63659371Y-29284247D01*
X63655803Y-29299256D01*
X63650363Y-29349331D01*
X63650000Y-29356028D01*
X63650000Y-29982170D01*
X61639900Y-29982170D01*
X61772230Y-29886026D01*
X61863973Y-29784135D01*
X61887512Y-29757993D01*
X61887513Y-29757992D01*
X61891859Y-29753165D01*
X61960028Y-29635092D01*
X61978002Y-29603961D01*
X61978003Y-29603960D01*
X61981250Y-29598335D01*
X62023873Y-29467157D01*
X62034489Y-29434484D01*
X62034490Y-29434481D01*
X62036497Y-29428303D01*
X62055185Y-29250500D01*
X62036497Y-29072697D01*
X61981250Y-28902665D01*
X61891859Y-28747835D01*
X61772230Y-28614974D01*
X61627593Y-28509888D01*
X61464267Y-28437171D01*
X61437651Y-28431514D01*
X61295754Y-28401352D01*
X61295749Y-28401352D01*
X61289391Y-28400000D01*
X61110609Y-28400000D01*
X61104251Y-28401352D01*
X61104246Y-28401352D01*
X60962349Y-28431514D01*
X60935733Y-28437171D01*
X60772408Y-28509888D01*
X60767153Y-28513706D01*
X60767148Y-28513709D01*
X60680974Y-28576318D01*
X60615168Y-28599798D01*
X60608089Y-28600000D01*
X60156048Y-28600000D01*
X60089009Y-28580315D01*
X60043254Y-28527511D01*
X60033310Y-28458353D01*
X60062335Y-28394797D01*
X60069449Y-28387546D01*
X60072230Y-28385526D01*
X60076580Y-28380695D01*
X60187512Y-28257493D01*
X60187513Y-28257492D01*
X60191859Y-28252665D01*
X60281250Y-28097835D01*
X60336497Y-27927803D01*
X60355185Y-27750000D01*
X60336497Y-27572197D01*
X60328009Y-27546072D01*
X60309795Y-27490018D01*
X60281250Y-27402165D01*
X60191859Y-27247335D01*
X60072230Y-27114474D01*
X60022312Y-27078206D01*
X63281168Y-27078206D01*
X63288571Y-27088469D01*
X63430180Y-27202531D01*
X63436249Y-27206843D01*
X63706139Y-27375161D01*
X63712709Y-27378728D01*
X64000861Y-27513403D01*
X64007798Y-27516149D01*
X64310052Y-27615233D01*
X64317263Y-27617125D01*
X64629238Y-27679181D01*
X64636616Y-27680192D01*
X64953787Y-27704318D01*
X64961250Y-27704435D01*
X65279003Y-27690284D01*
X65286436Y-27689502D01*
X65600191Y-27637279D01*
X65607463Y-27635614D01*
X65912683Y-27546072D01*
X65919693Y-27543548D01*
X66211949Y-27417986D01*
X66218609Y-27414636D01*
X66493652Y-27254878D01*
X66499868Y-27250748D01*
X66712047Y-27090569D01*
X66720368Y-27079358D01*
X66713759Y-27067312D01*
X65012607Y-25366160D01*
X64998887Y-25358668D01*
X64997081Y-25358797D01*
X64990574Y-25362979D01*
X63288169Y-27065384D01*
X63281168Y-27078206D01*
X60022312Y-27078206D01*
X59927593Y-27009388D01*
X59764267Y-26936671D01*
X59710103Y-26925158D01*
X59595754Y-26900852D01*
X59595749Y-26900852D01*
X59589391Y-26899500D01*
X59410609Y-26899500D01*
X59404251Y-26900852D01*
X59404246Y-26900852D01*
X59289897Y-26925158D01*
X59235733Y-26936671D01*
X59072408Y-27009388D01*
X58927770Y-27114474D01*
X58808141Y-27247335D01*
X58718750Y-27402165D01*
X58690205Y-27490018D01*
X58671992Y-27546072D01*
X58663503Y-27572197D01*
X58662824Y-27578658D01*
X58657011Y-27633964D01*
X58630426Y-27698578D01*
X58621371Y-27708683D01*
X57546390Y-28783664D01*
X57485067Y-28817149D01*
X57415375Y-28812165D01*
X57359442Y-28770293D01*
X57335025Y-28704829D01*
X57336890Y-28677844D01*
X57336497Y-28677803D01*
X57354506Y-28506460D01*
X57355185Y-28500000D01*
X57336497Y-28322197D01*
X57281250Y-28152165D01*
X57191859Y-27997335D01*
X57072230Y-27864474D01*
X56927593Y-27759388D01*
X56813707Y-27708683D01*
X56770206Y-27689315D01*
X56770204Y-27689314D01*
X56764267Y-27686671D01*
X56721747Y-27677633D01*
X56595754Y-27650852D01*
X56595749Y-27650852D01*
X56589391Y-27649500D01*
X56410609Y-27649500D01*
X56404251Y-27650852D01*
X56404246Y-27650852D01*
X56278253Y-27677633D01*
X56235733Y-27686671D01*
X56072408Y-27759388D01*
X55927770Y-27864474D01*
X55808141Y-27997335D01*
X55718750Y-28152165D01*
X55663503Y-28322197D01*
X55644815Y-28500000D01*
X55663503Y-28677803D01*
X55718750Y-28847835D01*
X55808141Y-29002665D01*
X55812487Y-29007492D01*
X55812488Y-29007493D01*
X55817651Y-29013227D01*
X55847880Y-29076218D01*
X55849500Y-29096198D01*
X55849500Y-30179192D01*
X55829815Y-30246231D01*
X55813181Y-30266873D01*
X55516873Y-30563181D01*
X55455550Y-30596666D01*
X55429192Y-30599500D01*
X55091911Y-30599500D01*
X55024872Y-30579815D01*
X55019025Y-30575818D01*
X54932848Y-30513206D01*
X54927593Y-30509388D01*
X54916399Y-30504404D01*
X54770206Y-30439315D01*
X54770204Y-30439314D01*
X54764267Y-30436671D01*
X54737651Y-30431014D01*
X54595754Y-30400852D01*
X54595749Y-30400852D01*
X54589391Y-30399500D01*
X54410609Y-30399500D01*
X54404251Y-30400852D01*
X54404246Y-30400852D01*
X54262349Y-30431014D01*
X54235733Y-30436671D01*
X54072408Y-30509388D01*
X53927770Y-30614474D01*
X53860991Y-30688640D01*
X53857778Y-30692208D01*
X53798291Y-30728857D01*
X53728434Y-30727526D01*
X53670386Y-30688640D01*
X53646552Y-30643831D01*
X53641677Y-30627051D01*
X53637731Y-30607997D01*
X53637168Y-30603544D01*
X53635071Y-30586942D01*
X53618261Y-30544484D01*
X53614483Y-30533448D01*
X53606725Y-30506746D01*
X53601744Y-30489602D01*
X53597775Y-30482891D01*
X53597773Y-30482886D01*
X53590939Y-30471330D01*
X53582380Y-30453860D01*
X53577437Y-30441376D01*
X53574568Y-30434129D01*
X53547737Y-30397199D01*
X53541323Y-30387435D01*
X53522053Y-30354852D01*
X53518081Y-30348135D01*
X53503074Y-30333128D01*
X53490437Y-30318332D01*
X53482550Y-30307477D01*
X53477963Y-30301163D01*
X53442787Y-30272063D01*
X53434146Y-30264200D01*
X53017299Y-29847353D01*
X53009436Y-29838712D01*
X53009382Y-29838647D01*
X53005202Y-29832060D01*
X52999518Y-29826722D01*
X52999516Y-29826720D01*
X52954167Y-29784135D01*
X52951370Y-29781424D01*
X52931035Y-29761089D01*
X52927556Y-29758391D01*
X52918672Y-29750803D01*
X52891075Y-29724888D01*
X52885393Y-29719552D01*
X52878567Y-29715800D01*
X52878561Y-29715795D01*
X52866793Y-29709326D01*
X52850531Y-29698643D01*
X52839935Y-29690424D01*
X52839931Y-29690421D01*
X52833764Y-29685638D01*
X52791871Y-29667509D01*
X52781378Y-29662369D01*
X52748202Y-29644130D01*
X52741368Y-29640373D01*
X52733819Y-29638435D01*
X52733812Y-29638432D01*
X52720802Y-29635092D01*
X52702398Y-29628791D01*
X52682926Y-29620365D01*
X52675223Y-29619145D01*
X52675220Y-29619144D01*
X52637837Y-29613223D01*
X52626399Y-29610854D01*
X52606406Y-29605721D01*
X52582177Y-29599500D01*
X52560954Y-29599500D01*
X52541555Y-29597973D01*
X52535450Y-29597006D01*
X52520595Y-29594653D01*
X52512830Y-29595387D01*
X52512828Y-29595387D01*
X52475140Y-29598950D01*
X52463470Y-29599500D01*
X42320808Y-29599500D01*
X42253769Y-29579815D01*
X42233127Y-29563181D01*
X41891819Y-29221873D01*
X41858334Y-29160550D01*
X41855500Y-29134192D01*
X41855500Y-26257722D01*
X41875185Y-26190683D01*
X41908377Y-26156147D01*
X42071961Y-26041604D01*
X42071962Y-26041604D01*
X42076401Y-26038495D01*
X42243495Y-25871401D01*
X42246597Y-25866970D01*
X42246601Y-25866966D01*
X42336001Y-25739288D01*
X42373731Y-25685404D01*
X42428307Y-25641780D01*
X42497805Y-25634586D01*
X42560160Y-25666109D01*
X42576880Y-25685404D01*
X42703788Y-25866648D01*
X42710719Y-25874907D01*
X42870091Y-26034279D01*
X42878357Y-26041215D01*
X43062992Y-26170498D01*
X43072324Y-26175886D01*
X43276603Y-26271143D01*
X43286736Y-26274832D01*
X43477779Y-26326022D01*
X43491653Y-26325691D01*
X43495000Y-26317875D01*
X43495000Y-26312806D01*
X43995000Y-26312806D01*
X43998910Y-26326123D01*
X44007326Y-26327333D01*
X44203264Y-26274832D01*
X44213397Y-26271143D01*
X44417676Y-26175886D01*
X44427008Y-26170498D01*
X44611643Y-26041215D01*
X44619909Y-26034279D01*
X44779281Y-25874907D01*
X44786212Y-25866648D01*
X44913120Y-25685404D01*
X44967697Y-25641780D01*
X45037196Y-25634587D01*
X45099550Y-25666109D01*
X45116269Y-25685403D01*
X45153999Y-25739288D01*
X45243399Y-25866966D01*
X45243403Y-25866970D01*
X45246505Y-25871401D01*
X45413599Y-26038495D01*
X45607170Y-26174035D01*
X45821337Y-26273903D01*
X45874807Y-26288230D01*
X46044366Y-26333663D01*
X46044369Y-26333664D01*
X46049592Y-26335063D01*
X46054979Y-26335534D01*
X46054983Y-26335535D01*
X46279605Y-26355187D01*
X46285000Y-26355659D01*
X46290395Y-26355187D01*
X46515017Y-26335535D01*
X46515021Y-26335534D01*
X46520408Y-26335063D01*
X46525631Y-26333664D01*
X46525634Y-26333663D01*
X46695193Y-26288230D01*
X46748663Y-26273903D01*
X46962830Y-26174035D01*
X47156401Y-26038495D01*
X47323495Y-25871401D01*
X47326597Y-25866970D01*
X47326601Y-25866966D01*
X47453425Y-25685841D01*
X47508002Y-25642216D01*
X47577500Y-25635022D01*
X47639855Y-25666545D01*
X47656575Y-25685841D01*
X47783399Y-25866966D01*
X47783403Y-25866970D01*
X47786505Y-25871401D01*
X47953599Y-26038495D01*
X48147170Y-26174035D01*
X48361337Y-26273903D01*
X48414807Y-26288230D01*
X48584366Y-26333663D01*
X48584369Y-26333664D01*
X48589592Y-26335063D01*
X48594979Y-26335534D01*
X48594983Y-26335535D01*
X48819605Y-26355187D01*
X48825000Y-26355659D01*
X48830395Y-26355187D01*
X49055017Y-26335535D01*
X49055021Y-26335534D01*
X49060408Y-26335063D01*
X49065631Y-26333664D01*
X49065634Y-26333663D01*
X49235193Y-26288230D01*
X49288663Y-26273903D01*
X49502830Y-26174035D01*
X49696401Y-26038495D01*
X49863495Y-25871401D01*
X49866597Y-25866970D01*
X49866601Y-25866966D01*
X49993425Y-25685841D01*
X50048002Y-25642216D01*
X50117500Y-25635022D01*
X50179855Y-25666545D01*
X50196575Y-25685841D01*
X50323399Y-25866966D01*
X50323403Y-25866970D01*
X50326505Y-25871401D01*
X50493599Y-26038495D01*
X50687170Y-26174035D01*
X50901337Y-26273903D01*
X50954807Y-26288230D01*
X51124366Y-26333663D01*
X51124369Y-26333664D01*
X51129592Y-26335063D01*
X51134979Y-26335534D01*
X51134983Y-26335535D01*
X51359605Y-26355187D01*
X51365000Y-26355659D01*
X51370395Y-26355187D01*
X51595017Y-26335535D01*
X51595021Y-26335534D01*
X51600408Y-26335063D01*
X51605631Y-26333664D01*
X51605634Y-26333663D01*
X51672990Y-26315615D01*
X51742840Y-26317278D01*
X51792764Y-26347709D01*
X53109175Y-27664120D01*
X53142660Y-27725443D01*
X53145055Y-27747717D01*
X53144815Y-27750000D01*
X53163503Y-27927803D01*
X53218750Y-28097835D01*
X53308141Y-28252665D01*
X53427770Y-28385526D01*
X53572407Y-28490612D01*
X53735733Y-28563329D01*
X53742095Y-28564681D01*
X53742094Y-28564681D01*
X53904246Y-28599148D01*
X53904251Y-28599148D01*
X53910609Y-28600500D01*
X54089391Y-28600500D01*
X54095749Y-28599148D01*
X54095754Y-28599148D01*
X54257906Y-28564681D01*
X54257905Y-28564681D01*
X54264267Y-28563329D01*
X54427593Y-28490612D01*
X54572230Y-28385526D01*
X54691859Y-28252665D01*
X54781250Y-28097835D01*
X54836497Y-27927803D01*
X54855185Y-27750000D01*
X54836497Y-27572197D01*
X54828009Y-27546072D01*
X54809795Y-27490018D01*
X54781250Y-27402165D01*
X54691859Y-27247335D01*
X54572230Y-27114474D01*
X54427593Y-27009388D01*
X54264267Y-26936671D01*
X54246030Y-26932795D01*
X54184132Y-26899186D01*
X53849908Y-26564962D01*
X53816423Y-26503639D01*
X53821407Y-26433947D01*
X53863279Y-26378014D01*
X53926781Y-26353753D01*
X54039963Y-26343851D01*
X54135016Y-26335535D01*
X54135019Y-26335535D01*
X54140408Y-26335063D01*
X54145631Y-26333664D01*
X54145634Y-26333663D01*
X54315193Y-26288230D01*
X54368663Y-26273903D01*
X54582830Y-26174035D01*
X54776401Y-26038495D01*
X54943495Y-25871401D01*
X54946597Y-25866970D01*
X54946601Y-25866966D01*
X55075927Y-25682268D01*
X55075928Y-25682266D01*
X55079035Y-25677829D01*
X55108805Y-25613988D01*
X55176614Y-25468573D01*
X55176616Y-25468567D01*
X55178903Y-25463663D01*
X55240063Y-25235408D01*
X55260659Y-25000000D01*
X55258507Y-24975399D01*
X62295398Y-24975399D01*
X62311214Y-25293095D01*
X62312033Y-25300506D01*
X62365899Y-25613988D01*
X62367604Y-25621258D01*
X62458740Y-25925996D01*
X62461305Y-25933005D01*
X62588394Y-26224593D01*
X62591774Y-26231228D01*
X62752978Y-26505444D01*
X62757141Y-26511638D01*
X62909795Y-26711663D01*
X62921138Y-26719991D01*
X62933010Y-26713437D01*
X64633840Y-25012607D01*
X64640116Y-25001113D01*
X65358668Y-25001113D01*
X65358797Y-25002919D01*
X65362979Y-25009426D01*
X67065264Y-26711711D01*
X67078177Y-26718762D01*
X67088314Y-26711490D01*
X67194277Y-26581335D01*
X67198628Y-26575278D01*
X67368359Y-26306272D01*
X67371952Y-26299738D01*
X67508138Y-26012283D01*
X67510920Y-26005362D01*
X67611581Y-25703642D01*
X67613516Y-25696423D01*
X67677202Y-25384789D01*
X67678253Y-25377406D01*
X67704165Y-25058828D01*
X67704365Y-25054456D01*
X67704912Y-25002208D01*
X67704802Y-24997795D01*
X67685569Y-24678774D01*
X67684671Y-24671356D01*
X67627526Y-24358460D01*
X67625746Y-24351212D01*
X67531424Y-24047445D01*
X67528787Y-24040465D01*
X67398654Y-23750229D01*
X67395192Y-23743607D01*
X67231135Y-23471109D01*
X67226912Y-23464964D01*
X67089635Y-23288941D01*
X67078030Y-23280606D01*
X67066505Y-23287048D01*
X65366160Y-24987393D01*
X65358668Y-25001113D01*
X64640116Y-25001113D01*
X64641332Y-24998887D01*
X64641203Y-24997081D01*
X64637021Y-24990574D01*
X62934442Y-23287995D01*
X62921714Y-23281045D01*
X62911320Y-23288584D01*
X62789288Y-23441724D01*
X62784992Y-23447837D01*
X62618089Y-23718605D01*
X62614572Y-23725163D01*
X62481401Y-24014035D01*
X62478690Y-24020989D01*
X62381190Y-24323757D01*
X62379336Y-24330978D01*
X62318916Y-24643264D01*
X62317942Y-24650664D01*
X62295477Y-24967950D01*
X62295398Y-24975399D01*
X55258507Y-24975399D01*
X55240063Y-24764592D01*
X55217069Y-24678774D01*
X55180305Y-24541570D01*
X55178903Y-24536337D01*
X55176616Y-24531433D01*
X55176614Y-24531427D01*
X55081325Y-24327082D01*
X55079035Y-24322171D01*
X55073425Y-24314159D01*
X54946601Y-24133034D01*
X54946597Y-24133030D01*
X54943495Y-24128599D01*
X54776401Y-23961505D01*
X54582830Y-23825965D01*
X54368663Y-23726097D01*
X54283859Y-23703374D01*
X54145634Y-23666337D01*
X54145631Y-23666336D01*
X54140408Y-23664937D01*
X54135021Y-23664466D01*
X54135017Y-23664465D01*
X53910395Y-23644813D01*
X53905000Y-23644341D01*
X53899605Y-23644813D01*
X53674983Y-23664465D01*
X53674979Y-23664466D01*
X53669592Y-23664937D01*
X53664369Y-23666336D01*
X53664366Y-23666337D01*
X53526141Y-23703374D01*
X53441337Y-23726097D01*
X53436433Y-23728384D01*
X53436427Y-23728386D01*
X53310390Y-23787159D01*
X53227171Y-23825965D01*
X53222734Y-23829072D01*
X53222732Y-23829073D01*
X53038034Y-23958399D01*
X53038033Y-23958400D01*
X53033599Y-23961505D01*
X52866505Y-24128599D01*
X52863403Y-24133030D01*
X52863399Y-24133034D01*
X52736575Y-24314159D01*
X52681998Y-24357784D01*
X52612500Y-24364978D01*
X52550145Y-24333455D01*
X52533425Y-24314159D01*
X52406601Y-24133034D01*
X52406597Y-24133030D01*
X52403495Y-24128599D01*
X52236401Y-23961505D01*
X52042830Y-23825965D01*
X51828663Y-23726097D01*
X51743859Y-23703374D01*
X51605634Y-23666337D01*
X51605631Y-23666336D01*
X51600408Y-23664937D01*
X51595021Y-23664466D01*
X51595017Y-23664465D01*
X51370395Y-23644813D01*
X51365000Y-23644341D01*
X51359605Y-23644813D01*
X51134983Y-23664465D01*
X51134979Y-23664466D01*
X51129592Y-23664937D01*
X51124369Y-23666336D01*
X51124366Y-23666337D01*
X50986141Y-23703374D01*
X50901337Y-23726097D01*
X50896433Y-23728384D01*
X50896427Y-23728386D01*
X50770390Y-23787159D01*
X50687171Y-23825965D01*
X50682734Y-23829072D01*
X50682732Y-23829073D01*
X50498034Y-23958399D01*
X50498033Y-23958400D01*
X50493599Y-23961505D01*
X50326505Y-24128599D01*
X50323403Y-24133030D01*
X50323399Y-24133034D01*
X50196575Y-24314159D01*
X50141998Y-24357784D01*
X50072500Y-24364978D01*
X50010145Y-24333455D01*
X49993425Y-24314159D01*
X49866601Y-24133034D01*
X49866597Y-24133030D01*
X49863495Y-24128599D01*
X49696401Y-23961505D01*
X49502830Y-23825965D01*
X49288663Y-23726097D01*
X49203859Y-23703374D01*
X49065634Y-23666337D01*
X49065631Y-23666336D01*
X49060408Y-23664937D01*
X49055021Y-23664466D01*
X49055017Y-23664465D01*
X48830395Y-23644813D01*
X48825000Y-23644341D01*
X48819605Y-23644813D01*
X48594983Y-23664465D01*
X48594979Y-23664466D01*
X48589592Y-23664937D01*
X48584369Y-23666336D01*
X48584366Y-23666337D01*
X48446141Y-23703374D01*
X48361337Y-23726097D01*
X48356433Y-23728384D01*
X48356427Y-23728386D01*
X48230390Y-23787159D01*
X48147171Y-23825965D01*
X48142734Y-23829072D01*
X48142732Y-23829073D01*
X47958034Y-23958399D01*
X47958033Y-23958400D01*
X47953599Y-23961505D01*
X47786505Y-24128599D01*
X47783403Y-24133030D01*
X47783399Y-24133034D01*
X47656575Y-24314159D01*
X47601998Y-24357784D01*
X47532500Y-24364978D01*
X47470145Y-24333455D01*
X47453425Y-24314159D01*
X47326601Y-24133034D01*
X47326597Y-24133030D01*
X47323495Y-24128599D01*
X47156401Y-23961505D01*
X46962830Y-23825965D01*
X46748663Y-23726097D01*
X46663859Y-23703374D01*
X46525634Y-23666337D01*
X46525631Y-23666336D01*
X46520408Y-23664937D01*
X46515021Y-23664466D01*
X46515017Y-23664465D01*
X46290395Y-23644813D01*
X46285000Y-23644341D01*
X46279605Y-23644813D01*
X46054983Y-23664465D01*
X46054979Y-23664466D01*
X46049592Y-23664937D01*
X46044369Y-23666336D01*
X46044366Y-23666337D01*
X45906141Y-23703374D01*
X45821337Y-23726097D01*
X45816433Y-23728384D01*
X45816427Y-23728386D01*
X45690390Y-23787159D01*
X45607171Y-23825965D01*
X45602734Y-23829072D01*
X45602732Y-23829073D01*
X45418034Y-23958399D01*
X45418033Y-23958400D01*
X45413599Y-23961505D01*
X45246505Y-24128599D01*
X45243403Y-24133030D01*
X45243399Y-24133034D01*
X45116270Y-24314595D01*
X45061693Y-24358220D01*
X44992195Y-24365414D01*
X44929840Y-24333891D01*
X44913120Y-24314596D01*
X44786212Y-24133352D01*
X44779281Y-24125093D01*
X44619909Y-23965721D01*
X44611643Y-23958785D01*
X44427008Y-23829502D01*
X44417676Y-23824114D01*
X44213397Y-23728857D01*
X44203264Y-23725168D01*
X44012221Y-23673978D01*
X43998347Y-23674309D01*
X43995000Y-23682125D01*
X43995000Y-26312806D01*
X43495000Y-26312806D01*
X43495000Y-23687194D01*
X43491090Y-23673877D01*
X43482674Y-23672667D01*
X43286736Y-23725168D01*
X43276603Y-23728857D01*
X43072333Y-23824110D01*
X43062983Y-23829508D01*
X42878357Y-23958784D01*
X42870093Y-23965719D01*
X42710719Y-24125093D01*
X42703788Y-24133352D01*
X42576880Y-24314596D01*
X42522303Y-24358220D01*
X42452804Y-24365413D01*
X42390450Y-24333891D01*
X42373730Y-24314595D01*
X42246601Y-24133034D01*
X42246597Y-24133030D01*
X42243495Y-24128599D01*
X42076401Y-23961505D01*
X41882830Y-23825965D01*
X41668663Y-23726097D01*
X41583859Y-23703374D01*
X41445634Y-23666337D01*
X41445631Y-23666336D01*
X41440408Y-23664937D01*
X41435021Y-23664466D01*
X41435017Y-23664465D01*
X41210395Y-23644813D01*
X41205000Y-23644341D01*
X41199605Y-23644813D01*
X40974983Y-23664465D01*
X40974979Y-23664466D01*
X40969592Y-23664937D01*
X40964369Y-23666336D01*
X40964366Y-23666337D01*
X40826141Y-23703374D01*
X40741337Y-23726097D01*
X40736433Y-23728384D01*
X40736427Y-23728386D01*
X40610390Y-23787159D01*
X40527171Y-23825965D01*
X40522734Y-23829072D01*
X40522732Y-23829073D01*
X40338034Y-23958399D01*
X40338033Y-23958400D01*
X40333599Y-23961505D01*
X40166505Y-24128599D01*
X40163403Y-24133030D01*
X40163399Y-24133034D01*
X40036575Y-24314159D01*
X39981998Y-24357784D01*
X39912500Y-24364978D01*
X39850145Y-24333455D01*
X39833425Y-24314159D01*
X39706601Y-24133034D01*
X39706597Y-24133030D01*
X39703495Y-24128599D01*
X39536401Y-23961505D01*
X39342830Y-23825965D01*
X39128663Y-23726097D01*
X39043859Y-23703374D01*
X38905634Y-23666337D01*
X38905631Y-23666336D01*
X38900408Y-23664937D01*
X38895021Y-23664466D01*
X38895017Y-23664465D01*
X38670395Y-23644813D01*
X38665000Y-23644341D01*
X38659605Y-23644813D01*
X38434983Y-23664465D01*
X38434979Y-23664466D01*
X38429592Y-23664937D01*
X38424369Y-23666336D01*
X38424366Y-23666337D01*
X38286141Y-23703374D01*
X38201337Y-23726097D01*
X38196433Y-23728384D01*
X38196427Y-23728386D01*
X38070390Y-23787159D01*
X37987171Y-23825965D01*
X37982734Y-23829072D01*
X37982732Y-23829073D01*
X37798034Y-23958399D01*
X37798033Y-23958400D01*
X37793599Y-23961505D01*
X37671793Y-24083311D01*
X37610470Y-24116796D01*
X37540778Y-24111812D01*
X37484845Y-24069940D01*
X37468002Y-24039156D01*
X37421627Y-23915447D01*
X37421626Y-23915445D01*
X37418526Y-23907176D01*
X37332546Y-23792454D01*
X37267370Y-23743607D01*
X37224891Y-23711770D01*
X37224889Y-23711769D01*
X37217824Y-23706474D01*
X37083580Y-23656149D01*
X37022377Y-23649500D01*
X36125134Y-23649500D01*
X35227624Y-23649501D01*
X35166420Y-23656149D01*
X35032176Y-23706474D01*
X35025111Y-23711769D01*
X35025109Y-23711770D01*
X34982630Y-23743607D01*
X34917454Y-23792454D01*
X34831474Y-23907176D01*
X34781149Y-24041420D01*
X34774500Y-24102623D01*
X27548557Y-24102623D01*
X27531424Y-24047445D01*
X27528787Y-24040465D01*
X27398654Y-23750229D01*
X27395192Y-23743607D01*
X27231135Y-23471109D01*
X27226912Y-23464964D01*
X27089635Y-23288941D01*
X27078030Y-23280606D01*
X27066505Y-23287048D01*
X25366160Y-24987393D01*
X25358668Y-25001113D01*
X24640116Y-25001113D01*
X24641332Y-24998887D01*
X24641203Y-24997081D01*
X24637021Y-24990574D01*
X22934442Y-23287995D01*
X22921714Y-23281045D01*
X22911320Y-23288584D01*
X22789288Y-23441724D01*
X22784992Y-23447837D01*
X22618089Y-23718605D01*
X22614572Y-23725163D01*
X22481401Y-24014035D01*
X22478690Y-24020989D01*
X22381190Y-24323757D01*
X22379336Y-24330978D01*
X22318916Y-24643264D01*
X22317942Y-24650664D01*
X22295477Y-24967950D01*
X22295398Y-24975399D01*
X20500500Y-24975399D01*
X20500500Y-23052405D01*
X20502219Y-23031832D01*
X20502725Y-23028824D01*
X20505496Y-23012354D01*
X20505647Y-23000000D01*
X20503816Y-22987215D01*
X20502789Y-22962150D01*
X20505243Y-22921580D01*
X23280334Y-22921580D01*
X23286834Y-22933281D01*
X24987393Y-24633840D01*
X25001113Y-24641332D01*
X25002919Y-24641203D01*
X25009426Y-24637021D01*
X26712231Y-22934216D01*
X26719130Y-22921581D01*
X26719129Y-22921580D01*
X63280334Y-22921580D01*
X63286834Y-22933281D01*
X64987393Y-24633840D01*
X65001113Y-24641332D01*
X65002919Y-24641203D01*
X65009426Y-24637021D01*
X66712231Y-22934216D01*
X66719130Y-22921581D01*
X66711459Y-22911062D01*
X66546675Y-22781156D01*
X66540552Y-22776901D01*
X66268915Y-22611417D01*
X66262317Y-22607924D01*
X65972767Y-22476274D01*
X65965796Y-22473598D01*
X65662528Y-22377686D01*
X65655290Y-22375868D01*
X65342693Y-22317085D01*
X65335291Y-22316150D01*
X65017877Y-22295345D01*
X65010446Y-22295307D01*
X64692835Y-22312786D01*
X64685415Y-22313644D01*
X64372221Y-22369152D01*
X64364972Y-22370892D01*
X64060713Y-22463622D01*
X64053717Y-22466224D01*
X63762805Y-22594835D01*
X63756165Y-22598263D01*
X63482819Y-22760886D01*
X63476641Y-22765084D01*
X63288666Y-22910107D01*
X63280334Y-22921580D01*
X26719129Y-22921580D01*
X26711459Y-22911062D01*
X26546675Y-22781156D01*
X26540552Y-22776901D01*
X26268915Y-22611417D01*
X26262317Y-22607924D01*
X25972767Y-22476274D01*
X25965796Y-22473598D01*
X25662528Y-22377686D01*
X25655290Y-22375868D01*
X25342693Y-22317085D01*
X25335291Y-22316150D01*
X25017877Y-22295345D01*
X25010446Y-22295307D01*
X24692835Y-22312786D01*
X24685415Y-22313644D01*
X24372221Y-22369152D01*
X24364972Y-22370892D01*
X24060713Y-22463622D01*
X24053717Y-22466224D01*
X23762805Y-22594835D01*
X23756165Y-22598263D01*
X23482819Y-22760886D01*
X23476641Y-22765084D01*
X23288666Y-22910107D01*
X23280334Y-22921580D01*
X20505243Y-22921580D01*
X20513995Y-22776901D01*
X20518271Y-22706204D01*
X20520076Y-22691341D01*
X20571780Y-22409202D01*
X20575364Y-22394663D01*
X20580655Y-22377686D01*
X20660694Y-22120831D01*
X20666003Y-22106831D01*
X20783725Y-21845263D01*
X20790684Y-21832004D01*
X20939072Y-21586540D01*
X20947578Y-21574217D01*
X21124473Y-21348427D01*
X21134403Y-21337219D01*
X21337219Y-21134403D01*
X21348427Y-21124473D01*
X21574217Y-20947578D01*
X21586540Y-20939072D01*
X21832004Y-20790684D01*
X21845263Y-20783725D01*
X22106831Y-20666003D01*
X22120831Y-20660694D01*
X22136233Y-20655894D01*
X22394668Y-20575363D01*
X22409202Y-20571780D01*
X22691344Y-20520076D01*
X22706202Y-20518271D01*
X22958575Y-20503006D01*
X22984948Y-20504248D01*
X22985092Y-20504250D01*
X22993823Y-20505609D01*
X23024887Y-20501547D01*
X23040964Y-20500500D01*
X66951413Y-20500500D01*
X66970489Y-20501976D01*
G37*
%TD.AperFunction*%
%TA.AperFunction,Conductor*%
G36*
X53855703Y-31806905D02*
G01*
X53866645Y-31817640D01*
X53927770Y-31885526D01*
X54072407Y-31990612D01*
X54078341Y-31993254D01*
X54207723Y-32050858D01*
X54235733Y-32063329D01*
X54242095Y-32064681D01*
X54242094Y-32064681D01*
X54404246Y-32099148D01*
X54404251Y-32099148D01*
X54410609Y-32100500D01*
X54589391Y-32100500D01*
X54595749Y-32099148D01*
X54595754Y-32099148D01*
X54757906Y-32064681D01*
X54757905Y-32064681D01*
X54764267Y-32063329D01*
X54792278Y-32050858D01*
X54921659Y-31993254D01*
X54927593Y-31990612D01*
X54968413Y-31960954D01*
X55019025Y-31924182D01*
X55084831Y-31900702D01*
X55091911Y-31900500D01*
X55668927Y-31900500D01*
X55680596Y-31901050D01*
X55680682Y-31901058D01*
X55688296Y-31902760D01*
X55696093Y-31902515D01*
X55696094Y-31902515D01*
X55758262Y-31900561D01*
X55762157Y-31900500D01*
X55780192Y-31900500D01*
X55847231Y-31920185D01*
X55892986Y-31972989D01*
X55902930Y-32042147D01*
X55873905Y-32105703D01*
X55867873Y-32112181D01*
X54666873Y-33313181D01*
X54605550Y-33346666D01*
X54579192Y-33349500D01*
X53656604Y-33349500D01*
X53589565Y-33329815D01*
X53543810Y-33277011D01*
X53533866Y-33207853D01*
X53562891Y-33144297D01*
X53569677Y-33137381D01*
X53572230Y-33135526D01*
X53576573Y-33130703D01*
X53576576Y-33130700D01*
X53687512Y-33007493D01*
X53687513Y-33007492D01*
X53691859Y-33002665D01*
X53781250Y-32847835D01*
X53836497Y-32677803D01*
X53855185Y-32500000D01*
X53836497Y-32322197D01*
X53822318Y-32278557D01*
X53794148Y-32191862D01*
X53781250Y-32152165D01*
X53775017Y-32141368D01*
X53695107Y-32002961D01*
X53691859Y-31997335D01*
X53685012Y-31989730D01*
X53682349Y-31986773D01*
X53652120Y-31923782D01*
X53650500Y-31903802D01*
X53650500Y-31900618D01*
X53670185Y-31833579D01*
X53722989Y-31787824D01*
X53792147Y-31777880D01*
X53855703Y-31806905D01*
G37*
%TD.AperFunction*%
%TA.AperFunction,Conductor*%
G36*
X51225128Y-31920185D02*
G01*
X51230975Y-31924182D01*
X51281587Y-31960954D01*
X51322407Y-31990612D01*
X51328341Y-31993254D01*
X51457723Y-32050858D01*
X51485733Y-32063329D01*
X51492095Y-32064681D01*
X51492094Y-32064681D01*
X51654246Y-32099148D01*
X51654251Y-32099148D01*
X51660609Y-32100500D01*
X51839391Y-32100500D01*
X51845749Y-32099148D01*
X51845754Y-32099148D01*
X52007906Y-32064681D01*
X52007905Y-32064681D01*
X52014267Y-32063329D01*
X52032651Y-32055144D01*
X52101901Y-32045860D01*
X52165178Y-32075489D01*
X52202390Y-32134624D01*
X52201017Y-32206742D01*
X52177683Y-32278557D01*
X52163503Y-32322197D01*
X52144815Y-32500000D01*
X52163503Y-32677803D01*
X52218750Y-32847835D01*
X52308141Y-33002665D01*
X52312487Y-33007492D01*
X52312488Y-33007493D01*
X52423424Y-33130700D01*
X52423427Y-33130703D01*
X52427579Y-33135314D01*
X52427770Y-33135526D01*
X52427731Y-33135561D01*
X52463018Y-33192841D01*
X52461685Y-33262698D01*
X52422797Y-33320745D01*
X52358699Y-33348552D01*
X52343396Y-33349500D01*
X50720808Y-33349500D01*
X50653769Y-33329815D01*
X50633127Y-33313181D01*
X49432127Y-32112181D01*
X49398642Y-32050858D01*
X49403626Y-31981166D01*
X49445498Y-31925233D01*
X49510962Y-31900816D01*
X49519808Y-31900500D01*
X51158089Y-31900500D01*
X51225128Y-31920185D01*
G37*
%TD.AperFunction*%
%TD*%
M02*
